<?xml version="1.0" encoding="utf-8"?>
<!-- Generator: Adobe Illustrator 16.0.4, SVG Export Plug-In . SVG Version: 6.00 Build 0)  -->
<!DOCTYPE svg PUBLIC "-//W3C//DTD SVG 1.1//EN" "http://www.w3.org/Graphics/SVG/1.1/DTD/svg11.dtd">
<svg version="1.1" id="Layer_1" xmlns="http://www.w3.org/2000/svg" xmlns:xlink="http://www.w3.org/1999/xlink" x="0px" y="0px"
	 width="410.4px" height="316.801px" viewBox="-102.6 -79.2 410.4 316.801" enable-background="new -102.6 -79.2 410.4 316.801"
	 xml:space="preserve">
<g>
	<g>
		<path fill="#00749A" d="M82.54,133.899H61.784v2.205c6.492,0,7.536,1.391,7.536,9.623v14.844c0,8.23-1.042,9.738-7.536,9.738
			c-4.983-0.695-8.348-3.363-12.985-8.463l-5.334-5.797c7.189-1.277,11.016-5.795,11.016-10.902c0-6.375-5.45-11.246-15.654-11.246
			H18.417v2.205c6.492,0,7.536,1.391,7.536,9.623v14.846c0,8.229-1.042,9.736-7.536,9.736v2.205h23.074v-2.205
			c-6.494,0-7.538-1.508-7.538-9.736v-4.178h1.971l12.872,16.119h33.741c16.582,0,23.771-8.812,23.771-19.365
			C106.309,142.6,99.122,133.899,82.54,133.899z M33.956,152.802V137.38h4.755c5.216,0,7.537,3.594,7.537,7.766
			c0,4.062-2.319,7.656-7.537,7.656H33.956z M82.888,168.921h-0.812c-4.174,0-4.754-1.043-4.754-6.379v-25.16c0,0,5.103,0,5.566,0
			c12.058,0,14.262,8.812,14.262,15.652C97.148,160.106,94.946,168.921,82.888,168.921z"/>
		<path fill="#00749A" d="M-46.167,157.093l8-23.656c2.32-6.84,1.278-8.809-6.144-8.809v-2.32h21.8v2.32
			c-7.304,0-9.044,1.738-11.943,10.205l-13.221,39.654h-1.506l-11.828-36.295l-12.058,36.295h-1.508l-12.868-39.656
			c-2.784-8.465-4.638-10.205-11.366-10.205v-2.32h25.742v2.32c-6.842,0-8.698,1.623-6.262,8.809l7.768,23.656l11.712-34.787h2.204
			L-46.167,157.093z"/>
		<path fill="#00749A" d="M-6.744,174.02c-12.755,0-23.19-9.391-23.19-20.873c0-11.363,10.436-20.758,23.19-20.758
			c12.756,0,23.191,9.395,23.191,20.758C16.448,164.63,6.012,174.02-6.744,174.02z M-6.744,135.991
			c-10.666,0-14.376,9.621-14.376,17.158c0,7.652,3.71,17.16,14.376,17.16c10.785,0,14.493-9.508,14.493-17.16
			C7.75,145.61,4.042,135.991-6.744,135.991z"/>
		<path fill="#464342" d="M134.95,170.192v2.32h-26.555v-2.32c7.77,0,9.16-1.969,9.16-13.566v-18.549
			c0-11.6-1.391-13.451-9.16-13.451v-2.32h24.004c11.941,0,18.549,6.145,18.549,14.379c0,8-6.609,14.262-18.549,14.262h-6.611v5.68
			C125.79,168.223,127.18,170.192,134.95,170.192z M132.399,126.477h-6.611v20.176h6.611c6.492,0,9.508-4.52,9.508-9.967
			C141.907,131.118,138.891,126.477,132.399,126.477z"/>
		<path fill="#464342" d="M230.606,161.614l-0.578,2.086c-1.043,3.828-2.32,5.219-10.551,5.219h-1.623
			c-6.029,0-7.07-1.391-7.07-9.625v-5.332c9.041,0,9.738,0.809,9.738,6.84h2.205v-17.277h-2.205c0,6.031-0.697,6.84-9.738,6.84
			V137.38h6.377c8.234,0,9.508,1.391,10.551,5.219l0.58,2.199h1.857l-0.812-10.898h-34.09v2.205c6.492,0,7.535,1.391,7.535,9.623
			v14.844c0,7.533-0.887,9.428-6.004,9.701c-4.867-0.746-8.207-3.398-12.777-8.426l-5.336-5.797
			c7.191-1.277,11.02-5.795,11.02-10.902c0-6.375-5.449-11.246-15.656-11.246h-20.41v2.205c6.492,0,7.535,1.391,7.535,9.623v14.846
			c0,8.229-1.041,9.736-7.535,9.736v2.205h23.074v-2.205c-6.492,0-7.535-1.508-7.535-9.736v-4.178h1.967l12.873,16.119h47.656
			l0.695-10.898h-1.742V161.614z M169.157,152.802V137.38h4.754c5.213,0,7.535,3.594,7.535,7.766c0,4.062-2.32,7.656-7.535,7.656
			H169.157z"/>
		<path fill="#464342" d="M254.145,174.02c-4.635,0-8.695-2.434-10.434-3.941c-0.582,0.578-1.623,2.314-1.855,3.941h-2.203v-16
			h2.316c0.93,7.652,6.262,12.172,13.105,12.172c3.707,0,6.723-2.086,6.723-5.562c0-3.016-2.668-5.336-7.418-7.539l-6.611-3.129
			c-4.639-2.207-8.119-6.031-8.119-11.131c0-5.566,5.215-10.32,12.406-10.32c3.828,0,7.07,1.389,9.043,3.016
			c0.582-0.465,1.16-1.742,1.508-3.133h2.203v13.686h-2.434c-0.812-5.451-3.828-9.973-9.973-9.973c-3.246,0-6.262,1.855-6.262,4.754
			c0,3.016,2.434,4.637,8,7.191l6.379,3.129c5.566,2.668,7.77,6.957,7.77,10.438C268.293,168.921,261.915,174.02,254.145,174.02z"/>
		<path fill="#464342" d="M289.86,174.02c-4.641,0-8.699-2.434-10.438-3.941c-0.582,0.578-1.625,2.314-1.855,3.941h-2.205v-16h2.32
			c0.926,7.652,6.258,12.172,13.102,12.172c3.709,0,6.727-2.086,6.727-5.562c0-3.016-2.668-5.336-7.422-7.539l-6.611-3.129
			c-4.639-2.207-8.117-6.031-8.117-11.131c0-5.566,5.219-10.32,12.406-10.32c3.828,0,7.074,1.389,9.047,3.016
			c0.578-0.465,1.156-1.742,1.504-3.133h2.203v13.686h-2.434c-0.812-5.451-3.828-9.973-9.973-9.973
			c-3.246,0-6.262,1.855-6.262,4.754c0,3.016,2.434,4.637,8.004,7.191l6.375,3.129c5.566,2.668,7.771,6.957,7.771,10.438
			C304.004,168.921,297.625,174.02,289.86,174.02z"/>
		<g>
			<path fill="#464342" d="M27.286,11.811c0,29.652,17.232,55.279,42.223,67.422L33.772-18.674
				C29.618-9.359,27.286,0.951,27.286,11.811z"/>
			<path fill="#464342" d="M152.774,8.033c0-9.258-3.328-15.67-6.18-20.66c-3.797-6.17-7.355-11.398-7.355-17.568
				c0-6.885,5.223-13.295,12.578-13.295c0.332,0,0.648,0.041,0.971,0.059c-13.326-12.211-31.086-19.666-50.59-19.666
				c-26.172,0-49.196,13.43-62.592,33.768c1.76,0.053,3.416,0.09,4.822,0.09c7.834,0,19.964-0.953,19.964-0.953
				c4.038-0.238,4.514,5.695,0.478,6.17c0,0-4.058,0.479-8.571,0.715l27.279,81.146L99.972,8.67L88.3-23.308
				c-4.034-0.238-7.856-0.715-7.856-0.715c-4.038-0.234-3.563-6.408,0.474-6.17c0,0,12.37,0.953,19.73,0.953
				c7.837,0,19.964-0.953,19.964-0.953c4.041-0.238,4.518,5.695,0.48,6.17c0,0-4.066,0.479-8.574,0.715l27.08,80.527l7.473-24.967
				C150.309,21.885,152.774,14.446,152.774,8.033z"/>
			<path fill="#464342" d="M103.514,18.365L81.038,83.68c6.71,1.971,13.809,3.049,21.162,3.049c8.723,0,17.09-1.508,24.879-4.246
				c-0.205-0.318-0.383-0.658-0.537-1.031L103.514,18.365z"/>
			<path fill="#464342" d="M167.934-24.127c0.324,2.387,0.504,4.945,0.504,7.705c0,7.6-1.418,16.145-5.695,26.832L139.86,76.569
				c22.273-12.986,37.254-37.117,37.254-64.754C177.114-1.211,173.786-13.459,167.934-24.127z"/>
			<path fill="#464342" d="M102.2-75.513c-48.149,0-87.326,39.176-87.326,87.324c0,48.158,39.177,87.331,87.326,87.331
				c48.148,0,87.332-39.172,87.332-87.331C189.532-36.336,150.348-75.513,102.2-75.513z M102.2,95.137
				c-45.941,0-83.321-37.377-83.321-83.327c0-45.941,37.38-83.318,83.321-83.318s83.32,37.377,83.32,83.318
				C185.52,57.758,148.141,95.137,102.2,95.137z"/>
		</g>
	</g>
	<g>
		<path fill="#464342" d="M-76.55,232.913c-0.104-0.357-0.229-0.805-0.384-1.346c-0.152-0.539-0.334-0.982-0.538-1.344
			c-1.026,1.078-2.292,1.961-3.804,2.652c-1.51,0.691-3.01,1.037-4.496,1.037c-3.996,0-7.43-1.357-10.296-4.07
			c-2.872-2.719-4.304-5.969-4.304-9.762c0-3.795,1.422-7.033,4.266-9.723c2.844-2.688,6.288-4.035,10.336-4.035
			c3.33,0,6.072,1.207,8.224,3.613c0.154-0.258,0.347-0.705,0.576-1.344c0.23-0.641,0.372-1.062,0.422-1.275h1.46v10.533h-1.46
			c-0.615-2.918-1.71-5.172-3.279-6.762c-1.57-1.59-3.54-2.383-5.906-2.383c-3.138,0-5.388,1.129-6.754,3.383
			c-1.364,2.254-2.044,4.918-2.044,7.992c0,3.023,0.68,5.676,2.038,7.953c1.357,2.281,3.6,3.422,6.724,3.422
			c2.356,0,4.316-0.791,5.878-2.381c1.564-1.592,2.652-3.846,3.266-6.764h1.54v10.604h-1.464V232.913z"/>
		<path fill="#464342" d="M-52.116,233.913c-4.204,0-7.814-1.357-10.838-4.07c-3.026-2.719-4.534-5.969-4.534-9.762
			c0-3.795,1.498-7.033,4.494-9.723c2.998-2.688,6.622-4.037,10.876-4.037c4.25,0,7.876,1.35,10.874,4.037
			c2.998,2.691,4.495,5.93,4.495,9.723c0,3.84-1.497,7.105-4.495,9.799C-44.242,232.567-47.866,233.913-52.116,233.913z
			 M-52.116,208.704c-3.229,0-5.624,1.152-7.188,3.459c-1.563,2.307-2.344,4.945-2.344,7.918c0,3.023,0.768,5.676,2.304,7.953
			c1.538,2.281,3.946,3.422,7.227,3.422c3.224,0,5.632-1.156,7.222-3.457c1.586-2.309,2.38-4.947,2.38-7.918
			c0-2.973-0.782-5.611-2.342-7.918C-46.42,209.856-48.84,208.704-52.116,208.704z"/>
		<path fill="#464342" d="M-31.976,231.454c2.1,0,3.458-0.383,4.074-1.156c0.614-0.766,0.922-2.531,0.922-5.299v-9.836
			c0-2.771-0.294-4.525-0.882-5.268c-0.592-0.742-1.96-1.113-4.114-1.113v-1.465h13.756c5.229,0,9.158,1.197,11.798,3.578
			c2.637,2.383,3.958,5.443,3.958,9.186c0,3.791-1.304,6.877-3.918,9.262c-2.616,2.377-6.558,3.57-11.838,3.57h-13.756V231.454z
			 M-17.988,209.626h-3.69v16.676c0,1.797,0.18,2.951,0.538,3.461c0.36,0.512,1.23,0.77,2.614,0.77h0.54
			c3.584,0,6.058-1.012,7.414-3.039c1.359-2.025,2.04-4.521,2.04-7.492c0-2.869-0.681-5.312-2.04-7.34
			C-11.93,210.637-14.404,209.626-17.988,209.626z"/>
		<path fill="#464342" d="M25.408,214.544H24.18l-0.382-1.457c-0.36-1.387-0.963-2.309-1.807-2.771
			c-0.846-0.459-2.576-0.691-5.188-0.691h-4.227v8.609c2.92,0,4.727-0.246,5.416-0.729c0.694-0.488,1.04-1.754,1.04-3.805h1.46
			v11.453h-1.46c0-2.049-0.319-3.318-0.96-3.807c-0.642-0.484-2.472-0.727-5.494-0.727v3.531c0,2.719,0.28,4.459,0.845,5.227
			c0.562,0.77,1.846,1.156,3.844,1.156h1.076c2.611,0,4.342-0.234,5.188-0.691c0.847-0.465,1.446-1.383,1.807-2.77l0.382-1.383
			h1.153l-0.46,7.223H2.278v-1.459c2.101,0,3.458-0.381,4.072-1.156c0.616-0.766,0.922-2.531,0.922-5.299v-9.836
			c0-2.771-0.294-4.525-0.882-5.268c-0.59-0.74-1.96-1.113-4.112-1.113v-1.465h22.596L25.408,214.544z"/>
		<path fill="#464342" d="M51.54,232.913v-1.459c2.101,0,3.458-0.383,4.074-1.156c0.612-0.766,0.92-2.531,0.92-5.299v-9.836
			c0-2.771-0.294-4.525-0.882-5.268s-1.958-1.113-4.112-1.113v-1.465h15.294v1.465c-2.151,0-3.523,0.371-4.113,1.113
			c-0.588,0.742-0.882,2.496-0.882,5.268v9.836c0,2.713,0.294,4.471,0.882,5.262c0.59,0.795,1.96,1.195,4.113,1.195v1.459H51.54
			V232.913z"/>
		<path fill="#464342" d="M83.06,233.913c-1.336,0-2.628-0.271-3.884-0.805c-1.254-0.541-2.267-1.141-3.036-1.805
			c-0.256,0.254-0.512,0.625-0.769,1.115c-0.256,0.482-0.409,0.982-0.46,1.496h-1.46v-10.607h1.614
			c0.306,2.512,1.25,4.484,2.828,5.918c1.578,1.439,3.516,2.152,5.808,2.152c1.322,0,2.393-0.32,3.208-0.963
			c0.812-0.641,1.223-1.555,1.223-2.734c0-1.797-1.641-3.469-4.918-5.012l-4.381-2.082c-1.691-0.771-3.012-1.787-3.958-3.043
			c-0.949-1.262-1.422-2.709-1.422-4.359c0-1.848,0.782-3.459,2.347-4.816c1.56-1.359,3.521-2.041,5.878-2.041
			c1.281,0,2.394,0.172,3.342,0.52c0.948,0.344,1.834,0.863,2.652,1.553c0.409-0.307,0.741-1,1-2.072h1.458v9.068h-1.614
			c-0.309-2.072-0.986-3.707-2.038-4.896c-1.052-1.191-2.574-1.791-4.572-1.791c-1.128,0-2.102,0.297-2.922,0.887
			s-1.228,1.348-1.228,2.273c0,1.543,1.766,3.137,5.304,4.781l4.224,2.078c1.692,0.824,2.973,1.865,3.845,3.125
			c0.869,1.258,1.306,2.531,1.306,3.816c0,2.363-0.91,4.328-2.73,5.893C87.886,233.13,85.67,233.913,83.06,233.913z"/>
		<path fill="#464342" d="M132.239,231.454v1.459h-15.291v-1.459c2.1,0,3.459-0.383,4.072-1.156
			c0.617-0.766,0.924-2.531,0.924-5.299v-9.836c0-2.771-0.295-4.525-0.885-5.268s-1.957-1.113-4.111-1.113v-1.465h13.451
			c3.227,0,5.762,0.709,7.609,2.119c1.844,1.406,2.766,3.191,2.766,5.34c0,2.102-0.908,3.867-2.727,5.305
			c-1.82,1.434-4.371,2.15-7.645,2.15h-3.152v2.768c0,2.713,0.291,4.471,0.883,5.262
			C128.719,231.055,130.09,231.454,132.239,231.454z M130.399,209.626h-3.152v10.223h3.152c1.586,0,2.801-0.5,3.648-1.5
			c0.844-1,1.27-2.188,1.27-3.574c0-1.484-0.414-2.715-1.23-3.688C133.268,210.112,132.038,209.626,130.399,209.626z"/>
		<path fill="#464342" d="M161.686,233.913c-4.201,0-7.814-1.357-10.838-4.07c-3.023-2.719-4.531-5.969-4.531-9.762
			c0-3.795,1.496-7.033,4.496-9.723c2.996-2.688,6.619-4.037,10.873-4.037c4.252,0,7.877,1.35,10.877,4.037
			c2.996,2.691,4.496,5.93,4.496,9.723c0,3.84-1.5,7.105-4.496,9.799C169.563,232.567,165.938,233.913,161.686,233.913z
			 M161.686,208.704c-3.229,0-5.623,1.152-7.189,3.459c-1.561,2.307-2.34,4.945-2.34,7.918c0,3.023,0.768,5.676,2.305,7.953
			c1.535,2.281,3.941,3.422,7.223,3.422c3.227,0,5.633-1.156,7.223-3.457c1.59-2.309,2.381-4.947,2.381-7.918
			c0-2.973-0.781-5.611-2.342-7.918C167.387,209.856,164.961,208.704,161.686,208.704z"/>
		<path fill="#464342" d="M204.961,214.544h-1.23l-0.383-1.457c-0.359-1.387-0.957-2.309-1.805-2.771
			c-0.846-0.461-2.574-0.691-5.188-0.691h-4.227v8.609c2.922,0,4.727-0.246,5.418-0.729c0.691-0.488,1.035-1.754,1.035-3.805h1.465
			v11.453h-1.465c0-2.049-0.316-3.318-0.957-3.807c-0.641-0.484-2.473-0.727-5.492-0.727v3.531c0,2.719,0.277,4.459,0.844,5.227
			c0.562,0.768,1.844,1.156,3.844,1.156h1.074c2.613,0,4.344-0.234,5.188-0.691c0.848-0.465,1.449-1.383,1.805-2.77l0.385-1.383
			h1.152l-0.459,7.223h-24.133v-1.459c2.102,0,3.459-0.381,4.074-1.156c0.615-0.766,0.922-2.531,0.922-5.299v-9.836
			c0-2.771-0.295-4.525-0.883-5.268c-0.592-0.74-1.961-1.113-4.113-1.113v-1.465h22.598L204.961,214.544z"/>
		<path fill="#464342" d="M219.256,209.626c-2.615,0-4.357,0.23-5.227,0.691c-0.869,0.463-1.459,1.383-1.766,2.771l-0.385,1.457
			h-1.309l0.617-7.227h28.285l0.535,7.227h-1.229l-0.381-1.457c-0.361-1.387-0.938-2.309-1.729-2.771
			c-0.797-0.459-2.551-0.691-5.268-0.691h-3.459v15.373c0,2.713,0.295,4.471,0.885,5.262c0.586,0.795,1.957,1.195,4.111,1.195v1.459
			h-15.217v-1.459c2.102,0,3.459-0.381,4.07-1.156c0.617-0.766,0.926-2.531,0.926-5.299v-15.373h-3.463V209.626z"/>
		<path fill="#464342" d="M255.018,222.231v2.768c0,2.713,0.291,4.471,0.881,5.262c0.59,0.795,1.961,1.195,4.113,1.195v1.459
			h-15.293v-1.459c2.102,0,3.459-0.381,4.072-1.156c0.615-0.766,0.924-2.531,0.924-5.299v-9.836c0-2.771-0.297-4.525-0.883-5.268
			c-0.59-0.74-1.959-1.113-4.113-1.113v-1.465h13.527c3.227,0,5.764,0.709,7.609,2.119c1.846,1.406,2.766,3.191,2.766,5.34
			c0,1.742-0.641,3.281-1.922,4.609c-1.281,1.336-3.074,2.209-5.379,2.619l3.537,3.84c1.639,1.848,3.084,3.191,4.342,4.039
			c1.254,0.844,2.68,1.369,4.266,1.574v1.459h-8.607l-8.533-10.68h-1.307V222.231z M258.165,209.626h-3.146v10.223h3.146
			c1.59,0,2.82-0.488,3.693-1.461c0.873-0.971,1.307-2.176,1.307-3.613c0-1.484-0.414-2.715-1.23-3.688
			C261.114,210.114,259.86,209.626,258.165,209.626z"/>
		<path fill="#464342" d="M297.813,214.007l-6.152,8.377v2.615c0,2.77,0.295,4.535,0.883,5.299c0.59,0.773,1.961,1.156,4.113,1.156
			v1.459h-15.215v-1.459c2.102,0,3.457-0.383,4.074-1.156c0.613-0.766,0.92-2.531,0.92-5.299v-2.537l-6.148-8.457
			c-1.436-2.047-2.639-3.43-3.613-4.148s-2.256-1.074-3.842-1.074v-1.465h14.756v1.465c-2.205,0-3.305,0.461-3.305,1.383
			c0,0.672,0.455,1.621,1.369,2.852l4.844,6.531l4.797-6.527c0.957-1.387,1.441-2.365,1.441-2.93c0-0.877-1.102-1.309-3.305-1.309
			v-1.465h12.145v1.465c-2.102,0-3.602,0.422-4.496,1.266C300.176,210.895,299.088,212.216,297.813,214.007z"/>
	</g>
</g>
</svg>
