<?xml version="1.0" encoding="utf-8"?>
<!-- Generator: Adobe Illustrator 16.0.4, SVG Export Plug-In . SVG Version: 6.00 Build 0)  -->
<!DOCTYPE svg PUBLIC "-//W3C//DTD SVG 1.1//EN" "http://www.w3.org/Graphics/SVG/1.1/DTD/svg11.dtd">
<svg version="1.1" id="Layer_1" xmlns="http://www.w3.org/2000/svg" xmlns:xlink="http://www.w3.org/1999/xlink" x="0px" y="0px"
	 width="472.332px" height="337.042px" viewBox="0 0 472.332 337.042" enable-background="new 0 0 472.332 337.042"
	 xml:space="preserve">
<g>
	<path fill="#ED4343" d="M82.33,92.737H25.945c-1.055,0-1.912,0.856-1.912,1.91c0,1.051,0.856,1.907,1.912,1.907H82.33
		c1.058,0,1.911-0.855,1.911-1.907C84.241,93.594,83.388,92.737,82.33,92.737z"/>
	<path fill="#646464" d="M82.33,129.945H25.945c-1.055,0-1.912,0.853-1.912,1.904c0,1.056,0.856,1.912,1.912,1.912H82.33
		c1.058,0,1.911-0.856,1.911-1.912C84.241,130.798,83.388,129.945,82.33,129.945z"/>
	<path fill="#646464" d="M82.33,111.432H25.945c-1.055,0-1.912,0.854-1.912,1.908c0,1.053,0.856,1.908,1.912,1.908H82.33
		c1.058,0,1.911-0.855,1.911-1.908C84.241,112.286,83.388,111.432,82.33,111.432z"/>
	<path fill="#646464" d="M25.945,77.771h22.56c1.058,0,1.908-0.853,1.908-1.907c0-1.055-0.851-1.909-1.908-1.909h-22.56
		c-1.055,0-1.912,0.854-1.912,1.909C24.033,76.917,24.89,77.771,25.945,77.771z"/>
	<path fill="#646464" d="M107.253,48.467l-19.995-19.71c-0.89-0.879-2.093-1.372-3.343-1.372H4.769C2.134,27.386,0,29.521,0,32.156
		v127.59c0,2.636,2.134,4.77,4.769,4.77h99.134c2.64,0,4.771-2.134,4.771-4.77V51.861C108.675,50.586,108.159,49.361,107.253,48.467
		z M99.136,154.975H9.538V36.924h71.515v14.984c0,1.579,1.277,2.858,2.861,2.858h15.222V154.975z"/>
</g>
<g>
	<path fill="#646464" d="M262.462,65.352h-56.384c-1.054,0-1.911,0.856-1.911,1.91c0,1.052,0.856,1.907,1.911,1.907h56.384
		c1.06,0,1.91-0.855,1.91-1.907C264.373,66.208,263.521,65.352,262.462,65.352z"/>
	<path fill="#646464" d="M262.462,102.558h-56.384c-1.054,0-1.911,0.854-1.911,1.906c0,1.054,0.856,1.911,1.911,1.911h56.384
		c1.06,0,1.91-0.856,1.91-1.911C264.373,103.412,263.521,102.558,262.462,102.558z"/>
	<path fill="#646464" d="M262.462,84.045h-56.384c-1.054,0-1.911,0.854-1.911,1.908c0,1.053,0.856,1.908,1.911,1.908h56.384
		c1.06,0,1.91-0.855,1.91-1.908C264.373,84.899,263.521,84.045,262.462,84.045z"/>
	<path fill="#ED4343" d="M206.078,50.384h22.559c1.058,0,1.908-0.854,1.908-1.908s-0.851-1.909-1.908-1.909h-22.559
		c-1.054,0-1.911,0.855-1.911,1.909S205.023,50.384,206.078,50.384z"/>
	<path fill="#646464" d="M287.386,21.08L267.391,1.372C266.501,0.494,265.296,0,264.048,0h-79.146c-2.635,0-4.769,2.136-4.769,4.769
		V132.36c0,2.635,2.134,4.769,4.769,4.769h99.132c2.643,0,4.774-2.134,4.774-4.769V24.476
		C288.811,23.199,288.292,21.976,287.386,21.08z M279.27,127.588h-89.598V9.54h71.516v14.982c0,1.579,1.274,2.86,2.86,2.86h15.222
		V127.588z"/>
</g>
<g>
	<path fill="#646464" d="M445.992,72.649h-56.389c-1.058,0-1.912,0.856-1.912,1.911c0,1.051,0.854,1.907,1.912,1.907h56.389
		c1.057,0,1.906-0.855,1.906-1.907C447.898,73.505,447.048,72.649,445.992,72.649z"/>
	<path fill="#ED4343" d="M445.992,109.856h-56.389c-1.058,0-1.912,0.853-1.912,1.906c0,1.056,0.854,1.911,1.912,1.911h56.389
		c1.057,0,1.906-0.855,1.906-1.911C447.898,110.709,447.048,109.856,445.992,109.856z"/>
	<path fill="#646464" d="M445.992,91.343h-56.389c-1.058,0-1.912,0.854-1.912,1.908c0,1.052,0.854,1.908,1.912,1.908h56.389
		c1.057,0,1.906-0.856,1.906-1.908C447.898,92.197,447.048,91.343,445.992,91.343z"/>
	<path fill="#646464" d="M389.605,57.682h22.561c1.057,0,1.908-0.853,1.908-1.907c0-1.054-0.854-1.909-1.908-1.909h-22.561
		c-1.058,0-1.914,0.855-1.914,1.909C387.691,56.83,388.548,57.682,389.605,57.682z"/>
	<path fill="#646464" d="M470.912,28.379L450.917,8.67c-0.891-0.88-2.094-1.372-3.344-1.372h-79.146
		c-2.635,0-4.768,2.135-4.768,4.769v127.59c0,2.636,2.133,4.77,4.768,4.77h99.133c2.644,0,4.771-2.134,4.771-4.77V31.774
		C472.333,30.498,471.82,29.274,470.912,28.379z M462.794,134.886h-89.596V16.836h71.514V31.82c0,1.579,1.279,2.858,2.861,2.858
		h15.221V134.886z"/>
</g>
<g>
	<path fill="#646464" d="M119.553,247.083H63.168c-1.055,0-1.912,0.854-1.912,1.91c0,1.051,0.856,1.905,1.912,1.905h56.385
		c1.058,0,1.911-0.854,1.911-1.905C121.464,247.939,120.611,247.083,119.553,247.083z"/>
	<path fill="#646464" d="M119.553,284.291H63.168c-1.055,0-1.912,0.854-1.912,1.904c0,1.057,0.856,1.912,1.912,1.912h56.385
		c1.058,0,1.911-0.855,1.911-1.912C121.464,285.144,120.611,284.291,119.553,284.291z"/>
	<path fill="#646464" d="M119.553,265.777H63.168c-1.055,0-1.912,0.854-1.912,1.908c0,1.053,0.856,1.906,1.912,1.906h56.385
		c1.058,0,1.911-0.854,1.911-1.906C121.464,266.63,120.611,265.777,119.553,265.777z"/>
	<path fill="#ED4343" d="M63.168,232.115h22.56c1.058,0,1.908-0.853,1.908-1.906c0-1.055-0.851-1.908-1.908-1.908h-22.56
		c-1.055,0-1.912,0.854-1.912,1.908S62.113,232.115,63.168,232.115z"/>
	<path fill="#646464" d="M144.475,202.812l-19.995-19.709c-0.89-0.88-2.093-1.371-3.343-1.371H41.992
		c-2.635,0-4.769,2.135-4.769,4.77v127.59c0,2.637,2.134,4.771,4.769,4.771h99.134c2.64,0,4.771-2.135,4.771-4.771V206.207
		C145.897,204.93,145.382,203.708,144.475,202.812z M136.359,309.32H46.761V191.271h71.515v14.98c0,1.58,1.277,2.858,2.861,2.858
		h15.222V309.32L136.359,309.32z"/>
</g>
<g>
	<path fill="#ED4343" d="M262.062,264.47h-56.387c-1.054,0-1.911,0.854-1.911,1.91c0,1.053,0.856,1.906,1.911,1.906h56.387
		c1.059,0,1.91-0.854,1.91-1.906C263.973,265.326,263.119,264.47,262.062,264.47z"/>
	<path fill="#646464" d="M262.062,301.677h-56.387c-1.054,0-1.911,0.854-1.911,1.904c0,1.055,0.856,1.91,1.911,1.91h56.387
		c1.059,0,1.91-0.855,1.91-1.91C263.973,302.53,263.119,301.677,262.062,301.677z"/>
	<path fill="#646464" d="M262.062,283.166h-56.387c-1.054,0-1.911,0.854-1.911,1.908c0,1.051,0.856,1.907,1.911,1.907h56.387
		c1.059,0,1.91-0.856,1.91-1.907C263.973,284.019,263.119,283.166,262.062,283.166z"/>
	<path fill="#646464" d="M205.676,249.505h22.56c1.058,0,1.908-0.855,1.908-1.908c0-1.055-0.851-1.908-1.908-1.908h-22.56
		c-1.054,0-1.911,0.854-1.911,1.908C203.765,248.65,204.623,249.505,205.676,249.505z"/>
	<path fill="#646464" d="M286.984,220.201L266.99,200.49c-0.891-0.879-2.094-1.369-3.344-1.369H184.5
		c-2.634,0-4.768,2.135-4.768,4.769V331.48c0,2.635,2.134,4.77,4.768,4.77h99.134c2.642,0,4.773-2.135,4.773-4.77V223.595
		C288.408,222.318,287.893,221.095,286.984,220.201z M278.867,326.707h-89.596V208.658h71.514v14.98c0,1.58,1.275,2.861,2.861,2.861
		h15.221V326.707z"/>
</g>
<g>
	<path fill="#646464" d="M421.355,247.082h-56.388c-1.057,0-1.911,0.854-1.911,1.91c0,1.053,0.854,1.905,1.911,1.905h56.388
		c1.057,0,1.907-0.854,1.907-1.905C423.263,247.936,422.412,247.082,421.355,247.082z"/>
	<path fill="#646464" d="M421.355,284.289h-56.388c-1.057,0-1.911,0.854-1.911,1.904c0,1.057,0.854,1.911,1.911,1.911h56.388
		c1.057,0,1.907-0.854,1.907-1.911C423.263,285.141,422.412,284.289,421.355,284.289z"/>
	<path fill="#ED4343" d="M421.355,265.777h-56.388c-1.057,0-1.911,0.854-1.911,1.907c0,1.052,0.854,1.907,1.911,1.907h56.388
		c1.057,0,1.907-0.855,1.907-1.907C423.263,266.63,422.412,265.777,421.355,265.777z"/>
	<path fill="#646464" d="M364.968,232.113h22.562c1.057,0,1.908-0.854,1.908-1.904c0-1.055-0.854-1.912-1.908-1.912h-22.562
		c-1.057,0-1.911,0.857-1.911,1.912C363.057,231.261,363.913,232.113,364.968,232.113z"/>
	<path fill="#646464" d="M446.277,202.811L426.281,183.1c-0.89-0.878-2.094-1.369-3.344-1.369h-79.146
		c-2.634,0-4.768,2.136-4.768,4.769v127.59c0,2.637,2.134,4.771,4.768,4.771h99.134c2.644,0,4.771-2.135,4.771-4.771V206.207
		C447.697,204.929,447.183,203.707,446.277,202.811z M438.16,309.318h-89.596v-118.05h71.514v14.981c0,1.58,1.277,2.858,2.859,2.858
		h15.223V309.318L438.16,309.318z"/>
</g>
<g>
	<g>
		
			<line fill="none" stroke="#ED4343" stroke-width="3" stroke-linecap="round" stroke-miterlimit="10" x1="92.201" y1="94.646" x2="316.757" y2="188.501"/>
		<g>
			<polygon fill="#ED4343" points="304.699,195.501 313.337,187.072 313.268,175.001 333.281,195.408 			"/>
		</g>
	</g>
</g>
<g>
	<g>
		
			<line fill="none" stroke="#ED4343" stroke-width="3" stroke-linecap="round" stroke-miterlimit="10" x1="93.321" y1="229.731" x2="166.233" y2="86.806"/>
		<g>
			<polygon fill="#ED4343" points="172.3,99.36 164.549,90.107 152.508,89.263 174.372,70.853 			"/>
		</g>
	</g>
</g>
<g>
	<g>
		
			<line fill="none" stroke="#ED4343" stroke-width="3" stroke-linecap="round" stroke-miterlimit="10" x1="359.113" y1="267.775" x2="307.376" y2="240.725"/>
		<g>
			<polygon fill="#ED4343" points="319.991,234.785 310.661,242.442 309.695,254.474 291.505,232.427 			"/>
		</g>
	</g>
</g>
<g>
	<g>
		
			<line fill="none" stroke="#ED4343" stroke-width="3" stroke-linecap="round" stroke-miterlimit="10" x1="236.281" y1="48.269" x2="342.796" y2="79.893"/>
		<g>
			<polygon fill="#ED4343" points="331.559,88.145 339.244,78.838 337.881,66.845 359.965,84.99 			"/>
		</g>
	</g>
</g>
<g>
	<g>
		
			<line fill="none" stroke="#ED4343" stroke-width="3" stroke-linecap="round" stroke-miterlimit="10" x1="383.314" y1="112.081" x2="242.27" y2="184.832"/>
		<g>
			<polygon fill="#ED4343" points="244.666,171.096 245.564,183.132 254.852,190.841 226.354,193.042 			"/>
		</g>
	</g>
</g>
<g>
	<g>
		
			<line fill="none" stroke="#ED4343" stroke-width="3" stroke-linecap="round" stroke-miterlimit="10" x1="199.808" y1="267.139" x2="165.344" y2="274.639"/>
		<g>
			<polygon fill="#ED4343" points="171.215,261.992 168.965,273.851 175.939,283.703 147.844,278.447 			"/>
		</g>
	</g>
</g>
</svg>
