<?xml version="1.0" encoding="utf-8"?>
<!-- Generator: Adobe Illustrator 16.0.4, SVG Export Plug-In . SVG Version: 6.00 Build 0)  -->
<!DOCTYPE svg PUBLIC "-//W3C//DTD SVG 1.1//EN" "http://www.w3.org/Graphics/SVG/1.1/DTD/svg11.dtd">
<svg version="1.1" id="Layer_1" xmlns="http://www.w3.org/2000/svg" xmlns:xlink="http://www.w3.org/1999/xlink" x="0px" y="0px"
	 width="472.332px" height="337.042px" viewBox="0 0 472.332 337.042" enable-background="new 0 0 472.332 337.042"
	 xml:space="preserve">
<g>
	<path fill="#646464" d="M82.53,65.654H26.145c-1.055,0-1.912,0.856-1.912,1.91c0,1.051,0.856,1.907,1.912,1.907H82.53
		c1.058,0,1.911-0.855,1.911-1.907C84.441,66.511,83.588,65.654,82.53,65.654z"/>
	<path fill="#646464" d="M82.53,102.862H26.145c-1.055,0-1.912,0.853-1.912,1.904c0,1.056,0.856,1.912,1.912,1.912H82.53
		c1.058,0,1.911-0.856,1.911-1.912C84.441,103.715,83.588,102.862,82.53,102.862z"/>
	<path fill="#646464" d="M82.53,84.348H26.145c-1.055,0-1.912,0.854-1.912,1.908c0,1.053,0.856,1.908,1.912,1.908H82.53
		c1.058,0,1.911-0.855,1.911-1.908C84.441,85.202,83.588,84.348,82.53,84.348z"/>
	<path fill="#646464" d="M26.145,50.687h22.56c1.058,0,1.908-0.853,1.908-1.907c0-1.055-0.851-1.909-1.908-1.909h-22.56
		c-1.055,0-1.912,0.854-1.912,1.909C24.233,49.833,25.09,50.687,26.145,50.687z"/>
	<path fill="#646464" d="M107.453,21.384L87.458,1.674c-0.89-0.879-2.093-1.372-3.343-1.372H4.969C2.334,0.303,0.2,2.438,0.2,5.072
		v127.59c0,2.636,2.134,4.77,4.769,4.77h99.134c2.64,0,4.771-2.134,4.771-4.77V24.778C108.875,23.503,108.359,22.278,107.453,21.384
		z M99.336,127.891H9.738V9.841h71.515v14.984c0,1.579,1.277,2.858,2.861,2.858h15.222V127.891z"/>
</g>
<g>
	<path fill="#646464" d="M262.462,65.352h-56.384c-1.054,0-1.911,0.856-1.911,1.91c0,1.052,0.856,1.907,1.911,1.907h56.384
		c1.06,0,1.91-0.855,1.91-1.907C264.373,66.208,263.521,65.352,262.462,65.352z"/>
	<path fill="#646464" d="M262.462,102.558h-56.384c-1.054,0-1.911,0.854-1.911,1.906c0,1.054,0.856,1.911,1.911,1.911h56.384
		c1.06,0,1.91-0.856,1.91-1.911C264.373,103.412,263.521,102.558,262.462,102.558z"/>
	<path fill="#646464" d="M262.462,84.045h-56.384c-1.054,0-1.911,0.854-1.911,1.908c0,1.053,0.856,1.908,1.911,1.908h56.384
		c1.06,0,1.91-0.855,1.91-1.908C264.373,84.899,263.521,84.045,262.462,84.045z"/>
	<path fill="#646464" d="M206.078,50.384h22.559c1.058,0,1.908-0.854,1.908-1.908s-0.851-1.909-1.908-1.909h-22.559
		c-1.054,0-1.911,0.855-1.911,1.909S205.023,50.384,206.078,50.384z"/>
	<path fill="#646464" d="M287.386,21.08L267.391,1.372C266.501,0.494,265.296,0,264.048,0h-79.146c-2.635,0-4.769,2.136-4.769,4.769
		V132.36c0,2.635,2.134,4.769,4.769,4.769h99.132c2.643,0,4.774-2.134,4.774-4.769V24.476
		C288.81,23.199,288.292,21.976,287.386,21.08z M279.269,127.588h-89.597V9.54h71.515v14.982c0,1.579,1.275,2.86,2.861,2.86h15.221
		V127.588z"/>
</g>
<g>
	<path fill="#646464" d="M445.99,65.351h-56.388c-1.058,0-1.913,0.856-1.913,1.911c0,1.051,0.855,1.907,1.913,1.907h56.388
		c1.057,0,1.906-0.855,1.906-1.907C447.896,66.207,447.046,65.351,445.99,65.351z"/>
	<path fill="#646464" d="M445.99,102.558h-56.388c-1.058,0-1.913,0.853-1.913,1.906c0,1.056,0.855,1.911,1.913,1.911h56.388
		c1.057,0,1.906-0.855,1.906-1.911C447.896,103.411,447.046,102.558,445.99,102.558z"/>
	<path fill="#646464" d="M445.99,84.045h-56.388c-1.058,0-1.913,0.854-1.913,1.908c0,1.052,0.855,1.908,1.913,1.908h56.388
		c1.057,0,1.906-0.856,1.906-1.908C447.896,84.899,447.046,84.045,445.99,84.045z"/>
	<path fill="#646464" d="M389.603,50.384h22.561c1.057,0,1.908-0.853,1.908-1.907s-0.854-1.909-1.908-1.909h-22.561
		c-1.057,0-1.913,0.855-1.913,1.909C387.689,49.531,388.546,50.384,389.603,50.384z"/>
	<path fill="#646464" d="M470.91,21.081L450.916,1.372C450.025,0.492,448.822,0,447.572,0h-79.146c-2.635,0-4.768,2.135-4.768,4.769
		v127.59c0,2.636,2.133,4.77,4.768,4.77h99.133c2.643,0,4.771-2.134,4.771-4.77V24.476C472.332,23.199,471.818,21.976,470.91,21.081
		z M462.792,127.588h-89.596V9.538h71.514v14.984c0,1.579,1.279,2.858,2.861,2.858h15.221V127.588z"/>
</g>
<g>
	<path fill="#646464" d="M82.33,265.265H25.945c-1.055,0-1.912,0.855-1.912,1.91c0,1.051,0.856,1.906,1.912,1.906H82.33
		c1.058,0,1.911-0.855,1.911-1.906C84.241,266.121,83.388,265.265,82.33,265.265z"/>
	<path fill="#646464" d="M82.33,302.472H25.945c-1.055,0-1.912,0.854-1.912,1.904c0,1.057,0.856,1.912,1.912,1.912H82.33
		c1.058,0,1.911-0.855,1.911-1.912C84.241,303.326,83.388,302.472,82.33,302.472z"/>
	<path fill="#646464" d="M82.33,283.958H25.945c-1.055,0-1.912,0.854-1.912,1.908c0,1.053,0.856,1.907,1.912,1.907H82.33
		c1.058,0,1.911-0.854,1.911-1.907C84.241,284.812,83.388,283.958,82.33,283.958z"/>
	<path fill="#646464" d="M25.945,250.296h22.56c1.058,0,1.908-0.853,1.908-1.906c0-1.055-0.851-1.908-1.908-1.908h-22.56
		c-1.055,0-1.912,0.854-1.912,1.908C24.033,249.444,24.89,250.296,25.945,250.296z"/>
	<path fill="#646464" d="M107.252,220.994l-19.995-19.709c-0.89-0.88-2.093-1.371-3.343-1.371H4.769
		c-2.635,0-4.769,2.135-4.769,4.77v127.59c0,2.637,2.134,4.77,4.769,4.77h99.134c2.64,0,4.771-2.133,4.771-4.77V224.388
		C108.674,223.112,108.159,221.89,107.252,220.994z M99.136,327.501H9.538V209.453h71.515v14.981c0,1.58,1.277,2.858,2.861,2.858
		h15.222V327.501z"/>
</g>
<g>
	<path fill="#646464" d="M262.263,264.962h-56.385c-1.054,0-1.911,0.854-1.911,1.91c0,1.053,0.856,1.907,1.911,1.907h56.385
		c1.059,0,1.91-0.854,1.91-1.907C264.173,265.817,263.321,264.962,262.263,264.962z"/>
	<path fill="#646464" d="M262.263,302.169h-56.385c-1.054,0-1.911,0.854-1.911,1.904c0,1.055,0.856,1.911,1.911,1.911h56.385
		c1.059,0,1.91-0.856,1.91-1.911C264.173,303.022,263.321,302.169,262.263,302.169z"/>
	<path fill="#646464" d="M262.263,283.658h-56.385c-1.054,0-1.911,0.854-1.911,1.907c0,1.052,0.856,1.908,1.911,1.908h56.385
		c1.059,0,1.91-0.856,1.91-1.908C264.173,284.511,263.321,283.658,262.263,283.658z"/>
	<path fill="#646464" d="M205.878,249.998h22.56c1.058,0,1.908-0.855,1.908-1.908c0-1.055-0.851-1.908-1.908-1.908h-22.56
		c-1.054,0-1.911,0.854-1.911,1.908C203.967,249.142,204.824,249.998,205.878,249.998z"/>
	<path fill="#646464" d="M287.186,220.692l-19.995-19.711c-0.891-0.878-2.094-1.369-3.343-1.369h-79.146
		c-2.634,0-4.768,2.136-4.768,4.769v127.592c0,2.635,2.134,4.77,4.768,4.77h99.133c2.642,0,4.773-2.135,4.773-4.77V224.087
		C288.609,222.81,288.093,221.587,287.186,220.692z M279.068,327.199h-89.596v-118.05h71.514v14.981c0,1.58,1.276,2.861,2.861,2.861
		h15.221V327.199z"/>
</g>
<g>
	<path fill="#646464" d="M445.789,264.962h-56.387c-1.057,0-1.912,0.854-1.912,1.91c0,1.053,0.855,1.905,1.912,1.905h56.387
		c1.057,0,1.908-0.854,1.908-1.905C447.697,265.817,446.845,264.962,445.789,264.962z"/>
	<path fill="#646464" d="M445.789,302.169h-56.387c-1.057,0-1.912,0.854-1.912,1.904c0,1.057,0.855,1.911,1.912,1.911h56.387
		c1.057,0,1.908-0.854,1.908-1.911C447.697,303.022,446.845,302.169,445.789,302.169z"/>
	<path fill="#646464" d="M445.789,283.658h-56.387c-1.057,0-1.912,0.854-1.912,1.907c0,1.052,0.855,1.908,1.912,1.908h56.387
		c1.057,0,1.908-0.856,1.908-1.908C447.697,284.511,446.845,283.658,445.789,283.658z"/>
	<path fill="#646464" d="M389.402,249.994h22.561c1.057,0,1.908-0.853,1.908-1.904c0-1.055-0.854-1.912-1.908-1.912h-22.561
		c-1.057,0-1.912,0.857-1.912,1.912C387.49,249.142,388.346,249.994,389.402,249.994z"/>
	<path fill="#646464" d="M470.71,220.692l-19.996-19.711c-0.889-0.878-2.094-1.369-3.344-1.369h-79.146
		c-2.634,0-4.767,2.136-4.767,4.769v127.59c0,2.637,2.133,4.771,4.767,4.771h99.134c2.643,0,4.771-2.135,4.771-4.771V224.087
		C472.13,222.81,471.617,221.587,470.71,220.692z M462.593,327.199h-89.596v-118.05h71.514v14.981c0,1.58,1.277,2.859,2.859,2.859
		h15.223V327.199L462.593,327.199z"/>
</g>
<g>
	<g>
		
			<line fill="none" stroke="#ED4343" stroke-width="3" stroke-linecap="round" stroke-miterlimit="10" x1="117.099" y1="74.884" x2="155.099" y2="74.884"/>
		<g>
			<polygon fill="#ED4343" points="146.799,85.993 151.519,74.884 146.799,63.774 173.134,74.884 			"/>
		</g>
	</g>
</g>
<g>
	<g>
		
			<line fill="none" stroke="#ED4343" stroke-width="3" stroke-linecap="round" stroke-miterlimit="10" x1="301.099" y1="74.884" x2="339.099" y2="74.884"/>
		<g>
			<polygon fill="#ED4343" points="330.798,85.993 335.519,74.884 330.798,63.774 357.134,74.884 			"/>
		</g>
	</g>
</g>
<g>
	<g>
		
			<line fill="none" stroke="#ED4343" stroke-width="3" stroke-linecap="round" stroke-miterlimit="10" x1="117.099" y1="274.884" x2="155.099" y2="274.884"/>
		<g>
			<polygon fill="#ED4343" points="146.799,285.994 151.519,274.884 146.799,263.774 173.134,274.884 			"/>
		</g>
	</g>
</g>
<g>
	<g>
		
			<line fill="none" stroke="#ED4343" stroke-width="3" stroke-linecap="round" stroke-miterlimit="10" x1="301.099" y1="274.884" x2="339.099" y2="274.884"/>
		<g>
			<polygon fill="#ED4343" points="330.798,285.994 335.519,274.884 330.798,263.774 357.134,274.884 			"/>
		</g>
	</g>
</g>
<g>
	<g>
		
			<line fill="none" stroke="#ED4343" stroke-width="3" stroke-linecap="round" stroke-miterlimit="10" x1="381.248" y1="143.944" x2="118.831" y2="206.218"/>
		<g>
			<polygon fill="#ED4343" points="124.463,193.464 122.437,205.362 129.594,215.082 101.405,210.354 			"/>
		</g>
	</g>
</g>
</svg>
