<?xml version="1.0" encoding="utf-8"?>
<!-- Generator: Adobe Illustrator 16.0.4, SVG Export Plug-In . SVG Version: 6.00 Build 0)  -->
<!DOCTYPE svg PUBLIC "-//W3C//DTD SVG 1.1//EN" "http://www.w3.org/Graphics/SVG/1.1/DTD/svg11.dtd">
<svg version="1.1" id="Layer_1" xmlns="http://www.w3.org/2000/svg" xmlns:xlink="http://www.w3.org/1999/xlink" x="0px" y="0px"
	 width="728.3px" height="203.6px" viewBox="0 0 728.3 203.6" enable-background="new 0 0 728.3 203.6" xml:space="preserve">
<path fill="#646464" d="M395.7,19.5v164.6c0,4.1,3.7,7.4,8.2,7.4h131.7c4.5,0,8.2-3.3,8.2-7.4V19.5c0-4.1-3.7-7.4-8.2-7.4H404
	C399.4,12.1,395.7,15.4,395.7,19.5z M466.2,182.1c0-2,1.6-3.7,3.7-3.7c2,0,3.7,1.6,3.7,3.7s-1.6,3.7-3.7,3.7
	C467.8,185.7,466.2,184.1,466.2,182.1z M414.3,27.9h111.1v145.3H414.3V27.9z"/>
<path fill="#ED4343" d="M0,178.4v13.8c0,6.3,4.7,11.3,10.4,11.3h35.3h231.9h34.2c5.8,0,10.4-5.1,10.4-11.3v-13.8H288V11.3
	C288,5.1,283.4,0,277.6,0H45.7C40,0,35.3,5.1,35.3,11.3v167.1H0z M139.8,175.8h42.7v7.3h-42.7V175.8z M56.8,23.3h209.8v141.4H56.8
	V23.3z"/>
<g>
	<path fill="#646464" d="M647.9,39v125.6c0,6.9,5.7,12.6,12.6,12.6h55.3c6.9,0,12.6-5.7,12.6-12.6V39c0-6.9-5.7-12.6-12.6-12.6
		h-55.3C653.6,26.4,647.9,32.1,647.9,39z M698.2,39c0,1.4-1.1,2.5-2.5,2.5h-15.1c-1.4,0-2.5-1.1-2.5-2.5c0-1.4,1.1-2.5,2.5-2.5h15.1
		C697,36.5,698.2,37.6,698.2,39z M680.6,164.6c0-4.2,3.4-7.5,7.5-7.5c4.2,0,7.5,3.4,7.5,7.5c0,4.2-3.4,7.5-7.5,7.5
		C684,172.1,680.6,168.8,680.6,164.6z M652.9,51.5h70.4V152h-70.4V51.5z"/>
</g>
<g>
	<path fill="#C8C8C8" d="M376.9,100.4l-15.6-11.3c-0.5-0.4-1.2-0.4-1.8-0.1c-0.6,0.3-0.9,0.9-0.9,1.5v7.4h-51c-2.2,0-4,1.8-4,4
		c0,2.2,1.8,4,4,4h51v7.4c0,0.6,0.4,1.2,0.9,1.5c0.2,0.1,0.5,0.2,0.8,0.2c0.4,0,0.7-0.1,1-0.3l15.6-11.3c0.4-0.3,0.7-0.8,0.7-1.4
		C377.6,101.2,377.4,100.7,376.9,100.4z"/>
</g>
<g>
	<path fill="#C8C8C8" d="M630.2,100.4l-15.6-11.3c-0.5-0.4-1.2-0.4-1.8-0.1c-0.6,0.3-0.9,0.9-0.9,1.5v7.4h-51c-2.2,0-4,1.8-4,4
		c0,2.2,1.8,4,4,4h51v7.4c0,0.6,0.4,1.2,0.9,1.5c0.2,0.1,0.5,0.2,0.8,0.2c0.4,0,0.7-0.1,1-0.3l15.6-11.3c0.4-0.3,0.7-0.8,0.7-1.4
		C630.9,101.2,630.7,100.7,630.2,100.4z"/>
</g>
</svg>
