<?xml version="1.0" encoding="utf-8"?>
<!-- Generator: Adobe Illustrator 16.0.4, SVG Export Plug-In . SVG Version: 6.00 Build 0)  -->
<!DOCTYPE svg PUBLIC "-//W3C//DTD SVG 1.1//EN" "http://www.w3.org/Graphics/SVG/1.1/DTD/svg11.dtd">
<svg version="1.1" id="Layer_1" xmlns="http://www.w3.org/2000/svg" xmlns:xlink="http://www.w3.org/1999/xlink" x="0px" y="0px"
	 width="875.8px" height="488.6px" viewBox="0 0 875.8 488.6" enable-background="new 0 0 875.8 488.6" xml:space="preserve">
<rect x="-26.3" fill="none" width="931.299" height="523.2"/>
<g>
	<g enable-background="new    ">
		<path fill="#ED4343" d="M316.644,3.814V1.422h5.061v2.393l-1.334,21.301h-2.392L316.644,3.814z M316.69,29.394h4.969v5.521h-4.969
			V29.394z"/>
		<path fill="#ED4343" d="M330.305,0.548h4.831v4.509h-4.831V0.548z M330.581,10.025h4.279v24.889h-4.279V10.025z"/>
		<path fill="#ED4343" d="M343.507,10.025h4.324v4.048c1.61-2.392,3.818-4.6,7.913-4.6c3.91,0,6.487,2.069,7.821,4.784
			c1.84-2.668,4.508-4.784,8.649-4.784c5.659,0,9.109,3.726,9.109,9.891v15.55h-4.325V20.515c0-4.555-2.254-7.085-6.027-7.085
			c-3.588,0-6.395,2.576-6.395,7.223v14.262h-4.325V20.423c0-4.417-2.254-6.993-5.98-6.993c-3.681,0-6.441,2.99-6.441,7.314v14.17
			h-4.324V10.025z"/>
		<path fill="#ED4343" d="M389.369,10.025h4.324v4.738c1.979-2.898,4.831-5.29,9.247-5.29c5.889,0,11.777,4.738,11.777,12.927v0.092
			c0,8.189-5.843,12.974-11.777,12.974c-4.508,0-7.361-2.392-9.247-5.061v12.146h-4.324V10.025z M410.301,22.539v-0.093
			c0-5.566-3.818-9.154-8.281-9.154c-4.371,0-8.465,3.68-8.465,9.108v0.092c0,5.475,4.094,9.155,8.465,9.155
			C406.574,31.647,410.301,28.197,410.301,22.539z"/>
		<path fill="#ED4343" d="M420.142,22.585v-0.093c0-7.038,5.566-13.019,13.111-13.019c7.499,0,13.02,5.842,13.02,12.927v0.092
			c0,7.039-5.566,12.974-13.111,12.974S420.142,29.623,420.142,22.585z M441.857,22.585v-0.093c0-5.061-3.727-9.2-8.695-9.2
			c-5.153,0-8.649,4.14-8.649,9.108v0.092c0,5.015,3.727,9.155,8.741,9.155C438.406,31.647,441.857,27.553,441.857,22.585z"/>
		<path fill="#ED4343" d="M453.078,10.025h4.324v6.211c1.748-4.003,5.152-6.855,9.754-6.625v4.555h-0.277
			c-5.336,0-9.477,3.727-9.477,10.949v9.799h-4.324V10.025z"/>
		<path fill="#ED4343" d="M474.192,28.243V13.798h-3.358v-3.772h3.358V2.71h4.278v7.315h7.545v3.772h-7.545v13.848
			c0,2.76,1.518,3.818,3.865,3.818c1.287,0,2.346-0.276,3.588-0.874v3.634c-1.334,0.736-2.761,1.104-4.646,1.104
			C477.228,35.328,474.192,33.396,474.192,28.243z"/>
		<path fill="#ED4343" d="M490.888,27.737v-0.092c0-5.291,4.325-8.051,10.535-8.051c3.083,0,5.199,0.414,7.361,1.058v-0.828
			c0-4.141-2.576-6.349-7.039-6.349c-2.898,0-5.152,0.69-7.406,1.748l-1.242-3.45c2.715-1.242,5.428-2.116,9.154-2.116
			c3.589,0,6.303,0.966,8.098,2.761c1.748,1.748,2.576,4.232,2.576,7.406v15.09h-4.187v-3.542c-1.702,2.162-4.462,4.094-8.694,4.094
			C495.398,35.466,490.888,32.798,490.888,27.737z M508.831,25.805v-2.162c-1.702-0.552-4.003-1.058-6.809-1.058
			c-4.37,0-6.854,1.886-6.854,4.83v0.092c0,2.898,2.668,4.601,5.842,4.601C505.38,32.107,508.831,29.531,508.831,25.805z"/>
		<path fill="#ED4343" d="M520.835,10.025h4.324v4.187c1.656-2.576,4.141-4.738,8.281-4.738c5.935,0,9.339,4.002,9.339,9.845v15.596
			h-4.325V20.515c0-4.417-2.346-7.085-6.395-7.085c-3.956,0-6.9,2.853-6.9,7.314v14.17h-4.324V10.025z"/>
		<path fill="#ED4343" d="M552.023,28.243V13.798h-3.358v-3.772h3.358V2.71h4.278v7.315h7.545v3.772h-7.545v13.848
			c0,2.76,1.519,3.818,3.864,3.818c1.289,0,2.347-0.276,3.589-0.874v3.634c-1.335,0.736-2.761,1.104-4.647,1.104
			C555.059,35.328,552.023,33.396,552.023,28.243z"/>
	</g>
</g>
<g>
	<g enable-background="new    ">
		<path d="M302.58,112.621h4.463v33.492h-4.463V112.621z"/>
		<path d="M316.288,121.225h4.324v4.187c1.656-2.576,4.141-4.738,8.281-4.738c5.935,0,9.339,4.002,9.339,9.845v15.596h-4.325
			v-14.399c0-4.417-2.346-7.085-6.395-7.085c-3.957,0-6.901,2.853-6.901,7.314v14.17h-4.324V121.225z"/>
		<path d="M346.555,111.195h4.279v34.918h-4.279V111.195z"/>
		<path d="M359.572,111.747h4.831v4.509h-4.831V111.747z M359.848,121.225h4.279v24.889h-4.279V121.225z"/>
		<path d="M372.774,121.225h4.324v4.187c1.656-2.576,4.141-4.738,8.281-4.738c5.935,0,9.339,4.002,9.339,9.845v15.596h-4.325
			v-14.399c0-4.417-2.346-7.085-6.395-7.085c-3.957,0-6.901,2.853-6.901,7.314v14.17h-4.324V121.225z"/>
		<path d="M401.202,133.738v-0.093c0-7.177,5.061-12.973,12.007-12.973c7.545,0,11.731,5.98,11.731,13.249
			c0,0.46-0.046,0.828-0.092,1.334h-19.276c0.552,4.969,4.095,7.775,8.235,7.775c3.266,0,5.521-1.288,7.544-3.358l2.623,2.346
			c-2.438,2.807-5.567,4.646-10.259,4.646C406.814,146.665,401.202,141.467,401.202,133.738z M420.57,132.174
			c-0.368-4.278-2.853-7.867-7.407-7.867c-4.141,0-7.131,3.312-7.637,7.867H420.57z"/>
		<path d="M444.166,142.938l2.115-3.036c2.715,2.024,5.659,3.129,8.465,3.129c2.807,0,4.739-1.381,4.739-3.543v-0.092
			c0-2.347-2.807-3.221-5.981-4.141c-3.818-1.104-8.096-2.484-8.096-7.085v-0.092c0-4.462,3.68-7.314,8.603-7.314
			c3.036,0,6.44,1.104,9.017,2.806l-1.886,3.175c-2.347-1.473-4.969-2.393-7.269-2.393c-2.715,0-4.417,1.381-4.417,3.267v0.092
			c0,2.209,2.99,3.083,6.165,4.049c3.818,1.15,7.959,2.668,7.959,7.131v0.092c0,4.923-3.957,7.591-9.018,7.591
			C451.019,146.573,447.109,145.239,444.166,142.938z"/>
		<path d="M471.305,139.442v-14.445h-3.358v-3.772h3.358v-7.315h4.278v7.315h7.545v3.772h-7.545v13.848
			c0,2.76,1.518,3.818,3.865,3.818c1.287,0,2.346-0.276,3.588-0.874v3.634c-1.334,0.736-2.761,1.104-4.646,1.104
			C474.341,146.527,471.305,144.595,471.305,139.442z"/>
		<path d="M508.015,121.225h4.555l-10.26,25.671c-2.116,5.152-4.416,7.039-8.281,7.039c-2.162,0-3.727-0.507-5.475-1.381
			l1.473-3.312c1.15,0.599,2.254,0.921,3.727,0.921c2.023,0,3.312-1.013,4.646-4.095l-11.041-24.843h4.691l8.42,20.059
			L508.015,121.225z"/>
		<path d="M518.915,111.195h4.278v34.918h-4.278V111.195z"/>
		<path d="M530.369,133.738v-0.093c0-7.177,5.061-12.973,12.007-12.973c7.545,0,11.731,5.98,11.731,13.249
			c0,0.46-0.047,0.828-0.092,1.334h-19.277c0.553,4.969,4.096,7.775,8.236,7.775c3.266,0,5.52-1.288,7.545-3.358l2.621,2.346
			c-2.438,2.807-5.566,4.646-10.259,4.646C535.98,146.665,530.369,141.467,530.369,133.738z M549.736,132.174
			c-0.367-4.278-2.852-7.867-7.406-7.867c-4.141,0-7.131,3.312-7.637,7.867H549.736z"/>
		<path d="M558.612,142.938l2.116-3.036c2.715,2.024,5.658,3.129,8.465,3.129s4.738-1.381,4.738-3.543v-0.092
			c0-2.347-2.807-3.221-5.98-4.141c-3.818-1.104-8.097-2.484-8.097-7.085v-0.092c0-4.462,3.681-7.314,8.603-7.314
			c3.037,0,6.441,1.104,9.018,2.806l-1.887,3.175c-2.346-1.473-4.969-2.393-7.269-2.393c-2.714,0-4.417,1.381-4.417,3.267v0.092
			c0,2.209,2.99,3.083,6.165,4.049c3.818,1.15,7.959,2.668,7.959,7.131v0.092c0,4.923-3.956,7.591-9.017,7.591
			C565.466,146.573,561.556,145.239,558.612,142.938z"/>
	</g>
</g>
<g>
	<g enable-background="new    ">
		<path d="M406.08,223.821h4.463v33.492h-4.463V223.821z"/>
		<path d="M420.432,223.821h11.915c10.536,0,17.804,7.224,17.804,16.654v0.092c0,9.432-7.269,16.746-17.804,16.746h-11.915V223.821z
			 M424.848,227.87v25.395h7.499c8.004,0,13.158-5.429,13.158-12.605v-0.092c0-7.131-5.153-12.697-13.158-12.697H424.848z"/>
		<path d="M455.484,254.139l2.115-3.036c2.715,2.024,5.659,3.129,8.465,3.129c2.807,0,4.739-1.381,4.739-3.543v-0.092
			c0-2.347-2.807-3.221-5.981-4.141c-3.818-1.104-8.096-2.484-8.096-7.085v-0.092c0-4.462,3.68-7.314,8.603-7.314
			c3.036,0,6.44,1.104,9.017,2.806l-1.886,3.175c-2.347-1.473-4.969-2.393-7.269-2.393c-2.715,0-4.417,1.381-4.417,3.267v0.092
			c0,2.209,2.99,3.083,6.165,4.049c3.818,1.15,7.959,2.668,7.959,7.131v0.092c0,4.923-3.957,7.591-9.018,7.591
			C462.337,257.773,458.427,256.439,455.484,254.139z"/>
	</g>
</g>
<g>
	<g enable-background="new    ">
		<path d="M5.386,351.859v-0.092c0-9.477,7.084-17.298,17.022-17.298c6.119,0,9.753,2.162,13.065,5.245l-2.898,3.266
			c-2.806-2.622-5.889-4.462-10.213-4.462c-7.084,0-12.375,5.796-12.375,13.157v0.092c0,7.361,5.291,13.25,12.375,13.25
			c4.463,0,7.361-1.748,10.443-4.692l2.898,2.852c-3.497,3.589-7.315,5.889-13.479,5.889
			C12.562,369.065,5.386,361.475,5.386,351.859z"/>
		<path d="M42.415,333.596h4.279v34.918h-4.279V333.596z"/>
		<path d="M53.546,361.337v-0.092c0-5.291,4.325-8.051,10.535-8.051c3.083,0,5.199,0.414,7.361,1.058v-0.828
			c0-4.141-2.576-6.349-7.039-6.349c-2.898,0-5.153,0.69-7.407,1.748l-1.242-3.45c2.714-1.242,5.428-2.116,9.155-2.116
			c3.588,0,6.303,0.966,8.097,2.761c1.748,1.748,2.576,4.232,2.576,7.406v15.09h-4.187v-3.542c-1.702,2.162-4.462,4.094-8.695,4.094
			C58.055,369.065,53.546,366.397,53.546,361.337z M71.488,359.404v-2.162c-1.702-0.552-4.002-1.058-6.809-1.058
			c-4.371,0-6.854,1.886-6.854,4.83v0.092c0,2.898,2.668,4.601,5.842,4.601C68.038,365.707,71.488,363.131,71.488,359.404z"/>
		<path d="M81.422,365.339l2.116-3.036c2.714,2.024,5.659,3.129,8.465,3.129s4.739-1.381,4.739-3.543v-0.092
			c0-2.347-2.807-3.221-5.981-4.141c-3.818-1.104-8.097-2.484-8.097-7.085v-0.092c0-4.462,3.68-7.314,8.603-7.314
			c3.036,0,6.44,1.104,9.017,2.806l-1.886,3.175c-2.347-1.473-4.969-2.393-7.269-2.393c-2.714,0-4.417,1.381-4.417,3.267v0.092
			c0,2.209,2.99,3.083,6.165,4.049c3.818,1.15,7.959,2.668,7.959,7.131v0.092c0,4.923-3.957,7.591-9.017,7.591
			C88.277,368.974,84.367,367.64,81.422,365.339z"/>
		<path d="M105.205,365.339l2.116-3.036c2.714,2.024,5.659,3.129,8.465,3.129s4.739-1.381,4.739-3.543v-0.092
			c0-2.347-2.807-3.221-5.981-4.141c-3.818-1.104-8.097-2.484-8.097-7.085v-0.092c0-4.462,3.68-7.314,8.603-7.314
			c3.036,0,6.44,1.104,9.017,2.806l-1.886,3.175c-2.347-1.473-4.969-2.393-7.269-2.393c-2.714,0-4.417,1.381-4.417,3.267v0.092
			c0,2.209,2.99,3.083,6.165,4.049c3.818,1.15,7.959,2.668,7.959,7.131v0.092c0,4.923-3.957,7.591-9.017,7.591
			C112.059,368.974,108.149,367.64,105.205,365.339z"/>
		<path d="M130.044,356.139v-0.093c0-7.177,5.061-12.973,12.007-12.973c7.545,0,11.731,5.98,11.731,13.249
			c0,0.46-0.046,0.828-0.092,1.334h-19.276c0.552,4.969,4.095,7.775,8.235,7.775c3.266,0,5.521-1.288,7.544-3.358l2.623,2.346
			c-2.438,2.807-5.567,4.646-10.259,4.646C135.657,369.065,130.044,363.867,130.044,356.139z M149.413,354.574
			c-0.368-4.278-2.853-7.867-7.407-7.867c-4.141,0-7.131,3.312-7.637,7.867H149.413z"/>
		<path d="M158.288,365.339l2.116-3.036c2.714,2.024,5.659,3.129,8.465,3.129c2.807,0,4.739-1.381,4.739-3.543v-0.092
			c0-2.347-2.807-3.221-5.981-4.141c-3.818-1.104-8.097-2.484-8.097-7.085v-0.092c0-4.462,3.68-7.314,8.603-7.314
			c3.036,0,6.44,1.104,9.017,2.806l-1.886,3.175c-2.347-1.473-4.969-2.393-7.269-2.393c-2.714,0-4.417,1.381-4.417,3.267v0.092
			c0,2.209,2.99,3.083,6.165,4.049c3.818,1.15,7.959,2.668,7.959,7.131v0.092c0,4.923-3.957,7.591-9.017,7.591
			C165.143,368.974,161.232,367.64,158.288,365.339z"/>
		<path d="M182.668,372.746c2.53-0.736,3.68-2.07,3.496-4.232h-1.978v-5.521h5.015v4.738c0,4.278-1.933,6.257-5.935,6.947
			L182.668,372.746z"/>
		<path d="M209.945,361.337v-0.092c0-5.291,4.325-8.051,10.535-8.051c3.083,0,5.199,0.414,7.361,1.058v-0.828
			c0-4.141-2.576-6.349-7.039-6.349c-2.898,0-5.153,0.69-7.407,1.748l-1.242-3.45c2.714-1.242,5.428-2.116,9.155-2.116
			c3.588,0,6.303,0.966,8.097,2.761c1.748,1.748,2.576,4.232,2.576,7.406v15.09h-4.187v-3.542c-1.702,2.162-4.462,4.094-8.695,4.094
			C214.454,369.065,209.945,366.397,209.945,361.337z M227.887,359.404v-2.162c-1.702-0.552-4.002-1.058-6.809-1.058
			c-4.371,0-6.854,1.886-6.854,4.83v0.092c0,2.898,2.668,4.601,5.842,4.601C224.437,365.707,227.887,363.131,227.887,359.404z"/>
		<path d="M240.95,361.843v-14.445h-3.358v-3.772h3.358v-7.315h4.278v7.315h7.545v3.772h-7.545v13.848
			c0,2.76,1.518,3.818,3.865,3.818c1.288,0,2.346-0.276,3.588-0.874v3.634c-1.334,0.736-2.761,1.104-4.647,1.104
			C243.986,368.928,240.95,366.995,240.95,361.843z"/>
		<path d="M260.729,361.843v-14.445h-3.358v-3.772h3.358v-7.315h4.278v7.315h7.545v3.772h-7.545v13.848
			c0,2.76,1.518,3.818,3.865,3.818c1.288,0,2.346-0.276,3.588-0.874v3.634c-1.334,0.736-2.761,1.104-4.646,1.104
			C263.766,368.928,260.729,366.995,260.729,361.843z"/>
		<path d="M279.221,343.625h4.324v6.211c1.749-4.003,5.153-6.855,9.753-6.625v4.555h-0.276c-5.336,0-9.477,3.727-9.477,10.949v9.799
			h-4.324V343.625z"/>
		<path d="M299.139,334.147h4.831v4.509h-4.831V334.147z M299.415,343.625h4.279v24.889h-4.279V343.625z"/>
		<path d="M316.665,364.005v4.509h-4.324v-34.918h4.324v14.768c1.979-2.898,4.831-5.29,9.247-5.29
			c5.889,0,11.777,4.738,11.777,12.927v0.092c0,8.189-5.843,12.974-11.777,12.974C321.403,369.065,318.551,366.674,316.665,364.005z
			 M333.272,356.139v-0.093c0-5.566-3.818-9.154-8.281-9.154c-4.371,0-8.465,3.68-8.465,9.108v0.092
			c0,5.475,4.094,9.155,8.465,9.155C329.546,365.247,333.272,361.797,333.272,356.139z"/>
		<path d="M344.218,359.221v-15.596h4.324v14.399c0,4.417,2.347,7.085,6.441,7.085c3.957,0,6.901-2.898,6.901-7.314v-14.17h4.278
			v24.889h-4.278v-4.187c-1.656,2.576-4.187,4.738-8.327,4.738C347.668,369.065,344.218,365.063,344.218,359.221z"/>
		<path d="M375.773,361.843v-14.445h-3.358v-3.772h3.358v-7.315h4.278v7.315h7.545v3.772h-7.545v13.848
			c0,2.76,1.518,3.818,3.865,3.818c1.288,0,2.346-0.276,3.588-0.874v3.634c-1.334,0.736-2.761,1.104-4.646,1.104
			C378.81,368.928,375.773,366.995,375.773,361.843z"/>
		<path d="M392.058,356.139v-0.093c0-7.177,5.061-12.973,12.007-12.973c7.545,0,11.731,5.98,11.731,13.249
			c0,0.46-0.046,0.828-0.092,1.334h-19.276c0.552,4.969,4.095,7.775,8.235,7.775c3.267,0,5.521-1.288,7.545-3.358l2.622,2.346
			c-2.438,2.807-5.566,4.646-10.259,4.646C397.67,369.065,392.058,363.867,392.058,356.139z M411.426,354.574
			c-0.368-4.278-2.853-7.867-7.407-7.867c-4.141,0-7.13,3.312-7.637,7.867H411.426z"/>
		<path d="M420.301,365.339l2.116-3.036c2.714,2.024,5.658,3.129,8.465,3.129s4.738-1.381,4.738-3.543v-0.092
			c0-2.347-2.806-3.221-5.98-4.141c-3.818-1.104-8.097-2.484-8.097-7.085v-0.092c0-4.462,3.681-7.314,8.603-7.314
			c3.037,0,6.441,1.104,9.018,2.806l-1.887,3.175c-2.346-1.473-4.969-2.393-7.269-2.393c-2.714,0-4.417,1.381-4.417,3.267v0.092
			c0,2.209,2.991,3.083,6.165,4.049c3.818,1.15,7.958,2.668,7.958,7.131v0.092c0,4.923-3.956,7.591-9.016,7.591
			C427.155,368.974,423.245,367.64,420.301,365.339z"/>
		<path d="M480.839,364.005c-2.99,3.129-6.486,4.969-10.719,4.969c-6.119,0-10.674-3.772-10.674-9.431v-0.093
			c0-4.37,2.807-7.591,7.775-9.568c-2.162-2.576-3.176-4.646-3.176-7.27v-0.092c0-4.416,3.59-8.051,9.109-8.051
			c4.877,0,8.373,3.404,8.373,7.729v0.093c0,4.278-3.035,6.992-7.729,8.694l7.039,7.177c1.426-2.07,2.715-4.508,3.91-7.177
			l3.496,1.748c-1.426,2.991-2.943,5.797-4.738,8.189l5.705,5.751l-3.359,2.53L480.839,364.005z M478.216,361.383l-8.465-8.741
			c-4.094,1.519-5.842,4.049-5.842,6.625v0.138c0,3.358,2.713,5.889,6.578,5.889C473.386,365.293,475.962,363.775,478.216,361.383z
			 M477.48,342.521v-0.092c0-2.576-1.885-4.417-4.461-4.417c-2.807,0-4.785,1.979-4.785,4.601v0.093c0,1.84,0.781,3.266,3.129,5.796
			C475.41,347.167,477.48,345.235,477.48,342.521z"/>
		<path d="M509.724,343.625h4.324v4.738c1.979-2.898,4.832-5.29,9.248-5.29c5.889,0,11.777,4.738,11.777,12.927v0.092
			c0,8.189-5.844,12.974-11.777,12.974c-4.51,0-7.361-2.392-9.248-5.061v12.146h-4.324V343.625z M530.658,356.139v-0.093
			c0-5.566-3.818-9.154-8.281-9.154c-4.371,0-8.465,3.68-8.465,9.108v0.092c0,5.475,4.094,9.155,8.465,9.155
			C526.931,365.247,530.658,361.797,530.658,356.139z"/>
		<path d="M539.9,365.339l2.115-3.036c2.715,2.024,5.658,3.129,8.465,3.129s4.738-1.381,4.738-3.543v-0.092
			c0-2.347-2.805-3.221-5.98-4.141c-3.818-1.104-8.096-2.484-8.096-7.085v-0.092c0-4.462,3.68-7.314,8.602-7.314
			c3.037,0,6.441,1.104,9.018,2.806l-1.887,3.175c-2.346-1.473-4.969-2.393-7.268-2.393c-2.715,0-4.416,1.381-4.416,3.267v0.092
			c0,2.209,2.99,3.083,6.164,4.049c3.818,1.15,7.959,2.668,7.959,7.131v0.092c0,4.923-3.957,7.591-9.018,7.591
			C546.753,368.974,542.843,367.64,539.9,365.339z"/>
		<path d="M564.738,356.139v-0.093c0-7.177,5.061-12.973,12.008-12.973c7.545,0,11.732,5.98,11.732,13.249
			c0,0.46-0.047,0.828-0.092,1.334h-19.277c0.553,4.969,4.094,7.775,8.234,7.775c3.268,0,5.521-1.288,7.545-3.358l2.623,2.346
			c-2.438,2.807-5.566,4.646-10.26,4.646C570.351,369.065,564.738,363.867,564.738,356.139z M584.107,354.574
			c-0.367-4.278-2.852-7.867-7.406-7.867c-4.141,0-7.131,3.312-7.637,7.867H584.107z"/>
		<path d="M594.685,359.221v-15.596h4.324v14.399c0,4.417,2.348,7.085,6.441,7.085c3.957,0,6.9-2.898,6.9-7.314v-14.17h4.279v24.889
			h-4.279v-4.187c-1.656,2.576-4.186,4.738-8.326,4.738C598.136,369.065,594.685,365.063,594.685,359.221z"/>
		<path d="M623.574,356.139v-0.093c0-8.188,5.795-12.973,11.777-12.973c4.461,0,7.314,2.392,9.246,5.061v-14.538h4.279v34.918
			h-4.279v-4.738c-1.979,2.853-4.83,5.29-9.246,5.29C629.416,369.065,623.574,364.327,623.574,356.139z M644.689,356.092V356
			c0-5.429-4.049-9.108-8.465-9.108c-4.508,0-8.234,3.45-8.234,9.108v0.092c0,5.521,3.818,9.155,8.234,9.155
			S644.689,361.566,644.689,356.092z"/>
		<path d="M655.726,356.185v-0.093c0-7.038,5.566-13.019,13.111-13.019c7.498,0,13.02,5.842,13.02,12.927v0.092
			c0,7.039-5.566,12.974-13.111,12.974S655.726,363.223,655.726,356.185z M677.441,356.185v-0.093c0-5.061-3.727-9.2-8.695-9.2
			c-5.152,0-8.648,4.14-8.648,9.108v0.092c0,5.015,3.727,9.155,8.74,9.155C673.99,365.247,677.441,361.152,677.441,356.185z"/>
		<path d="M687.65,351.859h13.617v4.417H687.65V351.859z"/>
		<path d="M707.06,356.185v-0.093c0-7.038,5.475-13.019,12.836-13.019c4.693,0,7.592,1.932,9.938,4.416l-2.76,2.944
			c-1.934-1.979-4.004-3.542-7.223-3.542c-4.785,0-8.42,4.094-8.42,9.108v0.092c0,5.107,3.68,9.155,8.648,9.155
			c3.037,0,5.291-1.472,7.27-3.496l2.668,2.576c-2.484,2.761-5.428,4.738-10.166,4.738
			C712.535,369.065,707.06,363.223,707.06,356.185z"/>
		<path d="M736.593,333.596h4.279v34.918h-4.279V333.596z"/>
		<path d="M747.724,361.337v-0.092c0-5.291,4.324-8.051,10.535-8.051c3.082,0,5.199,0.414,7.361,1.058v-0.828
			c0-4.141-2.576-6.349-7.039-6.349c-2.898,0-5.152,0.69-7.406,1.748l-1.242-3.45c2.713-1.242,5.428-2.116,9.154-2.116
			c3.588,0,6.303,0.966,8.098,2.761c1.748,1.748,2.576,4.232,2.576,7.406v15.09h-4.188v-3.542c-1.701,2.162-4.463,4.094-8.695,4.094
			C752.232,369.065,747.724,366.397,747.724,361.337z M765.666,359.404v-2.162c-1.701-0.552-4.002-1.058-6.809-1.058
			c-4.369,0-6.854,1.886-6.854,4.83v0.092c0,2.898,2.668,4.601,5.842,4.601C762.216,365.707,765.666,363.131,765.666,359.404z"/>
		<path d="M775.601,365.339l2.115-3.036c2.715,2.024,5.658,3.129,8.465,3.129s4.738-1.381,4.738-3.543v-0.092
			c0-2.347-2.805-3.221-5.98-4.141c-3.818-1.104-8.096-2.484-8.096-7.085v-0.092c0-4.462,3.68-7.314,8.602-7.314
			c3.037,0,6.441,1.104,9.018,2.806l-1.887,3.175c-2.346-1.473-4.969-2.393-7.268-2.393c-2.715,0-4.416,1.381-4.416,3.267v0.092
			c0,2.209,2.99,3.083,6.164,4.049c3.818,1.15,7.959,2.668,7.959,7.131v0.092c0,4.923-3.957,7.591-9.018,7.591
			C782.455,368.974,778.544,367.64,775.601,365.339z"/>
		<path d="M799.382,365.339l2.115-3.036c2.715,2.024,5.658,3.129,8.465,3.129s4.738-1.381,4.738-3.543v-0.092
			c0-2.347-2.805-3.221-5.98-4.141c-3.818-1.104-8.096-2.484-8.096-7.085v-0.092c0-4.462,3.68-7.314,8.602-7.314
			c3.037,0,6.441,1.104,9.018,2.806l-1.887,3.175c-2.346-1.473-4.969-2.393-7.268-2.393c-2.715,0-4.416,1.381-4.416,3.267v0.092
			c0,2.209,2.99,3.083,6.164,4.049c3.818,1.15,7.959,2.668,7.959,7.131v0.092c0,4.923-3.957,7.591-9.018,7.591
			C806.236,368.974,802.326,367.64,799.382,365.339z"/>
		<path d="M824.222,356.139v-0.093c0-7.177,5.061-12.973,12.008-12.973c7.545,0,11.73,5.98,11.73,13.249
			c0,0.46-0.045,0.828-0.092,1.334h-19.275c0.551,4.969,4.094,7.775,8.234,7.775c3.266,0,5.52-1.288,7.545-3.358l2.621,2.346
			c-2.438,2.807-5.566,4.646-10.258,4.646C829.835,369.065,824.222,363.867,824.222,356.139z M843.589,354.574
			c-0.367-4.278-2.852-7.867-7.406-7.867c-4.141,0-7.131,3.312-7.637,7.867H843.589z"/>
		<path d="M852.466,365.339l2.115-3.036c2.715,2.024,5.658,3.129,8.465,3.129s4.738-1.381,4.738-3.543v-0.092
			c0-2.347-2.805-3.221-5.98-4.141c-3.818-1.104-8.096-2.484-8.096-7.085v-0.092c0-4.462,3.68-7.314,8.602-7.314
			c3.037,0,6.441,1.104,9.018,2.806l-1.887,3.175c-2.346-1.473-4.969-2.393-7.268-2.393c-2.715,0-4.416,1.381-4.416,3.267v0.092
			c0,2.209,2.99,3.083,6.164,4.049c3.818,1.15,7.959,2.668,7.959,7.131v0.092c0,4.923-3.957,7.591-9.018,7.591
			C859.32,368.974,855.41,367.64,852.466,365.339z"/>
	</g>
</g>
<g>
	<g enable-background="new    ">
		<path d="M91.758,446.222h24.383v4.003H96.175v10.627h17.804v4.003H96.175v10.856h20.196v4.003H91.758V446.222z"/>
		<path d="M123.911,444.796h4.279v34.918h-4.279V444.796z"/>
		<path d="M135.365,467.339v-0.093c0-7.177,5.061-12.973,12.007-12.973c7.545,0,11.731,5.98,11.731,13.249
			c0,0.46-0.046,0.828-0.092,1.334h-19.276c0.552,4.969,4.095,7.775,8.235,7.775c3.266,0,5.521-1.288,7.544-3.358l2.623,2.346
			c-2.438,2.807-5.567,4.646-10.259,4.646C140.977,480.266,135.365,475.067,135.365,467.339z M154.733,465.774
			c-0.368-4.278-2.853-7.867-7.407-7.867c-4.141,0-7.131,3.312-7.637,7.867H154.733z"/>
		<path d="M165.679,454.825h4.324v4.048c1.61-2.392,3.818-4.6,7.913-4.6c3.91,0,6.487,2.069,7.821,4.784
			c1.84-2.668,4.508-4.784,8.649-4.784c5.659,0,9.109,3.726,9.109,9.891v15.55h-4.325v-14.399c0-4.555-2.254-7.085-6.027-7.085
			c-3.588,0-6.395,2.576-6.395,7.223v14.262h-4.325v-14.491c0-4.417-2.254-6.993-5.98-6.993c-3.681,0-6.441,2.99-6.441,7.314v14.17
			h-4.324V454.825z"/>
		<path d="M210.068,467.339v-0.093c0-7.177,5.061-12.973,12.007-12.973c7.545,0,11.731,5.98,11.731,13.249
			c0,0.46-0.046,0.828-0.092,1.334h-19.276c0.552,4.969,4.095,7.775,8.235,7.775c3.266,0,5.521-1.288,7.545-3.358l2.622,2.346
			c-2.438,2.807-5.566,4.646-10.259,4.646C215.681,480.266,210.068,475.067,210.068,467.339z M229.437,465.774
			c-0.368-4.278-2.853-7.867-7.407-7.867c-4.141,0-7.131,3.312-7.637,7.867H229.437z"/>
		<path d="M240.383,454.825h4.324v4.187c1.656-2.576,4.141-4.738,8.281-4.738c5.935,0,9.339,4.002,9.339,9.845v15.596h-4.325
			v-14.399c0-4.417-2.346-7.085-6.395-7.085c-3.957,0-6.901,2.853-6.901,7.314v14.17h-4.324V454.825z"/>
		<path d="M271.57,473.043v-14.445h-3.358v-3.772h3.358v-7.315h4.278v7.315h7.545v3.772h-7.545v13.848
			c0,2.76,1.518,3.818,3.865,3.818c1.288,0,2.346-0.276,3.588-0.874v3.634c-1.334,0.736-2.761,1.104-4.646,1.104
			C274.606,480.128,271.57,478.195,271.57,473.043z"/>
		<path d="M287.992,476.539l2.116-3.036c2.714,2.024,5.659,3.129,8.465,3.129s4.739-1.381,4.739-3.543v-0.092
			c0-2.347-2.807-3.221-5.981-4.141c-3.818-1.104-8.097-2.484-8.097-7.085v-0.092c0-4.462,3.68-7.314,8.603-7.314
			c3.036,0,6.44,1.104,9.017,2.806l-1.886,3.175c-2.347-1.473-4.969-2.393-7.269-2.393c-2.714,0-4.417,1.381-4.417,3.267v0.092
			c0,2.209,2.99,3.083,6.165,4.049c3.818,1.15,7.959,2.668,7.959,7.131v0.092c0,4.923-3.957,7.591-9.017,7.591
			C294.846,480.174,290.936,478.84,287.992,476.539z"/>
		<path d="M348.529,475.205c-2.99,3.129-6.486,4.969-10.719,4.969c-6.119,0-10.673-3.772-10.673-9.431v-0.093
			c0-4.37,2.806-7.591,7.775-9.568c-2.163-2.576-3.174-4.646-3.174-7.27v-0.092c0-4.416,3.588-8.051,9.109-8.051
			c4.876,0,8.373,3.404,8.373,7.729v0.093c0,4.278-3.037,6.992-7.729,8.694l7.039,7.177c1.426-2.07,2.714-4.508,3.911-7.177
			l3.497,1.748c-1.426,2.991-2.944,5.797-4.739,8.189l5.705,5.751l-3.358,2.53L348.529,475.205z M345.907,472.583l-8.465-8.741
			c-4.095,1.519-5.843,4.049-5.843,6.625v0.138c0,3.358,2.714,5.889,6.579,5.889C341.077,476.493,343.653,474.976,345.907,472.583z
			 M345.171,453.721v-0.092c0-2.576-1.886-4.417-4.462-4.417c-2.806,0-4.785,1.979-4.785,4.601v0.093
			c0,1.84,0.782,3.266,3.128,5.796C343.101,458.367,345.171,456.436,345.171,453.721z"/>
		<path d="M377.415,454.825h4.324v4.738c1.979-2.898,4.831-5.29,9.247-5.29c5.889,0,11.777,4.738,11.777,12.927v0.092
			c0,8.189-5.843,12.974-11.777,12.974c-4.508,0-7.361-2.392-9.247-5.061v12.146h-4.324V454.825z M398.347,467.339v-0.093
			c0-5.566-3.818-9.154-8.281-9.154c-4.371,0-8.465,3.68-8.465,9.108v0.092c0,5.475,4.094,9.155,8.465,9.155
			C394.62,476.447,398.347,472.997,398.347,467.339z"/>
		<path d="M407.59,476.539l2.116-3.036c2.714,2.024,5.659,3.129,8.465,3.129c2.807,0,4.739-1.381,4.739-3.543v-0.092
			c0-2.347-2.807-3.221-5.981-4.141c-3.818-1.104-8.097-2.484-8.097-7.085v-0.092c0-4.462,3.68-7.314,8.603-7.314
			c3.036,0,6.44,1.104,9.017,2.806l-1.886,3.175c-2.347-1.473-4.969-2.393-7.269-2.393c-2.714,0-4.417,1.381-4.417,3.267v0.092
			c0,2.209,2.99,3.083,6.165,4.049c3.818,1.15,7.959,2.668,7.959,7.131v0.092c0,4.923-3.957,7.591-9.017,7.591
			C414.444,480.174,410.534,478.84,407.59,476.539z"/>
		<path d="M432.43,467.339v-0.093c0-7.177,5.061-12.973,12.007-12.973c7.545,0,11.731,5.98,11.731,13.249
			c0,0.46-0.046,0.828-0.093,1.334H436.8c0.552,4.969,4.094,7.775,8.235,7.775c3.267,0,5.521-1.288,7.545-3.358l2.623,2.346
			c-2.439,2.807-5.566,4.646-10.26,4.646C438.042,480.266,432.43,475.067,432.43,467.339z M451.798,465.774
			c-0.369-4.278-2.854-7.867-7.407-7.867c-4.141,0-7.131,3.312-7.637,7.867H451.798z"/>
		<path d="M462.375,470.421v-15.596h4.325v14.399c0,4.417,2.346,7.085,6.439,7.085c3.957,0,6.901-2.898,6.901-7.314v-14.17h4.278
			v24.889h-4.278v-4.187c-1.656,2.576-4.187,4.738-8.327,4.738C465.826,480.266,462.375,476.264,462.375,470.421z"/>
		<path d="M491.263,467.339v-0.093c0-8.188,5.797-12.973,11.777-12.973c4.463,0,7.314,2.392,9.248,5.061v-14.538h4.277v34.918
			h-4.277v-4.738c-1.979,2.853-4.832,5.29-9.248,5.29C497.105,480.266,491.263,475.527,491.263,467.339z M512.38,467.292V467.2
			c0-5.429-4.049-9.108-8.465-9.108c-4.51,0-8.236,3.45-8.236,9.108v0.092c0,5.521,3.818,9.155,8.236,9.155
			C508.332,476.447,512.38,472.767,512.38,467.292z"/>
		<path d="M523.416,467.385v-0.093c0-7.038,5.568-13.019,13.113-13.019c7.498,0,13.018,5.842,13.018,12.927v0.092
			c0,7.039-5.566,12.974-13.111,12.974S523.416,474.423,523.416,467.385z M545.13,467.385v-0.093c0-5.061-3.727-9.2-8.695-9.2
			c-5.152,0-8.648,4.14-8.648,9.108v0.092c0,5.015,3.727,9.155,8.742,9.155C541.681,476.447,545.13,472.353,545.13,467.385z"/>
		<path d="M555.339,463.06h13.619v4.417h-13.619V463.06z"/>
		<path d="M574.751,467.339v-0.093c0-7.177,5.061-12.973,12.008-12.973c7.545,0,11.732,5.98,11.732,13.249
			c0,0.46-0.047,0.828-0.092,1.334h-19.277c0.553,4.969,4.094,7.775,8.234,7.775c3.268,0,5.521-1.288,7.545-3.358l2.623,2.346
			c-2.438,2.807-5.566,4.646-10.26,4.646C580.365,480.266,574.751,475.067,574.751,467.339z M594.121,465.774
			c-0.367-4.278-2.852-7.867-7.406-7.867c-4.141,0-7.131,3.312-7.637,7.867H594.121z"/>
		<path d="M605.435,444.796h4.277v34.918h-4.277V444.796z"/>
		<path d="M616.886,467.339v-0.093c0-7.177,5.061-12.973,12.008-12.973c7.545,0,11.732,5.98,11.732,13.249
			c0,0.46-0.047,0.828-0.092,1.334h-19.277c0.553,4.969,4.094,7.775,8.234,7.775c3.268,0,5.521-1.288,7.545-3.358l2.623,2.346
			c-2.438,2.807-5.566,4.646-10.26,4.646C622.5,480.266,616.886,475.067,616.886,467.339z M636.255,465.774
			c-0.367-4.278-2.852-7.867-7.406-7.867c-4.141,0-7.131,3.312-7.637,7.867H636.255z"/>
		<path d="M647.201,454.825h4.324v4.048c1.611-2.392,3.818-4.6,7.914-4.6c3.91,0,6.486,2.069,7.82,4.784
			c1.84-2.668,4.508-4.784,8.648-4.784c5.66,0,9.109,3.726,9.109,9.891v15.55h-4.324v-14.399c0-4.555-2.254-7.085-6.027-7.085
			c-3.588,0-6.395,2.576-6.395,7.223v14.262h-4.324v-14.491c0-4.417-2.254-6.993-5.98-6.993c-3.68,0-6.441,2.99-6.441,7.314v14.17
			h-4.324V454.825z"/>
		<path d="M691.591,467.339v-0.093c0-7.177,5.061-12.973,12.008-12.973c7.545,0,11.73,5.98,11.73,13.249
			c0,0.46-0.045,0.828-0.092,1.334h-19.275c0.551,4.969,4.094,7.775,8.234,7.775c3.266,0,5.52-1.288,7.545-3.358l2.621,2.346
			c-2.438,2.807-5.566,4.646-10.258,4.646C697.205,480.266,691.591,475.067,691.591,467.339z M710.958,465.774
			c-0.367-4.278-2.852-7.867-7.406-7.867c-4.141,0-7.131,3.312-7.637,7.867H710.958z"/>
		<path d="M721.906,454.825h4.324v4.187c1.656-2.576,4.141-4.738,8.281-4.738c5.934,0,9.338,4.002,9.338,9.845v15.596h-4.324
			v-14.399c0-4.417-2.346-7.085-6.395-7.085c-3.957,0-6.9,2.853-6.9,7.314v14.17h-4.324V454.825z"/>
		<path d="M753.093,473.043v-14.445h-3.359v-3.772h3.359v-7.315h4.277v7.315h7.545v3.772h-7.545v13.848
			c0,2.76,1.52,3.818,3.865,3.818c1.287,0,2.346-0.276,3.588-0.874v3.634c-1.334,0.736-2.76,1.104-4.646,1.104
			C756.128,480.128,753.093,478.195,753.093,473.043z"/>
		<path d="M769.513,476.539l2.117-3.036c2.713,2.024,5.658,3.129,8.465,3.129s4.738-1.381,4.738-3.543v-0.092
			c0-2.347-2.807-3.221-5.98-4.141c-3.818-1.104-8.098-2.484-8.098-7.085v-0.092c0-4.462,3.682-7.314,8.604-7.314
			c3.037,0,6.441,1.104,9.018,2.806l-1.887,3.175c-2.346-1.473-4.969-2.393-7.27-2.393c-2.713,0-4.416,1.381-4.416,3.267v0.092
			c0,2.209,2.99,3.083,6.164,4.049c3.818,1.15,7.959,2.668,7.959,7.131v0.092c0,4.923-3.955,7.591-9.016,7.591
			C776.369,480.174,772.458,478.84,769.513,476.539z"/>
	</g>
</g>
<path fill="#C8C8C8" d="M437.8,391.5L425,409.7c-0.3,0.399-0.4,0.8-0.3,1.2l0,0c0,0.1,0,0.3,0,0.399c0,0.101,0.1,0.3,0.1,0.4
	c0.3,0.7,1,1.1,1.7,1.1h8.3v17.9c0,2.6,2,4.6,4.401,4.6c2.5,0,4.398-2.1,4.398-4.6v-17.9h3.602h4.699c0.199,0,0.301,0,0.5-0.1h0.1
	c0.1,0,0.201-0.101,0.301-0.2c0,0,0.1,0,0.1-0.1c0.1-0.101,0.199-0.2,0.301-0.301l0,0c0.1-0.1,0.199-0.3,0.299-0.5
	c0.301-0.699,0.301-1.5-0.199-2.1l-12.701-18.2c-0.398-0.5-0.898-0.8-1.5-0.8C438.701,390.7,438.1,391,437.8,391.5z"/>
<path fill="#C8C8C8" d="M437.8,278.101L425,296.399c-0.3,0.4-0.4,0.801-0.3,1.201l0,0c0,0.1,0,0.299,0,0.399s0.1,0.3,0.1,0.399
	c0.3,0.701,1,1.101,1.7,1.101h8.3v17.9c0,2.6,2,4.6,4.401,4.6c2.5,0,4.398-2.1,4.398-4.6v-17.9h3.602h4.699
	c0.199,0,0.301,0,0.5-0.101h0.1c0.1,0,0.201-0.1,0.301-0.199c0,0,0.1,0,0.1-0.1c0.1-0.101,0.199-0.201,0.301-0.301l0,0
	c0.1-0.1,0.199-0.3,0.299-0.5c0.301-0.699,0.301-1.5-0.199-2.1L440.599,278c-0.398-0.5-0.898-0.8-1.5-0.8
	C438.701,277.3,438.1,277.601,437.8,278.101z"/>
<path fill="#C8C8C8" d="M437.8,164.2L425,182.4c-0.3,0.4-0.4,0.8-0.3,1.2l0,0c0,0.1,0,0.3,0,0.4s0.1,0.3,0.1,0.4
	c0.3,0.7,1,1.1,1.7,1.1h8.3v17.9c0,2.6,2,4.6,4.401,4.6c2.5,0,4.398-2.1,4.398-4.6v-17.9h3.602h4.699c0.199,0,0.301,0,0.5-0.1h0.1
	c0.1,0,0.201-0.1,0.301-0.2c0,0,0.1,0,0.1-0.1c0.1-0.1,0.199-0.2,0.301-0.3l0,0c0.1-0.1,0.199-0.3,0.299-0.5
	c0.301-0.7,0.301-1.5-0.199-2.1L440.599,164c-0.398-0.5-0.898-0.8-1.5-0.8C438.701,163.3,438.1,163.6,437.8,164.2z"/>
<path fill="#C8C8C8" d="M437.8,54.5L425,72.7c-0.3,0.4-0.4,0.8-0.3,1.2l0,0c0,0.1,0,0.3,0,0.4c0,0.1,0.1,0.3,0.1,0.4
	c0.3,0.7,1,1.1,1.7,1.1h8.3v17.9c0,2.6,2,4.6,4.401,4.6c2.5,0,4.398-2.1,4.398-4.6V75.9h3.602h4.699c0.199,0,0.301,0,0.5-0.1h0.1
	c0.1,0,0.201-0.1,0.301-0.2c0,0,0.1,0,0.1-0.1c0.1-0.1,0.199-0.2,0.301-0.3l0,0c0.1-0.1,0.199-0.3,0.299-0.5
	c0.301-0.7,0.301-1.5-0.199-2.1l-12.701-18.2c-0.398-0.5-0.898-0.8-1.5-0.8C438.701,53.7,438.1,54,437.8,54.5z"/>
</svg>
