<?xml version="1.0" encoding="utf-8"?>
<!-- Generator: Adobe Illustrator 16.0.4, SVG Export Plug-In . SVG Version: 6.00 Build 0)  -->
<!DOCTYPE svg PUBLIC "-//W3C//DTD SVG 1.1//EN" "http://www.w3.org/Graphics/SVG/1.1/DTD/svg11.dtd">
<svg version="1.1" id="Layer_1" xmlns="http://www.w3.org/2000/svg" xmlns:xlink="http://www.w3.org/1999/xlink" x="0px" y="0px"
	 width="748px" height="426px" viewBox="0 0 748 426" enable-background="new 0 0 748 426" xml:space="preserve">
<line fill="none" stroke="#C8C8C8" stroke-width="3" stroke-miterlimit="10" x1="0" y1="46.5" x2="748" y2="46.5"/>
<g>
	<g>
		<line fill="none" stroke="#C8C8C8" stroke-width="3" stroke-miterlimit="10" x1="0" y1="297.5" x2="6" y2="297.5"/>
		
			<line fill="none" stroke="#C8C8C8" stroke-width="3" stroke-miterlimit="10" stroke-dasharray="12,10" x1="16" y1="297.5" x2="737" y2="297.5"/>
		<line fill="none" stroke="#C8C8C8" stroke-width="3" stroke-miterlimit="10" x1="742" y1="297.5" x2="748" y2="297.5"/>
	</g>
</g>
<line fill="none" stroke="#C8C8C8" stroke-width="3" stroke-miterlimit="10" x1="0" y1="423.5" x2="748" y2="423.5"/>
<g>
	<g>
		<path fill="#ED4343" d="M2.376,98.841h2.712l9.553,12.313V98.841h2.904v17.474h-2.472L5.28,103.666v12.649H2.376V98.841z"/>
		<path fill="#ED4343" d="M21.048,112.522v-0.048c0-2.832,2.232-4.224,5.449-4.224c1.488,0,2.568,0.216,3.6,0.552v-0.336
			c0-1.92-1.176-2.952-3.336-2.952c-1.488,0-2.592,0.312-3.792,0.816l-0.768-2.256c1.44-0.648,2.856-1.08,4.944-1.08
			c1.944,0,3.408,0.528,4.344,1.464c0.96,0.936,1.392,2.304,1.392,4.032v7.825h-2.808v-1.68c-0.888,1.08-2.28,1.944-4.32,1.944
			C23.28,116.579,21.048,115.163,21.048,112.522z M30.145,111.586v-0.96c-0.792-0.288-1.848-0.528-3.097-0.528
			c-1.992,0-3.168,0.864-3.168,2.256v0.048c0,1.32,1.176,2.064,2.64,2.064C28.584,114.467,30.145,113.291,30.145,111.586z"/>
		<path fill="#ED4343" d="M37.272,112.715v-7.057h-1.704v-2.497h1.704v-3.648h2.88v3.648h3.601v2.497h-3.601v6.601
			c0,1.2,0.624,1.704,1.68,1.704c0.672,0,1.272-0.168,1.872-0.456v2.376c-0.744,0.408-1.56,0.648-2.664,0.648
			C38.832,116.531,37.272,115.571,37.272,112.715z"/>
		<path fill="#ED4343" d="M47.088,98.265h3.145v2.785h-3.145V98.265z M47.208,103.162h2.904v13.153h-2.904V103.162z"/>
		<path fill="#ED4343" d="M53.064,103.162h3.12l3.625,9.793l3.672-9.793h3.048l-5.425,13.25h-2.616L53.064,103.162z"/>
		<path fill="#ED4343" d="M67.848,109.787v-0.048c0-3.768,2.665-6.84,6.409-6.84c4.152,0,6.265,3.264,6.265,7.057
			c0,0.264,0,0.528-0.024,0.816h-9.745c0.312,2.232,1.873,3.456,3.864,3.456c1.512,0,2.592-0.552,3.625-1.584l1.728,1.512
			c-1.272,1.488-2.976,2.448-5.4,2.448C70.776,116.603,67.848,113.843,67.848,109.787z M77.665,108.85
			c-0.216-2.016-1.368-3.576-3.432-3.576c-1.896,0-3.24,1.464-3.528,3.576H77.665z"/>
	</g>
</g>
<g>
	<g>
		<path fill="#464646" d="M2.376,227.743h7.801c1.968,0,3.552,0.552,4.537,1.536c0.792,0.792,1.176,1.729,1.176,2.904v0.048
			c0,2.112-1.224,3.241-2.52,3.913c2.04,0.696,3.504,1.872,3.504,4.249v0.048c0,3.096-2.568,4.776-6.457,4.776H2.376V227.743z
			 M12.961,232.64c0-1.416-1.152-2.28-3.168-2.28H5.256v4.801h4.32c2.016,0,3.384-0.816,3.384-2.473V232.64z M10.225,237.656H5.256
			v4.944h5.185c2.16,0,3.48-0.864,3.48-2.472v-0.048C13.921,238.568,12.697,237.656,10.225,237.656z"/>
		<path fill="#464646" d="M20.232,232.063h2.88v3.024c0.864-1.992,2.424-3.36,4.752-3.264v3.048h-0.168
			c-2.665,0-4.584,1.776-4.584,5.304v5.041h-2.88V232.063z"/>
		<path fill="#464646" d="M30.744,227.167h3.145v2.785h-3.145V227.167z M30.864,232.063h2.904v13.153h-2.904V232.063z"/>
		<path fill="#464646" d="M37.296,238.664v-0.048c0-4.344,2.976-6.816,6.121-6.816c2.208,0,3.6,1.104,4.536,2.352v-7.153h2.904
			v18.218h-2.904v-2.256c-0.984,1.417-2.376,2.521-4.536,2.521C40.32,245.481,37.296,243.033,37.296,238.664z M48.025,238.664
			v-0.048c0-2.592-1.848-4.32-3.937-4.32c-2.112,0-3.864,1.656-3.864,4.32v0.048c0,2.616,1.776,4.32,3.864,4.32
			S48.025,241.256,48.025,238.664z"/>
		<path fill="#464646" d="M54.839,247.665l1.104-2.184c1.416,0.912,2.928,1.416,4.729,1.416c2.712,0,4.224-1.392,4.224-4.104v-1.056
			c-1.104,1.417-2.496,2.424-4.68,2.424c-3.12,0-6-2.28-6-6.145v-0.048c0-3.888,2.928-6.168,6-6.168c2.232,0,3.624,1.032,4.656,2.28
			v-2.017h2.904v10.489c0,2.208-0.6,3.864-1.68,4.944c-1.2,1.2-3.024,1.752-5.353,1.752
			C58.583,249.249,56.567,248.697,54.839,247.665z M64.944,238.016v-0.048c0-2.232-1.848-3.72-3.984-3.72s-3.816,1.488-3.816,3.696
			v0.048c0,2.208,1.704,3.72,3.816,3.72C63.096,241.712,64.944,240.2,64.944,238.016z"/>
		<path fill="#464646" d="M71.087,238.688v-0.048c0-3.768,2.665-6.84,6.409-6.84c4.152,0,6.265,3.264,6.265,7.057
			c0,0.264,0,0.528-0.024,0.816h-9.745c0.312,2.232,1.873,3.456,3.864,3.456c1.512,0,2.592-0.552,3.625-1.584l1.728,1.512
			c-1.272,1.488-2.976,2.448-5.4,2.448C74.016,245.505,71.087,242.745,71.087,238.688z M80.904,237.752
			c-0.216-2.016-1.368-3.576-3.432-3.576c-1.896,0-3.24,1.464-3.528,3.576H80.904z"/>
	</g>
</g>
<g>
	<g>
		<path fill="#ED4343" d="M0.648,373.217l1.944-1.992c1.032,1.344,2.064,2.111,3.576,2.111c1.704,0,2.856-1.152,2.856-3.527v-11.474
			h3.024v11.545c0,2.064-0.6,3.601-1.632,4.633s-2.472,1.536-4.201,1.536C3.528,376.049,1.8,374.801,0.648,373.217z"/>
		<path fill="#ED4343" d="M15.336,373.264l1.776-2.111c1.68,1.464,3.384,2.28,5.569,2.28c1.944,0,3.192-0.912,3.192-2.28v-0.049
			c0-1.271-0.72-1.967-4.008-2.735c-3.768-0.888-5.833-2.017-5.833-5.208v-0.049c0-2.952,2.472-5.016,5.929-5.016
			c2.568,0,4.561,0.744,6.336,2.184l-1.608,2.232c-1.56-1.2-3.145-1.801-4.776-1.801c-1.848,0-2.953,0.937-2.953,2.137v0.048
			c0,1.392,0.816,2.04,4.249,2.832c3.72,0.888,5.592,2.232,5.592,5.089v0.048c0,3.24-2.568,5.185-6.192,5.185
			C19.92,376.049,17.424,375.137,15.336,373.264z"/>
	</g>
</g>
<g>
	<g>
		<line fill="none" stroke="#C8C8C8" stroke-width="3" stroke-miterlimit="10" x1="0" y1="172.5" x2="6" y2="172.5"/>
		
			<line fill="none" stroke="#C8C8C8" stroke-width="3" stroke-miterlimit="10" stroke-dasharray="12,10" x1="16" y1="172.5" x2="737" y2="172.5"/>
		<line fill="none" stroke="#C8C8C8" stroke-width="3" stroke-miterlimit="10" x1="742" y1="172.5" x2="748" y2="172.5"/>
	</g>
</g>
<g>
	<circle fill="#ED4343" cx="195.049" cy="78.049" r="17.049"/>
	<g>
		<g>
			<path fill="#FFFFFF" d="M194.586,72.456l-3.145,0.888l-0.648-2.4l4.656-1.488h2.064v17.594h-2.928V72.456z"/>
		</g>
	</g>
</g>
<g>
	<circle fill="#ED4343" cx="195.049" cy="139.049" r="17.049"/>
	<g>
		<g>
			<path fill="#FFFFFF" d="M188.37,145.721l6.048-5.161c2.424-2.088,3.312-3.216,3.312-4.8c0-1.752-1.272-2.784-2.904-2.784
				c-1.656,0-2.76,0.888-4.104,2.64l-2.088-1.632c1.656-2.328,3.312-3.648,6.409-3.648c3.384,0,5.712,2.088,5.712,5.184v0.048
				c0,2.736-1.416,4.224-4.512,6.769l-3.72,3.12h8.424v2.592H188.37V145.721z"/>
		</g>
	</g>
</g>
<g>
	<circle fill="#ED4343" cx="195.049" cy="239.049" r="17.049"/>
	<g>
		<path fill="#FFFFFF" d="M188.226,246.24l2.088-1.92c1.248,1.488,2.688,2.328,4.632,2.328c1.776,0,3.121-1.08,3.121-2.736v-0.048
			c0-1.776-1.632-2.76-4.128-2.76h-1.368l-0.504-1.848l4.824-5.161h-7.681v-2.568h11.497v2.208l-4.944,5.112
			c2.712,0.312,5.232,1.68,5.232,4.896v0.048c0,3.216-2.496,5.497-6.097,5.497C191.874,249.289,189.713,248.041,188.226,246.24z"/>
	</g>
</g>
<g>
	<circle fill="#ED4343" cx="195.049" cy="364.049" r="17.049"/>
	<g>
		<path fill="#FFFFFF" d="M196.49,369.656h-8.857l-0.576-2.112l9.745-11.546h2.52v11.234h2.521v2.424h-2.521v3.936h-2.832V369.656z
			 M196.49,367.232v-7.153l-5.929,7.153H196.49z"/>
	</g>
</g>
<g>
	<g>
		<path fill="#464646" d="M226.98,69.617h10.762v2.2h-8.322v3.921h7.382v2.201h-7.382v4.041h8.422v2.201H226.98V69.617z"/>
		<path fill="#464646" d="M239.54,73.217h2.601l3.021,8.162l3.061-8.162h2.541l-4.521,11.042h-2.181L239.54,73.217z"/>
		<path fill="#464646" d="M251.86,78.738v-0.04c0-3.141,2.221-5.702,5.341-5.702c3.461,0,5.221,2.721,5.221,5.881
			c0,0.22,0,0.44-0.02,0.68h-8.122c0.26,1.86,1.56,2.881,3.22,2.881c1.261,0,2.161-0.46,3.021-1.32l1.44,1.26
			c-1.061,1.24-2.481,2.041-4.501,2.041C254.301,84.42,251.86,82.119,251.86,78.738z M260.042,77.958
			c-0.18-1.681-1.141-2.981-2.861-2.981c-1.581,0-2.701,1.22-2.94,2.981H260.042z"/>
		<path fill="#464646" d="M265.16,73.217h2.401v1.72c0.72-1.04,1.76-1.94,3.48-1.94c2.48,0,3.941,1.661,3.941,4.221v6.961h-2.42
			v-6.241c0-1.741-0.88-2.741-2.42-2.741c-1.521,0-2.581,1.04-2.581,2.781v6.201h-2.401V73.217z"/>
		<path fill="#464646" d="M278.74,81.179v-5.881h-1.42v-2.081h1.42v-3.041h2.4v3.041h3v2.081h-3v5.501c0,1,0.52,1.42,1.4,1.42
			c0.56,0,1.06-0.14,1.56-0.38v1.98c-0.62,0.34-1.3,0.54-2.22,0.54C280.04,84.36,278.74,83.56,278.74,81.179z"/>
		<path fill="#464646" d="M225.91,95.906v-0.013c0-2.522,1.287-4.446,3.744-5.785l0.689,1.053c-1.937,1.287-2.86,2.704-2.86,4.745
			v0.013c0,2.002,0.923,3.445,2.86,4.719l-0.689,1.053C227.197,100.339,225.91,98.441,225.91,95.906z"/>
		<path fill="#464646" d="M232.488,97.83v-3.822h-0.923v-1.353h0.923V90.68h1.56v1.976h1.95v1.353h-1.95v3.575
			c0,0.65,0.338,0.923,0.91,0.923c0.364,0,0.689-0.091,1.014-0.247v1.287c-0.403,0.221-0.845,0.351-1.443,0.351
			C233.333,99.897,232.488,99.377,232.488,97.83z"/>
		<path fill="#464646" d="M237.181,96.257V96.23c0-2.028,1.612-3.718,3.796-3.718c2.171,0,3.77,1.651,3.77,3.692v0.026
			c0,2.028-1.612,3.705-3.796,3.705C238.78,99.936,237.181,98.285,237.181,96.257z M243.188,96.257V96.23
			c0-1.274-0.937-2.353-2.236-2.353c-1.339,0-2.21,1.066-2.21,2.327v0.026c0,1.274,0.936,2.34,2.236,2.34
			C242.316,98.571,243.188,97.518,243.188,96.257z"/>
		<path fill="#464646" d="M246.45,97.18v-4.524h1.573v4.057c0,1.131,0.585,1.781,1.573,1.781c0.988,0,1.677-0.676,1.677-1.807v-4.03
			h1.56v7.125h-1.56v-1.118c-0.468,0.676-1.131,1.261-2.249,1.261C247.399,99.923,246.45,98.844,246.45,97.18z"/>
		<path fill="#464646" d="M254.627,96.257V96.23c0-2.028,1.56-3.718,3.692-3.718c1.339,0,2.184,0.507,2.847,1.235l-0.988,1.053
			c-0.507-0.533-1.04-0.923-1.872-0.923c-1.222,0-2.119,1.053-2.119,2.327v0.026c0,1.3,0.91,2.34,2.197,2.34
			c0.78,0,1.352-0.364,1.885-0.897l0.949,0.923c-0.715,0.78-1.534,1.339-2.912,1.339C256.187,99.936,254.627,98.271,254.627,96.257z
			"/>
		<path fill="#464646" d="M262.843,89.913h1.56v3.861c0.468-0.676,1.145-1.261,2.262-1.261c1.612,0,2.561,1.079,2.561,2.743v4.524
			h-1.573v-4.056c0-1.131-0.572-1.781-1.573-1.781c-0.988,0-1.677,0.676-1.677,1.807v4.03h-1.56V89.913z"/>
		<path fill="#464646" d="M270.76,101.041c0.806-0.169,1.183-0.585,1.131-1.261h-0.676v-1.807h1.729v1.534
			c0,1.456-0.689,2.08-2.015,2.197L270.76,101.041z"/>
		<path fill="#464646" d="M279.534,97.83v-3.822h-0.923v-1.353h0.923V90.68h1.56v1.976h1.95v1.353h-1.95v3.575
			c0,0.65,0.338,0.923,0.91,0.923c0.364,0,0.689-0.091,1.014-0.247v1.287c-0.403,0.221-0.845,0.351-1.443,0.351
			C280.379,99.897,279.534,99.377,279.534,97.83z"/>
		<path fill="#464646" d="M284.852,90.003h1.703v1.508h-1.703V90.003z M284.917,92.655h1.573v7.125h-1.573V92.655z"/>
		<path fill="#464646" d="M288.765,92.655h1.56v1.105c0.468-0.65,1.092-1.248,2.197-1.248c1.04,0,1.768,0.507,2.145,1.261
			c0.572-0.754,1.313-1.261,2.418-1.261c1.56,0,2.509,1.001,2.509,2.743v4.524h-1.56v-4.056c0-1.157-0.559-1.781-1.495-1.781
			c-0.91,0-1.573,0.637-1.573,1.807v4.03h-1.573v-4.082c0-1.131-0.546-1.755-1.482-1.755s-1.586,0.702-1.586,1.82v4.017h-1.56
			V92.655z"/>
		<path fill="#464646" d="M301.322,96.244v-0.026c0-2.041,1.443-3.705,3.471-3.705c2.249,0,3.393,1.768,3.393,3.822
			c0,0.143,0,0.286-0.013,0.442h-5.278c0.169,1.209,1.014,1.872,2.093,1.872c0.819,0,1.404-0.299,1.963-0.858l0.936,0.819
			c-0.689,0.806-1.612,1.326-2.925,1.326C302.908,99.936,301.322,98.441,301.322,96.244z M306.639,95.737
			c-0.117-1.092-0.741-1.937-1.859-1.937c-1.027,0-1.755,0.793-1.911,1.937H306.639z"/>
		<path fill="#464646" d="M309.967,92.655h1.561v1.638c0.468-1.079,1.313-1.82,2.574-1.768v1.651h-0.091
			c-1.443,0-2.483,0.962-2.483,2.873v2.73h-1.561V92.655z"/>
		<path fill="#464646" d="M319.795,92.655h1.56v1.118c0.468-0.676,1.145-1.261,2.262-1.261c1.612,0,2.561,1.079,2.561,2.743v4.524
			h-1.573v-4.056c0-1.131-0.572-1.781-1.573-1.781c-0.988,0-1.677,0.676-1.677,1.807v4.03h-1.56V92.655z"/>
		<path fill="#464646" d="M327.881,96.244v-0.026c0-2.041,1.443-3.705,3.471-3.705c2.249,0,3.393,1.768,3.393,3.822
			c0,0.143,0,0.286-0.013,0.442h-5.278c0.169,1.209,1.014,1.872,2.093,1.872c0.819,0,1.404-0.299,1.963-0.858l0.936,0.819
			c-0.689,0.806-1.612,1.326-2.925,1.326C329.467,99.936,327.881,98.441,327.881,96.244z M333.198,95.737
			c-0.117-1.092-0.741-1.937-1.859-1.937c-1.027,0-1.755,0.793-1.911,1.937H333.198z"/>
		<path fill="#464646" d="M336.876,97.83v-3.822h-0.923v-1.353h0.923V90.68h1.56v1.976h1.95v1.353h-1.95v3.575
			c0,0.65,0.338,0.923,0.91,0.923c0.364,0,0.689-0.091,1.014-0.247v1.287c-0.403,0.221-0.845,0.351-1.443,0.351
			C337.722,99.897,336.876,99.377,336.876,97.83z"/>
		<path fill="#464646" d="M341.57,92.655h1.612l1.482,4.979l1.625-5.005h1.326l1.625,5.005l1.508-4.979h1.573l-2.354,7.177h-1.391
			l-1.625-4.954l-1.651,4.954h-1.391L341.57,92.655z"/>
		<path fill="#464646" d="M353.179,96.257V96.23c0-2.028,1.612-3.718,3.796-3.718c2.171,0,3.771,1.651,3.771,3.692v0.026
			c0,2.028-1.612,3.705-3.796,3.705C354.778,99.936,353.179,98.285,353.179,96.257z M359.185,96.257V96.23
			c0-1.274-0.936-2.353-2.236-2.353c-1.339,0-2.21,1.066-2.21,2.327v0.026c0,1.274,0.936,2.34,2.236,2.34
			C358.314,98.571,359.185,97.518,359.185,96.257z"/>
		<path fill="#464646" d="M362.538,92.655h1.561v1.638c0.468-1.079,1.313-1.82,2.574-1.768v1.651h-0.091
			c-1.443,0-2.483,0.962-2.483,2.873v2.73h-1.561V92.655z"/>
		<path fill="#464646" d="M368.206,89.913h1.561v6.006l3.068-3.263h1.898l-2.847,2.925l2.951,4.199h-1.846l-2.158-3.107
			l-1.066,1.092v2.015h-1.561V89.913z"/>
		<path fill="#464646" d="M375.604,101.041c0.806-0.169,1.183-0.585,1.131-1.261h-0.676v-1.807h1.729v1.534
			c0,1.456-0.688,2.08-2.015,2.197L375.604,101.041z"/>
		<path fill="#464646" d="M383.638,96.244v-0.026c0-2.041,1.443-3.705,3.471-3.705c2.249,0,3.394,1.768,3.394,3.822
			c0,0.143,0,0.286-0.013,0.442h-5.278c0.169,1.209,1.014,1.872,2.093,1.872c0.819,0,1.404-0.299,1.963-0.858l0.937,0.819
			c-0.689,0.806-1.612,1.326-2.926,1.326C385.224,99.936,383.638,98.441,383.638,96.244z M388.955,95.737
			c-0.117-1.092-0.741-1.937-1.859-1.937c-1.027,0-1.755,0.793-1.911,1.937H388.955z"/>
		<path fill="#464646" d="M392.634,97.83v-3.822h-0.923v-1.353h0.923V90.68h1.56v1.976h1.95v1.353h-1.95v3.575
			c0,0.65,0.338,0.923,0.91,0.923c0.364,0,0.689-0.091,1.014-0.247v1.287c-0.402,0.221-0.845,0.351-1.442,0.351
			C393.479,99.897,392.634,99.377,392.634,97.83z"/>
		<path fill="#464646" d="M397.326,96.257V96.23c0-2.028,1.56-3.718,3.692-3.718c1.339,0,2.184,0.507,2.847,1.235l-0.988,1.053
			c-0.507-0.533-1.04-0.923-1.872-0.923c-1.222,0-2.119,1.053-2.119,2.327v0.026c0,1.3,0.91,2.34,2.197,2.34
			c0.78,0,1.353-0.364,1.886-0.897l0.948,0.923c-0.715,0.78-1.534,1.339-2.912,1.339C398.886,99.936,397.326,98.271,397.326,96.257z
			"/>
		<path fill="#464646" d="M405.438,97.973h1.729v1.807h-1.729V97.973z"/>
		<path fill="#464646" d="M408.87,100.638c1.924-1.287,2.86-2.704,2.86-4.732v-0.013c0-2.015-0.937-3.458-2.86-4.732l0.689-1.053
			c2.444,1.352,3.744,3.25,3.744,5.798v0.013c0,2.509-1.3,4.433-3.744,5.772L408.87,100.638z"/>
	</g>
</g>
<g>
	<circle fill="#ED4343" cx="481.005" cy="78.049" r="17.05"/>
	<g>
		<path fill="#FFFFFF" d="M474.346,82.297v-0.048c0-2.088,1.224-3.457,3.191-4.249c-1.463-0.792-2.592-1.968-2.592-3.912V74.04
			c0-2.688,2.616-4.704,6.072-4.704c3.457,0,6.049,1.992,6.049,4.704v0.048c0,1.944-1.104,3.12-2.592,3.912
			c1.92,0.84,3.191,2.112,3.191,4.176v0.048c0,3.144-2.855,5.064-6.648,5.064C477.201,87.29,474.346,85.297,474.346,82.297z
			 M484.762,82.129v-0.048c0-1.632-1.631-2.712-3.744-2.712c-2.136,0-3.768,1.08-3.768,2.712v0.048c0,1.464,1.392,2.688,3.768,2.688
			C483.37,84.817,484.762,83.617,484.762,82.129z M484.211,74.376v-0.072c0-1.368-1.297-2.496-3.193-2.496
			c-1.92,0-3.216,1.104-3.216,2.496v0.048c0,1.536,1.345,2.641,3.216,2.641C482.866,76.993,484.211,75.912,484.211,74.376z"/>
	</g>
</g>
<g>
	<circle fill="#ED4343" cx="481.049" cy="139.049" r="17.049"/>
	<g>
		<path fill="#FFFFFF" d="M484.73,133.168h-8.881v-2.592h12.217v2.208l-7.873,15.265h-3.312L484.73,133.168z"/>
	</g>
</g>
<g>
	<circle fill="#ED4343" cx="481.049" cy="239.049" r="17.049"/>
	<g>
		<path fill="#FFFFFF" d="M476.697,246.464c-1.32-1.32-2.111-3.144-2.111-6.672v-0.048c0-5.353,2.544-9.505,7.465-9.505
			c2.231,0,3.791,0.72,5.328,1.944l-1.608,2.28c-1.224-0.984-2.28-1.56-3.841-1.56c-3.096,0-4.271,3.216-4.32,5.809h0.024
			c1.032-1.104,2.353-1.896,4.272-1.873c3.36,0,6.096,2.016,6.096,5.473v0.048c0,3.48-2.783,5.929-6.456,5.929
			C479.434,248.289,477.873,247.641,476.697,246.464z M485.051,242.504v-0.048c0-1.8-1.44-3.145-3.625-3.145
			c-2.256,0-3.648,1.464-3.648,3.168v0.048c0,1.824,1.488,3.216,3.697,3.216C483.706,245.744,485.051,244.328,485.051,242.504z"/>
	</g>
</g>
<g>
	<circle fill="#ED4343" cx="481.049" cy="364.049" r="17.049"/>
	<g>
		<path fill="#FFFFFF" d="M474.346,371.191l1.824-2.111c1.416,1.32,2.904,2.137,4.536,2.137c2.16,0,3.552-1.249,3.552-3.121v-0.048
			c0-1.824-1.512-3.001-3.695-3.001c-1.272,0-2.353,0.385-3.265,0.816l-1.8-1.176l0.504-8.568h10.416v2.615h-7.872l-0.288,4.273
			c0.84-0.312,1.656-0.528,2.856-0.528c3.384,0,6.072,1.824,6.072,5.472V368c0,3.553-2.616,5.881-6.456,5.881
			C478.09,373.881,475.978,372.801,474.346,371.191z"/>
	</g>
</g>
<g>
	<g>
		<path fill="#464646" d="M226.32,129.438v-0.04c0-4.141,3.121-7.521,7.501-7.521c2.681,0,4.301,0.92,5.701,2.261l-1.6,1.82
			c-1.16-1.101-2.42-1.82-4.121-1.82c-2.82,0-4.901,2.32-4.901,5.221v0.04c0,2.921,2.061,5.261,4.901,5.261
			c1.82,0,2.981-0.7,4.241-1.9l1.58,1.601c-1.52,1.56-3.181,2.561-5.901,2.561C229.481,136.92,226.32,133.619,226.32,129.438z"/>
		<path fill="#464646" d="M241.42,131.258v-0.04c0-3.121,2.48-5.722,5.841-5.722c3.341,0,5.801,2.541,5.801,5.682v0.04
			c0,3.121-2.48,5.701-5.841,5.701C243.881,136.92,241.42,134.379,241.42,131.258z M250.663,131.258v-0.04
			c0-1.96-1.44-3.621-3.441-3.621c-2.061,0-3.4,1.641-3.4,3.581v0.04c0,1.96,1.44,3.601,3.44,3.601
			C249.322,134.819,250.663,133.199,250.663,131.258z"/>
		<path fill="#464646" d="M255.96,121.497h2.42v15.183h-2.42V121.497z"/>
		<path fill="#464646" d="M262.021,121.497h2.42v15.183h-2.42V121.497z"/>
		<path fill="#464646" d="M267.34,131.238v-0.04c0-3.141,2.221-5.702,5.341-5.702c3.461,0,5.221,2.721,5.221,5.881
			c0,0.22,0,0.44-0.02,0.68h-8.122c0.26,1.86,1.56,2.881,3.22,2.881c1.261,0,2.161-0.46,3.021-1.32l1.44,1.26
			c-1.061,1.24-2.481,2.041-4.501,2.041C269.781,136.92,267.34,134.619,267.34,131.238z M275.522,130.458
			c-0.18-1.681-1.141-2.981-2.861-2.981c-1.581,0-2.701,1.22-2.94,2.981H275.522z"/>
		<path fill="#464646" d="M280.04,131.258v-0.04c0-3.121,2.401-5.722,5.681-5.722c2.061,0,3.361,0.78,4.381,1.9l-1.521,1.621
			c-0.78-0.82-1.601-1.42-2.881-1.42c-1.88,0-3.26,1.621-3.26,3.581v0.04c0,2,1.4,3.601,3.38,3.601c1.2,0,2.081-0.56,2.901-1.38
			l1.46,1.42c-1.1,1.2-2.36,2.061-4.481,2.061C282.441,136.92,280.04,134.359,280.04,131.258z"/>
		<path fill="#464646" d="M293.22,133.679v-5.881h-1.42v-2.081h1.42v-3.041h2.4v3.041h3v2.081h-3v5.501c0,1,0.52,1.42,1.4,1.42
			c0.56,0,1.06-0.14,1.56-0.38v1.98c-0.62,0.34-1.3,0.54-2.22,0.54C294.521,136.86,293.22,136.06,293.22,133.679z"/>
		<path fill="#464646" d="M307.199,131.219v-0.04c0-3.621,2.48-5.682,5.101-5.682c1.84,0,3.001,0.92,3.781,1.96v-5.961h2.421v15.183
			h-2.421v-1.88c-0.82,1.18-1.98,2.101-3.781,2.101C309.72,136.9,307.199,134.859,307.199,131.219z M316.141,131.219v-0.04
			c0-2.161-1.54-3.601-3.281-3.601c-1.76,0-3.221,1.38-3.221,3.601v0.04c0,2.18,1.48,3.601,3.221,3.601
			C314.601,134.819,316.141,133.379,316.141,131.219z"/>
		<path fill="#464646" d="M321.119,133.519v-0.04c0-2.36,1.86-3.521,4.541-3.521c1.241,0,2.141,0.18,3.001,0.46v-0.28
			c0-1.6-0.98-2.46-2.781-2.46c-1.24,0-2.161,0.26-3.161,0.68l-0.64-1.88c1.2-0.54,2.38-0.9,4.121-0.9c1.62,0,2.84,0.44,3.621,1.22
			c0.8,0.78,1.16,1.92,1.16,3.361v6.521h-2.34v-1.4c-0.74,0.9-1.9,1.621-3.601,1.621C322.979,136.9,321.119,135.72,321.119,133.519z
			 M328.701,132.739v-0.8c-0.66-0.24-1.541-0.44-2.581-0.44c-1.661,0-2.641,0.72-2.641,1.88v0.04c0,1.1,0.98,1.72,2.2,1.72
			C327.4,135.139,328.701,134.159,328.701,132.739z"/>
		<path fill="#464646" d="M334.639,133.679v-5.881h-1.42v-2.081h1.42v-3.041h2.4v3.041h3v2.081h-3v5.501c0,1,0.52,1.42,1.4,1.42
			c0.56,0,1.06-0.14,1.56-0.38v1.98c-0.62,0.34-1.3,0.54-2.22,0.54C335.939,136.86,334.639,136.06,334.639,133.679z"/>
		<path fill="#464646" d="M342.039,133.519v-0.04c0-2.36,1.86-3.521,4.541-3.521c1.24,0,2.141,0.18,3.001,0.46v-0.28
			c0-1.6-0.98-2.46-2.781-2.46c-1.24,0-2.161,0.26-3.161,0.68l-0.64-1.88c1.2-0.54,2.38-0.9,4.121-0.9c1.62,0,2.84,0.44,3.621,1.22
			c0.8,0.78,1.16,1.92,1.16,3.361v6.521h-2.34v-1.4c-0.74,0.9-1.9,1.621-3.601,1.621C343.899,136.9,342.039,135.72,342.039,133.519z
			 M349.62,132.739v-0.8c-0.66-0.24-1.541-0.44-2.581-0.44c-1.661,0-2.641,0.72-2.641,1.88v0.04c0,1.1,0.98,1.72,2.2,1.72
			C348.32,135.139,349.62,134.159,349.62,132.739z"/>
		<path fill="#464646" d="M362.059,133.679v-5.881h-1.42v-2.081h1.42v-3.041h2.4v3.041h3v2.081h-3v5.501c0,1,0.52,1.42,1.4,1.42
			c0.56,0,1.06-0.14,1.56-0.38v1.98c-0.62,0.34-1.3,0.54-2.22,0.54C363.358,136.86,362.059,136.06,362.059,133.679z"/>
		<path fill="#464646" d="M369.278,131.258v-0.04c0-3.121,2.48-5.722,5.841-5.722c3.341,0,5.802,2.541,5.802,5.682v0.04
			c0,3.121-2.481,5.701-5.842,5.701C371.738,136.92,369.278,134.379,369.278,131.258z M378.52,131.258v-0.04
			c0-1.96-1.439-3.621-3.44-3.621c-2.061,0-3.4,1.641-3.4,3.581v0.04c0,1.96,1.44,3.601,3.44,3.601
			C377.18,134.819,378.52,133.199,378.52,131.258z"/>
		<path fill="#464646" d="M226.68,147.717h2.401v1.72c0.72-1.04,1.76-1.94,3.48-1.94c2.48,0,3.941,1.661,3.941,4.221v6.961h-2.42
			v-6.241c0-1.741-0.88-2.741-2.42-2.741c-1.521,0-2.581,1.04-2.581,2.781v6.201h-2.401V147.717z"/>
		<path fill="#464646" d="M239.12,153.258v-0.04c0-3.121,2.48-5.722,5.841-5.722c3.341,0,5.801,2.541,5.801,5.682v0.04
			c0,3.121-2.48,5.701-5.841,5.701C241.581,158.92,239.12,156.379,239.12,153.258z M248.362,153.258v-0.04
			c0-1.96-1.44-3.621-3.441-3.621c-2.061,0-3.4,1.641-3.4,3.581v0.04c0,1.96,1.44,3.601,3.44,3.601
			C247.022,156.819,248.362,155.199,248.362,153.258z"/>
		<path fill="#464646" d="M254.061,155.679v-5.881h-1.42v-2.081h1.42v-3.041h2.4v3.041h3v2.081h-3v5.501c0,1,0.52,1.42,1.4,1.42
			c0.56,0,1.06-0.14,1.56-0.38v1.98c-0.62,0.34-1.3,0.54-2.22,0.54C255.36,158.86,254.061,158.06,254.061,155.679z"/>
		<path fill="#464646" d="M262.24,143.637h2.621v2.32h-2.621V143.637z M262.34,147.717h2.42v10.962h-2.42V147.717z"/>
		<path fill="#464646" d="M268.82,149.798h-1.38v-2.021h1.38v-0.82c0-1.22,0.32-2.14,0.92-2.72c0.56-0.561,1.38-0.86,2.44-0.86
			c0.88,0,1.46,0.1,2.021,0.28v2.041c-0.52-0.16-0.96-0.26-1.5-0.26c-0.98,0-1.48,0.54-1.48,1.72v0.64h2.94v2h-2.92v8.882h-2.42
			V149.798z"/>
		<path fill="#464646" d="M283.881,147.717h2.521l-4.381,11.263c-0.88,2.26-1.86,3.101-3.621,3.101c-1.02,0-1.78-0.24-2.561-0.66
			l0.82-1.82c0.46,0.26,0.96,0.44,1.5,0.44c0.74,0,1.181-0.34,1.641-1.36l-4.621-10.962h2.581l3.201,8.262L283.881,147.717z"/>
		<path fill="#464646" d="M294.04,156.519l1.621-1.66c0.86,1.12,1.72,1.76,2.98,1.76c1.42,0,2.38-0.96,2.38-2.94v-9.562h2.521v9.622
			c0,1.72-0.5,3-1.36,3.861c-0.86,0.86-2.06,1.28-3.5,1.28C296.44,158.88,295,157.839,294.04,156.519z"/>
		<path fill="#464646" d="M306.279,156.559l1.48-1.76c1.4,1.22,2.821,1.9,4.641,1.9c1.62,0,2.661-0.76,2.661-1.9v-0.04
			c0-1.06-0.6-1.64-3.341-2.28c-3.141-0.74-4.861-1.681-4.861-4.341v-0.04c0-2.461,2.06-4.181,4.941-4.181
			c2.14,0,3.801,0.62,5.281,1.82l-1.34,1.86c-1.3-1-2.621-1.5-3.981-1.5c-1.541,0-2.46,0.78-2.46,1.78v0.04
			c0,1.16,0.68,1.7,3.541,2.36c3.101,0.74,4.661,1.86,4.661,4.241v0.04c0,2.701-2.141,4.321-5.161,4.321
			C310.1,158.88,308.02,158.12,306.279,156.559z"/>
	</g>
</g>
<g>
	<g>
		<path fill="#464646" d="M226,244.334l1.48-1.76c1.4,1.22,2.821,1.9,4.641,1.9c1.62,0,2.661-0.76,2.661-1.9v-0.04
			c0-1.06-0.6-1.64-3.341-2.28c-3.141-0.74-4.861-1.681-4.861-4.341v-0.04c0-2.461,2.06-4.181,4.941-4.181
			c2.14,0,3.801,0.62,5.281,1.82l-1.34,1.86c-1.3-1-2.621-1.5-3.981-1.5c-1.541,0-2.46,0.78-2.46,1.78v0.04
			c0,1.16,0.68,1.7,3.541,2.36c3.101,0.74,4.661,1.86,4.661,4.241v0.04c0,2.701-2.141,4.321-5.161,4.321
			C229.821,246.655,227.741,245.895,226,244.334z"/>
		<path fill="#464646" d="M239.56,241.013v-0.04c0-3.141,2.221-5.702,5.341-5.702c3.461,0,5.221,2.721,5.221,5.881
			c0,0.22,0,0.44-0.02,0.68h-8.122c0.26,1.86,1.56,2.881,3.22,2.881c1.261,0,2.161-0.46,3.021-1.32l1.44,1.26
			c-1.061,1.24-2.481,2.041-4.501,2.041C242.001,246.695,239.56,244.394,239.56,241.013z M247.742,240.233
			c-0.18-1.681-1.141-2.981-2.861-2.981c-1.581,0-2.701,1.22-2.94,2.981H247.742z"/>
		<path fill="#464646" d="M252.86,235.492h2.401v2.521c0.72-1.66,2.02-2.8,3.96-2.721v2.541h-0.14c-2.221,0-3.821,1.48-3.821,4.421
			v4.201h-2.401V235.492z"/>
		<path fill="#464646" d="M261.62,231.412h2.621v2.32h-2.621V231.412z M261.72,235.492h2.42v10.962h-2.42V235.492z"/>
		<path fill="#464646" d="M266.9,243.294v-0.04c0-2.36,1.86-3.521,4.541-3.521c1.24,0,2.141,0.18,3.001,0.46v-0.28
			c0-1.6-0.98-2.46-2.781-2.46c-1.24,0-2.161,0.26-3.161,0.68l-0.64-1.88c1.2-0.54,2.38-0.9,4.121-0.9c1.62,0,2.84,0.44,3.621,1.22
			c0.8,0.78,1.16,1.92,1.16,3.361v6.521h-2.34v-1.4c-0.74,0.9-1.9,1.621-3.601,1.621C268.76,246.675,266.9,245.495,266.9,243.294z
			 M274.481,242.514v-0.8c-0.66-0.24-1.541-0.44-2.581-0.44c-1.661,0-2.641,0.72-2.641,1.88v0.04c0,1.1,0.98,1.72,2.2,1.72
			C273.181,244.914,274.481,243.934,274.481,242.514z"/>
		<path fill="#464646" d="M280.12,231.271h2.42v15.183h-2.42V231.271z"/>
		<path fill="#464646" d="M286.08,231.412h2.621v2.32h-2.621V231.412z M286.18,235.492h2.42v10.962h-2.42V235.492z"/>
		<path fill="#464646" d="M291.6,244.794l6.421-7.322h-6.201v-1.98h9.282v1.661l-6.421,7.321h6.421v1.98H291.6V244.794z"/>
		<path fill="#464646" d="M302.979,241.013v-0.04c0-3.141,2.221-5.702,5.341-5.702c3.461,0,5.221,2.721,5.221,5.881
			c0,0.22,0,0.44-0.02,0.68H305.4c0.26,1.86,1.56,2.881,3.221,2.881c1.26,0,2.16-0.46,3.021-1.32l1.44,1.26
			c-1.061,1.24-2.481,2.041-4.501,2.041C305.42,246.695,302.979,244.394,302.979,241.013z M311.162,240.233
			c-0.18-1.681-1.141-2.981-2.861-2.981c-1.581,0-2.701,1.22-2.94,2.981H311.162z"/>
		<path fill="#464646" d="M315.719,240.994v-0.04c0-3.621,2.48-5.682,5.101-5.682c1.84,0,3.001,0.92,3.781,1.96v-5.961h2.421v15.183
			h-2.421v-1.88c-0.82,1.18-1.98,2.101-3.781,2.101C318.24,246.675,315.719,244.634,315.719,240.994z M324.661,240.994v-0.04
			c0-2.161-1.54-3.601-3.281-3.601c-1.76,0-3.221,1.38-3.221,3.601v0.04c0,2.18,1.48,3.601,3.221,3.601
			C323.121,244.594,324.661,243.154,324.661,240.994z"/>
		<path fill="#464646" d="M336.779,235.492h2.401v1.88c0.82-1.18,2-2.101,3.801-2.101c2.581,0,5.101,2.041,5.101,5.682v0.04
			c0,3.621-2.5,5.681-5.101,5.681c-1.84,0-3.001-0.92-3.801-1.96v5.061h-2.401V235.492z M345.641,240.994v-0.04
			c0-2.181-1.48-3.601-3.221-3.601c-1.741,0-3.281,1.44-3.281,3.601v0.04c0,2.16,1.54,3.601,3.281,3.601
			C344.181,244.594,345.641,243.214,345.641,240.994z"/>
		<path fill="#464646" d="M350.139,243.294v-0.04c0-2.36,1.86-3.521,4.541-3.521c1.241,0,2.141,0.18,3.001,0.46v-0.28
			c0-1.6-0.98-2.46-2.781-2.46c-1.24,0-2.161,0.26-3.161,0.68l-0.64-1.88c1.2-0.54,2.38-0.9,4.121-0.9c1.62,0,2.84,0.44,3.621,1.22
			c0.8,0.78,1.16,1.92,1.16,3.361v6.521h-2.34v-1.4c-0.74,0.9-1.9,1.621-3.601,1.621
			C351.999,246.675,350.139,245.495,350.139,243.294z M357.72,242.514v-0.8c-0.66-0.24-1.541-0.44-2.581-0.44
			c-1.661,0-2.641,0.72-2.641,1.88v0.04c0,1.1,0.98,1.72,2.2,1.72C356.42,244.914,357.72,243.934,357.72,242.514z"/>
		<path fill="#464646" d="M370.46,235.492h2.521l-4.381,11.263c-0.88,2.26-1.86,3.101-3.621,3.101c-1.02,0-1.78-0.24-2.561-0.66
			l0.82-1.82c0.46,0.26,0.96,0.44,1.5,0.44c0.74,0,1.18-0.34,1.641-1.36l-4.621-10.962h2.581l3.201,8.262L370.46,235.492z"/>
		<path fill="#464646" d="M375.499,231.271h2.42v15.183h-2.42V231.271z"/>
		<path fill="#464646" d="M380.818,241.033v-0.04c0-3.121,2.48-5.722,5.842-5.722c3.34,0,5.801,2.541,5.801,5.682v0.04
			c0,3.121-2.48,5.701-5.841,5.701C383.279,246.695,380.818,244.154,380.818,241.033z M390.061,241.033v-0.04
			c0-1.96-1.44-3.621-3.44-3.621c-2.061,0-3.401,1.641-3.401,3.581v0.04c0,1.96,1.44,3.601,3.441,3.601
			C388.72,244.594,390.061,242.974,390.061,241.033z"/>
		<path fill="#464646" d="M394.478,243.294v-0.04c0-2.36,1.86-3.521,4.541-3.521c1.24,0,2.141,0.18,3,0.46v-0.28
			c0-1.6-0.979-2.46-2.78-2.46c-1.24,0-2.16,0.26-3.16,0.68l-0.641-1.88c1.2-0.54,2.381-0.9,4.121-0.9c1.62,0,2.841,0.44,3.62,1.22
			c0.801,0.78,1.161,1.92,1.161,3.361v6.521h-2.341v-1.4c-0.74,0.9-1.9,1.621-3.601,1.621
			C396.338,246.675,394.478,245.495,394.478,243.294z M402.059,242.514v-0.8c-0.66-0.24-1.54-0.44-2.58-0.44
			c-1.66,0-2.641,0.72-2.641,1.88v0.04c0,1.1,0.98,1.72,2.2,1.72C400.759,244.914,402.059,243.934,402.059,242.514z"/>
		<path fill="#464646" d="M406.997,240.994v-0.04c0-3.621,2.48-5.682,5.102-5.682c1.84,0,3,0.92,3.78,1.96v-5.961h2.421v15.183
			h-2.421v-1.88c-0.82,1.18-1.98,2.101-3.78,2.101C409.518,246.675,406.997,244.634,406.997,240.994z M415.939,240.994v-0.04
			c0-2.161-1.541-3.601-3.281-3.601c-1.76,0-3.221,1.38-3.221,3.601v0.04c0,2.18,1.48,3.601,3.221,3.601
			S415.939,243.154,415.939,240.994z"/>
	</g>
</g>
<g>
	<g>
		<path fill="#464646" d="M226.98,356.892h5.701c3.381,0,5.521,1.921,5.521,4.821v0.06c0,3.261-2.621,4.94-5.801,4.94h-2.96v4.742
			h-2.46V356.892z M232.481,364.514c1.98,0,3.241-1.121,3.241-2.682v-0.039c0-1.74-1.28-2.682-3.241-2.682h-3.041v5.402H232.481z"/>
		<path fill="#464646" d="M240.74,360.492h2.401v2.521c0.72-1.66,2.02-2.8,3.96-2.721v2.54h-0.14c-2.221,0-3.821,1.48-3.821,4.422
			v4.201h-2.401V360.492z"/>
		<path fill="#464646" d="M248.479,366.033v-0.039c0-3.121,2.48-5.723,5.841-5.723c3.341,0,5.801,2.541,5.801,5.682v0.041
			c0,3.12-2.48,5.701-5.841,5.701C250.94,371.695,248.479,369.154,248.479,366.033z M257.722,366.033v-0.039
			c0-1.961-1.44-3.621-3.441-3.621c-2.061,0-3.4,1.641-3.4,3.58v0.041c0,1.959,1.44,3.6,3.44,3.6
			C256.381,369.594,257.722,367.974,257.722,366.033z"/>
		<path fill="#464646" d="M262.279,366.033v-0.039c0-3.121,2.401-5.723,5.681-5.723c2.061,0,3.361,0.781,4.381,1.9l-1.521,1.621
			c-0.78-0.82-1.601-1.42-2.881-1.42c-1.88,0-3.26,1.62-3.26,3.58v0.041c0,2,1.4,3.6,3.38,3.6c1.2,0,2.081-0.56,2.901-1.38
			l1.46,1.421c-1.1,1.199-2.36,2.061-4.481,2.061C264.68,371.695,262.279,369.135,262.279,366.033z"/>
		<path fill="#464646" d="M274,366.014v-0.04c0-3.142,2.221-5.702,5.341-5.702c3.461,0,5.221,2.721,5.221,5.882
			c0,0.22,0,0.44-0.02,0.681h-8.122c0.26,1.859,1.56,2.881,3.22,2.881c1.261,0,2.161-0.461,3.021-1.32l1.44,1.26
			c-1.061,1.24-2.481,2.041-4.501,2.041C276.44,371.695,274,369.395,274,366.014z M282.182,365.233
			c-0.18-1.681-1.141-2.981-2.861-2.981c-1.581,0-2.701,1.221-2.94,2.981H282.182z"/>
		<path fill="#464646" d="M286.399,370.034l1.1-1.64c1.2,0.879,2.46,1.359,3.621,1.359c1.101,0,1.761-0.5,1.761-1.26v-0.04
			c0-0.88-1.181-1.181-2.48-1.581c-1.621-0.479-3.441-1.119-3.441-3.2v-0.04c0-2.061,1.68-3.32,3.861-3.32
			c1.38,0,2.88,0.48,4.021,1.24l-0.96,1.721c-1.06-0.641-2.181-1.041-3.101-1.041c-1.02,0-1.601,0.48-1.601,1.141v0.04
			c0,0.819,1.181,1.16,2.501,1.601c1.6,0.5,3.42,1.199,3.42,3.18v0.041c0,2.279-1.78,3.42-4.061,3.42
			C289.48,371.654,287.76,371.115,286.399,370.034z"/>
		<path fill="#464646" d="M296.76,370.034l1.1-1.64c1.2,0.879,2.46,1.359,3.621,1.359c1.101,0,1.761-0.5,1.761-1.26v-0.04
			c0-0.88-1.181-1.181-2.48-1.581c-1.621-0.479-3.441-1.119-3.441-3.2v-0.04c0-2.061,1.68-3.32,3.861-3.32
			c1.38,0,2.88,0.48,4.021,1.24l-0.96,1.721c-1.06-0.641-2.181-1.041-3.101-1.041c-1.02,0-1.601,0.48-1.601,1.141v0.04
			c0,0.819,1.181,1.16,2.501,1.601c1.6,0.5,3.42,1.199,3.42,3.18v0.041c0,2.279-1.78,3.42-4.061,3.42
			C299.84,371.654,298.12,371.115,296.76,370.034z"/>
		<path fill="#464646" d="M314.02,366.014v-0.04c0-3.142,2.221-5.702,5.341-5.702c3.461,0,5.221,2.721,5.221,5.882
			c0,0.22,0,0.44-0.02,0.681h-8.122c0.26,1.859,1.56,2.881,3.221,2.881c1.26,0,2.16-0.461,3.021-1.32l1.44,1.26
			c-1.061,1.24-2.481,2.041-4.501,2.041C316.46,371.695,314.02,369.395,314.02,366.014z M322.202,365.233
			c-0.18-1.681-1.141-2.981-2.861-2.981c-1.581,0-2.701,1.221-2.94,2.981H322.202z"/>
		<path fill="#464646" d="M325.759,360.492h2.601l3.021,8.162l3.061-8.162h2.541l-4.521,11.043h-2.181L325.759,360.492z"/>
		<path fill="#464646" d="M338.08,366.014v-0.04c0-3.142,2.221-5.702,5.341-5.702c3.461,0,5.221,2.721,5.221,5.882
			c0,0.22,0,0.44-0.02,0.681H340.5c0.26,1.859,1.56,2.881,3.22,2.881c1.261,0,2.161-0.461,3.021-1.32l1.44,1.26
			c-1.061,1.24-2.481,2.041-4.501,2.041C340.521,371.695,338.08,369.395,338.08,366.014z M346.262,365.233
			c-0.18-1.681-1.141-2.981-2.861-2.981c-1.581,0-2.701,1.221-2.94,2.981H346.262z"/>
		<path fill="#464646" d="M351.379,360.492h2.401v1.721c0.72-1.041,1.76-1.941,3.48-1.941c2.48,0,3.941,1.661,3.941,4.222v6.962
			h-2.42v-6.242c0-1.74-0.88-2.74-2.42-2.74c-1.521,0-2.581,1.04-2.581,2.781v6.201h-2.401V360.492z"/>
		<path fill="#464646" d="M364.96,368.454v-5.882h-1.42v-2.08h1.42v-3.041h2.4v3.041h3v2.08h-3v5.502c0,1,0.52,1.42,1.4,1.42
			c0.56,0,1.06-0.141,1.56-0.38v1.98c-0.62,0.34-1.3,0.54-2.22,0.54C366.26,371.635,364.96,370.834,364.96,368.454z"/>
	</g>
</g>
<g>
	<g>
		<path fill="#464646" d="M518,244.334l1.48-1.76c1.4,1.22,2.82,1.9,4.641,1.9c1.621,0,2.661-0.76,2.661-1.9v-0.04
			c0-1.06-0.601-1.64-3.341-2.28c-3.141-0.74-4.861-1.681-4.861-4.341v-0.04c0-2.461,2.061-4.181,4.941-4.181
			c2.141,0,3.801,0.62,5.281,1.82l-1.34,1.86c-1.301-1-2.621-1.5-3.981-1.5c-1.54,0-2.46,0.78-2.46,1.78v0.04
			c0,1.16,0.68,1.7,3.54,2.36c3.101,0.74,4.661,1.86,4.661,4.241v0.04c0,2.701-2.141,4.321-5.161,4.321
			C521.82,246.655,519.74,245.895,518,244.334z"/>
		<path fill="#464646" d="M531.561,241.013v-0.04c0-3.141,2.221-5.702,5.341-5.702c3.461,0,5.222,2.721,5.222,5.881
			c0,0.22,0,0.44-0.021,0.68h-8.122c0.26,1.86,1.561,2.881,3.221,2.881c1.261,0,2.16-0.46,3.021-1.32l1.439,1.26
			c-1.061,1.24-2.48,2.041-4.5,2.041C534.001,246.695,531.561,244.394,531.561,241.013z M539.742,240.233
			c-0.18-1.681-1.141-2.981-2.861-2.981c-1.58,0-2.7,1.22-2.939,2.981H539.742z"/>
		<path fill="#464646" d="M544.859,235.492h2.401v2.521c0.72-1.66,2.021-2.8,3.96-2.721v2.541h-0.139
			c-2.221,0-3.821,1.48-3.821,4.421v4.201h-2.401V235.492z"/>
		<path fill="#464646" d="M553.619,231.412h2.621v2.32h-2.621V231.412z M553.72,235.492h2.421v10.962h-2.421V235.492z"/>
		<path fill="#464646" d="M558.9,243.294v-0.04c0-2.36,1.859-3.521,4.54-3.521c1.24,0,2.141,0.18,3.001,0.46v-0.28
			c0-1.6-0.98-2.46-2.781-2.46c-1.24,0-2.16,0.26-3.16,0.68l-0.641-1.88c1.201-0.54,2.381-0.9,4.121-0.9
			c1.621,0,2.841,0.44,3.621,1.22c0.801,0.78,1.16,1.92,1.16,3.361v6.521h-2.34v-1.4c-0.74,0.9-1.9,1.621-3.602,1.621
			C560.76,246.675,558.9,245.495,558.9,243.294z M566.481,242.514v-0.8c-0.66-0.24-1.54-0.44-2.581-0.44
			c-1.66,0-2.641,0.72-2.641,1.88v0.04c0,1.1,0.98,1.72,2.201,1.72C565.182,244.914,566.481,243.934,566.481,242.514z"/>
		<path fill="#464646" d="M572.119,231.271h2.421v15.183h-2.421V231.271z"/>
		<path fill="#464646" d="M578.08,231.412h2.62v2.32h-2.62V231.412z M578.18,235.492h2.42v10.962h-2.42V235.492z"/>
		<path fill="#464646" d="M583.6,244.794l6.422-7.322h-6.201v-1.98h9.281v1.661l-6.422,7.321h6.422v1.98H583.6V244.794z"/>
		<path fill="#464646" d="M594.979,241.013v-0.04c0-3.141,2.221-5.702,5.341-5.702c3.461,0,5.222,2.721,5.222,5.881
			c0,0.22,0,0.44-0.021,0.68H597.4c0.26,1.86,1.561,2.881,3.221,2.881c1.26,0,2.16-0.46,3.021-1.32l1.44,1.26
			c-1.061,1.24-2.48,2.041-4.501,2.041C597.42,246.695,594.979,244.394,594.979,241.013z M603.162,240.233
			c-0.181-1.681-1.141-2.981-2.861-2.981c-1.58,0-2.701,1.22-2.94,2.981H603.162z"/>
		<path fill="#464646" d="M607.719,240.994v-0.04c0-3.621,2.48-5.682,5.102-5.682c1.84,0,3.001,0.92,3.781,1.96v-5.961h2.42v15.183
			h-2.42v-1.88c-0.82,1.18-1.98,2.101-3.781,2.101C610.24,246.675,607.719,244.634,607.719,240.994z M616.661,240.994v-0.04
			c0-2.161-1.54-3.601-3.28-3.601c-1.761,0-3.221,1.38-3.221,3.601v0.04c0,2.18,1.48,3.601,3.221,3.601
			S616.661,243.154,616.661,240.994z"/>
		<path fill="#464646" d="M628.779,235.492h2.4v2.521c0.72-1.66,2.02-2.8,3.961-2.721v2.541H635c-2.221,0-3.82,1.48-3.82,4.421
			v4.201h-2.4V235.492z"/>
		<path fill="#464646" d="M636.519,241.013v-0.04c0-3.141,2.221-5.702,5.341-5.702c3.461,0,5.222,2.721,5.222,5.881
			c0,0.22,0,0.44-0.021,0.68h-8.121c0.26,1.86,1.561,2.881,3.221,2.881c1.26,0,2.16-0.46,3.021-1.32l1.44,1.26
			c-1.061,1.24-2.48,2.041-4.501,2.041C638.959,246.695,636.519,244.394,636.519,241.013z M644.701,240.233
			c-0.181-1.681-1.141-2.981-2.861-2.981c-1.58,0-2.701,1.22-2.94,2.981H644.701z"/>
		<path fill="#464646" d="M648.918,245.034l1.101-1.64c1.2,0.88,2.46,1.36,3.62,1.36c1.102,0,1.762-0.5,1.762-1.26v-0.04
			c0-0.88-1.181-1.18-2.48-1.581c-1.621-0.48-3.441-1.12-3.441-3.201v-0.04c0-2.061,1.68-3.321,3.861-3.321
			c1.38,0,2.88,0.48,4.021,1.24l-0.96,1.721c-1.061-0.64-2.181-1.041-3.102-1.041c-1.02,0-1.6,0.48-1.6,1.141v0.04
			c0,0.82,1.18,1.16,2.5,1.6c1.601,0.5,3.421,1.2,3.421,3.181v0.04c0,2.28-1.78,3.421-4.061,3.421
			C651.999,246.655,650.279,246.115,648.918,245.034z"/>
		<path fill="#464646" d="M660.379,235.492h2.4v1.88c0.82-1.18,2-2.101,3.801-2.101c2.58,0,5.101,2.041,5.101,5.682v0.04
			c0,3.621-2.5,5.681-5.101,5.681c-1.84,0-3.001-0.92-3.801-1.96v5.061h-2.4V235.492z M669.24,240.994v-0.04
			c0-2.181-1.48-3.601-3.221-3.601s-3.28,1.44-3.28,3.601v0.04c0,2.16,1.54,3.601,3.28,3.601
			C667.78,244.594,669.24,243.214,669.24,240.994z"/>
		<path fill="#464646" d="M673.878,241.033v-0.04c0-3.121,2.48-5.722,5.842-5.722c3.34,0,5.801,2.541,5.801,5.682v0.04
			c0,3.121-2.48,5.701-5.841,5.701C676.339,246.695,673.878,244.154,673.878,241.033z M683.12,241.033v-0.04
			c0-1.96-1.44-3.621-3.44-3.621c-2.061,0-3.401,1.641-3.401,3.581v0.04c0,1.96,1.44,3.601,3.441,3.601
			C681.779,244.594,683.12,242.974,683.12,241.033z"/>
		<path fill="#464646" d="M688.278,235.492h2.4v1.72c0.72-1.04,1.76-1.94,3.48-1.94c2.48,0,3.941,1.661,3.941,4.221v6.961h-2.421
			v-6.241c0-1.741-0.88-2.741-2.421-2.741c-1.521,0-2.58,1.04-2.58,2.781v6.201h-2.4V235.492z"/>
		<path fill="#464646" d="M700.418,245.034l1.101-1.64c1.2,0.88,2.46,1.36,3.62,1.36c1.101,0,1.761-0.5,1.761-1.26v-0.04
			c0-0.88-1.181-1.18-2.48-1.581c-1.62-0.48-3.441-1.12-3.441-3.201v-0.04c0-2.061,1.681-3.321,3.861-3.321
			c1.38,0,2.881,0.48,4.021,1.24l-0.96,1.721c-1.061-0.64-2.181-1.041-3.101-1.041c-1.021,0-1.601,0.48-1.601,1.141v0.04
			c0,0.82,1.181,1.16,2.501,1.6c1.601,0.5,3.421,1.2,3.421,3.181v0.04c0,2.28-1.781,3.421-4.062,3.421
			C703.498,246.655,701.778,246.115,700.418,245.034z"/>
		<path fill="#464646" d="M711.277,241.013v-0.04c0-3.141,2.221-5.702,5.341-5.702c3.461,0,5.222,2.721,5.222,5.881
			c0,0.22,0,0.44-0.021,0.68h-8.121c0.26,1.86,1.561,2.881,3.221,2.881c1.26,0,2.16-0.46,3.021-1.32l1.44,1.26
			c-1.061,1.24-2.48,2.041-4.501,2.041C713.718,246.695,711.277,244.394,711.277,241.013z M719.459,240.233
			c-0.18-1.681-1.14-2.981-2.86-2.981c-1.58,0-2.7,1.22-2.94,2.981H719.459z"/>
	</g>
</g>
<g>
	<g>
		<path fill="#464646" d="M518.32,346.98v-0.039c0-4.141,3.121-7.521,7.502-7.521c2.68,0,4.301,0.92,5.701,2.26l-1.601,1.82
			c-1.16-1.1-2.421-1.82-4.121-1.82c-2.82,0-4.901,2.32-4.901,5.221v0.041c0,2.92,2.061,5.261,4.901,5.261
			c1.82,0,2.981-0.7,4.241-1.9l1.58,1.601c-1.52,1.561-3.181,2.561-5.901,2.561C521.48,354.463,518.32,351.162,518.32,346.98z"/>
		<path fill="#464646" d="M533.48,351.062v-0.041c0-2.359,1.86-3.521,4.541-3.521c1.24,0,2.141,0.181,3,0.46v-0.279
			c0-1.601-0.98-2.461-2.78-2.461c-1.24,0-2.161,0.26-3.161,0.68l-0.64-1.88c1.2-0.54,2.38-0.9,4.121-0.9
			c1.62,0,2.841,0.44,3.62,1.22c0.801,0.781,1.16,1.921,1.16,3.361v6.521h-2.34v-1.4c-0.74,0.9-1.9,1.621-3.602,1.621
			C535.341,354.443,533.48,353.263,533.48,351.062z M541.062,350.281v-0.8c-0.66-0.239-1.541-0.44-2.581-0.44
			c-1.661,0-2.641,0.721-2.641,1.881v0.04c0,1.101,0.979,1.72,2.2,1.72C539.762,352.682,541.062,351.702,541.062,350.281z"/>
		<path fill="#464646" d="M546.7,339.039h2.421v15.184H546.7V339.039z"/>
		<path fill="#464646" d="M552.76,339.039h2.421v15.184h-2.421V339.039z"/>
		<path fill="#464646" d="M565.08,343.26h2.4v1.721c0.721-1.04,1.761-1.94,3.48-1.94c2.48,0,3.941,1.661,3.941,4.222v6.961h-2.42
			v-6.241c0-1.741-0.881-2.741-2.421-2.741c-1.521,0-2.581,1.041-2.581,2.781v6.201h-2.4V343.26z"/>
		<path fill="#464646" d="M577.381,351.062v-0.041c0-2.359,1.859-3.521,4.54-3.521c1.24,0,2.141,0.181,3.001,0.46v-0.279
			c0-1.601-0.98-2.461-2.781-2.461c-1.24,0-2.16,0.26-3.16,0.68l-0.641-1.88c1.201-0.54,2.381-0.9,4.121-0.9
			c1.621,0,2.841,0.44,3.621,1.22c0.801,0.781,1.16,1.921,1.16,3.361v6.521h-2.34v-1.4c-0.74,0.9-1.9,1.621-3.602,1.621
			C579.24,354.443,577.381,353.263,577.381,351.062z M584.962,350.281v-0.8c-0.66-0.239-1.54-0.44-2.581-0.44
			c-1.66,0-2.641,0.721-2.641,1.881v0.04c0,1.101,0.98,1.72,2.201,1.72C583.662,352.682,584.962,351.702,584.962,350.281z"/>
		<path fill="#464646" d="M590.9,351.223v-5.882h-1.42v-2.081h1.42v-3.04h2.4v3.04h3.001v2.081h-3.001v5.501
			c0,1,0.521,1.42,1.4,1.42c0.561,0,1.061-0.14,1.561-0.379v1.98c-0.62,0.34-1.301,0.539-2.221,0.539
			C592.201,354.402,590.9,353.603,590.9,351.223z"/>
		<path fill="#464646" d="M599.08,339.18h2.621v2.32h-2.621V339.18z M599.18,343.26h2.421v10.963h-2.421V343.26z"/>
		<path fill="#464646" d="M604.061,343.26h2.6l3.021,8.162l3.061-8.162h2.54l-4.521,11.043h-2.181L604.061,343.26z"/>
		<path fill="#464646" d="M616.38,348.781v-0.039c0-3.142,2.221-5.702,5.341-5.702c3.461,0,5.222,2.721,5.222,5.882
			c0,0.22,0,0.439-0.021,0.68h-8.121c0.26,1.86,1.561,2.881,3.221,2.881c1.26,0,2.16-0.461,3.021-1.32l1.44,1.26
			c-1.061,1.24-2.48,2.041-4.501,2.041C618.82,354.463,616.38,352.162,616.38,348.781z M624.562,348.002
			c-0.181-1.682-1.141-2.981-2.861-2.981c-1.58,0-2.701,1.22-2.94,2.981H624.562z"/>
		<path fill="#464646" d="M636.08,343.26h2.4v1.701c0.72-1,1.68-1.921,3.381-1.921c1.6,0,2.721,0.78,3.301,1.94
			c0.88-1.16,2.02-1.94,3.721-1.94c2.4,0,3.86,1.54,3.86,4.222v6.961h-2.4v-6.241c0-1.78-0.86-2.741-2.3-2.741
			c-1.4,0-2.422,0.98-2.422,2.781v6.201h-2.42v-6.281c0-1.74-0.84-2.701-2.28-2.701s-2.44,1.08-2.44,2.801v6.182h-2.4V343.26z"/>
		<path fill="#464646" d="M655.399,348.781v-0.039c0-3.142,2.221-5.702,5.341-5.702c3.461,0,5.222,2.721,5.222,5.882
			c0,0.22,0,0.439-0.021,0.68h-8.121c0.26,1.86,1.561,2.881,3.221,2.881c1.26,0,2.16-0.461,3.021-1.32l1.44,1.26
			c-1.061,1.24-2.48,2.041-4.501,2.041C657.84,354.463,655.399,352.162,655.399,348.781z M663.582,348.002
			c-0.181-1.682-1.141-2.981-2.861-2.981c-1.58,0-2.701,1.22-2.94,2.981H663.582z"/>
		<path fill="#464646" d="M669.24,351.223v-5.882h-1.421v-2.081h1.421v-3.04h2.4v3.04h3.001v2.081h-3.001v5.501
			c0,1,0.52,1.42,1.4,1.42c0.56,0,1.06-0.14,1.561-0.379v1.98c-0.62,0.34-1.301,0.539-2.221,0.539
			C670.54,354.402,669.24,353.603,669.24,351.223z"/>
		<path fill="#464646" d="M677.38,339.039h2.4v5.941c0.72-1.04,1.76-1.94,3.48-1.94c2.48,0,3.941,1.661,3.941,4.222v6.961h-2.421
			v-6.241c0-1.741-0.88-2.741-2.421-2.741c-1.521,0-2.58,1.041-2.58,2.781v6.201h-2.4V339.039z"/>
		<path fill="#464646" d="M689.819,348.801v-0.039c0-3.121,2.48-5.722,5.842-5.722c3.34,0,5.801,2.541,5.801,5.682v0.04
			c0,3.121-2.48,5.701-5.841,5.701C692.28,354.463,689.819,351.922,689.819,348.801z M699.062,348.801v-0.039
			c0-1.961-1.44-3.621-3.44-3.621c-2.061,0-3.401,1.641-3.401,3.581v0.04c0,1.96,1.44,3.601,3.441,3.601
			C697.721,352.362,699.062,350.742,699.062,348.801z"/>
		<path fill="#464646" d="M703.659,348.762v-0.04c0-3.621,2.48-5.682,5.102-5.682c1.84,0,3,0.921,3.78,1.96v-5.961h2.421v15.184
			h-2.421v-1.881c-0.82,1.181-1.98,2.102-3.78,2.102C706.18,354.443,703.659,352.402,703.659,348.762z M712.602,348.762v-0.04
			c0-2.161-1.541-3.601-3.281-3.601c-1.76,0-3.221,1.38-3.221,3.601v0.04c0,2.18,1.48,3.601,3.221,3.601
			S712.602,350.922,712.602,348.762z"/>
		<path fill="#464646" d="M717.419,352.803l1.101-1.641c1.2,0.88,2.46,1.36,3.62,1.36c1.101,0,1.761-0.501,1.761-1.261v-0.039
			c0-0.881-1.181-1.181-2.48-1.581c-1.62-0.479-3.441-1.12-3.441-3.2V346.4c0-2.061,1.681-3.32,3.861-3.32
			c1.38,0,2.881,0.48,4.021,1.24l-0.96,1.721C723.84,345.4,722.72,345,721.8,345c-1.021,0-1.601,0.48-1.601,1.141v0.041
			c0,0.819,1.181,1.16,2.501,1.6c1.601,0.5,3.421,1.2,3.421,3.181v0.04c0,2.28-1.781,3.421-4.062,3.421
			C720.499,354.423,718.779,353.883,717.419,352.803z"/>
		<path fill="#464646" d="M517.91,365.949v-0.014c0-2.521,1.287-4.446,3.744-5.785l0.689,1.053
			c-1.938,1.287-2.861,2.705-2.861,4.746v0.012c0,2.003,0.924,3.445,2.861,4.72l-0.689,1.054
			C519.197,370.382,517.91,368.484,517.91,365.949z"/>
		<path fill="#464646" d="M524.163,360.047h1.703v1.508h-1.703V360.047z M524.229,362.698h1.572v7.124h-1.572V362.698z"/>
		<path fill="#464646" d="M527.972,368.016h1.729v1.807h-1.729V368.016z"/>
		<path fill="#464646" d="M531.118,366.287v-0.026c0-2.041,1.442-3.705,3.472-3.705c2.248,0,3.393,1.769,3.393,3.821
			c0,0.144,0,0.287-0.014,0.443h-5.277c0.169,1.209,1.014,1.871,2.093,1.871c0.819,0,1.404-0.299,1.963-0.857l0.937,0.818
			c-0.689,0.807-1.612,1.326-2.926,1.326C532.704,369.979,531.118,368.484,531.118,366.287z M536.436,365.779
			c-0.117-1.092-0.741-1.937-1.859-1.937c-1.027,0-1.755,0.793-1.911,1.937H536.436z"/>
		<path fill="#464646" d="M539.529,368.016h1.729v1.807h-1.729V368.016z"/>
		<path fill="#464646" d="M547.589,359.955h1.573v9.867h-1.573V359.955z"/>
		<path fill="#464646" d="M551.463,360.047h1.703v1.508h-1.703V360.047z M551.527,362.698h1.573v7.124h-1.573V362.698z"/>
		<path fill="#464646" d="M554.791,368.9l0.715-1.066c0.779,0.572,1.6,0.884,2.354,0.884c0.715,0,1.144-0.325,1.144-0.819v-0.025
			c0-0.572-0.767-0.768-1.612-1.027c-1.053-0.312-2.236-0.729-2.236-2.08v-0.025c0-1.34,1.092-2.158,2.51-2.158
			c0.896,0,1.872,0.312,2.613,0.806l-0.625,1.118c-0.688-0.416-1.416-0.676-2.015-0.676c-0.663,0-1.04,0.312-1.04,0.74v0.026
			c0,0.532,0.768,0.754,1.625,1.04c1.04,0.324,2.223,0.779,2.223,2.066v0.026c0,1.482-1.156,2.224-2.639,2.224
			C556.793,369.953,555.675,369.602,554.791,368.9z"/>
		<path fill="#464646" d="M562.461,367.873v-3.822h-0.924v-1.353h0.924v-1.976h1.56v1.976h1.95v1.353h-1.95v3.574
			c0,0.65,0.339,0.924,0.91,0.924c0.364,0,0.688-0.092,1.015-0.247v1.287c-0.403,0.221-0.846,0.351-1.443,0.351
			C563.306,369.939,562.461,369.42,562.461,367.873z"/>
		<path fill="#464646" d="M571.521,366.3v-0.026c0-2.027,1.611-3.718,3.796-3.718c2.171,0,3.771,1.651,3.771,3.692v0.025
			c0,2.028-1.612,3.705-3.797,3.705C573.121,369.979,571.521,368.328,571.521,366.3z M577.527,366.3v-0.026
			c0-1.273-0.936-2.354-2.236-2.354c-1.338,0-2.209,1.066-2.209,2.328v0.025c0,1.274,0.936,2.34,2.235,2.34
			C576.656,368.613,577.527,367.561,577.527,366.3z"/>
		<path fill="#464646" d="M581.245,364.051h-0.897v-1.313h0.897v-0.532c0-0.793,0.208-1.392,0.599-1.769
			c0.363-0.364,0.896-0.56,1.586-0.56c0.571,0,0.949,0.065,1.312,0.183v1.325c-0.338-0.104-0.624-0.168-0.975-0.168
			c-0.637,0-0.963,0.351-0.963,1.117v0.416h1.912v1.301h-1.898v5.771h-1.573V364.051z"/>
		<path fill="#464646" d="M591.774,368.691v1.131h-1.56v-9.867h1.56v3.965c0.533-0.767,1.3-1.364,2.47-1.364
			c1.678,0,3.316,1.325,3.316,3.692v0.025c0,2.354-1.626,3.692-3.316,3.692C593.049,369.966,592.295,369.367,591.774,368.691z
			 M595.974,366.273v-0.025c0-1.418-0.962-2.34-2.093-2.34s-2.133,0.936-2.133,2.34v0.025c0,1.404,1.002,2.34,2.133,2.34
			C595.025,368.613,595.974,367.717,595.974,366.273z"/>
		<path fill="#464646" d="M598.898,367.769v-0.026c0-1.533,1.209-2.287,2.951-2.287c0.807,0,1.391,0.117,1.95,0.299v-0.182
			c0-1.041-0.638-1.6-1.808-1.6c-0.806,0-1.403,0.169-2.054,0.441l-0.416-1.222c0.78-0.351,1.548-0.585,2.679-0.585
			c1.053,0,1.846,0.286,2.353,0.793c0.521,0.508,0.754,1.248,0.754,2.184v4.238h-1.521v-0.91c-0.481,0.586-1.235,1.054-2.34,1.054
			C600.107,369.966,598.898,369.199,598.898,367.769z M603.826,367.262v-0.52c-0.43-0.156-1.002-0.287-1.678-0.287
			c-1.078,0-1.716,0.469-1.716,1.223v0.025c0,0.716,0.638,1.119,1.431,1.119C602.98,368.822,603.826,368.185,603.826,367.262z"/>
		<path fill="#464646" d="M607.687,367.873v-3.822h-0.923v-1.353h0.923v-1.976h1.56v1.976h1.951v1.353h-1.951v3.574
			c0,0.65,0.339,0.924,0.91,0.924c0.365,0,0.689-0.092,1.015-0.247v1.287c-0.403,0.221-0.845,0.351-1.443,0.351
			C608.531,369.939,607.687,369.42,607.687,367.873z"/>
		<path fill="#464646" d="M612.38,366.3v-0.026c0-2.027,1.56-3.718,3.692-3.718c1.339,0,2.184,0.507,2.847,1.235l-0.987,1.053
			c-0.508-0.533-1.041-0.924-1.873-0.924c-1.222,0-2.119,1.054-2.119,2.328v0.025c0,1.301,0.91,2.34,2.197,2.34
			c0.78,0,1.352-0.363,1.885-0.896l0.949,0.923c-0.715,0.78-1.533,1.339-2.912,1.339C613.939,369.979,612.38,368.314,612.38,366.3z"
			/>
		<path fill="#464646" d="M620.596,359.955h1.56v3.861c0.468-0.676,1.145-1.261,2.263-1.261c1.611,0,2.561,1.079,2.561,2.743v4.523
			h-1.572v-4.056c0-1.131-0.572-1.781-1.574-1.781c-0.987,0-1.677,0.677-1.677,1.808v4.029h-1.56V359.955z"/>
		<path fill="#464646" d="M628.682,366.287v-0.026c0-2.041,1.443-3.705,3.471-3.705c2.25,0,3.394,1.769,3.394,3.821
			c0,0.144,0,0.287-0.013,0.443h-5.279c0.17,1.209,1.015,1.871,2.094,1.871c0.818,0,1.404-0.299,1.963-0.857l0.936,0.818
			c-0.688,0.807-1.611,1.326-2.924,1.326C630.268,369.979,628.682,368.484,628.682,366.287z M633.998,365.779
			c-0.116-1.092-0.74-1.937-1.858-1.937c-1.026,0-1.755,0.793-1.911,1.937H633.998z"/>
		<path fill="#464646" d="M636.963,366.273v-0.025c0-2.354,1.611-3.692,3.314-3.692c1.196,0,1.95,0.598,2.457,1.274v-3.875h1.573
			v9.867h-1.573v-1.222c-0.533,0.767-1.287,1.365-2.457,1.365C638.601,369.966,636.963,368.64,636.963,366.273z M642.773,366.273
			v-0.025c0-1.404-1.001-2.34-2.132-2.34c-1.144,0-2.093,0.896-2.093,2.34v0.025c0,1.417,0.962,2.34,2.093,2.34
			S642.773,367.678,642.773,366.273z"/>
		<path fill="#464646" d="M650.262,366.3v-0.026c0-2.027,1.56-3.718,3.691-3.718c1.34,0,2.184,0.507,2.848,1.235l-0.988,1.053
			c-0.508-0.533-1.04-0.924-1.872-0.924c-1.222,0-2.119,1.054-2.119,2.328v0.025c0,1.301,0.91,2.34,2.196,2.34
			c0.781,0,1.353-0.363,1.886-0.896l0.949,0.923c-0.716,0.78-1.534,1.339-2.912,1.339
			C651.821,369.979,650.262,368.314,650.262,366.3z"/>
		<path fill="#464646" d="M657.879,366.3v-0.026c0-2.027,1.611-3.718,3.796-3.718c2.171,0,3.771,1.651,3.771,3.692v0.025
			c0,2.028-1.612,3.705-3.797,3.705C659.479,369.979,657.879,368.328,657.879,366.3z M663.885,366.3v-0.026
			c0-1.273-0.936-2.354-2.236-2.354c-1.338,0-2.209,1.066-2.209,2.328v0.025c0,1.274,0.936,2.34,2.235,2.34
			C663.014,368.613,663.885,367.561,663.885,366.3z"/>
		<path fill="#464646" d="M667.238,362.698h1.561v1.105c0.468-0.65,1.092-1.248,2.197-1.248c1.04,0,1.768,0.507,2.145,1.261
			c0.572-0.754,1.313-1.261,2.418-1.261c1.561,0,2.51,1.001,2.51,2.743v4.523h-1.561v-4.056c0-1.157-0.559-1.781-1.495-1.781
			c-0.91,0-1.573,0.638-1.573,1.808v4.029h-1.572v-4.082c0-1.131-0.547-1.755-1.482-1.755c-0.937,0-1.586,0.702-1.586,1.82v4.017
			h-1.561V362.698z"/>
		<path fill="#464646" d="M680.187,362.698h1.561v1.105c0.468-0.65,1.092-1.248,2.197-1.248c1.04,0,1.768,0.507,2.145,1.261
			c0.572-0.754,1.313-1.261,2.418-1.261c1.561,0,2.51,1.001,2.51,2.743v4.523h-1.561v-4.056c0-1.157-0.559-1.781-1.495-1.781
			c-0.91,0-1.573,0.638-1.573,1.808v4.029h-1.573v-4.082c0-1.131-0.546-1.755-1.481-1.755c-0.937,0-1.586,0.702-1.586,1.82v4.017
			h-1.561V362.698z"/>
		<path fill="#464646" d="M692.654,367.769v-0.026c0-1.533,1.209-2.287,2.951-2.287c0.806,0,1.391,0.117,1.949,0.299v-0.182
			c0-1.041-0.637-1.6-1.807-1.6c-0.806,0-1.404,0.169-2.054,0.441l-0.416-1.222c0.779-0.351,1.547-0.585,2.678-0.585
			c1.053,0,1.846,0.286,2.354,0.793c0.52,0.508,0.754,1.248,0.754,2.184v4.238h-1.521v-0.91c-0.48,0.586-1.235,1.054-2.34,1.054
			C693.863,369.966,692.654,369.199,692.654,367.769z M697.581,367.262v-0.52c-0.429-0.156-1.001-0.287-1.677-0.287
			c-1.079,0-1.716,0.469-1.716,1.223v0.025c0,0.716,0.637,1.119,1.43,1.119C696.736,368.822,697.581,368.185,697.581,367.262z"/>
		<path fill="#464646" d="M701.155,362.698h1.561v1.118c0.468-0.676,1.144-1.261,2.262-1.261c1.612,0,2.562,1.079,2.562,2.743v4.523
			h-1.573v-4.056c0-1.131-0.572-1.781-1.573-1.781c-0.988,0-1.677,0.677-1.677,1.808v4.029h-1.561V362.698z"/>
		<path fill="#464646" d="M709.268,366.273v-0.025c0-2.354,1.611-3.692,3.314-3.692c1.196,0,1.95,0.598,2.457,1.274v-3.875h1.573
			v9.867h-1.573v-1.222c-0.533,0.767-1.287,1.365-2.457,1.365C710.905,369.966,709.268,368.64,709.268,366.273z M715.078,366.273
			v-0.025c0-1.404-1.001-2.34-2.132-2.34c-1.145,0-2.093,0.896-2.093,2.34v0.025c0,1.417,0.962,2.34,2.093,2.34
			S715.078,367.678,715.078,366.273z"/>
		<path fill="#464646" d="M718.211,368.9l0.715-1.066c0.78,0.572,1.6,0.884,2.354,0.884c0.715,0,1.144-0.325,1.144-0.819v-0.025
			c0-0.572-0.767-0.768-1.611-1.027c-1.054-0.312-2.236-0.729-2.236-2.08v-0.025c0-1.34,1.092-2.158,2.509-2.158
			c0.897,0,1.872,0.312,2.613,0.806l-0.624,1.118c-0.688-0.416-1.417-0.676-2.015-0.676c-0.663,0-1.04,0.312-1.04,0.74v0.026
			c0,0.532,0.767,0.754,1.625,1.04c1.04,0.324,2.223,0.779,2.223,2.066v0.026c0,1.482-1.157,2.224-2.639,2.224
			C720.213,369.953,719.095,369.602,718.211,368.9z"/>
		<path fill="#464646" d="M518.456,379.65h-0.897v-1.312h0.897v-0.533c0-0.793,0.208-1.391,0.599-1.768
			c0.363-0.365,0.896-0.56,1.586-0.56c0.571,0,0.949,0.065,1.312,0.183v1.325c-0.338-0.104-0.624-0.169-0.975-0.169
			c-0.637,0-0.963,0.352-0.963,1.118v0.416h1.912v1.3h-1.898v5.772h-1.573V379.65z"/>
		<path fill="#464646" d="M522.746,381.9v-0.027c0-2.027,1.611-3.717,3.796-3.717c2.171,0,3.771,1.65,3.771,3.691v0.025
			c0,2.029-1.612,3.706-3.797,3.706C524.346,385.579,522.746,383.928,522.746,381.9z M528.752,381.9v-0.027
			c0-1.273-0.936-2.353-2.236-2.353c-1.338,0-2.209,1.066-2.209,2.327v0.025c0,1.275,0.936,2.341,2.235,2.341
			C527.881,384.214,528.752,383.16,528.752,381.9z"/>
		<path fill="#464646" d="M532.105,378.299h1.561v1.638c0.468-1.079,1.312-1.819,2.574-1.769v1.652h-0.092
			c-1.442,0-2.482,0.961-2.482,2.873v2.729h-1.561V378.299z"/>
		<path fill="#464646" d="M541.934,378.299h1.56v1.117c0.468-0.676,1.145-1.26,2.263-1.26c1.611,0,2.561,1.078,2.561,2.742v4.524
			h-1.572v-4.056c0-1.131-0.572-1.781-1.574-1.781c-0.987,0-1.677,0.676-1.677,1.807v4.03h-1.56V378.299z"/>
		<path fill="#464646" d="M549.928,383.369v-0.026c0-1.534,1.21-2.288,2.951-2.288c0.807,0,1.392,0.117,1.951,0.299v-0.182
			c0-1.04-0.638-1.6-1.808-1.6c-0.806,0-1.403,0.17-2.054,0.442l-0.416-1.222c0.779-0.352,1.547-0.586,2.678-0.586
			c1.053,0,1.846,0.287,2.354,0.793c0.52,0.508,0.754,1.248,0.754,2.185v4.238h-1.521v-0.91c-0.48,0.585-1.234,1.054-2.34,1.054
			C551.138,385.566,549.928,384.799,549.928,383.369z M554.855,382.861v-0.52c-0.429-0.156-1.001-0.286-1.677-0.286
			c-1.079,0-1.716,0.468-1.716,1.222v0.026c0,0.715,0.637,1.118,1.43,1.118C554.011,384.422,554.855,383.785,554.855,382.861z"/>
		<path fill="#464646" d="M558.717,383.473v-3.822h-0.924v-1.352h0.924v-1.977h1.56v1.977h1.95v1.352h-1.95v3.575
			c0,0.65,0.339,0.923,0.91,0.923c0.364,0,0.688-0.091,1.015-0.246v1.287c-0.403,0.221-0.846,0.351-1.443,0.351
			C559.562,385.54,558.717,385.02,558.717,383.473z"/>
		<path fill="#464646" d="M564.033,375.646h1.703v1.508h-1.703V375.646z M564.099,378.299h1.573v7.124h-1.573V378.299z"/>
		<path fill="#464646" d="M567.271,378.299h1.69l1.963,5.304l1.988-5.304h1.652l-2.939,7.176h-1.416L567.271,378.299z"/>
		<path fill="#464646" d="M575.279,381.887v-0.025c0-2.041,1.442-3.705,3.471-3.705c2.249,0,3.393,1.768,3.393,3.821
			c0,0.144,0,0.286-0.013,0.442h-5.278c0.169,1.209,1.014,1.872,2.094,1.872c0.818,0,1.403-0.3,1.963-0.858l0.936,0.819
			c-0.689,0.806-1.611,1.326-2.925,1.326C576.865,385.579,575.279,384.084,575.279,381.887z M580.596,381.38
			c-0.117-1.093-0.74-1.938-1.859-1.938c-1.026,0-1.754,0.794-1.91,1.938H580.596z"/>
		<path fill="#464646" d="M588.434,383.473v-3.822h-0.922v-1.352h0.922v-1.977h1.561v1.977h1.95v1.352h-1.95v3.575
			c0,0.65,0.338,0.923,0.91,0.923c0.364,0,0.689-0.091,1.014-0.246v1.287c-0.402,0.221-0.845,0.351-1.442,0.351
			C589.279,385.54,588.434,385.02,588.434,383.473z"/>
		<path fill="#464646" d="M593.726,375.556h1.56v3.86c0.469-0.676,1.145-1.26,2.262-1.26c1.613,0,2.562,1.078,2.562,2.742v4.524
			h-1.573v-4.056c0-1.131-0.572-1.781-1.572-1.781c-0.988,0-1.678,0.676-1.678,1.807v4.03h-1.56V375.556z"/>
		<path fill="#464646" d="M602.201,378.299h1.561v1.638c0.468-1.079,1.312-1.819,2.574-1.769v1.652h-0.092
			c-1.442,0-2.482,0.961-2.482,2.873v2.729h-1.561V378.299z"/>
		<path fill="#464646" d="M607.232,381.887v-0.025c0-2.041,1.443-3.705,3.471-3.705c2.25,0,3.394,1.768,3.394,3.821
			c0,0.144,0,0.286-0.013,0.442h-5.279c0.17,1.209,1.015,1.872,2.094,1.872c0.818,0,1.404-0.3,1.963-0.858l0.936,0.819
			c-0.688,0.806-1.611,1.326-2.924,1.326C608.818,385.579,607.232,384.084,607.232,381.887z M612.549,381.38
			c-0.116-1.093-0.74-1.938-1.858-1.938c-1.026,0-1.755,0.794-1.911,1.938H612.549z"/>
		<path fill="#464646" d="M615.396,383.369v-0.026c0-1.534,1.209-2.288,2.951-2.288c0.806,0,1.391,0.117,1.949,0.299v-0.182
			c0-1.04-0.637-1.6-1.807-1.6c-0.807,0-1.404,0.17-2.055,0.442l-0.416-1.222c0.781-0.352,1.548-0.586,2.679-0.586
			c1.054,0,1.847,0.287,2.353,0.793c0.521,0.508,0.755,1.248,0.755,2.185v4.238h-1.521v-0.91c-0.481,0.585-1.235,1.054-2.34,1.054
			C616.605,385.566,615.396,384.799,615.396,383.369z M620.323,382.861v-0.52c-0.429-0.156-1.001-0.286-1.677-0.286
			c-1.079,0-1.717,0.468-1.717,1.222v0.026c0,0.715,0.638,1.118,1.431,1.118C619.479,384.422,620.323,383.785,620.323,382.861z"/>
		<path fill="#464646" d="M623.534,381.873v-0.025c0-2.354,1.612-3.691,3.315-3.691c1.195,0,1.949,0.598,2.457,1.273v-3.874h1.572
			v9.867h-1.572v-1.222c-0.533,0.767-1.287,1.365-2.457,1.365C625.172,385.566,623.534,384.24,623.534,381.873z M629.346,381.873
			v-0.025c0-1.404-1.002-2.34-2.133-2.34c-1.144,0-2.093,0.896-2.093,2.34v0.025c0,1.418,0.962,2.341,2.093,2.341
			S629.346,383.277,629.346,381.873z"/>
		<path fill="#464646" d="M637.574,383.473v-3.822h-0.924v-1.352h0.924v-1.977h1.56v1.977h1.95v1.352h-1.95v3.575
			c0,0.65,0.339,0.923,0.91,0.923c0.364,0,0.688-0.091,1.015-0.246v1.287c-0.403,0.221-0.846,0.351-1.443,0.351
			C638.419,385.54,637.574,385.02,637.574,383.473z"/>
		<path fill="#464646" d="M642.268,381.9v-0.027c0-2.027,1.611-3.717,3.795-3.717c2.172,0,3.771,1.65,3.771,3.691v0.025
			c0,2.029-1.612,3.706-3.796,3.706C643.866,385.579,642.268,383.928,642.268,381.9z M648.273,381.9v-0.027
			c0-1.273-0.937-2.353-2.236-2.353c-1.339,0-2.21,1.066-2.21,2.327v0.025c0,1.275,0.937,2.341,2.235,2.341
			C647.402,384.214,648.273,383.16,648.273,381.9z"/>
		<path fill="#464646" d="M655.786,378.299h1.561v1.638c0.468-1.079,1.313-1.819,2.573-1.769v1.652h-0.09
			c-1.443,0-2.483,0.961-2.483,2.873v2.729h-1.561V378.299z"/>
		<path fill="#464646" d="M661.363,382.822v-4.523h1.573v4.056c0,1.132,0.585,1.781,1.573,1.781s1.677-0.676,1.677-1.808v-4.029
			h1.56v7.124h-1.56v-1.118c-0.468,0.676-1.131,1.262-2.249,1.262C662.312,385.566,661.363,384.486,661.363,382.822z"/>
		<path fill="#464646" d="M669.93,378.299h1.561v1.117c0.468-0.676,1.144-1.26,2.262-1.26c1.612,0,2.562,1.078,2.562,2.742v4.524
			h-1.573v-4.056c0-1.131-0.572-1.781-1.573-1.781c-0.988,0-1.677,0.676-1.677,1.807v4.03h-1.561V378.299z"/>
		<path fill="#464646" d="M678.028,386.281c1.924-1.287,2.86-2.705,2.86-4.732v-0.014c0-2.015-0.937-3.457-2.86-4.731l0.689-1.054
			c2.444,1.353,3.744,3.25,3.744,5.799v0.013c0,2.509-1.3,4.434-3.744,5.772L678.028,386.281z"/>
	</g>
</g>
<g>
	<g>
		<path fill="#464646" d="M518.74,72.298v-8.382h2.461v8.302c0,2.741,1.42,4.221,3.781,4.221c2.3,0,3.721-1.38,3.721-4.121v-8.402
			h2.46v8.282c0,4.321-2.46,6.501-6.241,6.501C521.161,78.699,518.74,76.519,518.74,72.298z"/>
		<path fill="#464646" d="M534.6,67.517h2.401v1.88c0.819-1.18,2-2.101,3.801-2.101c2.581,0,5.101,2.041,5.101,5.682v0.04
			c0,3.621-2.5,5.681-5.101,5.681c-1.841,0-3.001-0.92-3.801-1.96V81.8H534.6V67.517z M543.463,73.018v-0.04
			c0-2.181-1.48-3.601-3.221-3.601c-1.741,0-3.281,1.44-3.281,3.601v0.04c0,2.16,1.54,3.601,3.281,3.601
			C542.002,76.619,543.463,75.238,543.463,73.018z"/>
		<path fill="#464646" d="M548.14,73.018v-0.04c0-3.621,2.48-5.682,5.101-5.682c1.841,0,3.002,0.92,3.781,1.96v-5.961h2.421v15.183
			h-2.421v-1.88c-0.82,1.18-1.98,2.101-3.781,2.101C550.66,78.699,548.14,76.659,548.14,73.018z M557.082,73.018v-0.04
			c0-2.161-1.541-3.601-3.281-3.601c-1.76,0-3.221,1.38-3.221,3.601v0.04c0,2.18,1.48,3.601,3.221,3.601
			S557.082,75.178,557.082,73.018z"/>
		<path fill="#464646" d="M562.06,75.318v-0.04c0-2.36,1.86-3.521,4.54-3.521c1.241,0,2.141,0.18,3.002,0.46v-0.28
			c0-1.6-0.98-2.46-2.781-2.46c-1.24,0-2.16,0.26-3.16,0.68l-0.641-1.88c1.2-0.54,2.381-0.9,4.121-0.9c1.62,0,2.84,0.44,3.621,1.22
			c0.8,0.78,1.16,1.92,1.16,3.361v6.521h-2.341v-1.4c-0.74,0.9-1.9,1.621-3.601,1.621C563.92,78.699,562.06,77.519,562.06,75.318z
			 M569.641,74.538v-0.8c-0.66-0.24-1.54-0.44-2.58-0.44c-1.66,0-2.641,0.72-2.641,1.88v0.04c0,1.1,0.98,1.72,2.2,1.72
			C568.341,76.938,569.641,75.958,569.641,74.538z"/>
		<path fill="#464646" d="M575.58,75.479v-5.881h-1.42v-2.081h1.42v-3.041h2.4v3.041h3v2.081h-3v5.501c0,1,0.52,1.42,1.4,1.42
			c0.561,0,1.061-0.14,1.561-0.38v1.98c-0.621,0.34-1.301,0.54-2.221,0.54C576.88,78.659,575.58,77.859,575.58,75.479z"/>
		<path fill="#464646" d="M582.799,73.038v-0.04c0-3.141,2.221-5.702,5.342-5.702c3.461,0,5.221,2.721,5.221,5.881
			c0,0.22,0,0.44-0.02,0.68h-8.121c0.26,1.86,1.56,2.881,3.22,2.881c1.261,0,2.161-0.46,3.021-1.32l1.441,1.26
			c-1.061,1.24-2.481,2.041-4.502,2.041C585.24,78.719,582.799,76.418,582.799,73.038z M590.981,72.258
			c-0.181-1.681-1.141-2.981-2.86-2.981c-1.581,0-2.701,1.22-2.941,2.981H590.981z"/>
		<path fill="#464646" d="M602.559,72.298v-8.382h2.461v8.302c0,2.741,1.42,4.221,3.781,4.221c2.301,0,3.721-1.38,3.721-4.121
			v-8.402h2.461v8.282c0,4.321-2.461,6.501-6.242,6.501C604.979,78.699,602.559,76.519,602.559,72.298z"/>
		<path fill="#464646" d="M618.859,63.916h2.461v14.563h-2.461V63.916z"/>
		<path fill="#464646" d="M517.91,90.205v-0.013c0-2.522,1.287-4.446,3.744-5.785l0.689,1.053c-1.938,1.287-2.861,2.704-2.861,4.745
			v0.013c0,2.002,0.924,3.445,2.861,4.719l-0.689,1.053C519.197,94.638,517.91,92.74,517.91,90.205z"/>
		<path fill="#464646" d="M524.163,84.303h1.703v1.508h-1.703V84.303z M524.229,86.955h1.572v7.125h-1.572V86.955z"/>
		<path fill="#464646" d="M528.439,88.307h-0.896v-1.313h0.896v-0.533c0-0.793,0.209-1.391,0.599-1.768
			c0.364-0.364,0.897-0.559,1.586-0.559c0.572,0,0.949,0.065,1.313,0.182v1.326c-0.338-0.104-0.625-0.169-0.976-0.169
			c-0.637,0-0.962,0.351-0.962,1.118v0.416h1.911v1.3h-1.897v5.772h-1.574V88.307z"/>
		<path fill="#464646" d="M537.409,86.955h1.561v1.118c0.468-0.676,1.144-1.261,2.262-1.261c1.612,0,2.562,1.079,2.562,2.743v4.524
			h-1.573v-4.056c0-1.131-0.572-1.781-1.573-1.781c-0.988,0-1.677,0.676-1.677,1.807v4.03h-1.561V86.955z"/>
		<path fill="#464646" d="M545.496,90.543v-0.026c0-2.041,1.442-3.705,3.471-3.705c2.249,0,3.393,1.768,3.393,3.822
			c0,0.143,0,0.286-0.013,0.442h-5.278c0.169,1.209,1.014,1.872,2.094,1.872c0.818,0,1.403-0.299,1.963-0.858l0.936,0.819
			c-0.689,0.806-1.611,1.326-2.925,1.326C547.082,94.235,545.496,92.74,545.496,90.543z M550.812,90.036
			c-0.117-1.092-0.74-1.937-1.859-1.937c-1.026,0-1.754,0.793-1.91,1.937H550.812z"/>
		<path fill="#464646" d="M553.75,90.543v-0.026c0-2.041,1.443-3.705,3.472-3.705c2.249,0,3.394,1.768,3.394,3.822
			c0,0.143,0,0.286-0.014,0.442h-5.278c0.169,1.209,1.015,1.872,2.093,1.872c0.819,0,1.404-0.299,1.963-0.858l0.937,0.819
			c-0.688,0.806-1.612,1.326-2.925,1.326C555.336,94.235,553.75,92.74,553.75,90.543z M559.067,90.036
			c-0.116-1.092-0.741-1.937-1.858-1.937c-1.027,0-1.756,0.793-1.912,1.937H559.067z"/>
		<path fill="#464646" d="M562.031,90.53v-0.026c0-2.353,1.612-3.692,3.314-3.692c1.197,0,1.951,0.598,2.458,1.274v-3.874h1.573
			v9.867h-1.573v-1.222c-0.533,0.767-1.287,1.365-2.458,1.365C563.67,94.222,562.031,92.896,562.031,90.53z M567.842,90.53v-0.026
			c0-1.404-1-2.34-2.131-2.34c-1.145,0-2.094,0.897-2.094,2.34v0.026c0,1.417,0.962,2.34,2.094,2.34
			C566.842,92.87,567.842,91.934,567.842,90.53z"/>
		<path fill="#464646" d="M571.17,90.543v-0.026c0-2.041,1.443-3.705,3.472-3.705c2.249,0,3.394,1.768,3.394,3.822
			c0,0.143,0,0.286-0.014,0.442h-5.278c0.169,1.209,1.015,1.872,2.093,1.872c0.819,0,1.404-0.299,1.963-0.858l0.937,0.819
			c-0.688,0.806-1.612,1.326-2.925,1.326C572.756,94.235,571.17,92.74,571.17,90.543z M576.487,90.036
			c-0.116-1.092-0.741-1.937-1.858-1.937c-1.027,0-1.756,0.793-1.912,1.937H576.487z"/>
		<path fill="#464646" d="M579.451,90.53v-0.026c0-2.353,1.612-3.692,3.314-3.692c1.197,0,1.951,0.598,2.458,1.274v-3.874h1.573
			v9.867h-1.573v-1.222c-0.533,0.767-1.287,1.365-2.458,1.365C581.09,94.222,579.451,92.896,579.451,90.53z M585.262,90.53v-0.026
			c0-1.404-1-2.34-2.131-2.34c-1.145,0-2.094,0.897-2.094,2.34v0.026c0,1.417,0.962,2.34,2.094,2.34
			C584.262,92.87,585.262,91.934,585.262,90.53z"/>
		<path fill="#464646" d="M588.604,94.937c1.924-1.287,2.859-2.704,2.859-4.732v-0.013c0-2.015-0.936-3.458-2.859-4.732l0.688-1.053
			c2.444,1.352,3.744,3.25,3.744,5.798v0.013c0,2.509-1.3,4.433-3.744,5.772L588.604,94.937z"/>
	</g>
</g>
<g>
	<g>
		<path fill="#464646" d="M518.98,130.117h5.701c3.381,0,5.521,1.92,5.521,4.821v0.06c0,3.261-2.621,4.941-5.802,4.941h-2.96v4.741
			h-2.461V130.117z M524.481,137.738c1.98,0,3.241-1.12,3.241-2.681v-0.04c0-1.74-1.281-2.681-3.241-2.681h-3.04v5.401H524.481z"/>
		<path fill="#464646" d="M532.74,133.717h2.4v2.521c0.72-1.66,2.02-2.8,3.961-2.721v2.541h-0.141c-2.221,0-3.82,1.48-3.82,4.421
			v4.201h-2.4V133.717z"/>
		<path fill="#464646" d="M540.479,139.258v-0.04c0-3.121,2.48-5.722,5.841-5.722c3.342,0,5.802,2.541,5.802,5.682v0.04
			c0,3.121-2.48,5.701-5.841,5.701C542.939,144.92,540.479,142.379,540.479,139.258z M549.722,139.258v-0.04
			c0-1.96-1.44-3.621-3.44-3.621c-2.061,0-3.4,1.641-3.4,3.581v0.04c0,1.96,1.439,3.601,3.439,3.601
			C548.381,142.819,549.722,141.199,549.722,139.258z"/>
		<path fill="#464646" d="M554.279,139.258v-0.04c0-3.121,2.4-5.722,5.682-5.722c2.061,0,3.36,0.78,4.381,1.9l-1.521,1.621
			c-0.78-0.82-1.601-1.42-2.881-1.42c-1.88,0-3.261,1.621-3.261,3.581v0.04c0,2,1.4,3.601,3.381,3.601c1.2,0,2.08-0.56,2.9-1.38
			l1.461,1.42c-1.101,1.2-2.361,2.061-4.481,2.061C556.68,144.92,554.279,142.359,554.279,139.258z"/>
		<path fill="#464646" d="M566,139.238v-0.04c0-3.141,2.221-5.702,5.341-5.702c3.461,0,5.222,2.721,5.222,5.881
			c0,0.22,0,0.44-0.021,0.68h-8.122c0.26,1.86,1.561,2.881,3.221,2.881c1.261,0,2.16-0.46,3.021-1.32l1.439,1.26
			c-1.061,1.24-2.48,2.041-4.5,2.041C568.44,144.92,566,142.619,566,139.238z M574.182,138.458c-0.18-1.681-1.141-2.981-2.861-2.981
			c-1.58,0-2.7,1.22-2.939,2.981H574.182z"/>
		<path fill="#464646" d="M578.399,143.259l1.101-1.64c1.199,0.88,2.46,1.36,3.62,1.36c1.101,0,1.761-0.5,1.761-1.26v-0.04
			c0-0.88-1.181-1.18-2.48-1.581c-1.621-0.48-3.441-1.12-3.441-3.201v-0.04c0-2.061,1.681-3.321,3.861-3.321
			c1.381,0,2.881,0.48,4.021,1.24l-0.961,1.721c-1.061-0.64-2.181-1.041-3.101-1.041c-1.021,0-1.601,0.48-1.601,1.141v0.04
			c0,0.82,1.181,1.16,2.501,1.6c1.601,0.5,3.421,1.2,3.421,3.181v0.04c0,2.28-1.781,3.421-4.061,3.421
			C581.48,144.88,579.76,144.34,578.399,143.259z"/>
		<path fill="#464646" d="M588.76,143.259l1.1-1.64c1.201,0.88,2.461,1.36,3.621,1.36c1.101,0,1.761-0.5,1.761-1.26v-0.04
			c0-0.88-1.181-1.18-2.48-1.581c-1.62-0.48-3.44-1.12-3.44-3.201v-0.04c0-2.061,1.68-3.321,3.86-3.321c1.38,0,2.88,0.48,4.021,1.24
			l-0.96,1.721c-1.06-0.64-2.181-1.041-3.101-1.041c-1.02,0-1.601,0.48-1.601,1.141v0.04c0,0.82,1.181,1.16,2.501,1.6
			c1.6,0.5,3.42,1.2,3.42,3.181v0.04c0,2.28-1.779,3.421-4.061,3.421C591.84,144.88,590.12,144.34,588.76,143.259z"/>
		<path fill="#464646" d="M606.02,139.258v-0.04c0-3.121,2.4-5.722,5.682-5.722c2.061,0,3.36,0.78,4.381,1.9l-1.521,1.621
			c-0.78-0.82-1.601-1.42-2.881-1.42c-1.88,0-3.261,1.621-3.261,3.581v0.04c0,2,1.4,3.601,3.381,3.601c1.2,0,2.08-0.56,2.9-1.38
			l1.461,1.42c-1.101,1.2-2.361,2.061-4.481,2.061C608.42,144.92,606.02,142.359,606.02,139.258z"/>
		<path fill="#464646" d="M617.739,139.258v-0.04c0-3.121,2.48-5.722,5.841-5.722c3.342,0,5.802,2.541,5.802,5.682v0.04
			c0,3.121-2.48,5.701-5.841,5.701C620.199,144.92,617.739,142.379,617.739,139.258z M626.981,139.258v-0.04
			c0-1.96-1.44-3.621-3.44-3.621c-2.061,0-3.4,1.641-3.4,3.581v0.04c0,1.96,1.439,3.601,3.439,3.601
			C625.641,142.819,626.981,141.199,626.981,139.258z"/>
		<path fill="#464646" d="M632.139,133.717h2.401v1.7c0.72-1,1.681-1.92,3.38-1.92c1.602,0,2.721,0.78,3.301,1.94
			c0.881-1.16,2.021-1.94,3.721-1.94c2.401,0,3.861,1.541,3.861,4.221v6.961h-2.4v-6.241c0-1.78-0.86-2.741-2.301-2.741
			c-1.4,0-2.42,0.98-2.42,2.781v6.201h-2.421v-6.281c0-1.74-0.84-2.701-2.28-2.701s-2.44,1.08-2.44,2.801v6.181h-2.401V133.717z"/>
		<path fill="#464646" d="M652.059,133.717h2.401v1.7c0.72-1,1.681-1.92,3.38-1.92c1.602,0,2.721,0.78,3.301,1.94
			c0.881-1.16,2.021-1.94,3.721-1.94c2.401,0,3.861,1.541,3.861,4.221v6.961h-2.4v-6.241c0-1.78-0.86-2.741-2.301-2.741
			c-1.4,0-2.42,0.98-2.42,2.781v6.201h-2.421v-6.281c0-1.74-0.84-2.701-2.28-2.701s-2.44,1.08-2.44,2.801v6.181h-2.401V133.717z"/>
		<path fill="#464646" d="M671.239,141.519v-0.04c0-2.36,1.86-3.521,4.541-3.521c1.24,0,2.141,0.18,3,0.46v-0.28
			c0-1.6-0.979-2.46-2.78-2.46c-1.24,0-2.16,0.26-3.16,0.68l-0.641-1.88c1.2-0.54,2.381-0.9,4.121-0.9c1.62,0,2.841,0.44,3.62,1.22
			c0.801,0.78,1.161,1.92,1.161,3.361v6.521h-2.341v-1.4c-0.74,0.9-1.9,1.621-3.601,1.621
			C673.1,144.9,671.239,143.72,671.239,141.519z M678.82,140.739v-0.8c-0.66-0.24-1.54-0.44-2.58-0.44
			c-1.66,0-2.641,0.72-2.641,1.88v0.04c0,1.1,0.98,1.72,2.2,1.72C677.521,143.139,678.82,142.159,678.82,140.739z"/>
		<path fill="#464646" d="M684.319,133.717h2.4v1.72c0.72-1.04,1.76-1.94,3.48-1.94c2.48,0,3.941,1.661,3.941,4.221v6.961h-2.421
			v-6.241c0-1.741-0.88-2.741-2.421-2.741c-1.521,0-2.58,1.04-2.58,2.781v6.201h-2.4V133.717z"/>
		<path fill="#464646" d="M696.799,139.219v-0.04c0-3.621,2.48-5.682,5.102-5.682c1.84,0,3,0.92,3.78,1.96v-5.961h2.421v15.183
			h-2.421v-1.88c-0.82,1.18-1.98,2.101-3.78,2.101C699.319,144.9,696.799,142.859,696.799,139.219z M705.741,139.219v-0.04
			c0-2.161-1.541-3.601-3.281-3.601c-1.76,0-3.221,1.38-3.221,3.601v0.04c0,2.18,1.48,3.601,3.221,3.601
			S705.741,141.379,705.741,139.219z"/>
		<path fill="#464646" d="M710.559,143.259l1.101-1.64c1.2,0.88,2.46,1.36,3.62,1.36c1.101,0,1.761-0.5,1.761-1.26v-0.04
			c0-0.88-1.181-1.18-2.48-1.581c-1.62-0.48-3.441-1.12-3.441-3.201v-0.04c0-2.061,1.681-3.321,3.861-3.321
			c1.38,0,2.881,0.48,4.021,1.24l-0.96,1.721c-1.061-0.64-2.181-1.041-3.101-1.041c-1.021,0-1.601,0.48-1.601,1.141v0.04
			c0,0.82,1.181,1.16,2.501,1.6c1.601,0.5,3.421,1.2,3.421,3.181v0.04c0,2.28-1.781,3.421-4.062,3.421
			C713.639,144.88,711.919,144.34,710.559,143.259z"/>
	</g>
</g>
<g>
	<g>
		<line fill="none" stroke="#969696" stroke-width="3" stroke-miterlimit="10" x1="195.5" y1="97" x2="195.5" y2="112"/>
		<g>
			<polygon fill="#969696" points="189.517,111 195.5,121.362 201.483,111 			"/>
		</g>
	</g>
</g>
<g>
	<g>
		<line fill="none" stroke="#969696" stroke-width="3" stroke-miterlimit="10" x1="481.5" y1="106" x2="481.5" y2="121"/>
		<g>
			<polygon fill="#969696" points="475.517,107 481.5,96.638 487.483,107 			"/>
		</g>
	</g>
</g>
<g>
	<g>
		<line fill="none" stroke="#969696" stroke-width="3" stroke-miterlimit="10" x1="481.5" y1="167" x2="481.5" y2="220"/>
		<g>
			<polygon fill="#969696" points="475.517,168 481.5,157.638 487.483,168 			"/>
		</g>
	</g>
</g>
<g>
	<g>
		<line fill="none" stroke="#969696" stroke-width="3" stroke-miterlimit="10" x1="195.5" y1="158" x2="195.5" y2="211"/>
		<g>
			<polygon fill="#969696" points="189.517,210 195.5,220.362 201.483,210 			"/>
		</g>
	</g>
</g>
<g>
	<g>
		<line fill="none" stroke="#969696" stroke-width="3" stroke-miterlimit="10" x1="195.5" y1="258" x2="195.5" y2="337"/>
		<g>
			<polygon fill="#969696" points="189.517,336 195.5,346.362 201.483,336 			"/>
		</g>
	</g>
</g>
<g>
	<g>
		<line fill="none" stroke="#969696" stroke-width="3" stroke-miterlimit="10" x1="374" y1="364.5" x2="453" y2="364.5"/>
		<g>
			<polygon fill="#969696" points="452,370.15 462.362,364.167 452,358.184 			"/>
		</g>
	</g>
</g>
<g>
	<g>
		<line fill="none" stroke="#969696" stroke-width="3" stroke-miterlimit="10" x1="467.403" y1="165.775" x2="481.5" y2="193.5"/>
		<g>
			<polygon fill="#969696" points="462.863,170.047 463.5,158.099 473.53,164.624 			"/>
		</g>
	</g>
</g>
<g>
	<g>
		<line fill="none" stroke="#969696" stroke-width="3" stroke-miterlimit="10" x1="494.772" y1="165.861" x2="481.5" y2="193.5"/>
		<g>
			<polygon fill="#969696" points="488.62,164.85 498.5,158.099 499.408,170.03 			"/>
		</g>
	</g>
</g>
<g>
	<g>
		<line fill="none" stroke="#969696" stroke-width="3" stroke-miterlimit="10" x1="481.5" y1="267" x2="481.5" y2="346"/>
		<g>
			<polygon fill="#969696" points="475.517,268 481.5,257.638 487.483,268 			"/>
		</g>
	</g>
</g>
<polyline fill="none" stroke="#969696" stroke-width="3" stroke-miterlimit="10" points="468.5,346 468.5,295 481.5,282.75 
	494.5,295 494.5,346 "/>
<g>
	<g>
		<path fill="#464646" d="M88.836,0.805h3.458l4.628,14.223l4.706-14.275h2.704l4.707,14.275l4.628-14.223h3.328l-6.604,19.059
			h-2.756l-4.706-13.806l-4.732,13.806h-2.73L88.836,0.805z"/>
		<path fill="#464646" d="M120.036-0.001h3.12v7.723c0.936-1.353,2.288-2.522,4.524-2.522c3.224,0,5.122,2.158,5.122,5.486v9.048
			h-3.146v-8.112c0-2.262-1.144-3.562-3.146-3.562c-1.976,0-3.354,1.352-3.354,3.614v8.06h-3.12V-0.001z"/>
		<path fill="#464646" d="M136.026,15.626v-0.052c0-3.068,2.418-4.576,5.902-4.576c1.612,0,2.782,0.234,3.9,0.598v-0.364
			c0-2.08-1.274-3.198-3.614-3.198c-1.612,0-2.808,0.338-4.108,0.884l-0.832-2.444c1.56-0.702,3.094-1.17,5.356-1.17
			c2.106,0,3.692,0.572,4.706,1.586c1.04,1.014,1.508,2.496,1.508,4.368v8.476h-3.042v-1.82c-0.962,1.17-2.47,2.106-4.68,2.106
			C138.444,20.02,136.026,18.486,136.026,15.626z M145.88,14.612v-1.04C145.022,13.26,143.878,13,142.526,13
			c-2.158,0-3.432,0.936-3.432,2.444v0.052c0,1.43,1.274,2.236,2.86,2.236C144.19,17.732,145.88,16.458,145.88,14.612z"/>
		<path fill="#464646" d="M153.602,15.834V8.189h-1.846V5.485h1.846V1.533h3.12v3.952h3.9v2.704h-3.9v7.15
			c0,1.3,0.676,1.846,1.82,1.846c0.728,0,1.378-0.182,2.028-0.494v2.574c-0.806,0.442-1.69,0.702-2.886,0.702
			C155.292,19.968,153.602,18.928,153.602,15.834z"/>
		<path fill="#464646" d="M172.503-0.001h3.12v7.723c0.936-1.353,2.288-2.522,4.524-2.522c3.224,0,5.122,2.158,5.122,5.486v9.048
			h-3.146v-8.112c0-2.262-1.144-3.562-3.146-3.562c-1.976,0-3.354,1.352-3.354,3.614v8.06h-3.12V-0.001z"/>
		<path fill="#464646" d="M188.493,15.626v-0.052c0-3.068,2.418-4.576,5.902-4.576c1.612,0,2.782,0.234,3.9,0.598v-0.364
			c0-2.08-1.274-3.198-3.614-3.198c-1.612,0-2.808,0.338-4.108,0.884l-0.832-2.444c1.56-0.702,3.094-1.17,5.356-1.17
			c2.106,0,3.692,0.572,4.706,1.586c1.04,1.014,1.508,2.496,1.508,4.368v8.476h-3.042v-1.82c-0.962,1.17-2.47,2.106-4.68,2.106
			C190.911,20.02,188.493,18.486,188.493,15.626z M198.347,14.612v-1.04C197.489,13.26,196.345,13,194.993,13
			c-2.158,0-3.432,0.936-3.432,2.444v0.052c0,1.43,1.274,2.236,2.86,2.236C196.657,17.732,198.347,16.458,198.347,14.612z"/>
		<path fill="#464646" d="M205.496,5.485h3.12V7.93c1.066-1.534,2.601-2.73,4.94-2.73c3.354,0,6.63,2.652,6.63,7.384v0.052
			c0,4.706-3.25,7.384-6.63,7.384c-2.393,0-3.9-1.196-4.94-2.548v6.578h-3.12V5.485z M217.015,12.636v-0.052
			c0-2.834-1.924-4.68-4.187-4.68c-2.262,0-4.264,1.872-4.264,4.68v0.052c0,2.808,2.002,4.68,4.264,4.68
			C215.116,17.316,217.015,15.521,217.015,12.636z"/>
		<path fill="#464646" d="M223.826,5.485h3.119V7.93c1.066-1.534,2.601-2.73,4.94-2.73c3.354,0,6.631,2.652,6.631,7.384v0.052
			c0,4.706-3.251,7.384-6.631,7.384c-2.392,0-3.899-1.196-4.94-2.548v6.578h-3.119V5.485z M235.344,12.636v-0.052
			c0-2.834-1.924-4.68-4.186-4.68c-2.263,0-4.265,1.872-4.265,4.68v0.052c0,2.808,2.002,4.68,4.265,4.68
			C233.446,17.316,235.344,15.521,235.344,12.636z"/>
		<path fill="#464646" d="M241.376,12.662v-0.052c0-4.082,2.886-7.41,6.942-7.41c4.498,0,6.786,3.536,6.786,7.645
			c0,0.286,0,0.572-0.026,0.884h-10.557c0.338,2.418,2.028,3.744,4.187,3.744c1.638,0,2.808-0.598,3.926-1.716l1.872,1.638
			c-1.378,1.612-3.224,2.652-5.85,2.652C244.548,20.046,241.376,17.056,241.376,12.662z M252.01,11.647
			c-0.233-2.184-1.481-3.874-3.718-3.874c-2.054,0-3.51,1.586-3.822,3.874H252.01z"/>
		<path fill="#464646" d="M258.666,5.485h3.119v2.236c0.937-1.353,2.289-2.522,4.524-2.522c3.225,0,5.122,2.158,5.122,5.486v9.048
			h-3.146v-8.112c0-2.262-1.145-3.562-3.146-3.562c-1.976,0-3.354,1.352-3.354,3.614v8.06h-3.119V5.485z"/>
		<path fill="#464646" d="M274.447,17.888l1.431-2.132c1.56,1.144,3.198,1.768,4.706,1.768c1.43,0,2.288-0.65,2.288-1.638v-0.052
			c0-1.145-1.534-1.534-3.225-2.054c-2.105-0.624-4.472-1.456-4.472-4.16V9.567c0-2.678,2.184-4.316,5.018-4.316
			c1.795,0,3.744,0.624,5.227,1.612L284.172,9.1c-1.378-0.832-2.834-1.352-4.03-1.352c-1.326,0-2.08,0.624-2.08,1.482v0.052
			c0,1.066,1.534,1.508,3.25,2.08c2.08,0.65,4.446,1.561,4.446,4.134v0.052c0,2.964-2.313,4.446-5.278,4.446
			C278.452,19.994,276.216,19.292,274.447,17.888z"/>
		<path fill="#464646" d="M297.717,0.181h3.406v3.016h-3.406V0.181z M297.847,5.485h3.146v14.249h-3.146V5.485z"/>
		<path fill="#464646" d="M305.543,5.485h3.119v2.236c0.937-1.353,2.289-2.522,4.524-2.522c3.225,0,5.122,2.158,5.122,5.486v9.048
			h-3.146v-8.112c0-2.262-1.145-3.562-3.146-3.562c-1.976,0-3.354,1.352-3.354,3.614v8.06h-3.119V5.485z"/>
		<path fill="#464646" d="M321.324,17.888l1.431-2.132c1.56,1.144,3.198,1.768,4.706,1.768c1.43,0,2.288-0.65,2.288-1.638v-0.052
			c0-1.145-1.534-1.534-3.225-2.054c-2.105-0.624-4.472-1.456-4.472-4.16V9.567c0-2.678,2.184-4.316,5.018-4.316
			c1.795,0,3.744,0.624,5.227,1.612L331.049,9.1c-1.378-0.832-2.834-1.352-4.03-1.352c-1.326,0-2.08,0.624-2.08,1.482v0.052
			c0,1.066,1.534,1.508,3.25,2.08c2.08,0.65,4.446,1.561,4.446,4.134v0.052c0,2.964-2.313,4.446-5.278,4.446
			C325.329,19.994,323.093,19.292,321.324,17.888z"/>
		<path fill="#464646" d="M336.274,0.181h3.406v3.016h-3.406V0.181z M336.404,5.485h3.146v14.249h-3.146V5.485z"/>
		<path fill="#464646" d="M343.372,12.636v-0.052c0-4.706,3.224-7.384,6.63-7.384c2.393,0,3.9,1.196,4.914,2.548v-7.749h3.146
			v19.735h-3.146V17.29c-1.065,1.534-2.573,2.73-4.914,2.73C346.648,20.02,343.372,17.368,343.372,12.636z M354.994,12.636v-0.052
			c0-2.808-2.002-4.68-4.264-4.68c-2.288,0-4.187,1.794-4.187,4.68v0.052c0,2.834,1.925,4.68,4.187,4.68
			S354.994,15.444,354.994,12.636z"/>
		<path fill="#464646" d="M361.65,12.662v-0.052c0-4.082,2.886-7.41,6.942-7.41c4.498,0,6.786,3.536,6.786,7.645
			c0,0.286,0,0.572-0.026,0.884h-10.557c0.339,2.418,2.028,3.744,4.187,3.744c1.638,0,2.809-0.598,3.926-1.716l1.872,1.638
			c-1.378,1.612-3.224,2.652-5.85,2.652C364.822,20.046,361.65,17.056,361.65,12.662z M372.284,11.647
			c-0.233-2.184-1.481-3.874-3.718-3.874c-2.054,0-3.51,1.586-3.822,3.874H372.284z"/>
		<path fill="#464646" d="M386.297,15.626v-0.052c0-3.068,2.418-4.576,5.902-4.576c1.612,0,2.782,0.234,3.9,0.598v-0.364
			c0-2.08-1.274-3.198-3.614-3.198c-1.612,0-2.808,0.338-4.108,0.884l-0.832-2.444c1.561-0.702,3.095-1.17,5.356-1.17
			c2.106,0,3.692,0.572,4.706,1.586c1.04,1.014,1.508,2.496,1.508,4.368v8.476h-3.042v-1.82c-0.962,1.17-2.47,2.106-4.68,2.106
			C388.715,20.02,386.297,18.486,386.297,15.626z M396.151,14.612v-1.04C395.294,13.26,394.149,13,392.798,13
			c-2.158,0-3.433,0.936-3.433,2.444v0.052c0,1.43,1.274,2.236,2.86,2.236C394.462,17.732,396.151,16.458,396.151,14.612z"/>
		<path fill="#464646" d="M412.011,0.805h8.398c2.366,0,4.238,0.702,5.46,1.898c0.988,0.988,1.534,2.418,1.534,4.056v0.052
			c0,3.094-1.872,4.966-4.576,5.694l5.2,7.228h-3.796l-4.732-6.682h-4.29v6.682h-3.198V0.805z M420.175,10.218
			c2.418,0,4.004-1.274,4.004-3.25V6.916c0-2.054-1.508-3.224-4.03-3.224h-4.939v6.526H420.175z"/>
		<path fill="#464646" d="M430.341,12.662v-0.052c0-4.082,2.886-7.41,6.942-7.41c4.498,0,6.786,3.536,6.786,7.645
			c0,0.286,0,0.572-0.026,0.884h-10.557c0.338,2.418,2.028,3.744,4.187,3.744c1.638,0,2.808-0.598,3.926-1.716l1.872,1.638
			c-1.378,1.612-3.224,2.652-5.85,2.652C433.513,20.046,430.341,17.056,430.341,12.662z M440.975,11.647
			c-0.233-2.184-1.481-3.874-3.718-3.874c-2.054,0-3.51,1.586-3.822,3.874H440.975z"/>
		<path fill="#464646" d="M446.668,15.626v-0.052c0-3.068,2.418-4.576,5.902-4.576c1.612,0,2.782,0.234,3.9,0.598v-0.364
			c0-2.08-1.274-3.198-3.614-3.198c-1.612,0-2.808,0.338-4.108,0.884l-0.832-2.444c1.561-0.702,3.095-1.17,5.356-1.17
			c2.106,0,3.692,0.572,4.706,1.586c1.04,1.014,1.508,2.496,1.508,4.368v8.476h-3.042v-1.82c-0.962,1.17-2.47,2.106-4.68,2.106
			C449.086,20.02,446.668,18.486,446.668,15.626z M456.522,14.612v-1.04C455.665,13.26,454.521,13,453.169,13
			c-2.158,0-3.433,0.936-3.433,2.444v0.052c0,1.43,1.274,2.236,2.86,2.236C454.833,17.732,456.522,16.458,456.522,14.612z"/>
		<path fill="#464646" d="M462.893,12.688v-0.052c0-4.056,3.12-7.437,7.384-7.437c2.679,0,4.368,1.014,5.694,2.47l-1.976,2.106
			c-1.015-1.066-2.08-1.846-3.744-1.846c-2.444,0-4.238,2.106-4.238,4.654v0.052c0,2.6,1.819,4.68,4.394,4.68
			c1.561,0,2.704-0.728,3.771-1.794l1.898,1.846c-1.431,1.56-3.068,2.678-5.824,2.678C466.013,20.046,462.893,16.718,462.893,12.688
			z"/>
		<path fill="#464646" d="M480.025,15.834V8.189h-1.846V5.485h1.846V1.533h3.12v3.952h3.9v2.704h-3.9v7.15
			c0,1.3,0.677,1.846,1.82,1.846c0.729,0,1.378-0.182,2.028-0.494v2.574c-0.807,0.442-1.69,0.702-2.887,0.702
			C481.716,19.968,480.025,18.928,480.025,15.834z"/>
		<path fill="#464646" d="M499.317,0.805h2.938l10.348,13.338V0.805h3.146v18.929h-2.678L502.463,6.031v13.703h-3.146V0.805z"/>
		<path fill="#464646" d="M519.545,15.626v-0.052c0-3.068,2.418-4.576,5.902-4.576c1.612,0,2.782,0.234,3.9,0.598v-0.364
			c0-2.08-1.274-3.198-3.614-3.198c-1.612,0-2.808,0.338-4.108,0.884l-0.832-2.444c1.561-0.702,3.095-1.17,5.356-1.17
			c2.106,0,3.692,0.572,4.706,1.586c1.04,1.014,1.508,2.496,1.508,4.368v8.476h-3.042v-1.82c-0.962,1.17-2.47,2.106-4.68,2.106
			C521.963,20.02,519.545,18.486,519.545,15.626z M529.399,14.612v-1.04C528.542,13.26,527.397,13,526.046,13
			c-2.158,0-3.433,0.936-3.433,2.444v0.052c0,1.43,1.274,2.236,2.86,2.236C527.71,17.732,529.399,16.458,529.399,14.612z"/>
		<path fill="#464646" d="M537.121,15.834V8.189h-1.846V5.485h1.846V1.533h3.12v3.952h3.9v2.704h-3.9v7.15
			c0,1.3,0.677,1.846,1.82,1.846c0.729,0,1.378-0.182,2.028-0.494v2.574c-0.807,0.442-1.69,0.702-2.887,0.702
			C538.812,19.968,537.121,18.928,537.121,15.834z"/>
		<path fill="#464646" d="M547.756,0.181h3.406v3.016h-3.406V0.181z M547.886,5.485h3.146v14.249h-3.146V5.485z"/>
		<path fill="#464646" d="M554.229,5.485h3.38l3.927,10.608l3.978-10.608h3.303l-5.877,14.353h-2.834L554.229,5.485z"/>
		<path fill="#464646" d="M570.246,12.662v-0.052c0-4.082,2.886-7.41,6.942-7.41c4.498,0,6.786,3.536,6.786,7.645
			c0,0.286,0,0.572-0.026,0.884h-10.557c0.339,2.418,2.028,3.744,4.187,3.744c1.638,0,2.809-0.598,3.926-1.716l1.872,1.638
			c-1.378,1.612-3.224,2.652-5.85,2.652C573.418,20.046,570.246,17.056,570.246,12.662z M580.88,11.647
			c-0.233-2.184-1.481-3.874-3.718-3.874c-2.054,0-3.51,1.586-3.822,3.874H580.88z"/>
		<path fill="#464646" d="M594.893,15.626v-0.052c0-3.068,2.418-4.576,5.902-4.576c1.612,0,2.782,0.234,3.9,0.598v-0.364
			c0-2.08-1.274-3.198-3.614-3.198c-1.612,0-2.808,0.338-4.108,0.884l-0.832-2.444c1.561-0.702,3.095-1.17,5.356-1.17
			c2.106,0,3.692,0.572,4.706,1.586c1.04,1.014,1.508,2.496,1.508,4.368v8.476h-3.042v-1.82c-0.962,1.17-2.47,2.106-4.68,2.106
			C597.311,20.02,594.893,18.486,594.893,15.626z M604.747,14.612v-1.04C603.89,13.26,602.745,13,601.394,13
			c-2.158,0-3.433,0.936-3.433,2.444v0.052c0,1.43,1.274,2.236,2.86,2.236C603.058,17.732,604.747,16.458,604.747,14.612z"/>
		<path fill="#464646" d="M611.896,5.485h3.121V7.93c1.065-1.534,2.6-2.73,4.939-2.73c3.354,0,6.631,2.652,6.631,7.384v0.052
			c0,4.706-3.25,7.384-6.631,7.384c-2.392,0-3.9-1.196-4.939-2.548v6.578h-3.121V5.485z M623.415,12.636v-0.052
			c0-2.834-1.924-4.68-4.186-4.68c-2.263,0-4.265,1.872-4.265,4.68v0.052c0,2.808,2.002,4.68,4.265,4.68
			C621.518,17.316,623.415,15.521,623.415,12.636z"/>
		<path fill="#464646" d="M630.227,5.485h3.121V7.93c1.065-1.534,2.6-2.73,4.939-2.73c3.354,0,6.631,2.652,6.631,7.384v0.052
			c0,4.706-3.25,7.384-6.631,7.384c-2.392,0-3.9-1.196-4.939-2.548v6.578h-3.121V5.485z M641.745,12.636v-0.052
			c0-2.834-1.924-4.68-4.186-4.68c-2.263,0-4.265,1.872-4.265,4.68v0.052c0,2.808,2.002,4.68,4.265,4.68
			C639.848,17.316,641.745,15.521,641.745,12.636z"/>
		<path fill="#464646" d="M650.638,9.438l0.13-0.13c3.484-0.13,5.044-1.274,5.044-3.12V6.135c0-1.56-1.195-2.678-3.172-2.678
			c-1.742,0-3.172,0.78-4.472,2.185l-1.95-2.054c1.56-1.794,3.562-3.016,6.5-3.016c3.771,0,6.292,2.132,6.292,5.486v0.052
			c0,3.406-2.443,4.94-5.46,5.46l-0.286,2.236h-2.08L650.638,9.438z M650.43,16.12h3.484v3.614h-3.484V16.12z"/>
	</g>
</g>
</svg>
