<?xml version="1.0" encoding="utf-8"?>
<!-- Generator: Adobe Illustrator 16.0.4, SVG Export Plug-In . SVG Version: 6.00 Build 0)  -->
<!DOCTYPE svg PUBLIC "-//W3C//DTD SVG 1.1//EN" "http://www.w3.org/Graphics/SVG/1.1/DTD/svg11.dtd">
<svg version="1.1" id="Layer_1" xmlns="http://www.w3.org/2000/svg" xmlns:xlink="http://www.w3.org/1999/xlink" x="0px" y="0px"
	 width="402px" height="402px" viewBox="-10 -10 402 402" enable-background="new -10 -10 402 402" xml:space="preserve">
<g>
	<path fill="none" d="M279.817,102.483l-0.052,0.051c-7.538-7.537-16.227-14.237-25.962-19.89s-19.89-9.736-30.254-12.562
		c-10.361-2.722-21.251-4.188-32.452-4.188c-11.202,0-22.088,1.466-32.452,4.188c-10.364,2.826-20.519,6.909-30.254,12.562
		c-9.699,5.631-18.358,12.303-25.875,19.806l0.018,0.084c-7.537,7.537-14.237,16.226-19.89,25.961s-9.736,19.89-12.562,30.254
		l-0.028,0.009c-2.703,10.33-4.159,21.178-4.159,32.338c0,11.201,1.466,22.088,4.188,32.452
		c2.826,10.364,6.909,20.521,12.562,30.254s12.353,18.424,19.89,25.962c7.537,7.537,16.226,14.237,25.961,19.89
		c9.736,5.653,19.89,9.735,30.254,12.562l-0.007,0.025c10.334,2.706,21.188,4.163,32.354,4.163c11.201,0,22.088-1.464,32.452-4.188
		c10.364-2.826,20.521-6.908,30.254-12.562c9.735-5.652,18.424-12.353,25.962-19.89c7.537-7.538,14.237-16.227,19.89-25.962
		c5.653-9.735,9.735-19.89,12.562-30.254c2.724-10.361,4.294-21.251,4.294-32.452c0-11.202-1.464-22.088-4.294-32.452
		c-2.826-10.364-6.908-20.519-12.562-30.254C294.017,118.678,287.331,110.008,279.817,102.483z"/>
	<path fill="#FEFE33" d="M191.098,65.895c11.201,0,22.088,1.466,32.452,4.188l19.321-71.961l-0.06-0.166
		c-16.436-4.502-33.812-6.805-51.714-6.805s-35.174,2.408-51.714,6.805l19.262,72.127C169.009,67.361,179.896,65.895,191.098,65.895
		z"/>
	<path fill="#8601AF" d="M223.55,312.217c-10.361,2.725-21.251,4.188-32.452,4.188c-11.167,0-22.02-1.457-32.354-4.163
		l-19.312,71.925l0.056,0.179c16.436,4.501,33.813,6.805,51.714,6.805s35.173-2.407,51.713-6.805l0.046-0.15
		c-0.05,0.015-0.102,0.029-0.152,0.042L223.55,312.217z"/>
	<path fill="#66B032" d="M70.054,158.76l0.028-0.009c2.826-10.364,6.909-20.519,12.562-30.254s12.353-18.424,19.89-25.961
		l-0.018-0.084c-0.029,0.028-0.059,0.056-0.087,0.084L49.669,49.669C37.63,61.812,26.952,75.63,17.95,91.124
		c-8.898,15.598-15.598,31.72-19.995,48.26l0.114,0.135l72.014,19.127C70.072,158.683,70.063,158.722,70.054,158.76z"/>
	<path fill="#D0EA2B" d="M102.517,102.451c7.517-7.503,16.176-14.175,25.875-19.806c9.735-5.653,19.89-9.736,30.254-12.562
		L139.384-2.045c-16.54,4.396-32.767,10.992-48.26,19.995C75.63,26.848,61.812,37.63,49.669,49.669l52.761,52.866
		C102.458,102.506,102.488,102.479,102.517,102.451z"/>
	<path fill="#FE2712" d="M299.655,253.804c-5.652,9.735-12.353,18.424-19.89,25.962l52.761,52.761
		c-0.028,0.026-0.06,0.057-0.088,0.086l0.192,0.019c12.039-12.143,22.717-25.962,31.719-41.454
		c8.898-15.599,15.599-31.72,19.998-48.261l-0.206-0.264l-71.925-19.103C309.391,233.914,305.309,244.068,299.655,253.804z"/>
	<path fill="#A7194B" d="M279.766,279.766c-7.538,7.537-16.227,14.237-25.962,19.89c-9.735,5.653-19.89,9.735-30.254,12.562
		l19.262,72.023c0.051-0.013,0.101-0.028,0.152-0.043c16.487-4.394,32.662-11.079,48.107-19.951
		c15.459-8.876,29.349-19.631,41.369-31.634c0.028-0.029,0.06-0.06,0.089-0.086L279.766,279.766z"/>
	<path fill="#0247FE" d="M82.645,253.804c-5.653-9.735-9.736-19.89-12.562-30.254l-72.101,19.359
		c4.397,16.507,11.086,32.699,19.968,48.162c8.898,15.494,19.681,29.417,31.719,41.455l0.126-0.022l52.739-52.738
		C94.998,272.228,88.297,263.539,82.645,253.804z"/>
	<path fill="#0392CE" d="M65.895,191.098c0-11.16,1.457-22.008,4.159-32.338c0.009-0.038,0.018-0.077,0.028-0.114l-72.014-19.127
		l-0.114-0.03c-4.502,16.436-6.805,33.813-6.805,51.714s2.408,35.173,6.805,51.713l0.027-0.009l72.101-19.357
		C67.361,213.186,65.895,202.299,65.895,191.098z"/>
	<path fill="#FB9902" d="M299.655,128.392c5.653,9.735,9.735,19.89,12.562,30.254l72.003-19.333
		c-4.396-16.516-10.984-32.717-19.974-48.188c-8.886-15.472-19.651-29.375-31.668-41.402l-52.761,52.761
		C287.331,110.008,294.017,118.678,299.655,128.392z"/>
	<path fill="#FD5308" d="M391.15,190.993c0-17.901-2.407-35.174-6.805-51.714l-0.126,0.034l-72.003,19.333
		c2.827,10.363,4.294,21.25,4.294,32.452c0,11.201-1.57,22.088-4.294,32.452l71.922,19.103l0.207,0.056
		C388.847,226.271,391.15,208.894,391.15,190.993z"/>
	<path fill="#3D01A4" d="M158.75,312.217c-10.364-2.826-20.519-6.908-30.254-12.562c-9.736-5.652-18.424-12.353-25.961-19.89
		l-52.739,52.738l-0.126,0.127c12.144,12.039,25.961,22.717,41.455,31.719c15.598,8.898,31.72,15.599,48.26,19.998l0.047-0.178
		l19.312-71.926L158.75,312.217z"/>
	<path fill="#FABC02" d="M253.804,82.645c9.735,5.653,18.424,12.353,25.962,19.89l0.052-0.051l52.761-52.761l0.053-0.053
		c-12.143-12.039-25.962-22.717-41.454-31.719c-15.599-8.898-31.72-15.598-48.261-19.995l-0.045,0.166L223.55,70.083
		C233.914,72.909,244.068,76.992,253.804,82.645z"/>
</g>
<g>
	<g>
		<line fill="none" stroke="#000000" stroke-width="2" stroke-miterlimit="10" x1="110.098" y1="76.167" x2="62.47" y2="248.735"/>
		<g>
			<path d="M113.461,63.986c-3.708,5.145-9.299,11.253-14.359,14.602l10.556-0.823l8.638,6.121
				C115.668,78.417,114.002,70.304,113.461,63.986z"/>
		</g>
		<g>
			<path d="M59.108,260.915c-0.545-6.318-2.211-14.431-4.837-19.898l8.639,6.119l10.556-0.822
				C68.405,249.661,62.814,255.771,59.108,260.915z"/>
		</g>
	</g>
</g>
<g>
	<g>
		<line fill="none" stroke="#000000" stroke-width="2" stroke-miterlimit="10" x1="133.751" y1="61.48" x2="307.805" y2="109.518"/>
		<g>
			<path d="M121.572,58.118c5.145,3.708,11.253,9.299,14.601,14.36l-0.823-10.557l6.121-8.639
				C136.002,55.909,127.889,57.576,121.572,58.118z"/>
		</g>
		<g>
			<path d="M319.985,112.88c-6.318,0.545-14.43,2.211-19.899,4.837l6.121-8.639l-0.823-10.555
				C308.73,103.583,314.84,109.173,319.985,112.88z"/>
		</g>
	</g>
</g>
<g>
	<g>
		
			<line fill="none" stroke="#000000" stroke-width="2" stroke-miterlimit="10" x1="320.514" y1="133.743" x2="272.886" y2="306.312"/>
		<g>
			<path d="M323.877,121.563c-3.709,5.144-9.301,11.253-14.359,14.602l10.557-0.823l8.639,6.121
				C326.085,135.994,324.419,127.881,323.877,121.563z"/>
		</g>
		<g>
			<path d="M269.525,318.491c-0.547-6.318-2.213-14.431-4.839-19.897l8.642,6.118l10.554-0.82
				C278.821,307.238,273.229,313.347,269.525,318.491z"/>
		</g>
	</g>
</g>
<g>
	<g>
		<line fill="none" stroke="#000000" stroke-width="2" stroke-miterlimit="10" x1="77.028" y1="271.948" x2="251.08" y2="319.987"/>
		<g>
			<path d="M64.848,268.586c5.146,3.708,11.253,9.3,14.602,14.36l-0.823-10.558l6.121-8.638
				C79.279,266.378,71.166,268.045,64.848,268.586z"/>
		</g>
		<g>
			<path d="M263.263,323.349c-6.32,0.545-14.432,2.21-19.9,4.837l6.121-8.641l-0.824-10.554
				C252.006,314.051,258.115,319.642,263.263,323.349z"/>
		</g>
	</g>
</g>
</svg>
