<?xml version="1.0" encoding="utf-8"?>
<!-- Generator: Adobe Illustrator 18.1.1, SVG Export Plug-In . SVG Version: 6.00 Build 0)  -->
<svg version="1.1" id="Layer_1" xmlns="http://www.w3.org/2000/svg" xmlns:xlink="http://www.w3.org/1999/xlink" x="0px" y="0px"
	 viewBox="0 0 500 100" enable-background="new 0 0 500 100" xml:space="preserve">
<path fill="#010101" d="M212,56c0-10.5,3.7-19.4,11.1-26.8S239.5,18,250,18c10.5,0,19.4,3.7,26.8,11.1C284.3,36.6,288,45.5,288,56
	s-3.7,19.4-11.1,26.8C269.4,90.3,260.5,94,250,94c-10.5,0-19.4-3.7-26.8-11.1C215.7,75.4,212,66.5,212,56L212,56z M216.2,56
	c0,9.3,3.3,17.3,9.9,23.9c6.6,6.6,14.6,9.9,23.9,9.9c9.3,0,17.3-3.3,23.9-9.9c6.6-6.6,9.9-14.6,9.9-23.9s-3.3-17.3-9.9-23.9
	s-14.6-9.9-23.9-9.9s-17.3,3.3-23.9,9.9S216.2,46.7,216.2,56L216.2,56z M226.9,64.2c-0.2-0.2-0.2-0.4,0-0.6c0.4-0.4,0.9-0.5,1.5-0.4
	c0.6,0.1,0.9,0.2,1,0.3c0.7,0.3,1.5,1,2.3,2c0.8,1,1.5,1.8,2,2.2c2.4,2,4.8,2.1,7.3,0.4c0.2-0.7,0.5-1.3,1-1.8
	c0.4-0.5,0.9-0.8,1.3-1s1.1-0.5,2.1-0.9c-3.3-0.3-5.9-0.9-7.9-1.7s-3.6-1.9-4.8-3.2c-1.6-1.8-2.5-4.1-2.9-7s-0.1-5.5,0.7-7.9
	c0.6-1.5,1.4-2.8,2.5-4c-0.8-2.5-0.6-5.3,0.4-8.5c3.2,0.2,6,1.3,8.6,3.3c4.9-1.3,10.1-1.3,15.4-0.1c0.7-0.5,1.8-1.1,3.2-1.9
	s3.2-1.2,5.4-1.3c0.4,1.1,0.7,2.4,0.8,3.9c0.1,1.5,0.1,2.9-0.2,4.2c2.3,2.4,3.5,5.5,3.6,9.5c0,3.2-0.5,5.8-1.6,7.9
	c-1.1,2.1-3,3.8-5.8,5.2c-1.9,0.9-4.4,1.4-7.4,1.6c1.4,0.7,2.4,1.4,3,2.2c0.6,0.7,1.1,1.9,1.3,3.5v4.7c0,0,0,1.5,0.1,4.5
	c0.3,0.5,0.6,0.9,1,1.3c0.4,0.3,0.7,0.6,1,0.7c0.3,0.1,0.4,0.4,0.3,0.7s-0.5,0.4-1.2,0.4c-1.7,0-3-0.6-4-1.8
	c-0.3-0.5-0.4-1.1-0.4-1.8v-7.1c0-0.8-0.2-1.4-0.6-1.7c-0.4-0.3-0.8-0.6-1.2-0.7v9.3c0,1.7,0.2,2.8,0.6,3.3c0.4,0.5,0.6,1,0.7,1.5
	c0.1,0.1,0,0.2-0.2,0.2c-0.2,0-0.7,0-1.3-0.2c-1.3-0.3-2.2-1-2.7-2c-0.5-1-0.7-2.2-0.7-3.3v-9.2h-1.9V78c0,1.2-0.2,2.3-0.7,3.4
	c-0.7,1.4-2,2.1-3.9,2.2c-0.3-0.1-0.4-0.2-0.4-0.3c0.1-0.1,0.4-0.6,0.9-1.5c0.1-0.2,0.2-0.6,0.4-1.2c0.1-0.6,0.2-1.3,0.2-2.1v-9.3
	c-0.4,0.1-0.8,0.3-1.1,0.7c-0.3,0.3-0.5,0.9-0.5,1.7v7.1c0,0.7-0.1,1.3-0.4,1.8c-0.9,1.2-2.2,1.8-4,1.8c-0.7,0-1.1-0.1-1.2-0.4
	c-0.1-0.2-0.1-0.4,0.1-0.5c0.1-0.1,0.4-0.3,0.7-0.5c0.3-0.2,0.5-0.3,0.6-0.4c0.4-0.3,0.7-0.7,0.9-1.2c0.3-0.4,0.4-1.4,0.2-3.1
	c-0.1-1.7-0.2-2.8-0.1-3.3c-2.6,0.9-5.2,0.4-7.9-1.3c-0.8-0.8-1.6-1.9-2.4-3.4C229.8,66.9,228.6,65.6,226.9,64.2L226.9,64.2z"/>
</svg>
