<?xml version="1.0" encoding="utf-8"?>
<!-- Generator: Adobe Illustrator 16.0.4, SVG Export Plug-In . SVG Version: 6.00 Build 0)  -->
<!DOCTYPE svg PUBLIC "-//W3C//DTD SVG 1.1//EN" "http://www.w3.org/Graphics/SVG/1.1/DTD/svg11.dtd">
<svg version="1.1" id="Layer_1" xmlns="http://www.w3.org/2000/svg" xmlns:xlink="http://www.w3.org/1999/xlink" x="0px" y="0px"
	 width="528px" height="437px" viewBox="0 0 528 437" enable-background="new 0 0 528 437" xml:space="preserve">
<rect opacity="0.8" fill="#EC231A" width="528" height="72"/>
<rect y="87" opacity="0.8" fill="#EC231A" width="348" height="264"/>
<rect x="367" y="87" opacity="0.8" fill="#EC231A" width="161" height="264"/>
<rect y="365" opacity="0.8" fill="#EC231A" width="528" height="72"/>
<g>
	<g>
		<path fill="#FFFFFF" d="M217.24,22.66c0.88-1.08,2.03-1.62,3.44-1.62c2.46,0,3.7,1.39,3.72,4.16v7.68h-1.99v-7.69
			c-0.01-0.84-0.2-1.46-0.57-1.86c-0.38-0.4-0.96-0.6-1.76-0.6c-0.64,0-1.21,0.17-1.7,0.52c-0.49,0.34-0.87,0.79-1.14,1.35v8.28
			h-1.99v-16.5h1.99V22.66z"/>
		<path fill="#FFFFFF" d="M232.19,33.09c-1.58,0-2.86-0.52-3.85-1.55c-0.99-1.03-1.48-2.42-1.48-4.15v-0.37
			c0-1.15,0.22-2.18,0.66-3.09c0.44-0.91,1.06-1.61,1.85-2.13c0.79-0.51,1.65-0.77,2.57-0.77c1.51,0,2.69,0.5,3.52,1.49
			c0.84,1,1.26,2.42,1.26,4.28v0.83h-7.87c0.03,1.15,0.36,2.07,1,2.78c0.64,0.71,1.46,1.06,2.44,1.06c0.7,0,1.3-0.14,1.78-0.43
			c0.49-0.29,0.91-0.67,1.28-1.14l1.21,0.95C235.6,32.34,234.14,33.09,232.19,33.09z M231.95,22.67c-0.8,0-1.48,0.29-2.02,0.88
			c-0.54,0.58-0.88,1.4-1.01,2.45h5.82v-0.15c-0.06-1.01-0.33-1.79-0.82-2.35C233.44,22.95,232.78,22.67,231.95,22.67z"/>
		<path fill="#FFFFFF" d="M246.2,32.88c-0.11-0.23-0.21-0.64-0.28-1.22c-0.92,0.96-2.03,1.44-3.31,1.44c-1.15,0-2.09-0.32-2.82-0.97
			c-0.73-0.65-1.1-1.47-1.1-2.47c0-1.21,0.46-2.15,1.38-2.82c0.92-0.67,2.21-1,3.88-1h1.93v-0.91c0-0.69-0.21-1.25-0.62-1.66
			c-0.42-0.41-1.03-0.62-1.84-0.62c-0.71,0-1.3,0.18-1.78,0.54c-0.48,0.36-0.72,0.79-0.72,1.3h-2c0-0.58,0.21-1.14,0.62-1.68
			c0.41-0.54,0.97-0.97,1.68-1.28c0.71-0.31,1.48-0.47,2.33-0.47c1.34,0,2.39,0.33,3.15,1c0.76,0.67,1.15,1.59,1.18,2.77v5.35
			c0,1.07,0.14,1.92,0.41,2.55v0.17H246.2z M242.9,31.36c0.62,0,1.21-0.16,1.77-0.48s0.96-0.74,1.21-1.26v-2.38h-1.56
			c-2.44,0-3.65,0.71-3.65,2.14c0,0.62,0.21,1.11,0.62,1.46C241.72,31.19,242.25,31.36,242.9,31.36z"/>
		<path fill="#FFFFFF" d="M250.51,26.97c0-1.78,0.42-3.22,1.27-4.3c0.84-1.08,1.95-1.63,3.32-1.63c1.36,0,2.44,0.47,3.23,1.4v-6.06
			h1.99v16.5h-1.83l-0.1-1.25c-0.79,0.97-1.9,1.46-3.32,1.46c-1.35,0-2.44-0.55-3.29-1.65c-0.85-1.1-1.27-2.54-1.27-4.32V26.97z
			 M252.5,27.19c0,1.32,0.27,2.35,0.82,3.09c0.54,0.75,1.3,1.12,2.26,1.12c1.26,0,2.18-0.57,2.76-1.7v-5.34
			c-0.59-1.1-1.51-1.64-2.74-1.64c-0.97,0-1.73,0.38-2.28,1.13C252.77,24.6,252.5,25.72,252.5,27.19z"/>
		<path fill="#FFFFFF" d="M268.22,33.09c-1.58,0-2.86-0.52-3.85-1.55c-0.99-1.03-1.48-2.42-1.48-4.15v-0.37
			c0-1.15,0.22-2.18,0.66-3.09c0.44-0.91,1.06-1.61,1.85-2.13c0.79-0.51,1.65-0.77,2.57-0.77c1.51,0,2.69,0.5,3.52,1.49
			c0.84,1,1.26,2.42,1.26,4.28v0.83h-7.87c0.03,1.15,0.36,2.07,1,2.78c0.64,0.71,1.46,1.06,2.44,1.06c0.7,0,1.3-0.14,1.78-0.43
			c0.49-0.29,0.91-0.67,1.28-1.14l1.21,0.95C271.63,32.34,270.17,33.09,268.22,33.09z M267.98,22.67c-0.8,0-1.48,0.29-2.02,0.88
			c-0.54,0.58-0.88,1.4-1.01,2.45h5.82v-0.15c-0.06-1.01-0.33-1.79-0.82-2.35C269.47,22.95,268.81,22.67,267.98,22.67z"/>
		<path fill="#FFFFFF" d="M280.67,23.04c-0.3-0.05-0.63-0.08-0.98-0.08c-1.3,0-2.19,0.56-2.65,1.67v8.25h-1.99V21.25h1.93l0.03,1.34
			c0.65-1.04,1.58-1.56,2.77-1.56c0.39,0,0.68,0.05,0.88,0.15V23.04z"/>
		<path fill="#FFFFFF" d="M281.22,31.83c0-0.34,0.1-0.63,0.31-0.86c0.21-0.23,0.51-0.34,0.92-0.34s0.72,0.11,0.93,0.34
			c0.21,0.23,0.32,0.52,0.32,0.86c0,0.33-0.11,0.61-0.32,0.83s-0.52,0.33-0.93,0.33s-0.71-0.11-0.92-0.33
			C281.32,32.44,281.22,32.16,281.22,31.83z"/>
		<path fill="#FFFFFF" d="M296.79,27.19c0,1.77-0.4,3.19-1.21,4.28c-0.81,1.08-1.91,1.62-3.29,1.62c-1.41,0-2.52-0.45-3.33-1.34v5.6
			h-1.99V21.25h1.82l0.1,1.29c0.81-1,1.93-1.5,3.37-1.5c1.4,0,2.5,0.53,3.31,1.58c0.81,1.05,1.22,2.52,1.22,4.39V27.19z
			 M294.8,26.97c0-1.31-0.28-2.35-0.84-3.1c-0.56-0.76-1.33-1.14-2.3-1.14c-1.2,0-2.11,0.53-2.71,1.6v5.55
			c0.59,1.06,1.5,1.59,2.73,1.59c0.95,0,1.71-0.38,2.27-1.13C294.52,29.58,294.8,28.46,294.8,26.97z"/>
		<path fill="#FFFFFF" d="M301.3,22.66c0.88-1.08,2.03-1.62,3.44-1.62c2.46,0,3.7,1.39,3.72,4.16v7.68h-1.99v-7.69
			c-0.01-0.84-0.2-1.46-0.58-1.86c-0.38-0.4-0.96-0.6-1.76-0.6c-0.64,0-1.21,0.17-1.7,0.52c-0.49,0.34-0.87,0.79-1.14,1.35v8.28
			h-1.99v-16.5h1.99V22.66z"/>
		<path fill="#FFFFFF" d="M321.25,27.19c0,1.77-0.41,3.19-1.21,4.28c-0.81,1.08-1.91,1.62-3.29,1.62c-1.41,0-2.52-0.45-3.33-1.34
			v5.6h-1.99V21.25h1.82l0.1,1.29c0.81-1,1.93-1.5,3.37-1.5c1.4,0,2.5,0.53,3.31,1.58s1.22,2.52,1.22,4.39V27.19z M319.26,26.97
			c0-1.31-0.28-2.35-0.84-3.1c-0.56-0.76-1.33-1.14-2.3-1.14c-1.2,0-2.11,0.53-2.71,1.6v5.55c0.59,1.06,1.5,1.59,2.73,1.59
			c0.95,0,1.71-0.38,2.27-1.13C318.98,29.58,319.26,28.46,319.26,26.97z"/>
		<path fill="#FFFFFF" d="M216.4,55.03c0.38,0.16,0.78,0.28,1.2,0.35c0.42,0.07,0.83,0.11,1.24,0.11c0.37,0,0.69-0.05,0.97-0.15
			c0.27-0.1,0.5-0.24,0.68-0.42c0.18-0.18,0.31-0.39,0.4-0.64s0.13-0.53,0.13-0.83v-1.71c-0.33,0.42-0.72,0.73-1.15,0.96
			c-0.43,0.22-0.93,0.34-1.48,0.34c-0.51,0-0.99-0.09-1.43-0.26c-0.44-0.17-0.81-0.42-1.13-0.75c-0.32-0.33-0.57-0.73-0.75-1.2
			s-0.27-1-0.27-1.6s0.09-1.13,0.27-1.6s0.43-0.87,0.75-1.2c0.32-0.33,0.7-0.58,1.13-0.75c0.44-0.17,0.91-0.26,1.43-0.26
			c0.55,0,1.06,0.12,1.52,0.37c0.46,0.25,0.86,0.59,1.2,1.04v-0.66c0-0.21,0.04-0.36,0.12-0.44c0.08-0.08,0.21-0.12,0.4-0.12h1.32
			c0.19,0,0.32,0.04,0.4,0.12c0.08,0.08,0.12,0.23,0.12,0.44s-0.04,0.36-0.12,0.44c-0.08,0.08-0.21,0.12-0.4,0.12h-0.68v6.83
			c0,0.5-0.08,0.94-0.23,1.33c-0.15,0.39-0.37,0.72-0.67,0.99c-0.29,0.27-0.65,0.47-1.08,0.62s-0.91,0.22-1.45,0.22
			c-0.48,0-0.97-0.04-1.45-0.12s-0.95-0.21-1.39-0.37c-0.15-0.06-0.25-0.15-0.29-0.27c-0.05-0.12-0.03-0.29,0.04-0.5
			s0.16-0.35,0.28-0.42C216.13,54.97,216.26,54.97,216.4,55.03z M221.02,49.23c0-0.41-0.06-0.77-0.19-1.1s-0.3-0.59-0.53-0.81
			c-0.23-0.22-0.5-0.39-0.81-0.5c-0.31-0.12-0.65-0.17-1.02-0.17c-0.38,0-0.71,0.06-1,0.19s-0.54,0.31-0.74,0.54
			c-0.2,0.23-0.35,0.5-0.46,0.82s-0.16,0.66-0.16,1.04s0.05,0.72,0.16,1.04s0.26,0.59,0.46,0.82c0.2,0.23,0.45,0.41,0.74,0.54
			s0.63,0.19,1,0.19c0.37,0,0.7-0.06,1.02-0.17c0.31-0.12,0.58-0.28,0.81-0.5c0.23-0.22,0.4-0.49,0.53-0.81
			S221.02,49.64,221.02,49.23z"/>
		<path fill="#FFFFFF" d="M226.47,49.75c0.04,0.84,0.28,1.46,0.69,1.88c0.42,0.42,1.01,0.63,1.79,0.63c0.56,0,1.1-0.06,1.63-0.19
			s0.98-0.3,1.36-0.52c0.18-0.1,0.33-0.11,0.44-0.02c0.12,0.08,0.21,0.21,0.29,0.39c0.08,0.18,0.09,0.34,0.05,0.48
			c-0.04,0.14-0.16,0.26-0.34,0.35c-0.22,0.1-0.46,0.2-0.72,0.29c-0.26,0.09-0.54,0.16-0.84,0.23c-0.3,0.06-0.6,0.11-0.92,0.15
			c-0.32,0.04-0.63,0.05-0.95,0.05c-0.61,0-1.15-0.09-1.62-0.28c-0.47-0.19-0.87-0.45-1.19-0.8c-0.32-0.35-0.57-0.77-0.73-1.26
			c-0.17-0.5-0.25-1.06-0.25-1.68c0-0.6,0.1-1.15,0.29-1.65c0.2-0.5,0.47-0.92,0.82-1.27c0.35-0.35,0.77-0.62,1.25-0.81
			c0.48-0.19,1.02-0.29,1.6-0.29c0.61,0,1.16,0.1,1.63,0.29c0.47,0.19,0.87,0.46,1.19,0.79c0.32,0.34,0.57,0.74,0.75,1.2
			s0.28,0.97,0.32,1.53c0,0.19-0.04,0.32-0.12,0.4c-0.08,0.08-0.21,0.12-0.4,0.12H226.47z M229.11,46.63c-0.69,0-1.26,0.17-1.7,0.52
			c-0.44,0.35-0.73,0.83-0.87,1.44h5.07c-0.12-0.63-0.38-1.11-0.79-1.45C230.42,46.8,229.85,46.63,229.11,46.63z"/>
		<path fill="#FFFFFF" d="M237.32,46.27v-2.49c0-0.19,0.05-0.33,0.14-0.42c0.09-0.08,0.25-0.12,0.49-0.12s0.39,0.04,0.49,0.12
			c0.09,0.08,0.14,0.22,0.14,0.42v2.49h3.41c0.19,0,0.32,0.04,0.4,0.12c0.08,0.08,0.12,0.23,0.12,0.44s-0.04,0.36-0.12,0.44
			c-0.08,0.08-0.21,0.12-0.4,0.12h-3.41v3.02c0,0.3,0.02,0.57,0.07,0.8c0.05,0.23,0.13,0.42,0.25,0.57
			c0.11,0.15,0.26,0.27,0.45,0.34c0.19,0.08,0.42,0.11,0.7,0.11c0.39,0,0.79-0.08,1.2-0.23s0.8-0.35,1.16-0.59
			c0.13-0.08,0.26-0.1,0.39-0.06c0.13,0.04,0.25,0.16,0.35,0.36s0.14,0.36,0.1,0.49c-0.04,0.12-0.13,0.23-0.27,0.32
			c-0.21,0.13-0.44,0.26-0.68,0.37c-0.24,0.11-0.49,0.21-0.74,0.29s-0.51,0.15-0.77,0.2c-0.26,0.05-0.51,0.07-0.74,0.07
			c-0.48,0-0.89-0.06-1.24-0.19s-0.62-0.31-0.84-0.56c-0.22-0.25-0.38-0.55-0.48-0.92c-0.1-0.37-0.15-0.79-0.15-1.26V47.4h-1.69
			c-0.19,0-0.32-0.04-0.4-0.12c-0.08-0.08-0.12-0.23-0.12-0.44s0.04-0.36,0.12-0.44c0.08-0.08,0.21-0.12,0.4-0.12H237.32z"/>
		<path fill="#FFFFFF" d="M244.29,56.54c-0.06,0-0.11-0.03-0.14-0.1c-0.03-0.06-0.05-0.22-0.05-0.47s0.02-0.41,0.05-0.47
			c0.03-0.06,0.08-0.1,0.14-0.1h10.28c0.06,0,0.11,0.03,0.14,0.1c0.03,0.06,0.05,0.22,0.05,0.47s-0.02,0.41-0.05,0.47
			c-0.03,0.06-0.08,0.1-0.14,0.1H244.29z"/>
		<path fill="#FFFFFF" d="M256.45,43.51h-0.76c-0.19,0-0.32-0.04-0.4-0.12c-0.08-0.08-0.12-0.23-0.12-0.44s0.04-0.36,0.12-0.44
			c0.08-0.08,0.21-0.12,0.4-0.12h1.49c0.19,0,0.32,0.04,0.4,0.12c0.08,0.08,0.12,0.23,0.12,0.44v4.13c0.36-0.54,0.77-0.95,1.25-1.23
			c0.47-0.29,0.98-0.43,1.54-0.43c0.38,0,0.73,0.06,1.03,0.19s0.56,0.31,0.78,0.54c0.21,0.23,0.38,0.52,0.49,0.85
			c0.11,0.33,0.17,0.71,0.17,1.12v4.02h0.68c0.19,0,0.32,0.04,0.4,0.12c0.08,0.08,0.12,0.23,0.12,0.44s-0.04,0.36-0.12,0.44
			c-0.08,0.08-0.21,0.12-0.4,0.12h-2.69c-0.19,0-0.32-0.04-0.4-0.12c-0.08-0.08-0.12-0.23-0.12-0.44s0.04-0.36,0.12-0.44
			c0.08-0.08,0.21-0.12,0.4-0.12h0.76v-3.89c0-0.24-0.03-0.46-0.08-0.65c-0.06-0.2-0.14-0.37-0.25-0.51
			c-0.11-0.14-0.25-0.25-0.42-0.33c-0.17-0.08-0.37-0.12-0.59-0.12c-0.35,0-0.69,0.08-1.01,0.23s-0.6,0.37-0.85,0.65
			s-0.44,0.61-0.58,0.99s-0.22,0.8-0.22,1.25v2.37h0.76c0.19,0,0.32,0.04,0.4,0.12c0.08,0.08,0.12,0.23,0.12,0.44
			s-0.04,0.36-0.12,0.44c-0.08,0.08-0.21,0.12-0.4,0.12h-2.69c-0.19,0-0.32-0.04-0.4-0.12c-0.08-0.08-0.12-0.23-0.12-0.44
			s0.04-0.36,0.12-0.44c0.08-0.08,0.21-0.12,0.4-0.12h0.68V43.51z"/>
		<path fill="#FFFFFF" d="M267.24,49.75c0.04,0.84,0.28,1.46,0.69,1.88c0.42,0.42,1.01,0.63,1.79,0.63c0.56,0,1.1-0.06,1.63-0.19
			c0.53-0.13,0.98-0.3,1.36-0.52c0.18-0.1,0.32-0.11,0.44-0.02s0.21,0.21,0.29,0.39c0.08,0.18,0.09,0.34,0.05,0.48
			c-0.04,0.14-0.16,0.26-0.34,0.35c-0.22,0.1-0.46,0.2-0.72,0.29s-0.54,0.16-0.84,0.23c-0.3,0.06-0.6,0.11-0.92,0.15
			c-0.32,0.04-0.63,0.05-0.95,0.05c-0.61,0-1.15-0.09-1.62-0.28c-0.47-0.19-0.87-0.45-1.19-0.8c-0.32-0.35-0.57-0.77-0.73-1.26
			c-0.17-0.5-0.25-1.06-0.25-1.68c0-0.6,0.1-1.15,0.29-1.65c0.2-0.5,0.47-0.92,0.82-1.27c0.35-0.35,0.77-0.62,1.25-0.81
			c0.48-0.19,1.02-0.29,1.6-0.29c0.61,0,1.16,0.1,1.63,0.29c0.47,0.19,0.87,0.46,1.19,0.79c0.32,0.34,0.57,0.74,0.75,1.2
			c0.18,0.46,0.28,0.97,0.32,1.53c0,0.19-0.04,0.32-0.12,0.4s-0.21,0.12-0.4,0.12H267.24z M269.89,46.63c-0.69,0-1.26,0.17-1.7,0.52
			c-0.44,0.35-0.73,0.83-0.87,1.44h5.07c-0.12-0.63-0.38-1.11-0.79-1.45C271.2,46.8,270.62,46.63,269.89,46.63z"/>
		<path fill="#FFFFFF" d="M284,52.15c0.19,0,0.32,0.04,0.4,0.12s0.12,0.23,0.12,0.44s-0.04,0.36-0.12,0.44s-0.21,0.12-0.4,0.12
			h-0.53c-0.17,0-0.34-0.02-0.49-0.06c-0.15-0.04-0.29-0.11-0.42-0.19c-0.12-0.09-0.23-0.2-0.32-0.33
			c-0.09-0.13-0.16-0.29-0.19-0.47c-0.44,0.38-0.92,0.68-1.45,0.91c-0.53,0.22-1.1,0.34-1.71,0.34c-0.42,0-0.8-0.05-1.15-0.16
			c-0.35-0.11-0.65-0.27-0.9-0.47c-0.25-0.21-0.45-0.46-0.59-0.76c-0.14-0.3-0.21-0.64-0.21-1.03c0-0.46,0.09-0.86,0.27-1.19
			s0.42-0.59,0.73-0.79c0.31-0.2,0.66-0.35,1.07-0.44c0.41-0.09,0.84-0.14,1.29-0.14c0.45,0,0.88,0.04,1.3,0.11
			c0.42,0.07,0.83,0.18,1.22,0.32v-0.71c0-0.54-0.13-0.93-0.39-1.18c-0.26-0.25-0.7-0.38-1.32-0.38c-0.45,0-0.9,0.06-1.35,0.18
			c-0.45,0.12-0.85,0.3-1.2,0.55c-0.13,0.09-0.26,0.13-0.39,0.1s-0.26-0.13-0.38-0.3s-0.17-0.33-0.15-0.46
			c0.03-0.14,0.1-0.25,0.23-0.34c0.22-0.16,0.45-0.3,0.71-0.42c0.26-0.12,0.53-0.22,0.81-0.29c0.28-0.07,0.56-0.13,0.85-0.17
			c0.29-0.04,0.58-0.05,0.86-0.05c0.99,0,1.73,0.23,2.22,0.7c0.49,0.46,0.73,1.15,0.73,2.07v3.3c0,0.44,0.18,0.66,0.55,0.66H284z
			 M281.92,50.01c-0.38-0.13-0.79-0.22-1.22-0.28s-0.86-0.09-1.29-0.09c-0.3,0-0.57,0.02-0.83,0.07c-0.25,0.05-0.47,0.13-0.65,0.24
			c-0.18,0.11-0.33,0.25-0.43,0.42c-0.1,0.17-0.15,0.39-0.15,0.64c0,0.4,0.14,0.72,0.42,0.94c0.28,0.22,0.67,0.34,1.17,0.34
			c0.59,0,1.13-0.12,1.63-0.37c0.49-0.25,0.94-0.58,1.35-1V50.01z"/>
		<path fill="#FFFFFF" d="M294.3,52.15c0.19,0,0.32,0.04,0.4,0.12s0.12,0.23,0.12,0.44s-0.04,0.36-0.12,0.44s-0.21,0.12-0.4,0.12
			h-1.32c-0.19,0-0.32-0.04-0.4-0.12s-0.12-0.23-0.12-0.44v-0.66c-0.34,0.45-0.74,0.8-1.2,1.04c-0.46,0.25-0.96,0.37-1.51,0.37
			c-0.52,0-0.99-0.09-1.43-0.26c-0.44-0.17-0.82-0.42-1.13-0.75c-0.32-0.33-0.57-0.73-0.75-1.2s-0.27-1-0.27-1.6s0.09-1.13,0.27-1.6
			s0.43-0.87,0.75-1.2c0.32-0.33,0.7-0.58,1.13-0.75c0.44-0.17,0.91-0.26,1.43-0.26c0.55,0,1.05,0.11,1.48,0.34
			c0.43,0.22,0.82,0.54,1.15,0.96v-3.62h-1.68c-0.19,0-0.32-0.04-0.4-0.12c-0.08-0.08-0.12-0.23-0.12-0.44s0.04-0.36,0.12-0.44
			c0.08-0.08,0.21-0.12,0.4-0.12h2.4c0.19,0,0.32,0.04,0.4,0.12s0.12,0.23,0.12,0.44v9.2H294.3z M292.38,49.65
			c0-0.41-0.06-0.77-0.19-1.1c-0.13-0.32-0.3-0.59-0.53-0.81c-0.23-0.22-0.5-0.39-0.81-0.5s-0.65-0.17-1.02-0.17
			c-0.38,0-0.71,0.06-1,0.19s-0.54,0.31-0.74,0.54c-0.2,0.23-0.35,0.5-0.46,0.82s-0.16,0.66-0.16,1.04s0.05,0.72,0.16,1.04
			s0.26,0.59,0.46,0.82c0.2,0.23,0.45,0.41,0.74,0.54s0.63,0.19,1,0.19c0.37,0,0.71-0.06,1.02-0.17s0.58-0.28,0.81-0.5
			c0.23-0.22,0.4-0.49,0.53-0.81C292.31,50.42,292.38,50.06,292.38,49.65z"/>
		<path fill="#FFFFFF" d="M297.82,49.75c0.04,0.84,0.28,1.46,0.69,1.88c0.42,0.42,1.01,0.63,1.79,0.63c0.56,0,1.1-0.06,1.63-0.19
			c0.53-0.13,0.98-0.3,1.36-0.52c0.18-0.1,0.32-0.11,0.44-0.02s0.21,0.21,0.29,0.39c0.08,0.18,0.09,0.34,0.05,0.48
			c-0.04,0.14-0.16,0.26-0.34,0.35c-0.22,0.1-0.46,0.2-0.72,0.29s-0.54,0.16-0.84,0.23c-0.3,0.06-0.6,0.11-0.92,0.15
			c-0.32,0.04-0.63,0.05-0.95,0.05c-0.61,0-1.15-0.09-1.62-0.28c-0.47-0.19-0.87-0.45-1.19-0.8c-0.32-0.35-0.57-0.77-0.73-1.26
			c-0.17-0.5-0.25-1.06-0.25-1.68c0-0.6,0.1-1.15,0.29-1.65c0.2-0.5,0.47-0.92,0.82-1.27c0.35-0.35,0.77-0.62,1.25-0.81
			c0.48-0.19,1.02-0.29,1.6-0.29c0.61,0,1.16,0.1,1.63,0.29c0.47,0.19,0.87,0.46,1.19,0.79c0.32,0.34,0.57,0.74,0.75,1.2
			c0.18,0.46,0.28,0.97,0.32,1.53c0,0.19-0.04,0.32-0.12,0.4s-0.21,0.12-0.4,0.12H297.82z M300.47,46.63c-0.69,0-1.26,0.17-1.7,0.52
			c-0.44,0.35-0.73,0.83-0.87,1.44h5.07c-0.12-0.63-0.38-1.11-0.79-1.45C301.78,46.8,301.2,46.63,300.47,46.63z"/>
		<path fill="#FFFFFF" d="M308.54,46.73h-1.05c-0.19,0-0.32-0.04-0.4-0.12s-0.12-0.23-0.12-0.44s0.04-0.36,0.12-0.44
			s0.21-0.12,0.4-0.12h1.69c0.19,0,0.32,0.04,0.4,0.12s0.12,0.23,0.12,0.44v1.68c0.2-0.37,0.44-0.71,0.7-1
			c0.26-0.3,0.54-0.55,0.84-0.76s0.61-0.37,0.93-0.49c0.32-0.11,0.64-0.17,0.96-0.17c0.43,0,0.84,0.11,1.21,0.33
			c0.16,0.09,0.26,0.21,0.31,0.35c0.04,0.14,0.03,0.31-0.05,0.51c-0.08,0.2-0.18,0.34-0.29,0.42c-0.12,0.08-0.26,0.08-0.42-0.02
			c-0.28-0.15-0.57-0.22-0.87-0.22c-0.25,0-0.5,0.05-0.76,0.14c-0.26,0.09-0.51,0.22-0.75,0.38c-0.24,0.16-0.46,0.36-0.67,0.59
			c-0.21,0.23-0.39,0.48-0.55,0.76c-0.16,0.28-0.28,0.57-0.37,0.89c-0.09,0.32-0.13,0.64-0.13,0.98v1.61h2.8
			c0.19,0,0.32,0.04,0.4,0.12c0.08,0.08,0.12,0.23,0.12,0.44s-0.04,0.36-0.12,0.44c-0.08,0.08-0.21,0.12-0.4,0.12h-5.35
			c-0.19,0-0.32-0.04-0.4-0.12c-0.08-0.08-0.12-0.23-0.12-0.44s0.04-0.36,0.12-0.44c0.08-0.08,0.21-0.12,0.4-0.12h1.3V46.73z"/>
		<path fill="#FFFFFF" d="M322.08,56.57c-0.46-0.28-0.93-0.64-1.4-1.08c-0.47-0.45-0.89-0.97-1.27-1.56s-0.68-1.27-0.92-2.01
			c-0.24-0.74-0.35-1.55-0.35-2.43s0.12-1.69,0.35-2.44c0.23-0.75,0.54-1.42,0.92-2.02c0.38-0.6,0.8-1.12,1.27-1.57
			s0.93-0.81,1.4-1.09c0.12-0.07,0.24-0.07,0.35-0.01c0.11,0.07,0.21,0.16,0.29,0.29s0.12,0.26,0.14,0.39
			c0.02,0.14-0.02,0.23-0.11,0.29c-0.41,0.27-0.82,0.6-1.22,0.98c-0.4,0.38-0.77,0.83-1.09,1.34s-0.58,1.08-0.78,1.72
			c-0.2,0.64-0.29,1.34-0.29,2.11s0.1,1.47,0.29,2.1c0.2,0.63,0.46,1.2,0.78,1.71s0.68,0.95,1.09,1.33c0.4,0.38,0.81,0.71,1.22,0.98
			c0.09,0.06,0.12,0.16,0.11,0.29c-0.02,0.14-0.06,0.27-0.14,0.39s-0.17,0.22-0.29,0.29C322.32,56.65,322.21,56.64,322.08,56.57z"/>
		<path fill="#FFFFFF" d="M329.67,56.57c-0.12,0.07-0.24,0.07-0.35,0.01c-0.11-0.07-0.21-0.16-0.29-0.29s-0.12-0.26-0.14-0.39
			c-0.02-0.14,0.02-0.23,0.11-0.29c0.41-0.27,0.82-0.6,1.22-0.98c0.4-0.38,0.76-0.82,1.08-1.33c0.32-0.5,0.58-1.07,0.78-1.71
			c0.2-0.63,0.3-1.33,0.3-2.1s-0.1-1.47-0.3-2.11s-0.46-1.21-0.78-1.72c-0.32-0.51-0.68-0.96-1.08-1.34
			c-0.4-0.38-0.81-0.71-1.22-0.98c-0.09-0.06-0.12-0.16-0.11-0.29c0.02-0.14,0.06-0.27,0.14-0.39s0.17-0.22,0.29-0.29
			c0.11-0.07,0.23-0.06,0.35,0.01c0.46,0.28,0.93,0.64,1.4,1.09s0.89,0.97,1.27,1.57c0.38,0.6,0.68,1.27,0.92,2.02
			c0.24,0.75,0.35,1.56,0.35,2.44s-0.12,1.69-0.35,2.43c-0.23,0.74-0.54,1.41-0.92,2.01s-0.8,1.12-1.27,1.56
			C330.6,55.93,330.13,56.29,329.67,56.57z"/>
		<path fill="#FFFFFF" d="M340.22,55.38c-0.06,0.12-0.14,0.2-0.24,0.26c-0.1,0.06-0.2,0.08-0.31,0.08c-0.08,0-0.15-0.01-0.22-0.04
			c-0.07-0.03-0.12-0.06-0.17-0.11c-0.05-0.05-0.08-0.1-0.1-0.17c-0.02-0.07-0.02-0.14,0-0.23l0.86-4c0.05-0.22,0.19-0.33,0.43-0.33
			h1.61c0.14,0,0.23,0.05,0.28,0.15c0.05,0.1,0.03,0.23-0.05,0.37L340.22,55.38z M339.76,46.83c0-0.19,0.04-0.38,0.11-0.54
			c0.08-0.17,0.18-0.32,0.3-0.44c0.13-0.13,0.28-0.23,0.44-0.3c0.17-0.08,0.35-0.11,0.54-0.11s0.38,0.04,0.54,0.11
			c0.17,0.07,0.32,0.18,0.44,0.3c0.13,0.13,0.23,0.28,0.3,0.44c0.07,0.17,0.11,0.35,0.11,0.54s-0.04,0.38-0.11,0.54
			c-0.08,0.17-0.18,0.32-0.3,0.44c-0.13,0.13-0.28,0.23-0.44,0.3c-0.17,0.08-0.35,0.11-0.54,0.11s-0.38-0.04-0.54-0.11
			c-0.17-0.07-0.32-0.18-0.44-0.3c-0.13-0.13-0.23-0.28-0.3-0.44C339.8,47.2,339.76,47.02,339.76,46.83z"/>
	</g>
</g>
<g>
	<g>
		<path fill="#FFFFFF" d="M216.23,395.69V385.6h-1.84v-1.54h1.84v-1.19c0-1.25,0.33-2.21,1-2.89c0.67-0.68,1.61-1.02,2.83-1.02
			c0.46,0,0.91,0.06,1.36,0.18l-0.11,1.6c-0.34-0.06-0.69-0.1-1.07-0.1c-0.64,0-1.14,0.19-1.49,0.57c-0.35,0.38-0.53,0.92-0.53,1.62
			v1.23h2.48v1.54h-2.48v10.09H216.23z"/>
		<path fill="#FFFFFF" d="M222.37,389.77c0-1.14,0.22-2.16,0.67-3.07c0.45-0.91,1.07-1.61,1.87-2.11c0.8-0.49,1.71-0.74,2.73-0.74
			c1.58,0,2.86,0.55,3.84,1.64s1.47,2.55,1.47,4.37V390c0,1.13-0.22,2.15-0.65,3.05c-0.43,0.9-1.05,1.6-1.86,2.1
			c-0.81,0.5-1.73,0.75-2.78,0.75c-1.58,0-2.85-0.55-3.83-1.64s-1.47-2.55-1.47-4.35V389.77z M224.36,390c0,1.29,0.3,2.32,0.9,3.1
			c0.6,0.78,1.4,1.17,2.4,1.17c1.01,0,1.81-0.4,2.41-1.19c0.59-0.79,0.89-1.9,0.89-3.33c0-1.27-0.3-2.31-0.91-3.1
			c-0.61-0.79-1.41-1.19-2.41-1.19c-0.98,0-1.77,0.39-2.37,1.17S224.36,388.55,224.36,390z"/>
		<path fill="#FFFFFF" d="M234.91,389.77c0-1.14,0.22-2.16,0.67-3.07c0.45-0.91,1.07-1.61,1.87-2.11c0.8-0.49,1.71-0.74,2.73-0.74
			c1.58,0,2.86,0.55,3.84,1.64s1.47,2.55,1.47,4.37V390c0,1.13-0.22,2.15-0.65,3.05c-0.43,0.9-1.05,1.6-1.86,2.1
			c-0.81,0.5-1.73,0.75-2.78,0.75c-1.58,0-2.85-0.55-3.83-1.64s-1.47-2.55-1.47-4.35V389.77z M236.91,390c0,1.29,0.3,2.32,0.9,3.1
			c0.6,0.78,1.4,1.17,2.4,1.17c1.01,0,1.81-0.4,2.41-1.19c0.59-0.79,0.89-1.9,0.89-3.33c0-1.27-0.3-2.31-0.91-3.1
			c-0.61-0.79-1.41-1.19-2.41-1.19c-0.98,0-1.77,0.39-2.37,1.17S236.91,388.55,236.91,390z"/>
		<path fill="#FFFFFF" d="M250.68,381.25v2.81h2.17v1.54h-2.17v7.22c0,0.46,0.1,0.81,0.29,1.05s0.52,0.35,0.99,0.35
			c0.23,0,0.54-0.04,0.95-0.13v1.6c-0.52,0.14-1.03,0.21-1.53,0.21c-0.89,0-1.56-0.27-2.01-0.81s-0.68-1.3-0.68-2.29v-7.21h-2.12
			v-1.54h2.12v-2.81H250.68z"/>
		<path fill="#FFFFFF" d="M260,395.9c-1.58,0-2.86-0.52-3.85-1.55c-0.99-1.03-1.48-2.42-1.48-4.15v-0.37c0-1.15,0.22-2.18,0.66-3.09
			c0.44-0.91,1.06-1.61,1.85-2.13c0.79-0.51,1.65-0.77,2.57-0.77c1.51,0,2.69,0.5,3.52,1.49s1.26,2.42,1.26,4.28v0.83h-7.87
			c0.03,1.15,0.36,2.07,1,2.78c0.64,0.71,1.46,1.06,2.44,1.06c0.7,0,1.3-0.14,1.78-0.43c0.49-0.29,0.91-0.67,1.28-1.14l1.21,0.95
			C263.4,395.15,261.94,395.9,260,395.9z M259.75,385.48c-0.8,0-1.48,0.29-2.02,0.88c-0.54,0.58-0.88,1.4-1.01,2.46h5.82v-0.15
			c-0.06-1.01-0.33-1.79-0.82-2.35C261.24,385.76,260.58,385.48,259.75,385.48z"/>
		<path fill="#FFFFFF" d="M272.45,385.85c-0.3-0.05-0.63-0.08-0.98-0.08c-1.3,0-2.19,0.56-2.65,1.67v8.25h-1.99v-11.62h1.93
			l0.03,1.34c0.65-1.04,1.58-1.56,2.77-1.56c0.39,0,0.68,0.05,0.88,0.15V385.85z"/>
		<path fill="#FFFFFF" d="M272.99,394.65c0-0.34,0.1-0.63,0.31-0.86c0.21-0.23,0.51-0.34,0.92-0.34s0.72,0.11,0.93,0.34
			s0.32,0.52,0.32,0.86c0,0.33-0.11,0.61-0.32,0.83s-0.52,0.33-0.93,0.33s-0.71-0.11-0.92-0.33
			C273.1,395.25,272.99,394.97,272.99,394.65z"/>
		<path fill="#FFFFFF" d="M288.56,390c0,1.77-0.4,3.19-1.21,4.28s-1.91,1.62-3.29,1.62c-1.41,0-2.52-0.45-3.33-1.34v5.6h-1.99
			v-16.09h1.82l0.1,1.29c0.81-1,1.93-1.5,3.37-1.5c1.4,0,2.5,0.53,3.31,1.58c0.81,1.05,1.22,2.52,1.22,4.39V390z M286.57,389.78
			c0-1.31-0.28-2.35-0.84-3.1s-1.33-1.14-2.3-1.14c-1.2,0-2.11,0.53-2.71,1.6v5.55c0.59,1.06,1.5,1.59,2.73,1.59
			c0.95,0,1.71-0.38,2.27-1.13C286.29,392.39,286.57,391.27,286.57,389.78z"/>
		<path fill="#FFFFFF" d="M293.07,385.47c0.88-1.08,2.03-1.62,3.44-1.62c2.46,0,3.7,1.39,3.72,4.16v7.68h-1.99V388
			c-0.01-0.84-0.2-1.46-0.58-1.86c-0.38-0.4-0.96-0.6-1.76-0.6c-0.64,0-1.21,0.17-1.7,0.52c-0.49,0.34-0.87,0.79-1.14,1.35v8.28
			h-1.99v-16.5h1.99V385.47z"/>
		<path fill="#FFFFFF" d="M313.02,390c0,1.77-0.41,3.19-1.21,4.28c-0.81,1.08-1.91,1.62-3.29,1.62c-1.41,0-2.52-0.45-3.33-1.34v5.6
			h-1.99v-16.09h1.82l0.1,1.29c0.81-1,1.93-1.5,3.37-1.5c1.4,0,2.5,0.53,3.31,1.58s1.22,2.52,1.22,4.39V390z M311.03,389.78
			c0-1.31-0.28-2.35-0.84-3.1s-1.33-1.14-2.3-1.14c-1.2,0-2.11,0.53-2.71,1.6v5.55c0.59,1.06,1.5,1.59,2.73,1.59
			c0.95,0,1.71-0.38,2.27-1.13C310.75,392.39,311.03,391.27,311.03,389.78z"/>
		<path fill="#FFFFFF" d="M216.4,417.84c0.38,0.16,0.78,0.28,1.2,0.35s0.83,0.11,1.24,0.11c0.37,0,0.69-0.05,0.97-0.15
			c0.27-0.1,0.5-0.23,0.68-0.41c0.18-0.18,0.31-0.39,0.4-0.64c0.09-0.25,0.13-0.53,0.13-0.83v-1.71c-0.33,0.41-0.72,0.73-1.15,0.96
			c-0.43,0.22-0.93,0.34-1.48,0.34c-0.51,0-0.99-0.09-1.43-0.26s-0.81-0.42-1.13-0.75c-0.32-0.33-0.57-0.72-0.75-1.2
			c-0.18-0.47-0.27-1-0.27-1.6s0.09-1.13,0.27-1.6c0.18-0.47,0.43-0.87,0.75-1.2c0.32-0.33,0.7-0.58,1.13-0.75s0.91-0.26,1.43-0.26
			c0.55,0,1.06,0.12,1.52,0.37c0.46,0.25,0.86,0.59,1.2,1.04v-0.66c0-0.21,0.04-0.36,0.12-0.44c0.08-0.08,0.21-0.12,0.4-0.12h1.32
			c0.19,0,0.32,0.04,0.4,0.12c0.08,0.08,0.12,0.23,0.12,0.44c0,0.21-0.04,0.36-0.12,0.44c-0.08,0.08-0.21,0.12-0.4,0.12h-0.68v6.83
			c0,0.5-0.08,0.94-0.23,1.33c-0.15,0.39-0.37,0.72-0.67,0.99c-0.29,0.27-0.65,0.47-1.08,0.62s-0.91,0.22-1.45,0.22
			c-0.48,0-0.97-0.04-1.45-0.12c-0.49-0.08-0.95-0.21-1.39-0.37c-0.15-0.06-0.25-0.15-0.29-0.27c-0.05-0.12-0.03-0.29,0.04-0.5
			c0.07-0.21,0.16-0.35,0.28-0.41C216.13,417.78,216.26,417.78,216.4,417.84z M221.02,412.04c0-0.41-0.06-0.78-0.19-1.1
			s-0.3-0.59-0.53-0.81c-0.23-0.22-0.5-0.39-0.81-0.5c-0.31-0.12-0.65-0.17-1.02-0.17c-0.38,0-0.71,0.06-1,0.19
			s-0.54,0.31-0.74,0.54c-0.2,0.23-0.35,0.5-0.46,0.82c-0.1,0.31-0.16,0.66-0.16,1.04s0.05,0.72,0.16,1.04
			c0.1,0.32,0.26,0.59,0.46,0.82c0.2,0.23,0.45,0.41,0.74,0.54s0.63,0.19,1,0.19c0.37,0,0.7-0.06,1.02-0.17
			c0.31-0.12,0.58-0.28,0.81-0.5c0.23-0.22,0.4-0.49,0.53-0.81S221.02,412.46,221.02,412.04z"/>
		<path fill="#FFFFFF" d="M226.47,412.56c0.04,0.83,0.28,1.46,0.69,1.88c0.42,0.42,1.01,0.63,1.79,0.63c0.56,0,1.1-0.06,1.63-0.19
			c0.53-0.13,0.98-0.3,1.36-0.52c0.18-0.1,0.33-0.11,0.44-0.02c0.12,0.08,0.21,0.21,0.29,0.39c0.08,0.18,0.09,0.34,0.05,0.48
			s-0.16,0.26-0.34,0.35c-0.22,0.1-0.46,0.2-0.72,0.29c-0.26,0.09-0.54,0.17-0.84,0.23c-0.3,0.06-0.6,0.11-0.92,0.15
			c-0.32,0.04-0.63,0.05-0.95,0.05c-0.61,0-1.15-0.09-1.62-0.28s-0.87-0.45-1.19-0.8s-0.57-0.77-0.73-1.26
			c-0.17-0.5-0.25-1.06-0.25-1.68c0-0.6,0.1-1.15,0.29-1.65c0.2-0.5,0.47-0.92,0.82-1.27c0.35-0.35,0.77-0.62,1.25-0.81
			c0.48-0.19,1.02-0.29,1.6-0.29c0.61,0,1.16,0.1,1.63,0.29s0.87,0.46,1.19,0.79c0.32,0.34,0.57,0.74,0.75,1.2s0.28,0.97,0.32,1.53
			c0,0.19-0.04,0.32-0.12,0.4c-0.08,0.08-0.21,0.12-0.4,0.12H226.47z M229.11,409.44c-0.69,0-1.26,0.17-1.7,0.52
			c-0.44,0.35-0.73,0.83-0.87,1.44h5.07c-0.12-0.63-0.38-1.11-0.79-1.45S229.85,409.44,229.11,409.44z"/>
		<path fill="#FFFFFF" d="M237.32,409.08v-2.49c0-0.19,0.05-0.33,0.14-0.42c0.09-0.08,0.25-0.12,0.49-0.12s0.39,0.04,0.49,0.12
			c0.09,0.08,0.14,0.22,0.14,0.42v2.49h3.41c0.19,0,0.32,0.04,0.4,0.12c0.08,0.08,0.12,0.23,0.12,0.44c0,0.21-0.04,0.36-0.12,0.44
			c-0.08,0.08-0.21,0.12-0.4,0.12h-3.41v3.02c0,0.3,0.02,0.57,0.07,0.8c0.05,0.23,0.13,0.42,0.25,0.57
			c0.11,0.15,0.26,0.27,0.45,0.34c0.19,0.08,0.42,0.11,0.7,0.11c0.39,0,0.79-0.08,1.2-0.23c0.41-0.16,0.8-0.35,1.16-0.59
			c0.13-0.08,0.26-0.1,0.39-0.06c0.13,0.04,0.25,0.16,0.35,0.36s0.14,0.36,0.1,0.49c-0.04,0.12-0.13,0.23-0.27,0.32
			c-0.21,0.13-0.44,0.26-0.68,0.37c-0.24,0.11-0.49,0.21-0.74,0.29c-0.25,0.08-0.51,0.15-0.77,0.2c-0.26,0.05-0.51,0.07-0.74,0.07
			c-0.48,0-0.89-0.06-1.24-0.19s-0.62-0.31-0.84-0.56c-0.22-0.25-0.38-0.55-0.48-0.92c-0.1-0.37-0.15-0.79-0.15-1.26v-3.13h-1.69
			c-0.19,0-0.32-0.04-0.4-0.12c-0.08-0.08-0.12-0.23-0.12-0.44c0-0.21,0.04-0.36,0.12-0.44c0.08-0.08,0.21-0.12,0.4-0.12H237.32z"/>
		<path fill="#FFFFFF" d="M244.29,419.35c-0.06,0-0.11-0.03-0.14-0.1c-0.03-0.06-0.05-0.22-0.05-0.47s0.02-0.41,0.05-0.47
			c0.03-0.06,0.08-0.1,0.14-0.1h10.28c0.06,0,0.11,0.03,0.14,0.1c0.03,0.06,0.05,0.22,0.05,0.47s-0.02,0.41-0.05,0.47
			c-0.03,0.06-0.08,0.1-0.14,0.1H244.29z"/>
		<path fill="#FFFFFF" d="M258.24,409.08v-1.02c0-0.45,0.06-0.86,0.2-1.22c0.13-0.36,0.32-0.66,0.57-0.91
			c0.25-0.25,0.55-0.44,0.92-0.57c0.36-0.13,0.78-0.2,1.24-0.2c0.39,0,0.78,0.04,1.15,0.12c0.37,0.08,0.73,0.18,1.06,0.31
			c0.15,0.06,0.26,0.15,0.34,0.27c0.08,0.12,0.09,0.28,0.04,0.49c-0.06,0.23-0.14,0.37-0.24,0.43s-0.23,0.06-0.37,0
			c-0.33-0.13-0.65-0.23-0.98-0.3c-0.33-0.07-0.66-0.11-0.99-0.11c-0.59,0-1.01,0.16-1.28,0.47c-0.27,0.32-0.4,0.76-0.4,1.33v0.91
			h2.87c0.19,0,0.32,0.04,0.4,0.12c0.08,0.08,0.12,0.23,0.12,0.44c0,0.21-0.04,0.36-0.12,0.44c-0.08,0.08-0.21,0.12-0.4,0.12h-2.87
			v4.75h2.87c0.19,0,0.32,0.04,0.4,0.12c0.08,0.08,0.12,0.23,0.12,0.44c0,0.21-0.04,0.36-0.12,0.44c-0.08,0.08-0.21,0.12-0.4,0.12
			h-5.76c-0.19,0-0.32-0.04-0.4-0.12c-0.08-0.08-0.12-0.23-0.12-0.44c0-0.21,0.04-0.36,0.12-0.44c0.08-0.08,0.21-0.12,0.4-0.12h1.64
			v-4.75h-1.64c-0.19,0-0.32-0.04-0.4-0.12c-0.08-0.08-0.12-0.23-0.12-0.44c0-0.21,0.04-0.36,0.12-0.44
			c0.08-0.08,0.21-0.12,0.4-0.12H258.24z"/>
		<path fill="#FFFFFF" d="M265.71,412.25c0-0.59,0.1-1.12,0.31-1.61c0.21-0.49,0.49-0.91,0.86-1.27c0.37-0.36,0.8-0.63,1.3-0.83
			s1.04-0.3,1.63-0.3s1.13,0.1,1.63,0.3s0.93,0.48,1.3,0.83c0.37,0.36,0.65,0.78,0.86,1.27c0.21,0.49,0.31,1.03,0.31,1.61
			c0,0.59-0.1,1.12-0.31,1.62c-0.21,0.49-0.49,0.91-0.86,1.27s-0.8,0.63-1.3,0.83s-1.04,0.3-1.63,0.3s-1.13-0.1-1.63-0.3
			s-0.93-0.48-1.3-0.83s-0.65-0.78-0.86-1.27C265.82,413.38,265.71,412.84,265.71,412.25z M267.02,412.25c0,0.4,0.07,0.78,0.2,1.12
			s0.33,0.63,0.57,0.88c0.24,0.25,0.54,0.44,0.88,0.58c0.34,0.14,0.72,0.21,1.14,0.21s0.79-0.07,1.14-0.21
			c0.34-0.14,0.64-0.33,0.88-0.58c0.24-0.25,0.43-0.54,0.57-0.88s0.2-0.71,0.2-1.12c0-0.4-0.07-0.78-0.2-1.12
			c-0.14-0.34-0.33-0.64-0.57-0.88c-0.24-0.25-0.54-0.44-0.88-0.58c-0.34-0.14-0.72-0.21-1.14-0.21s-0.79,0.07-1.14,0.21
			c-0.34,0.14-0.64,0.33-0.88,0.58c-0.24,0.25-0.43,0.54-0.57,0.88C267.09,411.48,267.02,411.85,267.02,412.25z"/>
		<path fill="#FFFFFF" d="M275.91,412.25c0-0.59,0.1-1.12,0.31-1.61c0.21-0.49,0.49-0.91,0.86-1.27c0.37-0.36,0.8-0.63,1.3-0.83
			s1.04-0.3,1.63-0.3s1.13,0.1,1.63,0.3s0.93,0.48,1.3,0.83c0.37,0.36,0.65,0.78,0.86,1.27c0.21,0.49,0.31,1.03,0.31,1.61
			c0,0.59-0.1,1.12-0.31,1.62c-0.21,0.49-0.49,0.91-0.86,1.27s-0.8,0.63-1.3,0.83s-1.04,0.3-1.63,0.3s-1.13-0.1-1.63-0.3
			s-0.93-0.48-1.3-0.83s-0.65-0.78-0.86-1.27C276.01,413.38,275.91,412.84,275.91,412.25z M277.22,412.25c0,0.4,0.07,0.78,0.2,1.12
			s0.33,0.63,0.57,0.88c0.24,0.25,0.54,0.44,0.88,0.58c0.34,0.14,0.72,0.21,1.14,0.21s0.79-0.07,1.14-0.21
			c0.34-0.14,0.64-0.33,0.88-0.58c0.24-0.25,0.43-0.54,0.57-0.88s0.2-0.71,0.2-1.12c0-0.4-0.07-0.78-0.2-1.12
			c-0.14-0.34-0.33-0.64-0.57-0.88c-0.24-0.25-0.54-0.44-0.88-0.58c-0.34-0.14-0.72-0.21-1.14-0.21s-0.79,0.07-1.14,0.21
			c-0.34,0.14-0.64,0.33-0.88,0.58c-0.24,0.25-0.43,0.54-0.57,0.88C277.29,411.48,277.22,411.85,277.22,412.25z"/>
		<path fill="#FFFFFF" d="M288.28,409.08v-2.49c0-0.19,0.04-0.33,0.14-0.42c0.09-0.08,0.25-0.12,0.49-0.12s0.39,0.04,0.49,0.12
			c0.09,0.08,0.14,0.22,0.14,0.42v2.49h3.41c0.19,0,0.32,0.04,0.4,0.12s0.12,0.23,0.12,0.44c0,0.21-0.04,0.36-0.12,0.44
			s-0.21,0.12-0.4,0.12h-3.41v3.02c0,0.3,0.03,0.57,0.08,0.8c0.05,0.23,0.13,0.42,0.25,0.57s0.26,0.27,0.45,0.34
			c0.19,0.08,0.42,0.11,0.7,0.11c0.39,0,0.79-0.08,1.2-0.23c0.41-0.16,0.8-0.35,1.16-0.59c0.13-0.08,0.26-0.1,0.39-0.06
			c0.13,0.04,0.25,0.16,0.35,0.36c0.1,0.2,0.14,0.36,0.1,0.49c-0.04,0.12-0.13,0.23-0.27,0.32c-0.21,0.13-0.44,0.26-0.68,0.37
			c-0.24,0.11-0.49,0.21-0.74,0.29c-0.25,0.08-0.51,0.15-0.77,0.2c-0.26,0.05-0.51,0.07-0.74,0.07c-0.48,0-0.89-0.06-1.24-0.19
			c-0.34-0.13-0.62-0.31-0.84-0.56c-0.22-0.25-0.38-0.55-0.48-0.92s-0.15-0.79-0.15-1.26v-3.13h-1.69c-0.19,0-0.32-0.04-0.4-0.12
			s-0.12-0.23-0.12-0.44c0-0.21,0.04-0.36,0.12-0.44s0.21-0.12,0.4-0.12H288.28z"/>
		<path fill="#FFFFFF" d="M297.82,412.56c0.04,0.83,0.28,1.46,0.69,1.88s1.01,0.63,1.79,0.63c0.56,0,1.1-0.06,1.63-0.19
			c0.53-0.13,0.98-0.3,1.36-0.52c0.18-0.1,0.32-0.11,0.44-0.02c0.12,0.08,0.21,0.21,0.29,0.39c0.08,0.18,0.09,0.34,0.05,0.48
			c-0.04,0.14-0.16,0.26-0.34,0.35c-0.22,0.1-0.46,0.2-0.72,0.29c-0.26,0.09-0.54,0.17-0.84,0.23c-0.3,0.06-0.6,0.11-0.92,0.15
			c-0.32,0.04-0.63,0.05-0.95,0.05c-0.61,0-1.15-0.09-1.62-0.28s-0.87-0.45-1.19-0.8c-0.32-0.35-0.57-0.77-0.73-1.26
			c-0.17-0.5-0.25-1.06-0.25-1.68c0-0.6,0.1-1.15,0.29-1.65c0.2-0.5,0.47-0.92,0.82-1.27c0.35-0.35,0.77-0.62,1.25-0.81
			c0.48-0.19,1.02-0.29,1.6-0.29c0.61,0,1.16,0.1,1.63,0.29c0.47,0.19,0.87,0.46,1.19,0.79c0.32,0.34,0.57,0.74,0.75,1.2
			c0.18,0.46,0.28,0.97,0.32,1.53c0,0.19-0.04,0.32-0.12,0.4s-0.21,0.12-0.4,0.12H297.82z M300.47,409.44
			c-0.69,0-1.26,0.17-1.7,0.52c-0.44,0.35-0.73,0.83-0.87,1.44h5.07c-0.12-0.63-0.38-1.11-0.79-1.45S301.2,409.44,300.47,409.44z"/>
		<path fill="#FFFFFF" d="M308.54,409.55h-1.05c-0.19,0-0.32-0.04-0.4-0.12s-0.12-0.23-0.12-0.44c0-0.21,0.04-0.36,0.12-0.44
			s0.21-0.12,0.4-0.12h1.69c0.19,0,0.32,0.04,0.4,0.12s0.12,0.23,0.12,0.44v1.68c0.2-0.37,0.44-0.71,0.7-1
			c0.26-0.3,0.54-0.55,0.84-0.76s0.61-0.37,0.93-0.49c0.32-0.11,0.64-0.17,0.96-0.17c0.43,0,0.84,0.11,1.21,0.33
			c0.16,0.09,0.26,0.21,0.31,0.35c0.04,0.14,0.03,0.31-0.05,0.51c-0.08,0.2-0.18,0.34-0.29,0.42c-0.12,0.08-0.26,0.08-0.42-0.02
			c-0.28-0.15-0.57-0.22-0.87-0.22c-0.25,0-0.5,0.04-0.76,0.14c-0.26,0.09-0.51,0.22-0.75,0.38c-0.24,0.16-0.46,0.36-0.67,0.59
			c-0.21,0.23-0.39,0.48-0.55,0.76c-0.16,0.28-0.28,0.57-0.37,0.89c-0.09,0.31-0.13,0.64-0.13,0.98v1.61h2.8
			c0.19,0,0.32,0.04,0.4,0.12c0.08,0.08,0.12,0.23,0.12,0.44c0,0.21-0.04,0.36-0.12,0.44c-0.08,0.08-0.21,0.12-0.4,0.12h-5.35
			c-0.19,0-0.32-0.04-0.4-0.12c-0.08-0.08-0.12-0.23-0.12-0.44c0-0.21,0.04-0.36,0.12-0.44c0.08-0.08,0.21-0.12,0.4-0.12h1.3V409.55
			z"/>
		<path fill="#FFFFFF" d="M322.08,419.38c-0.46-0.28-0.93-0.64-1.4-1.08c-0.47-0.45-0.89-0.97-1.27-1.56s-0.68-1.27-0.92-2.01
			c-0.24-0.74-0.35-1.55-0.35-2.43s0.12-1.69,0.35-2.44c0.23-0.75,0.54-1.42,0.92-2.02c0.38-0.6,0.8-1.12,1.27-1.57
			c0.47-0.45,0.93-0.81,1.4-1.09c0.12-0.07,0.24-0.07,0.35-0.01c0.11,0.07,0.21,0.16,0.29,0.29s0.12,0.26,0.14,0.39
			c0.02,0.14-0.02,0.23-0.11,0.29c-0.41,0.27-0.82,0.6-1.22,0.98c-0.4,0.38-0.77,0.83-1.09,1.34c-0.32,0.51-0.58,1.08-0.78,1.72
			c-0.2,0.64-0.29,1.34-0.29,2.11s0.1,1.47,0.29,2.1c0.2,0.63,0.46,1.2,0.78,1.71c0.32,0.5,0.68,0.95,1.09,1.33
			c0.4,0.38,0.81,0.71,1.22,0.98c0.09,0.06,0.12,0.16,0.11,0.29c-0.02,0.13-0.06,0.27-0.14,0.39s-0.17,0.22-0.29,0.29
			C322.32,419.46,322.21,419.46,322.08,419.38z"/>
		<path fill="#FFFFFF" d="M329.67,419.38c-0.12,0.07-0.24,0.07-0.35,0.01c-0.11-0.07-0.21-0.16-0.29-0.29s-0.12-0.26-0.14-0.39
			c-0.02-0.14,0.02-0.23,0.11-0.29c0.41-0.27,0.82-0.6,1.22-0.98c0.4-0.38,0.76-0.82,1.08-1.33c0.32-0.5,0.58-1.07,0.78-1.71
			c0.2-0.63,0.3-1.34,0.3-2.1s-0.1-1.47-0.3-2.11s-0.46-1.21-0.78-1.72c-0.32-0.51-0.68-0.96-1.08-1.34
			c-0.4-0.38-0.81-0.71-1.22-0.98c-0.09-0.06-0.12-0.16-0.11-0.29c0.02-0.13,0.06-0.27,0.14-0.39s0.17-0.22,0.29-0.29
			c0.11-0.07,0.23-0.06,0.35,0.01c0.46,0.28,0.93,0.64,1.4,1.09c0.47,0.45,0.89,0.97,1.27,1.57c0.38,0.6,0.68,1.27,0.92,2.02
			c0.24,0.75,0.35,1.56,0.35,2.44s-0.12,1.69-0.35,2.43c-0.23,0.74-0.54,1.41-0.92,2.01s-0.8,1.12-1.27,1.56
			C330.6,418.75,330.13,419.11,329.67,419.38z"/>
		<path fill="#FFFFFF" d="M340.22,418.19c-0.06,0.12-0.14,0.2-0.24,0.26c-0.1,0.05-0.2,0.08-0.31,0.08c-0.08,0-0.15-0.01-0.22-0.04
			s-0.12-0.06-0.17-0.11c-0.05-0.05-0.08-0.1-0.1-0.17c-0.02-0.07-0.02-0.14,0-0.23l0.86-4c0.05-0.22,0.19-0.33,0.43-0.33h1.61
			c0.14,0,0.23,0.05,0.28,0.15c0.05,0.1,0.03,0.22-0.05,0.37L340.22,418.19z M339.76,409.64c0-0.19,0.04-0.38,0.11-0.54
			c0.08-0.17,0.18-0.32,0.3-0.44c0.13-0.13,0.28-0.23,0.44-0.3c0.17-0.08,0.35-0.11,0.54-0.11s0.38,0.04,0.54,0.11
			c0.17,0.07,0.32,0.17,0.44,0.3c0.13,0.13,0.23,0.28,0.3,0.44c0.07,0.17,0.11,0.35,0.11,0.54s-0.04,0.38-0.11,0.54
			c-0.08,0.17-0.18,0.32-0.3,0.44c-0.13,0.13-0.28,0.23-0.44,0.3c-0.17,0.08-0.35,0.11-0.54,0.11s-0.38-0.04-0.54-0.11
			c-0.17-0.07-0.32-0.17-0.44-0.3c-0.13-0.13-0.23-0.28-0.3-0.44C339.8,410.01,339.76,409.83,339.76,409.64z"/>
	</g>
</g>
<g>
	<g>
		<path fill="#FFFFFF" d="M387.65,217.6c0-0.54-0.2-0.95-0.61-1.25c-0.4-0.3-1.11-0.55-2.12-0.77c-1.01-0.21-1.8-0.47-2.4-0.77
			c-0.59-0.3-1.03-0.66-1.31-1.07c-0.28-0.42-0.42-0.91-0.42-1.48c0-0.95,0.4-1.76,1.21-2.42c0.8-0.66,1.83-0.99,3.09-0.99
			c1.32,0,2.39,0.34,3.21,1.02c0.82,0.68,1.23,1.55,1.23,2.61h-2c0-0.54-0.23-1.01-0.69-1.41c-0.46-0.39-1.04-0.59-1.75-0.59
			c-0.72,0-1.29,0.16-1.7,0.47c-0.41,0.32-0.61,0.73-0.61,1.24c0,0.48,0.19,0.84,0.57,1.08c0.38,0.24,1.06,0.48,2.06,0.7
			c0.99,0.22,1.8,0.49,2.41,0.79c0.62,0.31,1.07,0.68,1.37,1.11c0.3,0.43,0.45,0.96,0.45,1.58c0,1.04-0.42,1.87-1.25,2.5
			s-1.91,0.94-3.23,0.94c-0.93,0-1.75-0.17-2.47-0.49c-0.72-0.33-1.28-0.79-1.68-1.38c-0.4-0.59-0.61-1.23-0.61-1.92h1.99
			c0.04,0.67,0.3,1.19,0.8,1.58c0.5,0.39,1.15,0.59,1.97,0.59c0.75,0,1.36-0.15,1.81-0.46C387.42,218.52,387.65,218.11,387.65,217.6
			z"/>
		<path fill="#FFFFFF" d="M392.23,205.98c0-0.32,0.1-0.59,0.3-0.82c0.2-0.22,0.49-0.33,0.88-0.33s0.68,0.11,0.88,0.33
			c0.2,0.22,0.3,0.49,0.3,0.82s-0.1,0.59-0.3,0.81c-0.2,0.21-0.49,0.32-0.88,0.32s-0.68-0.11-0.88-0.32
			C392.33,206.57,392.23,206.3,392.23,205.98z M394.38,220.69h-1.99v-11.62h1.99V220.69z"/>
		<path fill="#FFFFFF" d="M397.08,214.78c0-1.78,0.42-3.22,1.27-4.3c0.84-1.08,1.95-1.63,3.32-1.63c1.36,0,2.44,0.47,3.23,1.4v-6.06
			h1.99v16.5h-1.83l-0.1-1.25c-0.79,0.97-1.9,1.46-3.32,1.46c-1.35,0-2.44-0.55-3.29-1.65c-0.85-1.1-1.27-2.54-1.27-4.32V214.78z
			 M399.07,215c0,1.32,0.27,2.35,0.82,3.09c0.54,0.75,1.3,1.12,2.26,1.12c1.26,0,2.18-0.57,2.76-1.7v-5.34
			c-0.59-1.1-1.51-1.64-2.74-1.64c-0.97,0-1.73,0.38-2.28,1.13S399.07,213.53,399.07,215z"/>
		<path fill="#FFFFFF" d="M414.79,220.9c-1.58,0-2.86-0.52-3.85-1.55c-0.99-1.03-1.48-2.42-1.48-4.15v-0.37
			c0-1.15,0.22-2.18,0.66-3.09c0.44-0.91,1.06-1.61,1.85-2.13c0.79-0.51,1.65-0.77,2.57-0.77c1.51,0,2.69,0.5,3.52,1.49
			c0.84,1,1.26,2.42,1.26,4.28v0.83h-7.87c0.03,1.15,0.36,2.07,1,2.78c0.64,0.71,1.46,1.06,2.44,1.06c0.7,0,1.3-0.14,1.78-0.43
			s0.91-0.67,1.28-1.14l1.21,0.95C418.2,220.15,416.74,220.9,414.79,220.9z M414.54,210.48c-0.8,0-1.48,0.29-2.02,0.88
			c-0.54,0.58-0.88,1.4-1.01,2.45h5.82v-0.15c-0.06-1.01-0.33-1.79-0.82-2.35C416.03,210.76,415.38,210.48,414.54,210.48z"/>
		<path fill="#FFFFFF" d="M431.46,215c0,1.78-0.41,3.2-1.22,4.28c-0.82,1.08-1.91,1.62-3.29,1.62c-1.47,0-2.6-0.52-3.41-1.56
			l-0.1,1.34h-1.83v-16.5h1.99v6.16c0.8-1,1.91-1.49,3.32-1.49s2.52,0.53,3.33,1.6c0.8,1.07,1.21,2.53,1.21,4.38V215z
			 M429.48,214.78c0-1.35-0.26-2.4-0.78-3.14c-0.52-0.74-1.27-1.11-2.26-1.11c-1.31,0-2.25,0.61-2.83,1.83v5.03
			c0.61,1.22,1.56,1.83,2.85,1.83c0.95,0,1.69-0.37,2.22-1.11C429.21,217.37,429.48,216.26,429.48,214.78z"/>
		<path fill="#FFFFFF" d="M441.14,220.69c-0.12-0.23-0.21-0.64-0.28-1.22c-0.92,0.96-2.03,1.44-3.31,1.44
			c-1.15,0-2.09-0.32-2.82-0.97c-0.73-0.65-1.1-1.47-1.1-2.46c0-1.21,0.46-2.15,1.38-2.82c0.92-0.67,2.21-1,3.88-1h1.93v-0.91
			c0-0.69-0.21-1.25-0.62-1.66c-0.42-0.41-1.03-0.62-1.84-0.62c-0.71,0-1.3,0.18-1.78,0.54c-0.48,0.36-0.72,0.79-0.72,1.3h-2
			c0-0.58,0.21-1.14,0.62-1.68c0.41-0.54,0.97-0.97,1.68-1.28c0.71-0.31,1.48-0.47,2.33-0.47c1.34,0,2.39,0.33,3.15,1
			c0.76,0.67,1.15,1.59,1.18,2.77v5.35c0,1.07,0.14,1.92,0.41,2.55v0.17H441.14z M437.84,219.17c0.62,0,1.21-0.16,1.77-0.48
			s0.96-0.74,1.21-1.26v-2.38h-1.56c-2.44,0-3.65,0.71-3.65,2.14c0,0.62,0.21,1.11,0.62,1.46
			C436.66,219,437.19,219.17,437.84,219.17z"/>
		<path fill="#FFFFFF" d="M451.55,210.85c-0.3-0.05-0.63-0.08-0.98-0.08c-1.3,0-2.19,0.56-2.65,1.67v8.25h-1.99v-11.62h1.93
			l0.03,1.34c0.65-1.04,1.58-1.56,2.77-1.56c0.39,0,0.68,0.05,0.88,0.15V210.85z"/>
		<path fill="#FFFFFF" d="M452.1,219.65c0-0.34,0.1-0.63,0.31-0.86c0.2-0.23,0.51-0.34,0.92-0.34s0.72,0.11,0.93,0.34
			c0.21,0.23,0.32,0.52,0.32,0.86c0,0.33-0.11,0.61-0.32,0.83c-0.21,0.22-0.52,0.33-0.93,0.33s-0.71-0.11-0.92-0.33
			C452.2,220.25,452.1,219.97,452.1,219.65z"/>
		<path fill="#FFFFFF" d="M467.67,215c0,1.77-0.41,3.19-1.21,4.28c-0.81,1.08-1.91,1.62-3.29,1.62c-1.41,0-2.52-0.45-3.33-1.34v5.6
			h-1.99v-16.09h1.82l0.1,1.29c0.81-1,1.93-1.5,3.37-1.5c1.4,0,2.5,0.53,3.31,1.58s1.22,2.52,1.22,4.39V215z M465.68,214.78
			c0-1.31-0.28-2.35-0.84-3.1c-0.56-0.76-1.33-1.14-2.3-1.14c-1.2,0-2.11,0.53-2.71,1.6v5.55c0.59,1.06,1.5,1.59,2.73,1.59
			c0.95,0,1.71-0.38,2.27-1.13C465.4,217.39,465.68,216.27,465.68,214.78z"/>
		<path fill="#FFFFFF" d="M472.18,210.47c0.88-1.08,2.03-1.62,3.44-1.62c2.46,0,3.7,1.39,3.72,4.16v7.68h-1.99V213
			c-0.01-0.84-0.2-1.46-0.57-1.86c-0.38-0.4-0.96-0.6-1.76-0.6c-0.64,0-1.21,0.17-1.7,0.52s-0.87,0.79-1.14,1.35v8.28h-1.99v-16.5
			h1.99V210.47z"/>
		<path fill="#FFFFFF" d="M492.12,215c0,1.77-0.4,3.19-1.21,4.28s-1.91,1.62-3.29,1.62c-1.41,0-2.52-0.45-3.33-1.34v5.6h-1.99
			v-16.09h1.82l0.1,1.29c0.81-1,1.93-1.5,3.37-1.5c1.4,0,2.5,0.53,3.31,1.58c0.81,1.05,1.22,2.52,1.22,4.39V215z M490.14,214.78
			c0-1.31-0.28-2.35-0.84-3.1c-0.56-0.76-1.33-1.14-2.3-1.14c-1.2,0-2.11,0.53-2.71,1.6v5.55c0.59,1.06,1.5,1.59,2.73,1.59
			c0.95,0,1.71-0.38,2.27-1.13C489.86,217.39,490.14,216.27,490.14,214.78z"/>
		<path fill="#FFFFFF" d="M382.02,242.84c0.38,0.16,0.78,0.28,1.2,0.35s0.83,0.11,1.24,0.11c0.37,0,0.69-0.05,0.97-0.15
			c0.27-0.1,0.5-0.23,0.68-0.41c0.18-0.18,0.31-0.39,0.4-0.64c0.09-0.25,0.13-0.53,0.13-0.83v-1.71c-0.33,0.41-0.71,0.73-1.15,0.96
			c-0.43,0.22-0.93,0.34-1.48,0.34c-0.52,0-0.99-0.09-1.43-0.26c-0.44-0.17-0.82-0.42-1.13-0.75c-0.32-0.33-0.57-0.72-0.75-1.2
			c-0.18-0.47-0.27-1-0.27-1.6s0.09-1.13,0.27-1.6c0.18-0.47,0.43-0.87,0.75-1.2c0.32-0.33,0.7-0.58,1.13-0.75
			c0.44-0.17,0.91-0.26,1.43-0.26c0.55,0,1.06,0.12,1.51,0.37c0.46,0.25,0.86,0.59,1.2,1.04v-0.66c0-0.21,0.04-0.36,0.12-0.44
			s0.21-0.12,0.4-0.12h1.32c0.19,0,0.32,0.04,0.4,0.12s0.12,0.23,0.12,0.44c0,0.21-0.04,0.36-0.12,0.44s-0.21,0.12-0.4,0.12h-0.68
			v6.83c0,0.5-0.08,0.94-0.23,1.33c-0.15,0.39-0.37,0.72-0.67,0.99c-0.29,0.27-0.65,0.47-1.08,0.62s-0.91,0.22-1.45,0.22
			c-0.48,0-0.96-0.04-1.45-0.12c-0.49-0.08-0.95-0.21-1.39-0.37c-0.15-0.06-0.25-0.15-0.29-0.27c-0.05-0.12-0.04-0.29,0.04-0.5
			c0.07-0.21,0.16-0.35,0.28-0.41C381.76,242.78,381.88,242.78,382.02,242.84z M386.65,237.04c0-0.41-0.06-0.78-0.19-1.1
			c-0.13-0.32-0.3-0.59-0.53-0.81c-0.23-0.22-0.5-0.39-0.81-0.5s-0.65-0.17-1.02-0.17c-0.38,0-0.71,0.06-1,0.19
			s-0.54,0.31-0.74,0.54c-0.2,0.23-0.35,0.5-0.46,0.82c-0.11,0.31-0.16,0.66-0.16,1.04s0.05,0.72,0.16,1.04
			c0.11,0.32,0.26,0.59,0.46,0.82c0.2,0.23,0.45,0.41,0.74,0.54s0.63,0.19,1,0.19c0.37,0,0.71-0.06,1.02-0.17s0.58-0.28,0.81-0.5
			c0.23-0.22,0.4-0.49,0.53-0.81C386.58,237.82,386.65,237.46,386.65,237.04z"/>
		<path fill="#FFFFFF" d="M392.09,237.56c0.04,0.83,0.28,1.46,0.69,1.88s1.01,0.63,1.79,0.63c0.56,0,1.1-0.06,1.63-0.19
			c0.53-0.13,0.98-0.3,1.36-0.52c0.18-0.1,0.32-0.11,0.44-0.02c0.12,0.08,0.21,0.21,0.29,0.39c0.08,0.18,0.09,0.34,0.05,0.48
			c-0.04,0.14-0.16,0.26-0.34,0.35c-0.22,0.1-0.46,0.2-0.72,0.29c-0.26,0.09-0.54,0.17-0.84,0.23c-0.3,0.06-0.6,0.11-0.92,0.15
			c-0.32,0.04-0.63,0.05-0.95,0.05c-0.61,0-1.15-0.09-1.62-0.28s-0.87-0.45-1.19-0.8c-0.32-0.35-0.57-0.77-0.73-1.26
			c-0.17-0.5-0.25-1.06-0.25-1.68c0-0.6,0.1-1.15,0.29-1.65c0.2-0.5,0.47-0.92,0.82-1.27c0.35-0.35,0.77-0.62,1.25-0.81
			c0.48-0.19,1.02-0.29,1.6-0.29c0.61,0,1.16,0.1,1.63,0.29c0.47,0.19,0.87,0.46,1.19,0.79c0.32,0.34,0.57,0.74,0.75,1.2
			c0.18,0.46,0.28,0.97,0.32,1.53c0,0.19-0.04,0.32-0.12,0.4s-0.21,0.12-0.4,0.12H392.09z M394.74,234.44
			c-0.69,0-1.26,0.17-1.7,0.52c-0.44,0.35-0.73,0.83-0.87,1.44h5.07c-0.12-0.63-0.38-1.11-0.79-1.45S395.48,234.44,394.74,234.44z"
			/>
		<path fill="#FFFFFF" d="M402.94,234.08v-2.49c0-0.19,0.04-0.33,0.14-0.42c0.09-0.08,0.25-0.12,0.49-0.12s0.39,0.04,0.49,0.12
			c0.09,0.08,0.14,0.22,0.14,0.42v2.49h3.41c0.19,0,0.32,0.04,0.4,0.12s0.12,0.23,0.12,0.44c0,0.21-0.04,0.36-0.12,0.44
			s-0.21,0.12-0.4,0.12h-3.41v3.02c0,0.3,0.03,0.57,0.08,0.8c0.05,0.23,0.13,0.42,0.25,0.57s0.26,0.27,0.45,0.34
			c0.19,0.08,0.42,0.11,0.7,0.11c0.39,0,0.79-0.08,1.2-0.23c0.41-0.16,0.8-0.35,1.16-0.59c0.13-0.08,0.26-0.1,0.39-0.06
			c0.13,0.04,0.25,0.16,0.35,0.36c0.1,0.2,0.14,0.36,0.1,0.49c-0.04,0.12-0.13,0.23-0.27,0.32c-0.21,0.13-0.44,0.26-0.68,0.37
			c-0.24,0.11-0.49,0.21-0.74,0.29c-0.25,0.08-0.51,0.15-0.77,0.2c-0.26,0.05-0.51,0.07-0.74,0.07c-0.48,0-0.89-0.06-1.24-0.19
			c-0.34-0.13-0.62-0.31-0.84-0.56c-0.22-0.25-0.38-0.55-0.48-0.92s-0.15-0.79-0.15-1.26v-3.13h-1.69c-0.19,0-0.32-0.04-0.4-0.12
			s-0.12-0.23-0.12-0.44c0-0.21,0.04-0.36,0.12-0.44s0.21-0.12,0.4-0.12H402.94z"/>
		<path fill="#FFFFFF" d="M409.91,244.35c-0.06,0-0.11-0.03-0.14-0.1c-0.03-0.06-0.05-0.22-0.05-0.47s0.02-0.41,0.05-0.47
			c0.03-0.06,0.08-0.1,0.14-0.1h10.28c0.06,0,0.11,0.03,0.14,0.1c0.03,0.06,0.05,0.22,0.05,0.47s-0.02,0.41-0.05,0.47
			c-0.03,0.06-0.08,0.1-0.14,0.1H409.91z"/>
		<path fill="#FFFFFF" d="M422.88,240.73c0,0.19-0.04,0.33-0.14,0.42c-0.09,0.08-0.25,0.12-0.49,0.12s-0.39-0.04-0.49-0.12
			c-0.09-0.08-0.14-0.22-0.14-0.42v-1.99c0-0.19,0.04-0.33,0.14-0.42c0.09-0.08,0.25-0.12,0.49-0.12c0.12,0,0.22,0.03,0.28,0.08
			c0.07,0.06,0.12,0.14,0.17,0.26c0.21,0.54,0.54,0.93,1,1.17s1.08,0.36,1.85,0.36c0.66,0,1.16-0.12,1.49-0.35
			c0.33-0.23,0.5-0.54,0.5-0.92c0-0.2-0.06-0.36-0.19-0.48c-0.13-0.12-0.3-0.21-0.51-0.29c-0.24-0.08-0.53-0.14-0.85-0.18
			c-0.32-0.04-0.66-0.08-1.01-0.12c-0.35-0.04-0.71-0.09-1.06-0.15s-0.68-0.15-0.98-0.27c-0.19-0.07-0.36-0.16-0.51-0.27
			s-0.29-0.23-0.4-0.37c-0.11-0.14-0.2-0.31-0.27-0.5c-0.06-0.19-0.1-0.4-0.1-0.65c0-0.37,0.07-0.7,0.22-0.98
			c0.15-0.29,0.36-0.53,0.62-0.72s0.57-0.34,0.93-0.44c0.36-0.1,0.75-0.15,1.17-0.15c0.55,0,1.05,0.08,1.49,0.25
			c0.44,0.16,0.82,0.38,1.13,0.67v-0.37c0-0.19,0.05-0.33,0.14-0.42c0.09-0.08,0.25-0.12,0.49-0.12s0.39,0.04,0.49,0.12
			c0.09,0.08,0.14,0.22,0.14,0.42v1.58c0,0.19-0.05,0.33-0.14,0.42c-0.09,0.08-0.25,0.12-0.49,0.12c-0.19,0-0.32-0.07-0.4-0.21
			c-0.13-0.24-0.28-0.44-0.46-0.6c-0.18-0.16-0.39-0.29-0.62-0.38c-0.24-0.09-0.49-0.16-0.78-0.2c-0.28-0.04-0.58-0.06-0.9-0.06
			c-0.54,0-0.96,0.09-1.26,0.28c-0.3,0.19-0.45,0.46-0.45,0.8c0,0.18,0.06,0.33,0.18,0.44s0.28,0.2,0.49,0.27
			c0.23,0.08,0.5,0.13,0.81,0.17c0.31,0.04,0.64,0.07,0.98,0.11c0.34,0.04,0.69,0.08,1.04,0.13s0.67,0.13,0.97,0.24
			c0.21,0.08,0.39,0.17,0.56,0.28c0.17,0.11,0.32,0.24,0.44,0.39c0.12,0.15,0.22,0.33,0.29,0.53c0.07,0.2,0.1,0.44,0.1,0.7
			c0,0.37-0.07,0.71-0.21,1.01c-0.14,0.3-0.35,0.57-0.62,0.79c-0.27,0.22-0.61,0.39-1.01,0.51c-0.4,0.12-0.86,0.18-1.37,0.18
			c-0.6,0-1.13-0.08-1.58-0.25s-0.85-0.42-1.18-0.76V240.73z"/>
		<path fill="#FFFFFF" d="M435.02,234.55h-2.1c-0.19,0-0.32-0.04-0.4-0.12c-0.08-0.08-0.12-0.23-0.12-0.44
			c0-0.21,0.04-0.36,0.12-0.44c0.08-0.08,0.21-0.12,0.4-0.12h2.82c0.19,0,0.32,0.04,0.4,0.12c0.08,0.08,0.12,0.23,0.12,0.44v5.98
			h2.67c0.19,0,0.32,0.04,0.4,0.12c0.08,0.08,0.12,0.23,0.12,0.44c0,0.21-0.04,0.36-0.12,0.44c-0.08,0.08-0.21,0.12-0.4,0.12h-6.51
			c-0.19,0-0.32-0.04-0.4-0.12c-0.08-0.08-0.12-0.23-0.12-0.44c0-0.21,0.04-0.36,0.12-0.44c0.08-0.08,0.21-0.12,0.4-0.12h2.6V234.55
			z M436.26,231.39c0,0.19-0.05,0.33-0.16,0.41c-0.1,0.08-0.32,0.12-0.63,0.12s-0.53-0.04-0.63-0.12c-0.1-0.08-0.16-0.22-0.16-0.41
			v-1.08c0-0.19,0.05-0.33,0.16-0.41c0.1-0.08,0.32-0.12,0.63-0.12s0.53,0.04,0.63,0.12c0.1,0.08,0.16,0.22,0.16,0.41V231.39z"/>
		<path fill="#FFFFFF" d="M449.73,239.96c0.19,0,0.32,0.04,0.4,0.12s0.12,0.23,0.12,0.44c0,0.21-0.04,0.36-0.12,0.44
			s-0.21,0.12-0.4,0.12h-1.32c-0.19,0-0.32-0.04-0.4-0.12s-0.12-0.23-0.12-0.44v-0.66c-0.34,0.45-0.74,0.79-1.2,1.04
			c-0.46,0.25-0.96,0.37-1.51,0.37c-0.52,0-0.99-0.09-1.43-0.26c-0.44-0.17-0.82-0.42-1.13-0.75c-0.32-0.33-0.57-0.73-0.75-1.2
			c-0.18-0.47-0.27-1-0.27-1.6s0.09-1.13,0.27-1.6c0.18-0.47,0.43-0.87,0.75-1.2c0.32-0.33,0.7-0.58,1.13-0.75
			c0.44-0.18,0.91-0.26,1.43-0.26c0.55,0,1.05,0.11,1.48,0.34s0.82,0.54,1.15,0.96v-3.62h-1.68c-0.19,0-0.32-0.04-0.4-0.12
			c-0.08-0.08-0.12-0.23-0.12-0.44c0-0.21,0.04-0.36,0.12-0.44c0.08-0.08,0.21-0.12,0.4-0.12h2.4c0.19,0,0.32,0.04,0.4,0.12
			s0.12,0.23,0.12,0.44v9.2H449.73z M447.81,237.46c0-0.41-0.06-0.77-0.19-1.1c-0.13-0.32-0.3-0.59-0.53-0.81
			c-0.23-0.22-0.5-0.39-0.81-0.5s-0.65-0.17-1.02-0.17c-0.38,0-0.71,0.06-1,0.19s-0.54,0.31-0.74,0.54c-0.2,0.23-0.35,0.5-0.46,0.82
			c-0.11,0.32-0.16,0.66-0.16,1.04s0.05,0.72,0.16,1.04c0.11,0.31,0.26,0.59,0.46,0.82c0.2,0.23,0.45,0.41,0.74,0.54
			s0.63,0.19,1,0.19c0.37,0,0.71-0.06,1.02-0.17s0.58-0.28,0.81-0.5c0.23-0.22,0.4-0.49,0.53-0.81
			C447.74,238.23,447.81,237.87,447.81,237.46z"/>
		<path fill="#FFFFFF" d="M453.25,237.56c0.04,0.83,0.28,1.46,0.69,1.88s1.01,0.63,1.79,0.63c0.56,0,1.1-0.06,1.63-0.19
			c0.53-0.13,0.98-0.3,1.36-0.52c0.18-0.1,0.32-0.11,0.44-0.02c0.12,0.08,0.21,0.21,0.29,0.39c0.08,0.18,0.09,0.34,0.05,0.48
			c-0.04,0.14-0.16,0.26-0.34,0.35c-0.22,0.1-0.46,0.2-0.72,0.29c-0.26,0.09-0.54,0.17-0.84,0.23c-0.3,0.06-0.6,0.11-0.92,0.15
			c-0.32,0.04-0.63,0.05-0.95,0.05c-0.61,0-1.15-0.09-1.62-0.28s-0.87-0.45-1.19-0.8c-0.32-0.35-0.57-0.77-0.73-1.26
			c-0.17-0.5-0.25-1.06-0.25-1.68c0-0.6,0.1-1.15,0.29-1.65c0.2-0.5,0.47-0.92,0.82-1.27c0.35-0.35,0.77-0.62,1.25-0.81
			c0.48-0.19,1.02-0.29,1.6-0.29c0.61,0,1.16,0.1,1.63,0.29c0.47,0.19,0.87,0.46,1.19,0.79c0.32,0.34,0.57,0.74,0.75,1.2
			c0.18,0.46,0.28,0.97,0.32,1.53c0,0.19-0.04,0.32-0.12,0.4s-0.21,0.12-0.4,0.12H453.25z M455.9,234.44c-0.69,0-1.26,0.17-1.7,0.52
			c-0.44,0.35-0.73,0.83-0.87,1.44h5.07c-0.12-0.63-0.38-1.11-0.79-1.45S456.64,234.44,455.9,234.44z"/>
		<path fill="#FFFFFF" d="M462.6,231.33h-0.85c-0.19,0-0.32-0.04-0.4-0.12s-0.12-0.23-0.12-0.44c0-0.21,0.04-0.36,0.12-0.44
			s0.21-0.12,0.4-0.12h1.57c0.19,0,0.32,0.04,0.4,0.12c0.08,0.08,0.12,0.23,0.12,0.44v3.84c0.33-0.43,0.71-0.76,1.15-1
			c0.43-0.24,0.93-0.37,1.48-0.37c0.52,0,0.99,0.09,1.43,0.27c0.44,0.18,0.82,0.45,1.13,0.79c0.32,0.35,0.57,0.77,0.75,1.27
			s0.27,1.06,0.27,1.68c0,0.63-0.09,1.19-0.27,1.69s-0.43,0.92-0.75,1.27c-0.32,0.35-0.7,0.61-1.13,0.79
			c-0.44,0.18-0.91,0.27-1.43,0.27c-0.55,0-1.06-0.12-1.51-0.37c-0.46-0.25-0.86-0.59-1.2-1.04v0.66c0,0.21-0.04,0.36-0.12,0.44
			s-0.21,0.12-0.4,0.12h-1.32c-0.19,0-0.32-0.04-0.4-0.12s-0.12-0.23-0.12-0.44c0-0.21,0.04-0.36,0.12-0.44s0.21-0.12,0.4-0.12h0.68
			V231.33z M463.84,237.25c0,0.44,0.06,0.84,0.19,1.18c0.13,0.34,0.3,0.63,0.53,0.88c0.23,0.24,0.5,0.42,0.81,0.55
			c0.31,0.12,0.65,0.19,1.02,0.19c0.38,0,0.71-0.07,1-0.21s0.54-0.33,0.74-0.58c0.2-0.25,0.35-0.54,0.46-0.88s0.16-0.71,0.16-1.12
			c0-0.4-0.05-0.78-0.16-1.12s-0.26-0.64-0.46-0.88s-0.45-0.44-0.74-0.58s-0.63-0.21-1-0.21c-0.37,0-0.71,0.06-1.02,0.19
			s-0.58,0.31-0.81,0.55c-0.23,0.24-0.4,0.54-0.53,0.88C463.91,236.42,463.84,236.82,463.84,237.25z"/>
		<path fill="#FFFFFF" d="M480.21,239.96c0.19,0,0.32,0.04,0.4,0.12s0.12,0.23,0.12,0.44c0,0.21-0.04,0.36-0.12,0.44
			s-0.21,0.12-0.4,0.12h-0.53c-0.17,0-0.34-0.02-0.49-0.06s-0.29-0.11-0.42-0.2c-0.12-0.09-0.23-0.2-0.32-0.33
			c-0.09-0.13-0.16-0.29-0.19-0.47c-0.44,0.38-0.92,0.68-1.45,0.91c-0.53,0.22-1.1,0.34-1.71,0.34c-0.42,0-0.8-0.05-1.15-0.16
			c-0.35-0.11-0.65-0.27-0.9-0.47s-0.45-0.46-0.59-0.76c-0.14-0.3-0.21-0.64-0.21-1.03c0-0.46,0.09-0.86,0.27-1.19
			s0.42-0.59,0.73-0.79c0.31-0.2,0.66-0.35,1.07-0.45c0.41-0.09,0.84-0.14,1.29-0.14c0.45,0,0.88,0.04,1.3,0.11
			c0.42,0.07,0.83,0.18,1.22,0.32V236c0-0.54-0.13-0.93-0.39-1.18c-0.26-0.25-0.7-0.38-1.32-0.38c-0.45,0-0.9,0.06-1.35,0.18
			s-0.85,0.3-1.2,0.55c-0.13,0.09-0.26,0.13-0.39,0.1s-0.26-0.13-0.38-0.3s-0.17-0.33-0.15-0.46c0.03-0.14,0.1-0.25,0.23-0.35
			c0.22-0.16,0.45-0.3,0.71-0.42c0.26-0.12,0.53-0.22,0.81-0.29s0.56-0.13,0.85-0.17c0.29-0.04,0.58-0.05,0.86-0.05
			c0.99,0,1.73,0.23,2.22,0.7c0.49,0.46,0.73,1.15,0.73,2.07v3.3c0,0.44,0.18,0.66,0.55,0.66H480.21z M478.12,237.83
			c-0.38-0.13-0.79-0.22-1.22-0.28s-0.86-0.09-1.29-0.09c-0.3,0-0.57,0.03-0.83,0.08c-0.25,0.05-0.47,0.13-0.65,0.24
			c-0.18,0.11-0.33,0.25-0.43,0.42c-0.1,0.18-0.15,0.39-0.15,0.64c0,0.4,0.14,0.72,0.42,0.94s0.67,0.34,1.17,0.34
			c0.59,0,1.13-0.12,1.63-0.37c0.49-0.25,0.94-0.58,1.35-1V237.83z"/>
		<path fill="#FFFFFF" d="M484.36,234.55h-1.05c-0.19,0-0.32-0.04-0.4-0.12s-0.12-0.23-0.12-0.44c0-0.21,0.04-0.36,0.12-0.44
			s0.21-0.12,0.4-0.12h1.69c0.19,0,0.32,0.04,0.4,0.12s0.12,0.23,0.12,0.44v1.68c0.2-0.37,0.44-0.71,0.7-1
			c0.26-0.3,0.54-0.55,0.84-0.76s0.61-0.37,0.93-0.49c0.32-0.11,0.64-0.17,0.96-0.17c0.43,0,0.84,0.11,1.21,0.33
			c0.16,0.09,0.26,0.21,0.31,0.35c0.04,0.14,0.03,0.31-0.05,0.51c-0.08,0.2-0.18,0.34-0.29,0.42c-0.12,0.08-0.26,0.08-0.42-0.02
			c-0.28-0.15-0.57-0.22-0.87-0.22c-0.25,0-0.5,0.04-0.76,0.14c-0.26,0.09-0.51,0.22-0.75,0.38c-0.24,0.16-0.46,0.36-0.67,0.59
			c-0.21,0.23-0.39,0.48-0.55,0.76c-0.16,0.28-0.28,0.57-0.37,0.89c-0.09,0.31-0.13,0.64-0.13,0.98v1.61h2.8
			c0.19,0,0.32,0.04,0.4,0.12c0.08,0.08,0.12,0.23,0.12,0.44c0,0.21-0.04,0.36-0.12,0.44c-0.08,0.08-0.21,0.12-0.4,0.12h-5.35
			c-0.19,0-0.32-0.04-0.4-0.12c-0.08-0.08-0.12-0.23-0.12-0.44c0-0.21,0.04-0.36,0.12-0.44c0.08-0.08,0.21-0.12,0.4-0.12h1.3V234.55
			z"/>
		<path fill="#FFFFFF" d="M497.9,244.38c-0.46-0.28-0.93-0.64-1.4-1.08c-0.47-0.45-0.89-0.97-1.27-1.56s-0.68-1.27-0.92-2.01
			c-0.24-0.74-0.35-1.55-0.35-2.43s0.12-1.69,0.35-2.44c0.23-0.75,0.54-1.42,0.92-2.02c0.38-0.6,0.8-1.12,1.27-1.57
			c0.47-0.45,0.93-0.81,1.4-1.09c0.12-0.07,0.24-0.07,0.35-0.01c0.11,0.07,0.21,0.16,0.29,0.29s0.12,0.26,0.14,0.39
			c0.02,0.14-0.02,0.23-0.11,0.29c-0.41,0.27-0.82,0.6-1.22,0.98c-0.4,0.38-0.77,0.83-1.09,1.34c-0.32,0.51-0.58,1.08-0.78,1.72
			c-0.2,0.64-0.29,1.34-0.29,2.11s0.1,1.47,0.29,2.1c0.2,0.63,0.46,1.2,0.78,1.71c0.32,0.5,0.68,0.95,1.09,1.33
			c0.4,0.38,0.81,0.71,1.22,0.98c0.09,0.06,0.12,0.16,0.11,0.29c-0.02,0.13-0.06,0.27-0.14,0.39s-0.17,0.22-0.29,0.29
			C498.14,244.46,498.02,244.46,497.9,244.38z"/>
		<path fill="#FFFFFF" d="M505.49,244.38c-0.12,0.07-0.24,0.07-0.35,0.01c-0.11-0.07-0.21-0.16-0.29-0.29s-0.12-0.26-0.14-0.39
			c-0.02-0.14,0.02-0.23,0.11-0.29c0.41-0.27,0.82-0.6,1.22-0.98c0.4-0.38,0.76-0.82,1.08-1.33c0.32-0.5,0.58-1.07,0.78-1.71
			c0.2-0.63,0.3-1.34,0.3-2.1s-0.1-1.47-0.3-2.11s-0.46-1.21-0.78-1.72c-0.32-0.51-0.68-0.96-1.08-1.34
			c-0.4-0.38-0.81-0.71-1.22-0.98c-0.09-0.06-0.12-0.16-0.11-0.29c0.02-0.13,0.06-0.27,0.14-0.39s0.17-0.22,0.29-0.29
			c0.11-0.07,0.23-0.06,0.35,0.01c0.46,0.28,0.93,0.64,1.4,1.09c0.47,0.45,0.89,0.97,1.27,1.57c0.38,0.6,0.68,1.27,0.92,2.02
			c0.24,0.75,0.35,1.56,0.35,2.44s-0.12,1.69-0.35,2.43c-0.23,0.74-0.54,1.41-0.92,2.01s-0.8,1.12-1.27,1.56
			C506.42,243.75,505.95,244.11,505.49,244.38z"/>
		<path fill="#FFFFFF" d="M516.04,243.19c-0.06,0.12-0.14,0.2-0.24,0.26c-0.1,0.05-0.2,0.08-0.31,0.08c-0.08,0-0.15-0.01-0.22-0.04
			s-0.12-0.06-0.17-0.11c-0.05-0.05-0.08-0.1-0.1-0.17c-0.02-0.07-0.02-0.14,0-0.23l0.86-4c0.05-0.22,0.19-0.33,0.43-0.33h1.61
			c0.14,0,0.23,0.05,0.28,0.15c0.05,0.1,0.03,0.22-0.05,0.37L516.04,243.19z M515.58,234.64c0-0.19,0.04-0.38,0.11-0.54
			c0.08-0.17,0.18-0.32,0.3-0.44c0.13-0.13,0.28-0.23,0.44-0.3c0.17-0.08,0.35-0.11,0.54-0.11s0.38,0.04,0.54,0.11
			c0.17,0.07,0.32,0.17,0.44,0.3c0.13,0.13,0.23,0.28,0.3,0.44c0.07,0.17,0.11,0.35,0.11,0.54s-0.04,0.38-0.11,0.54
			c-0.08,0.17-0.18,0.32-0.3,0.44c-0.13,0.13-0.28,0.23-0.44,0.3c-0.17,0.08-0.35,0.11-0.54,0.11s-0.38-0.04-0.54-0.11
			c-0.17-0.07-0.32-0.17-0.44-0.3c-0.13-0.13-0.23-0.28-0.3-0.44C515.62,235.01,515.58,234.83,515.58,234.64z"/>
	</g>
</g>
<g>
	<g>
		<path fill="#FFFFFF" d="M24.51,120.29c0-0.32,0.1-0.59,0.3-0.82c0.2-0.22,0.49-0.33,0.88-0.33s0.68,0.11,0.88,0.33
			c0.2,0.22,0.3,0.49,0.3,0.82s-0.1,0.59-0.3,0.81c-0.2,0.21-0.49,0.32-0.88,0.32s-0.68-0.11-0.88-0.32
			C24.61,120.88,24.51,120.62,24.51,120.29z M26.66,135h-1.99v-11.62h1.99V135z"/>
		<path fill="#FFFFFF" d="M31.72,123.38l0.06,1.46c0.89-1.12,2.05-1.68,3.48-1.68c2.46,0,3.7,1.39,3.72,4.16V135H37v-7.69
			c-0.01-0.84-0.2-1.46-0.57-1.86c-0.38-0.4-0.96-0.6-1.76-0.6c-0.64,0-1.21,0.17-1.7,0.52c-0.49,0.34-0.87,0.79-1.14,1.35V135
			h-1.99v-11.62H31.72z"/>
		<path fill="#FFFFFF" d="M41.5,129.09c0-1.78,0.42-3.22,1.27-4.3c0.84-1.08,1.95-1.63,3.32-1.63c1.36,0,2.44,0.47,3.23,1.4v-6.06
			h1.99V135h-1.83l-0.1-1.25c-0.79,0.97-1.9,1.46-3.32,1.46c-1.35,0-2.44-0.55-3.29-1.65c-0.85-1.1-1.27-2.54-1.27-4.32V129.09z
			 M43.49,129.32c0,1.32,0.27,2.35,0.82,3.09c0.54,0.75,1.3,1.12,2.26,1.12c1.26,0,2.18-0.57,2.76-1.7v-5.34
			c-0.59-1.1-1.51-1.64-2.74-1.64c-0.97,0-1.73,0.38-2.28,1.13C43.76,126.73,43.49,127.84,43.49,129.32z"/>
		<path fill="#FFFFFF" d="M59.21,135.21c-1.58,0-2.86-0.52-3.85-1.55c-0.99-1.03-1.48-2.42-1.48-4.15v-0.37
			c0-1.15,0.22-2.18,0.66-3.09c0.44-0.91,1.06-1.61,1.85-2.13c0.79-0.51,1.65-0.77,2.57-0.77c1.51,0,2.69,0.5,3.52,1.49
			c0.84,1,1.26,2.42,1.26,4.28v0.83h-7.87c0.03,1.15,0.36,2.07,1,2.78c0.64,0.71,1.46,1.06,2.44,1.06c0.7,0,1.3-0.14,1.78-0.43
			c0.49-0.29,0.91-0.67,1.28-1.14l1.21,0.95C62.62,134.47,61.16,135.21,59.21,135.21z M58.96,124.79c-0.8,0-1.48,0.29-2.02,0.88
			c-0.54,0.58-0.88,1.4-1.01,2.45h5.82v-0.15c-0.06-1.01-0.33-1.79-0.82-2.35C60.45,125.07,59.8,124.79,58.96,124.79z"/>
		<path fill="#FFFFFF" d="M69.94,127.62l2.58-4.24h2.32l-3.8,5.75l3.92,5.88h-2.3l-2.69-4.35L67.29,135h-2.31l3.92-5.88l-3.8-5.75
			h2.3L69.94,127.62z"/>
		<path fill="#FFFFFF" d="M76.99,133.96c0-0.34,0.1-0.63,0.31-0.86c0.2-0.23,0.51-0.34,0.92-0.34s0.72,0.11,0.93,0.34
			c0.21,0.23,0.32,0.52,0.32,0.86c0,0.33-0.11,0.61-0.32,0.83c-0.21,0.22-0.52,0.33-0.93,0.33s-0.71-0.11-0.92-0.33
			S76.99,134.29,76.99,133.96z"/>
		<path fill="#FFFFFF" d="M92.56,129.32c0,1.77-0.4,3.19-1.21,4.28c-0.81,1.08-1.91,1.62-3.29,1.62c-1.41,0-2.52-0.45-3.33-1.34v5.6
			h-1.99v-16.09h1.82l0.1,1.29c0.81-1,1.93-1.5,3.37-1.5c1.4,0,2.5,0.53,3.31,1.58c0.81,1.05,1.22,2.52,1.22,4.39V129.32z
			 M90.57,129.09c0-1.31-0.28-2.35-0.84-3.1c-0.56-0.76-1.33-1.14-2.3-1.14c-1.2,0-2.11,0.53-2.71,1.6V132
			c0.59,1.06,1.5,1.59,2.73,1.59c0.95,0,1.71-0.38,2.27-1.13C90.29,131.7,90.57,130.58,90.57,129.09z"/>
		<path fill="#FFFFFF" d="M97.07,124.78c0.88-1.08,2.03-1.62,3.44-1.62c2.46,0,3.7,1.39,3.72,4.16V135h-1.99v-7.69
			c-0.01-0.84-0.2-1.46-0.57-1.86c-0.38-0.4-0.96-0.6-1.76-0.6c-0.64,0-1.21,0.17-1.7,0.52c-0.49,0.34-0.87,0.79-1.14,1.35V135
			h-1.99v-16.5h1.99V124.78z"/>
		<path fill="#FFFFFF" d="M117.02,129.32c0,1.77-0.4,3.19-1.21,4.28c-0.81,1.08-1.91,1.62-3.29,1.62c-1.41,0-2.52-0.45-3.33-1.34
			v5.6h-1.99v-16.09h1.82l0.1,1.29c0.81-1,1.93-1.5,3.37-1.5c1.4,0,2.5,0.53,3.31,1.58c0.81,1.05,1.22,2.52,1.22,4.39V129.32z
			 M115.03,129.09c0-1.31-0.28-2.35-0.84-3.1c-0.56-0.76-1.33-1.14-2.3-1.14c-1.2,0-2.11,0.53-2.71,1.6V132
			c0.59,1.06,1.5,1.59,2.73,1.59c0.95,0,1.71-0.38,2.27-1.13C114.75,131.7,115.03,130.58,115.03,129.09z"/>
		<path fill="#FFFFFF" d="M31.68,161.4c-0.11-0.23-0.21-0.64-0.28-1.22c-0.92,0.96-2.03,1.44-3.31,1.44c-1.15,0-2.09-0.32-2.82-0.97
			c-0.73-0.65-1.1-1.47-1.1-2.47c0-1.21,0.46-2.15,1.38-2.82c0.92-0.67,2.21-1,3.88-1h1.93v-0.91c0-0.69-0.21-1.25-0.62-1.66
			c-0.42-0.41-1.03-0.62-1.84-0.62c-0.71,0-1.3,0.18-1.78,0.54c-0.48,0.36-0.72,0.79-0.72,1.3h-2c0-0.58,0.21-1.14,0.62-1.68
			c0.41-0.54,0.97-0.97,1.68-1.28c0.71-0.31,1.48-0.47,2.33-0.47c1.34,0,2.39,0.33,3.15,1c0.76,0.67,1.15,1.59,1.18,2.77v5.35
			c0,1.07,0.14,1.92,0.41,2.55v0.17H31.68z M28.38,159.89c0.62,0,1.21-0.16,1.77-0.48s0.96-0.74,1.21-1.26v-2.38h-1.56
			c-2.44,0-3.65,0.71-3.65,2.14c0,0.62,0.21,1.11,0.62,1.46C27.2,159.71,27.73,159.89,28.38,159.89z"/>
		<path fill="#FFFFFF" d="M42.09,151.56c-0.3-0.05-0.63-0.08-0.98-0.08c-1.3,0-2.19,0.56-2.65,1.67v8.25h-1.99v-11.62h1.93
			l0.03,1.34c0.65-1.04,1.58-1.56,2.77-1.56c0.39,0,0.68,0.05,0.88,0.15V151.56z"/>
		<path fill="#FFFFFF" d="M48.37,159.99c0.71,0,1.33-0.21,1.86-0.64c0.53-0.43,0.82-0.97,0.88-1.61h1.88
			c-0.04,0.67-0.27,1.3-0.69,1.9c-0.42,0.6-0.99,1.08-1.69,1.44c-0.71,0.36-1.45,0.54-2.24,0.54c-1.58,0-2.84-0.53-3.78-1.58
			c-0.93-1.06-1.4-2.5-1.4-4.33v-0.33c0-1.13,0.21-2.14,0.62-3.02c0.42-0.88,1.01-1.56,1.79-2.05c0.78-0.49,1.7-0.73,2.76-0.73
			c1.3,0,2.39,0.39,3.25,1.17c0.86,0.78,1.32,1.79,1.38,3.04h-1.88c-0.06-0.75-0.34-1.37-0.85-1.85c-0.51-0.48-1.14-0.73-1.9-0.73
			c-1.01,0-1.79,0.36-2.35,1.09c-0.56,0.73-0.83,1.78-0.83,3.15v0.38c0,1.34,0.28,2.37,0.83,3.09
			C46.56,159.63,47.35,159.99,48.37,159.99z"/>
		<path fill="#FFFFFF" d="M57.21,151.18c0.88-1.08,2.03-1.62,3.44-1.62c2.46,0,3.7,1.39,3.72,4.16v7.68h-1.99v-7.69
			c-0.01-0.84-0.2-1.46-0.57-1.86c-0.38-0.4-0.96-0.6-1.76-0.6c-0.64,0-1.21,0.17-1.7,0.52c-0.49,0.34-0.87,0.79-1.14,1.35v8.28
			h-1.99v-16.5h1.99V151.18z"/>
		<path fill="#FFFFFF" d="M67.35,146.69c0-0.32,0.1-0.59,0.3-0.82c0.2-0.22,0.49-0.33,0.88-0.33s0.68,0.11,0.88,0.33
			c0.2,0.22,0.3,0.49,0.3,0.82s-0.1,0.59-0.3,0.81c-0.2,0.21-0.49,0.32-0.88,0.32s-0.68-0.11-0.88-0.32
			C67.45,147.28,67.35,147.02,67.35,146.69z M69.5,161.4h-1.99v-11.62h1.99V161.4z"/>
		<path fill="#FFFFFF" d="M76.52,158.7l2.88-8.93h2.03l-4.17,11.62h-1.51l-4.21-11.62h2.03L76.52,158.7z"/>
		<path fill="#FFFFFF" d="M88.02,161.61c-1.58,0-2.86-0.52-3.85-1.55c-0.99-1.03-1.48-2.42-1.48-4.15v-0.37
			c0-1.15,0.22-2.18,0.66-3.09c0.44-0.91,1.06-1.61,1.85-2.13c0.79-0.51,1.65-0.77,2.57-0.77c1.51,0,2.69,0.5,3.52,1.49
			c0.84,1,1.26,2.42,1.26,4.28v0.83h-7.87c0.03,1.15,0.36,2.07,1,2.78c0.64,0.71,1.46,1.06,2.44,1.06c0.7,0,1.3-0.14,1.78-0.43
			c0.49-0.29,0.91-0.67,1.28-1.14l1.21,0.95C91.43,160.87,89.97,161.61,88.02,161.61z M87.78,151.19c-0.8,0-1.48,0.29-2.02,0.88
			c-0.54,0.58-0.88,1.4-1.01,2.45h5.82v-0.15c-0.06-1.01-0.33-1.79-0.82-2.35C89.26,151.47,88.61,151.19,87.78,151.19z"/>
		<path fill="#FFFFFF" d="M94.9,160.36c0-0.34,0.1-0.63,0.31-0.86c0.2-0.23,0.51-0.34,0.92-0.34s0.72,0.11,0.93,0.34
			c0.21,0.23,0.32,0.52,0.32,0.86c0,0.33-0.11,0.61-0.32,0.83c-0.21,0.22-0.52,0.33-0.93,0.33s-0.71-0.11-0.92-0.33
			S94.9,160.69,94.9,160.36z"/>
		<path fill="#FFFFFF" d="M110.46,155.72c0,1.77-0.4,3.19-1.21,4.28c-0.81,1.08-1.91,1.62-3.29,1.62c-1.41,0-2.52-0.45-3.33-1.34
			v5.6h-1.99v-16.09h1.82l0.1,1.29c0.81-1,1.93-1.5,3.37-1.5c1.4,0,2.5,0.53,3.31,1.58c0.81,1.05,1.22,2.52,1.22,4.39V155.72z
			 M108.48,155.49c0-1.31-0.28-2.35-0.84-3.1c-0.56-0.76-1.33-1.14-2.3-1.14c-1.2,0-2.11,0.53-2.71,1.6v5.55
			c0.59,1.06,1.5,1.59,2.73,1.59c0.95,0,1.71-0.38,2.27-1.13C108.19,158.1,108.48,156.98,108.48,155.49z"/>
		<path fill="#FFFFFF" d="M114.97,151.18c0.88-1.08,2.03-1.62,3.44-1.62c2.46,0,3.7,1.39,3.72,4.16v7.68h-1.99v-7.69
			c-0.01-0.84-0.2-1.46-0.57-1.86c-0.38-0.4-0.96-0.6-1.76-0.6c-0.64,0-1.21,0.17-1.7,0.52c-0.49,0.34-0.87,0.79-1.14,1.35v8.28
			h-1.99v-16.5h1.99V151.18z"/>
		<path fill="#FFFFFF" d="M134.92,155.72c0,1.77-0.4,3.19-1.21,4.28c-0.81,1.08-1.91,1.62-3.29,1.62c-1.41,0-2.52-0.45-3.33-1.34
			v5.6h-1.99v-16.09h1.82l0.1,1.29c0.81-1,1.93-1.5,3.37-1.5c1.4,0,2.5,0.53,3.31,1.58c0.81,1.05,1.22,2.52,1.22,4.39V155.72z
			 M132.94,155.49c0-1.31-0.28-2.35-0.84-3.1c-0.56-0.76-1.33-1.14-2.3-1.14c-1.2,0-2.11,0.53-2.71,1.6v5.55
			c0.59,1.06,1.5,1.59,2.73,1.59c0.95,0,1.71-0.38,2.27-1.13C132.65,158.1,132.94,156.98,132.94,155.49z"/>
		<path fill="#FFFFFF" d="M31.27,184.72c0-0.54-0.2-0.95-0.61-1.25c-0.4-0.3-1.11-0.55-2.12-0.77c-1.01-0.21-1.8-0.47-2.4-0.77
			s-1.03-0.66-1.31-1.07c-0.28-0.42-0.42-0.91-0.42-1.48c0-0.95,0.4-1.76,1.21-2.42c0.81-0.66,1.83-0.99,3.09-0.99
			c1.32,0,2.39,0.34,3.21,1.02c0.82,0.68,1.23,1.55,1.23,2.61h-2c0-0.54-0.23-1.01-0.69-1.41c-0.46-0.39-1.04-0.59-1.75-0.59
			c-0.72,0-1.29,0.16-1.7,0.47c-0.41,0.32-0.61,0.73-0.61,1.24c0,0.48,0.19,0.84,0.57,1.08c0.38,0.24,1.06,0.48,2.06,0.7
			c0.99,0.22,1.8,0.49,2.41,0.79c0.62,0.31,1.07,0.68,1.37,1.11c0.3,0.43,0.45,0.96,0.45,1.58c0,1.04-0.42,1.87-1.25,2.5
			c-0.83,0.63-1.91,0.94-3.23,0.94c-0.93,0-1.75-0.17-2.47-0.49c-0.72-0.33-1.28-0.79-1.68-1.38c-0.4-0.59-0.61-1.23-0.61-1.92h1.99
			c0.04,0.67,0.3,1.19,0.8,1.58c0.5,0.39,1.15,0.59,1.97,0.59c0.75,0,1.35-0.15,1.81-0.46C31.04,185.63,31.27,185.23,31.27,184.72z"
			/>
		<path fill="#FFFFFF" d="M35.86,173.09c0-0.32,0.1-0.59,0.3-0.82c0.2-0.22,0.49-0.33,0.88-0.33s0.68,0.11,0.88,0.33
			c0.2,0.22,0.3,0.49,0.3,0.82s-0.1,0.59-0.3,0.81c-0.2,0.21-0.49,0.32-0.88,0.32s-0.68-0.11-0.88-0.32
			C35.96,173.68,35.86,173.42,35.86,173.09z M38.01,187.8h-1.99v-11.62h1.99V187.8z"/>
		<path fill="#FFFFFF" d="M43.07,176.18l0.06,1.46c0.89-1.12,2.05-1.68,3.48-1.68c2.46,0,3.7,1.39,3.72,4.16v7.68h-1.99v-7.69
			c-0.01-0.84-0.2-1.46-0.57-1.86c-0.38-0.4-0.96-0.6-1.76-0.6c-0.64,0-1.21,0.17-1.7,0.52c-0.49,0.34-0.87,0.79-1.14,1.35v8.28
			h-1.99v-11.62H43.07z"/>
		<path fill="#FFFFFF" d="M52.85,181.89c0-1.81,0.42-3.25,1.26-4.32c0.84-1.07,1.95-1.61,3.33-1.61c1.42,0,2.52,0.5,3.32,1.5
			l0.1-1.29h1.82v11.34c0,1.5-0.45,2.69-1.34,3.56c-0.89,0.87-2.09,1.3-3.59,1.3c-0.84,0-1.66-0.18-2.46-0.54
			c-0.8-0.36-1.41-0.85-1.84-1.47l1.03-1.19c0.85,1.05,1.89,1.58,3.13,1.58c0.97,0,1.72-0.27,2.26-0.82
			c0.54-0.54,0.81-1.31,0.81-2.3v-1c-0.79,0.92-1.88,1.38-3.25,1.38c-1.36,0-2.46-0.55-3.3-1.64
			C53.27,185.28,52.85,183.78,52.85,181.89z M54.85,182.12c0,1.31,0.27,2.34,0.81,3.09c0.54,0.75,1.29,1.12,2.26,1.12
			c1.25,0,2.17-0.57,2.76-1.71v-5.31c-0.61-1.11-1.52-1.67-2.74-1.67c-0.97,0-1.72,0.38-2.27,1.13
			C55.12,179.53,54.85,180.64,54.85,182.12z"/>
		<path fill="#FFFFFF" d="M67.83,187.8h-1.99v-16.5h1.99V187.8z"/>
		<path fill="#FFFFFF" d="M75.83,188.01c-1.58,0-2.86-0.52-3.85-1.55c-0.99-1.03-1.48-2.42-1.48-4.15v-0.37
			c0-1.15,0.22-2.18,0.66-3.09c0.44-0.91,1.06-1.61,1.85-2.13c0.79-0.51,1.65-0.77,2.57-0.77c1.51,0,2.69,0.5,3.52,1.49
			c0.84,1,1.26,2.42,1.26,4.28v0.83h-7.87c0.03,1.15,0.36,2.07,1,2.78c0.64,0.71,1.46,1.06,2.44,1.06c0.7,0,1.3-0.14,1.78-0.43
			c0.49-0.29,0.91-0.67,1.28-1.14l1.21,0.95C79.24,187.27,77.78,188.01,75.83,188.01z M75.58,177.59c-0.8,0-1.48,0.29-2.02,0.88
			c-0.54,0.58-0.88,1.4-1.01,2.45h5.82v-0.15c-0.06-1.01-0.33-1.79-0.82-2.35C77.07,177.87,76.41,177.59,75.58,177.59z"/>
		<path fill="#FFFFFF" d="M82.71,186.76c0-0.34,0.1-0.63,0.31-0.86c0.2-0.23,0.51-0.34,0.92-0.34s0.72,0.11,0.93,0.34
			c0.21,0.23,0.32,0.52,0.32,0.86c0,0.33-0.11,0.61-0.32,0.83c-0.21,0.22-0.52,0.33-0.93,0.33s-0.71-0.11-0.92-0.33
			S82.71,187.09,82.71,186.76z"/>
		<path fill="#FFFFFF" d="M98.27,182.12c0,1.77-0.4,3.19-1.21,4.28c-0.81,1.08-1.91,1.62-3.29,1.62c-1.41,0-2.52-0.45-3.33-1.34v5.6
			h-1.99v-16.09h1.82l0.1,1.29c0.81-1,1.93-1.5,3.37-1.5c1.4,0,2.5,0.53,3.31,1.58c0.81,1.05,1.22,2.52,1.22,4.39V182.12z
			 M96.28,181.89c0-1.31-0.28-2.35-0.84-3.1c-0.56-0.76-1.33-1.14-2.3-1.14c-1.2,0-2.11,0.53-2.71,1.6v5.55
			c0.59,1.06,1.5,1.59,2.73,1.59c0.95,0,1.71-0.38,2.27-1.13C96,184.5,96.28,183.38,96.28,181.89z"/>
		<path fill="#FFFFFF" d="M102.78,177.58c0.88-1.08,2.03-1.62,3.44-1.62c2.46,0,3.7,1.39,3.72,4.16v7.68h-1.99v-7.69
			c-0.01-0.84-0.2-1.46-0.57-1.86c-0.38-0.4-0.96-0.6-1.76-0.6c-0.64,0-1.21,0.17-1.7,0.52c-0.49,0.34-0.87,0.79-1.14,1.35v8.28
			h-1.99v-16.5h1.99V177.58z"/>
		<path fill="#FFFFFF" d="M122.73,182.12c0,1.77-0.4,3.19-1.21,4.28c-0.81,1.08-1.91,1.62-3.29,1.62c-1.41,0-2.52-0.45-3.33-1.34
			v5.6h-1.99v-16.09h1.82l0.1,1.29c0.81-1,1.93-1.5,3.37-1.5c1.4,0,2.5,0.53,3.31,1.58c0.81,1.05,1.22,2.52,1.22,4.39V182.12z
			 M120.74,181.89c0-1.31-0.28-2.35-0.84-3.1c-0.56-0.76-1.33-1.14-2.3-1.14c-1.2,0-2.11,0.53-2.71,1.6v5.55
			c0.59,1.06,1.5,1.59,2.73,1.59c0.95,0,1.71-0.38,2.27-1.13C120.46,184.5,120.74,183.38,120.74,181.89z"/>
		<path fill="#FFFFFF" d="M131.1,189.14h-1.71l6.53-16.98h1.7L131.1,189.14z"/>
		<path fill="#FFFFFF" d="M151.98,184.72c0-0.54-0.2-0.95-0.61-1.25c-0.4-0.3-1.11-0.55-2.12-0.77c-1.01-0.21-1.8-0.47-2.4-0.77
			s-1.03-0.66-1.31-1.07c-0.28-0.42-0.42-0.91-0.42-1.48c0-0.95,0.4-1.76,1.21-2.42c0.81-0.66,1.83-0.99,3.09-0.99
			c1.32,0,2.39,0.34,3.21,1.02c0.82,0.68,1.23,1.55,1.23,2.61h-2c0-0.54-0.23-1.01-0.69-1.41c-0.46-0.39-1.04-0.59-1.75-0.59
			c-0.72,0-1.29,0.16-1.7,0.47c-0.41,0.32-0.61,0.73-0.61,1.24c0,0.48,0.19,0.84,0.57,1.08c0.38,0.24,1.06,0.48,2.06,0.7
			c0.99,0.22,1.8,0.49,2.41,0.79c0.62,0.31,1.07,0.68,1.37,1.11c0.3,0.43,0.45,0.96,0.45,1.58c0,1.04-0.42,1.87-1.25,2.5
			c-0.83,0.63-1.91,0.94-3.23,0.94c-0.93,0-1.75-0.17-2.47-0.49c-0.72-0.33-1.28-0.79-1.68-1.38c-0.4-0.59-0.61-1.23-0.61-1.92h1.99
			c0.04,0.67,0.3,1.19,0.8,1.58c0.5,0.39,1.15,0.59,1.97,0.59c0.75,0,1.35-0.15,1.81-0.46
			C151.75,185.63,151.98,185.23,151.98,184.72z"/>
		<path fill="#FFFFFF" d="M156.57,173.09c0-0.32,0.1-0.59,0.3-0.82c0.2-0.22,0.49-0.33,0.88-0.33s0.68,0.11,0.88,0.33
			c0.2,0.22,0.3,0.49,0.3,0.82s-0.1,0.59-0.3,0.81c-0.2,0.21-0.49,0.32-0.88,0.32s-0.68-0.11-0.88-0.32
			C156.67,173.68,156.57,173.42,156.57,173.09z M158.72,187.8h-1.99v-11.62h1.99V187.8z"/>
		<path fill="#FFFFFF" d="M163.78,176.18l0.06,1.46c0.89-1.12,2.05-1.68,3.48-1.68c2.46,0,3.7,1.39,3.72,4.16v7.68h-1.99v-7.69
			c-0.01-0.84-0.2-1.46-0.57-1.86c-0.38-0.4-0.96-0.6-1.76-0.6c-0.64,0-1.21,0.17-1.7,0.52c-0.49,0.34-0.87,0.79-1.14,1.35v8.28
			h-1.99v-11.62H163.78z"/>
		<path fill="#FFFFFF" d="M173.56,181.89c0-1.81,0.42-3.25,1.26-4.32c0.84-1.07,1.95-1.61,3.33-1.61c1.42,0,2.52,0.5,3.32,1.5
			l0.1-1.29h1.82v11.34c0,1.5-0.45,2.69-1.34,3.56c-0.89,0.87-2.09,1.3-3.59,1.3c-0.84,0-1.66-0.18-2.46-0.54
			c-0.8-0.36-1.41-0.85-1.84-1.47l1.03-1.19c0.85,1.05,1.89,1.58,3.13,1.58c0.97,0,1.72-0.27,2.26-0.82
			c0.54-0.54,0.81-1.31,0.81-2.3v-1c-0.79,0.92-1.88,1.38-3.25,1.38c-1.36,0-2.46-0.55-3.3-1.64
			C173.98,185.28,173.56,183.78,173.56,181.89z M175.56,182.12c0,1.31,0.27,2.34,0.81,3.09c0.54,0.75,1.29,1.12,2.26,1.12
			c1.25,0,2.17-0.57,2.76-1.71v-5.31c-0.61-1.11-1.52-1.67-2.74-1.67c-0.97,0-1.72,0.38-2.27,1.13
			C175.83,179.53,175.56,180.64,175.56,182.12z"/>
		<path fill="#FFFFFF" d="M193.55,186.65c-0.77,0.91-1.91,1.36-3.41,1.36c-1.24,0-2.18-0.36-2.83-1.08
			c-0.65-0.72-0.98-1.78-0.98-3.2v-7.56h1.99v7.51c0,1.76,0.72,2.64,2.15,2.64c1.52,0,2.53-0.57,3.03-1.7v-8.45h1.99v11.62h-1.89
			L193.55,186.65z"/>
		<path fill="#FFFFFF" d="M200.67,187.8h-1.99v-16.5h1.99V187.8z"/>
		<path fill="#FFFFFF" d="M211.02,187.8c-0.11-0.23-0.21-0.64-0.28-1.22c-0.92,0.96-2.03,1.44-3.31,1.44
			c-1.15,0-2.09-0.32-2.82-0.97c-0.73-0.65-1.1-1.47-1.1-2.47c0-1.21,0.46-2.15,1.38-2.82c0.92-0.67,2.21-1,3.88-1h1.93v-0.91
			c0-0.69-0.21-1.25-0.62-1.66c-0.42-0.41-1.03-0.62-1.84-0.62c-0.71,0-1.3,0.18-1.78,0.54c-0.48,0.36-0.72,0.79-0.72,1.3h-2
			c0-0.58,0.21-1.14,0.62-1.68c0.41-0.54,0.97-0.97,1.68-1.28c0.71-0.31,1.48-0.47,2.33-0.47c1.34,0,2.39,0.33,3.15,1
			c0.76,0.67,1.15,1.59,1.18,2.77v5.35c0,1.07,0.14,1.92,0.41,2.55v0.17H211.02z M207.72,186.29c0.62,0,1.21-0.16,1.77-0.48
			s0.96-0.74,1.21-1.26v-2.38h-1.56c-2.44,0-3.65,0.71-3.65,2.14c0,0.62,0.21,1.11,0.62,1.46
			C206.54,186.11,207.07,186.29,207.72,186.29z"/>
		<path fill="#FFFFFF" d="M221.43,177.96c-0.3-0.05-0.63-0.08-0.98-0.08c-1.3,0-2.19,0.56-2.65,1.67v8.25h-1.99v-11.62h1.93
			l0.03,1.34c0.65-1.04,1.58-1.56,2.77-1.56c0.39,0,0.68,0.05,0.88,0.15V177.96z"/>
		<path fill="#FFFFFF" d="M221.98,186.76c0-0.34,0.1-0.63,0.31-0.86c0.2-0.23,0.51-0.34,0.92-0.34s0.72,0.11,0.93,0.34
			c0.21,0.23,0.32,0.52,0.32,0.86c0,0.33-0.11,0.61-0.32,0.83c-0.21,0.22-0.52,0.33-0.93,0.33s-0.71-0.11-0.92-0.33
			S221.98,187.09,221.98,186.76z"/>
		<path fill="#FFFFFF" d="M237.54,182.12c0,1.77-0.4,3.19-1.21,4.28c-0.81,1.08-1.91,1.62-3.29,1.62c-1.41,0-2.52-0.45-3.33-1.34
			v5.6h-1.99v-16.09h1.82l0.1,1.29c0.81-1,1.93-1.5,3.37-1.5c1.4,0,2.5,0.53,3.31,1.58c0.81,1.05,1.22,2.52,1.22,4.39V182.12z
			 M235.56,181.89c0-1.31-0.28-2.35-0.84-3.1c-0.56-0.76-1.33-1.14-2.3-1.14c-1.2,0-2.11,0.53-2.71,1.6v5.55
			c0.59,1.06,1.5,1.59,2.73,1.59c0.95,0,1.71-0.38,2.27-1.13C235.27,184.5,235.56,183.38,235.56,181.89z"/>
		<path fill="#FFFFFF" d="M242.05,177.58c0.88-1.08,2.03-1.62,3.44-1.62c2.46,0,3.7,1.39,3.72,4.16v7.68h-1.99v-7.69
			c-0.01-0.84-0.2-1.46-0.57-1.86c-0.38-0.4-0.96-0.6-1.76-0.6c-0.64,0-1.21,0.17-1.7,0.52c-0.49,0.34-0.87,0.79-1.14,1.35v8.28
			h-1.99v-16.5h1.99V177.58z"/>
		<path fill="#FFFFFF" d="M262,182.12c0,1.77-0.4,3.19-1.21,4.28c-0.81,1.08-1.91,1.62-3.29,1.62c-1.41,0-2.52-0.45-3.33-1.34v5.6
			h-1.99v-16.09H254l0.1,1.29c0.81-1,1.93-1.5,3.37-1.5c1.4,0,2.5,0.53,3.31,1.58c0.81,1.05,1.22,2.52,1.22,4.39V182.12z
			 M260.02,181.89c0-1.31-0.28-2.35-0.84-3.1c-0.56-0.76-1.33-1.14-2.3-1.14c-1.2,0-2.11,0.53-2.71,1.6v5.55
			c0.59,1.06,1.5,1.59,2.73,1.59c0.95,0,1.71-0.38,2.27-1.13C259.73,184.5,260.02,183.38,260.02,181.89z"/>
		<path fill="#FFFFFF" d="M269.9,181.45c0-1.62,0.22-3.17,0.65-4.66c0.43-1.49,1.08-2.84,1.94-4.06c0.86-1.22,1.75-2.08,2.67-2.58
			l0.41,1.31c-1.05,0.8-1.9,2.03-2.57,3.67c-0.67,1.65-1.04,3.49-1.1,5.53l-0.01,0.91c0,2.76,0.5,5.16,1.51,7.2
			c0.61,1.22,1.33,2.17,2.17,2.86l-0.41,1.21c-0.95-0.53-1.86-1.42-2.73-2.66C270.74,187.75,269.9,184.84,269.9,181.45z"/>
		<path fill="#FFFFFF" d="M285.68,182.55h2.17v1.62h-2.17v3.63h-2v-3.63h-7.12V183l7-10.84h2.12V182.55z M278.81,182.55h4.87v-7.67
			l-0.24,0.43L278.81,182.55z"/>
		<path fill="#FFFFFF" d="M289.89,186.76c0-0.34,0.1-0.63,0.31-0.86c0.21-0.23,0.51-0.34,0.92-0.34s0.72,0.11,0.93,0.34
			c0.21,0.23,0.32,0.52,0.32,0.86c0,0.33-0.11,0.61-0.32,0.83s-0.52,0.33-0.93,0.33s-0.71-0.11-0.92-0.33
			C289.99,187.36,289.89,187.09,289.89,186.76z"/>
		<path fill="#FFFFFF" d="M298.32,179.01h1.49c0.94-0.01,1.68-0.26,2.21-0.74c0.54-0.48,0.81-1.13,0.81-1.94
			c0-1.83-0.91-2.75-2.74-2.75c-0.86,0-1.55,0.25-2.06,0.74c-0.51,0.49-0.77,1.14-0.77,1.95h-1.99c0-1.24,0.45-2.27,1.36-3.09
			c0.91-0.82,2.06-1.23,3.45-1.23c1.48,0,2.63,0.39,3.47,1.17c0.84,0.78,1.26,1.87,1.26,3.25c0,0.68-0.22,1.34-0.66,1.98
			c-0.44,0.64-1.04,1.11-1.8,1.43c0.86,0.27,1.52,0.72,1.99,1.35c0.47,0.63,0.7,1.4,0.7,2.31c0,1.4-0.46,2.52-1.38,3.34
			c-0.92,0.82-2.11,1.24-3.58,1.24c-1.47,0-2.66-0.4-3.58-1.19c-0.92-0.79-1.38-1.84-1.38-3.15h2c0,0.82,0.27,1.48,0.81,1.98
			s1.26,0.74,2.16,0.74c0.96,0,1.69-0.25,2.2-0.75c0.51-0.5,0.76-1.22,0.76-2.16c0-0.91-0.28-1.61-0.84-2.09
			c-0.56-0.49-1.36-0.74-2.42-0.75h-1.49V179.01z"/>
		<path fill="#FFFFFF" d="M313.68,179.41h4.36v1.88h-4.36v4.94h-2v-4.94h-4.36v-1.88h4.36v-4.57h2V179.41z"/>
		<path fill="#FFFFFF" d="M325.05,181.56c0,1.6-0.21,3.13-0.63,4.59c-0.42,1.46-1.06,2.82-1.92,4.06c-0.86,1.24-1.77,2.12-2.71,2.64
			l-0.42-1.21c1.1-0.85,1.99-2.16,2.66-3.94c0.67-1.78,1.01-3.75,1.03-5.92v-0.34c0-1.5-0.16-2.9-0.47-4.19
			c-0.32-1.29-0.75-2.45-1.32-3.48c-0.56-1.02-1.19-1.82-1.9-2.4l0.42-1.21c0.95,0.52,1.85,1.4,2.7,2.62s1.5,2.57,1.92,4.05
			C324.84,178.3,325.05,179.88,325.05,181.56z"/>
		<path fill="#FFFFFF" d="M34.32,208.52c0,1.77-0.4,3.19-1.21,4.28c-0.81,1.08-1.91,1.62-3.29,1.62c-1.41,0-2.52-0.45-3.33-1.34v5.6
			H24.5v-16.09h1.82l0.1,1.29c0.81-1,1.93-1.5,3.37-1.5c1.4,0,2.5,0.53,3.31,1.58c0.81,1.05,1.22,2.52,1.22,4.39V208.52z
			 M32.33,208.29c0-1.31-0.28-2.35-0.84-3.1c-0.56-0.76-1.33-1.14-2.3-1.14c-1.2,0-2.11,0.53-2.71,1.6v5.55
			c0.59,1.06,1.5,1.59,2.73,1.59c0.95,0,1.71-0.38,2.27-1.13C32.05,210.9,32.33,209.78,32.33,208.29z"/>
		<path fill="#FFFFFF" d="M44.02,214.2c-0.11-0.23-0.21-0.64-0.28-1.22c-0.92,0.96-2.03,1.44-3.31,1.44c-1.15,0-2.09-0.32-2.82-0.97
			c-0.73-0.65-1.1-1.47-1.1-2.47c0-1.21,0.46-2.15,1.38-2.82c0.92-0.67,2.21-1,3.88-1h1.93v-0.91c0-0.69-0.21-1.25-0.62-1.66
			c-0.42-0.41-1.03-0.62-1.84-0.62c-0.71,0-1.3,0.18-1.78,0.54c-0.48,0.36-0.72,0.79-0.72,1.3h-2c0-0.58,0.21-1.14,0.62-1.68
			c0.41-0.54,0.97-0.97,1.68-1.28c0.71-0.31,1.48-0.47,2.33-0.47c1.34,0,2.39,0.33,3.15,1c0.76,0.67,1.15,1.59,1.18,2.77v5.35
			c0,1.07,0.14,1.92,0.41,2.55v0.17H44.02z M40.72,212.69c0.62,0,1.21-0.16,1.77-0.48s0.96-0.74,1.21-1.26v-2.38h-1.56
			c-2.44,0-3.65,0.71-3.65,2.14c0,0.62,0.21,1.11,0.62,1.46C39.54,212.51,40.07,212.69,40.72,212.69z"/>
		<path fill="#FFFFFF" d="M48.34,208.29c0-1.81,0.42-3.25,1.26-4.32c0.84-1.07,1.95-1.61,3.33-1.61c1.42,0,2.52,0.5,3.32,1.5
			l0.1-1.29h1.82v11.34c0,1.5-0.45,2.69-1.34,3.56c-0.89,0.87-2.09,1.3-3.59,1.3c-0.84,0-1.66-0.18-2.46-0.54
			c-0.8-0.36-1.41-0.85-1.84-1.47l1.03-1.19c0.85,1.05,1.89,1.58,3.13,1.58c0.97,0,1.72-0.27,2.26-0.82
			c0.54-0.54,0.81-1.31,0.81-2.3v-1c-0.79,0.92-1.88,1.38-3.25,1.38c-1.36,0-2.46-0.55-3.3-1.64
			C48.76,211.68,48.34,210.18,48.34,208.29z M50.34,208.52c0,1.31,0.27,2.34,0.81,3.09c0.54,0.75,1.29,1.12,2.26,1.12
			c1.25,0,2.17-0.57,2.76-1.71v-5.31c-0.61-1.11-1.52-1.67-2.74-1.67c-0.97,0-1.72,0.38-2.27,1.13
			C50.61,205.93,50.34,207.04,50.34,208.52z"/>
		<path fill="#FFFFFF" d="M65.98,214.42c-1.58,0-2.86-0.52-3.85-1.55c-0.99-1.03-1.48-2.42-1.48-4.15v-0.37
			c0-1.15,0.22-2.18,0.66-3.09c0.44-0.91,1.06-1.61,1.85-2.13c0.79-0.51,1.65-0.77,2.57-0.77c1.51,0,2.69,0.5,3.52,1.49
			c0.84,1,1.26,2.42,1.26,4.28v0.83h-7.87c0.03,1.15,0.36,2.07,1,2.78c0.64,0.71,1.46,1.06,2.44,1.06c0.7,0,1.3-0.14,1.78-0.43
			c0.49-0.29,0.91-0.67,1.28-1.14l1.21,0.95C69.39,213.67,67.93,214.42,65.98,214.42z M65.73,204c-0.8,0-1.48,0.29-2.02,0.88
			c-0.54,0.58-0.88,1.4-1.01,2.45h5.82v-0.15c-0.06-1.01-0.33-1.79-0.82-2.35C67.22,204.27,66.56,204,65.73,204z"/>
		<path fill="#FFFFFF" d="M72.85,213.16c0-0.34,0.1-0.63,0.31-0.86c0.2-0.23,0.51-0.34,0.92-0.34s0.72,0.11,0.93,0.34
			c0.21,0.23,0.32,0.52,0.32,0.86c0,0.33-0.11,0.61-0.32,0.83c-0.21,0.22-0.52,0.33-0.93,0.33s-0.71-0.11-0.92-0.33
			S72.85,213.49,72.85,213.16z"/>
		<path fill="#FFFFFF" d="M88.42,208.52c0,1.77-0.4,3.19-1.21,4.28c-0.81,1.08-1.91,1.62-3.29,1.62c-1.41,0-2.52-0.45-3.33-1.34v5.6
			H78.6v-16.09h1.82l0.1,1.29c0.81-1,1.93-1.5,3.37-1.5c1.4,0,2.5,0.53,3.31,1.58c0.81,1.05,1.22,2.52,1.22,4.39V208.52z
			 M86.43,208.29c0-1.31-0.28-2.35-0.84-3.1c-0.56-0.76-1.33-1.14-2.3-1.14c-1.2,0-2.11,0.53-2.71,1.6v5.55
			c0.59,1.06,1.5,1.59,2.73,1.59c0.95,0,1.71-0.38,2.27-1.13C86.15,210.9,86.43,209.78,86.43,208.29z"/>
		<path fill="#FFFFFF" d="M92.93,203.98c0.88-1.08,2.03-1.62,3.44-1.62c2.46,0,3.7,1.39,3.72,4.16v7.68H98.1v-7.69
			c-0.01-0.84-0.2-1.46-0.57-1.86c-0.38-0.4-0.96-0.6-1.76-0.6c-0.64,0-1.21,0.17-1.7,0.52c-0.49,0.34-0.87,0.79-1.14,1.35v8.28
			h-1.99v-16.5h1.99V203.98z"/>
		<path fill="#FFFFFF" d="M112.88,208.52c0,1.77-0.4,3.19-1.21,4.28c-0.81,1.08-1.91,1.62-3.29,1.62c-1.41,0-2.52-0.45-3.33-1.34
			v5.6h-1.99v-16.09h1.82l0.1,1.29c0.81-1,1.93-1.5,3.37-1.5c1.4,0,2.5,0.53,3.31,1.58c0.81,1.05,1.22,2.52,1.22,4.39V208.52z
			 M110.89,208.29c0-1.31-0.28-2.35-0.84-3.1c-0.56-0.76-1.33-1.14-2.3-1.14c-1.2,0-2.11,0.53-2.71,1.6v5.55
			c0.59,1.06,1.5,1.59,2.73,1.59c0.95,0,1.71-0.38,2.27-1.13C110.61,210.9,110.89,209.78,110.89,208.29z"/>
		<path fill="#FFFFFF" d="M26.49,230.38c0.88-1.08,2.03-1.62,3.44-1.62c2.46,0,3.7,1.39,3.72,4.16v7.68h-1.99v-7.69
			c-0.01-0.84-0.2-1.46-0.57-1.86s-0.96-0.6-1.76-0.6c-0.64,0-1.21,0.17-1.7,0.52c-0.49,0.34-0.87,0.79-1.14,1.35v8.28H24.5v-16.5
			h1.99V230.38z"/>
		<path fill="#FFFFFF" d="M36.09,234.68c0-1.14,0.22-2.16,0.67-3.07c0.45-0.91,1.07-1.61,1.87-2.11c0.8-0.49,1.71-0.74,2.73-0.74
			c1.58,0,2.86,0.55,3.84,1.64s1.47,2.55,1.47,4.37v0.14c0,1.13-0.22,2.15-0.65,3.05c-0.43,0.9-1.05,1.6-1.86,2.1
			s-1.73,0.75-2.78,0.75c-1.58,0-2.85-0.55-3.83-1.64s-1.47-2.55-1.47-4.35V234.68z M38.09,234.92c0,1.29,0.3,2.32,0.9,3.1
			c0.6,0.78,1.4,1.17,2.4,1.17c1.01,0,1.81-0.4,2.41-1.19c0.59-0.79,0.89-1.9,0.89-3.33c0-1.27-0.3-2.31-0.91-3.1
			c-0.61-0.79-1.41-1.19-2.41-1.19c-0.98,0-1.77,0.39-2.37,1.17S38.09,233.46,38.09,234.92z"/>
		<path fill="#FFFFFF" d="M51.04,228.98l0.05,1.29c0.85-1,2-1.5,3.45-1.5c1.63,0,2.73,0.62,3.32,1.87c0.39-0.56,0.89-1.01,1.51-1.35
			c0.62-0.34,1.35-0.52,2.2-0.52c2.55,0,3.85,1.35,3.89,4.05v7.79h-1.99v-7.67c0-0.83-0.19-1.45-0.57-1.86
			c-0.38-0.41-1.02-0.62-1.91-0.62c-0.74,0-1.35,0.22-1.84,0.66c-0.49,0.44-0.77,1.03-0.85,1.78v7.71h-2v-7.62
			c0-1.69-0.83-2.54-2.48-2.54c-1.3,0-2.2,0.55-2.67,1.67v8.49h-1.99v-11.62H51.04z"/>
		<path fill="#FFFFFF" d="M73.27,240.81c-1.58,0-2.86-0.52-3.85-1.55c-0.99-1.03-1.48-2.42-1.48-4.15v-0.37
			c0-1.15,0.22-2.18,0.66-3.09c0.44-0.91,1.06-1.61,1.85-2.13c0.79-0.51,1.65-0.77,2.57-0.77c1.51,0,2.69,0.5,3.52,1.49
			s1.26,2.42,1.26,4.28v0.83h-7.87c0.03,1.15,0.36,2.07,1,2.78c0.64,0.71,1.46,1.06,2.44,1.06c0.7,0,1.3-0.14,1.78-0.43
			c0.49-0.29,0.91-0.67,1.28-1.14l1.21,0.95C76.68,240.07,75.22,240.81,73.27,240.81z M73.03,230.39c-0.8,0-1.48,0.29-2.02,0.88
			c-0.54,0.58-0.88,1.4-1.01,2.46h5.82v-0.15c-0.06-1.01-0.33-1.79-0.82-2.35C74.52,230.67,73.86,230.39,73.03,230.39z"/>
		<path fill="#FFFFFF" d="M80.15,239.56c0-0.34,0.1-0.63,0.31-0.86s0.51-0.34,0.92-0.34s0.72,0.11,0.93,0.34
			c0.21,0.23,0.32,0.52,0.32,0.86c0,0.33-0.11,0.61-0.32,0.83c-0.21,0.22-0.52,0.33-0.93,0.33s-0.71-0.11-0.92-0.33
			S80.15,239.89,80.15,239.56z"/>
		<path fill="#FFFFFF" d="M95.71,234.92c0,1.77-0.4,3.19-1.21,4.28c-0.81,1.08-1.91,1.62-3.29,1.62c-1.41,0-2.52-0.45-3.33-1.34v5.6
			H85.9v-16.09h1.82l0.1,1.29c0.81-1,1.93-1.5,3.37-1.5c1.4,0,2.5,0.53,3.31,1.58c0.81,1.05,1.22,2.52,1.22,4.39V234.92z
			 M93.73,234.69c0-1.31-0.28-2.35-0.84-3.1s-1.33-1.14-2.3-1.14c-1.2,0-2.11,0.53-2.71,1.6v5.55c0.59,1.06,1.5,1.59,2.73,1.59
			c0.95,0,1.71-0.38,2.27-1.13C93.45,237.3,93.73,236.18,93.73,234.69z"/>
		<path fill="#FFFFFF" d="M100.23,230.38c0.88-1.08,2.03-1.62,3.44-1.62c2.46,0,3.7,1.39,3.72,4.16v7.68h-1.99v-7.69
			c-0.01-0.84-0.2-1.46-0.57-1.86s-0.96-0.6-1.76-0.6c-0.64,0-1.21,0.17-1.7,0.52c-0.49,0.34-0.87,0.79-1.14,1.35v8.28h-1.99v-16.5
			h1.99V230.38z"/>
		<path fill="#FFFFFF" d="M120.17,234.92c0,1.77-0.4,3.19-1.21,4.28c-0.81,1.08-1.91,1.62-3.29,1.62c-1.41,0-2.52-0.45-3.33-1.34
			v5.6h-1.99v-16.09h1.82l0.1,1.29c0.81-1,1.93-1.5,3.37-1.5c1.4,0,2.5,0.53,3.31,1.58c0.81,1.05,1.22,2.52,1.22,4.39V234.92z
			 M118.19,234.69c0-1.31-0.28-2.35-0.84-3.1s-1.33-1.14-2.3-1.14c-1.2,0-2.11,0.53-2.71,1.6v5.55c0.59,1.06,1.5,1.59,2.73,1.59
			c0.95,0,1.71-0.38,2.27-1.13C117.91,237.3,118.19,236.18,118.19,234.69z"/>
		<path fill="#FFFFFF" d="M29.17,265.59c0.71,0,1.33-0.21,1.86-0.64c0.53-0.43,0.82-0.97,0.88-1.61h1.88
			c-0.04,0.67-0.27,1.3-0.69,1.9c-0.42,0.6-0.99,1.08-1.69,1.44c-0.71,0.36-1.45,0.54-2.24,0.54c-1.58,0-2.84-0.53-3.78-1.58
			c-0.93-1.06-1.4-2.5-1.4-4.33v-0.33c0-1.13,0.21-2.14,0.62-3.02c0.42-0.88,1.01-1.56,1.79-2.05c0.78-0.49,1.7-0.73,2.76-0.73
			c1.3,0,2.39,0.39,3.25,1.17c0.86,0.78,1.32,1.79,1.38,3.04h-1.88c-0.06-0.75-0.34-1.37-0.85-1.85c-0.51-0.48-1.14-0.72-1.9-0.72
			c-1.01,0-1.79,0.36-2.35,1.09c-0.56,0.73-0.83,1.78-0.83,3.15v0.38c0,1.34,0.28,2.37,0.83,3.09
			C27.35,265.23,28.14,265.59,29.17,265.59z"/>
		<path fill="#FFFFFF" d="M35.49,261.08c0-1.14,0.22-2.16,0.67-3.07c0.45-0.91,1.07-1.61,1.87-2.11c0.8-0.49,1.71-0.74,2.73-0.74
			c1.58,0,2.86,0.55,3.84,1.64s1.47,2.55,1.47,4.37v0.14c0,1.13-0.22,2.15-0.65,3.05c-0.43,0.9-1.05,1.6-1.86,2.1
			s-1.73,0.75-2.78,0.75c-1.58,0-2.85-0.55-3.83-1.64s-1.47-2.55-1.47-4.35V261.08z M37.49,261.32c0,1.29,0.3,2.32,0.9,3.1
			c0.6,0.78,1.4,1.17,2.4,1.17c1.01,0,1.81-0.4,2.41-1.19c0.59-0.79,0.89-1.9,0.89-3.33c0-1.27-0.3-2.31-0.91-3.1
			c-0.61-0.79-1.41-1.19-2.41-1.19c-0.98,0-1.77,0.39-2.37,1.17S37.49,259.86,37.49,261.32z"/>
		<path fill="#FFFFFF" d="M50.44,255.38l0.05,1.29c0.85-1,2-1.5,3.45-1.5c1.63,0,2.73,0.62,3.32,1.87c0.39-0.56,0.89-1.01,1.51-1.35
			c0.62-0.34,1.35-0.52,2.2-0.52c2.55,0,3.85,1.35,3.89,4.05V267h-1.99v-7.67c0-0.83-0.19-1.45-0.57-1.86
			c-0.38-0.41-1.02-0.62-1.91-0.62c-0.74,0-1.35,0.22-1.84,0.66c-0.49,0.44-0.77,1.03-0.85,1.78V267h-2v-7.62
			c0-1.69-0.83-2.54-2.48-2.54c-1.3,0-2.2,0.55-2.67,1.67V267h-1.99v-11.62H50.44z"/>
		<path fill="#FFFFFF" d="M69.72,255.38l0.05,1.29c0.85-1,2-1.5,3.45-1.5c1.63,0,2.73,0.62,3.32,1.87c0.39-0.56,0.89-1.01,1.51-1.35
			c0.62-0.34,1.35-0.52,2.2-0.52c2.55,0,3.85,1.35,3.89,4.05V267h-1.99v-7.67c0-0.83-0.19-1.45-0.57-1.86
			c-0.38-0.41-1.02-0.62-1.91-0.62c-0.74,0-1.35,0.22-1.84,0.66c-0.49,0.44-0.77,1.03-0.85,1.78V267h-2v-7.62
			c0-1.69-0.83-2.54-2.48-2.54c-1.3,0-2.2,0.55-2.67,1.67V267h-1.99v-11.62H69.72z"/>
		<path fill="#FFFFFF" d="M91.95,267.21c-1.58,0-2.86-0.52-3.85-1.55c-0.99-1.03-1.48-2.42-1.48-4.15v-0.37
			c0-1.15,0.22-2.18,0.66-3.09c0.44-0.91,1.06-1.61,1.85-2.13c0.79-0.51,1.65-0.77,2.57-0.77c1.51,0,2.69,0.5,3.52,1.49
			s1.26,2.42,1.26,4.28v0.83h-7.87c0.03,1.15,0.36,2.07,1,2.78c0.64,0.71,1.46,1.06,2.44,1.06c0.7,0,1.3-0.14,1.78-0.43
			c0.49-0.29,0.91-0.67,1.28-1.14l1.21,0.95C95.36,266.47,93.9,267.21,91.95,267.21z M91.71,256.79c-0.8,0-1.48,0.29-2.02,0.88
			c-0.54,0.58-0.88,1.4-1.01,2.46h5.82v-0.15c-0.06-1.01-0.33-1.79-0.82-2.35C93.2,257.07,92.54,256.79,91.71,256.79z"/>
		<path fill="#FFFFFF" d="M100.67,255.38l0.06,1.46c0.89-1.12,2.05-1.68,3.48-1.68c2.46,0,3.7,1.39,3.72,4.16V267h-1.99v-7.69
			c-0.01-0.84-0.2-1.46-0.57-1.86s-0.96-0.6-1.76-0.6c-0.64,0-1.21,0.17-1.7,0.52c-0.49,0.34-0.87,0.79-1.14,1.35V267h-1.99v-11.62
			H100.67z"/>
		<path fill="#FFFFFF" d="M113.62,252.56v2.81h2.17v1.54h-2.17v7.22c0,0.47,0.1,0.82,0.29,1.05c0.19,0.23,0.52,0.35,0.99,0.35
			c0.23,0,0.54-0.04,0.95-0.13v1.6c-0.52,0.14-1.03,0.21-1.53,0.21c-0.89,0-1.56-0.27-2.01-0.81s-0.68-1.3-0.68-2.29v-7.21h-2.12
			v-1.54h2.12v-2.81H113.62z"/>
		<path fill="#FFFFFF" d="M124.88,263.92c0-0.54-0.2-0.95-0.61-1.25c-0.4-0.3-1.11-0.55-2.12-0.77c-1.01-0.21-1.8-0.47-2.4-0.77
			s-1.03-0.66-1.31-1.07c-0.28-0.42-0.42-0.91-0.42-1.48c0-0.95,0.4-1.76,1.21-2.42s1.83-0.99,3.09-0.99c1.32,0,2.39,0.34,3.21,1.02
			c0.82,0.68,1.23,1.55,1.23,2.61h-2c0-0.54-0.23-1.01-0.69-1.41s-1.04-0.59-1.75-0.59c-0.72,0-1.29,0.16-1.7,0.47
			s-0.61,0.73-0.61,1.24c0,0.48,0.19,0.84,0.57,1.08c0.38,0.24,1.06,0.48,2.06,0.7c0.99,0.22,1.8,0.49,2.41,0.79
			c0.62,0.31,1.07,0.68,1.37,1.11c0.3,0.43,0.45,0.96,0.45,1.58c0,1.04-0.42,1.87-1.25,2.5c-0.83,0.63-1.91,0.94-3.23,0.94
			c-0.93,0-1.75-0.17-2.47-0.49c-0.72-0.33-1.28-0.79-1.68-1.38c-0.4-0.59-0.61-1.23-0.61-1.92h1.99c0.04,0.67,0.3,1.19,0.8,1.58
			c0.5,0.39,1.15,0.58,1.97,0.58c0.75,0,1.35-0.15,1.81-0.46C124.65,264.83,124.88,264.43,124.88,263.92z"/>
		<path fill="#FFFFFF" d="M133.59,261.17h-5.24v-1.62h5.24V261.17z"/>
		<path fill="#FFFFFF" d="M145.34,261.32c0,1.77-0.4,3.19-1.21,4.28c-0.81,1.08-1.91,1.62-3.29,1.62c-1.41,0-2.52-0.45-3.33-1.34
			v5.6h-1.99v-16.09h1.82l0.1,1.29c0.81-1,1.93-1.5,3.37-1.5c1.4,0,2.5,0.53,3.31,1.58c0.81,1.05,1.22,2.52,1.22,4.39V261.32z
			 M143.36,261.09c0-1.31-0.28-2.35-0.84-3.1s-1.33-1.14-2.3-1.14c-1.2,0-2.11,0.53-2.71,1.6V264c0.59,1.06,1.5,1.59,2.73,1.59
			c0.95,0,1.71-0.38,2.27-1.13C143.07,263.7,143.36,262.58,143.36,261.09z"/>
		<path fill="#FFFFFF" d="M147.34,261.08c0-1.14,0.22-2.16,0.67-3.07c0.45-0.91,1.07-1.61,1.87-2.11c0.8-0.49,1.71-0.74,2.73-0.74
			c1.58,0,2.86,0.55,3.84,1.64s1.47,2.55,1.47,4.37v0.14c0,1.13-0.22,2.15-0.65,3.05c-0.43,0.9-1.05,1.6-1.86,2.1
			s-1.73,0.75-2.78,0.75c-1.58,0-2.85-0.55-3.83-1.64s-1.47-2.55-1.47-4.35V261.08z M149.34,261.32c0,1.29,0.3,2.32,0.9,3.1
			c0.6,0.78,1.4,1.17,2.4,1.17c1.01,0,1.81-0.4,2.41-1.19c0.59-0.79,0.89-1.9,0.89-3.33c0-1.27-0.3-2.31-0.91-3.1
			c-0.61-0.79-1.41-1.19-2.41-1.19c-0.98,0-1.77,0.39-2.37,1.17S149.34,259.86,149.34,261.32z"/>
		<path fill="#FFFFFF" d="M170.23,261.32c0,1.77-0.4,3.19-1.21,4.28c-0.81,1.08-1.91,1.62-3.29,1.62c-1.41,0-2.52-0.45-3.33-1.34
			v5.6h-1.99v-16.09h1.82l0.1,1.29c0.81-1,1.93-1.5,3.37-1.5c1.4,0,2.5,0.53,3.31,1.58c0.81,1.05,1.22,2.52,1.22,4.39V261.32z
			 M168.25,261.09c0-1.31-0.28-2.35-0.84-3.1s-1.33-1.14-2.3-1.14c-1.2,0-2.11,0.53-2.71,1.6V264c0.59,1.06,1.5,1.59,2.73,1.59
			c0.95,0,1.71-0.38,2.27-1.13C167.96,263.7,168.25,262.58,168.25,261.09z"/>
		<path fill="#FFFFFF" d="M179.93,265.85c-0.77,0.91-1.91,1.36-3.41,1.36c-1.24,0-2.18-0.36-2.83-1.08
			c-0.65-0.72-0.98-1.78-0.98-3.2v-7.56h1.99v7.51c0,1.76,0.72,2.64,2.15,2.64c1.52,0,2.53-0.57,3.03-1.7v-8.45h1.99V267h-1.89
			L179.93,265.85z"/>
		<path fill="#FFFFFF" d="M194.7,261.32c0,1.77-0.4,3.19-1.21,4.28c-0.81,1.08-1.91,1.62-3.29,1.62c-1.41,0-2.52-0.45-3.33-1.34v5.6
			h-1.99v-16.09h1.82l0.1,1.29c0.81-1,1.93-1.5,3.37-1.5c1.4,0,2.5,0.53,3.31,1.58c0.81,1.05,1.22,2.52,1.22,4.39V261.32z
			 M192.72,261.09c0-1.31-0.28-2.35-0.84-3.1s-1.33-1.14-2.3-1.14c-1.2,0-2.11,0.53-2.71,1.6V264c0.59,1.06,1.5,1.59,2.73,1.59
			c0.95,0,1.71-0.38,2.27-1.13C192.43,263.7,192.72,262.58,192.72,261.09z"/>
		<path fill="#FFFFFF" d="M197.27,265.96c0-0.34,0.1-0.63,0.31-0.86s0.51-0.34,0.92-0.34s0.72,0.11,0.93,0.34
			c0.21,0.23,0.32,0.52,0.32,0.86c0,0.33-0.11,0.61-0.32,0.83c-0.21,0.22-0.52,0.33-0.93,0.33s-0.71-0.11-0.92-0.33
			S197.27,266.29,197.27,265.96z"/>
		<path fill="#FFFFFF" d="M212.84,261.32c0,1.77-0.4,3.19-1.21,4.28c-0.81,1.08-1.91,1.62-3.29,1.62c-1.41,0-2.52-0.45-3.33-1.34
			v5.6h-1.99v-16.09h1.82l0.1,1.29c0.81-1,1.93-1.5,3.37-1.5c1.4,0,2.5,0.53,3.31,1.58c0.81,1.05,1.22,2.52,1.22,4.39V261.32z
			 M210.85,261.09c0-1.31-0.28-2.35-0.84-3.1s-1.33-1.14-2.3-1.14c-1.2,0-2.11,0.53-2.71,1.6V264c0.59,1.06,1.5,1.59,2.73,1.59
			c0.95,0,1.71-0.38,2.27-1.13C210.57,263.7,210.85,262.58,210.85,261.09z"/>
		<path fill="#FFFFFF" d="M217.35,256.78c0.88-1.08,2.03-1.62,3.44-1.62c2.46,0,3.7,1.39,3.72,4.16V267h-1.99v-7.69
			c-0.01-0.84-0.2-1.46-0.57-1.86s-0.96-0.6-1.76-0.6c-0.64,0-1.21,0.17-1.7,0.52c-0.49,0.34-0.87,0.79-1.14,1.35V267h-1.99v-16.5
			h1.99V256.78z"/>
		<path fill="#FFFFFF" d="M237.3,261.32c0,1.77-0.4,3.19-1.21,4.28c-0.81,1.08-1.91,1.62-3.29,1.62c-1.41,0-2.52-0.45-3.33-1.34v5.6
			h-1.99v-16.09h1.82l0.1,1.29c0.81-1,1.93-1.5,3.37-1.5c1.4,0,2.5,0.53,3.31,1.58c0.81,1.05,1.22,2.52,1.22,4.39V261.32z
			 M235.31,261.09c0-1.31-0.28-2.35-0.84-3.1s-1.33-1.14-2.3-1.14c-1.2,0-2.11,0.53-2.71,1.6V264c0.59,1.06,1.5,1.59,2.73,1.59
			c0.95,0,1.71-0.38,2.27-1.13C235.03,263.7,235.31,262.58,235.31,261.09z"/>
		<path fill="#FFFFFF" d="M32.69,288.15h2.17v1.62h-2.17v3.63h-2v-3.63h-7.12v-1.17l7-10.84h2.12V288.15z M25.83,288.15h4.87v-7.67
			l-0.24,0.43L25.83,288.15z"/>
		<path fill="#FFFFFF" d="M46.46,286.73c0,2.33-0.4,4.06-1.19,5.19s-2.04,1.7-3.73,1.7c-1.67,0-2.9-0.55-3.71-1.66
			c-0.8-1.11-1.22-2.76-1.25-4.96v-2.65c0-2.3,0.4-4.01,1.19-5.12s2.04-1.68,3.74-1.68c1.68,0,2.92,0.54,3.72,1.62
			c0.79,1.08,1.2,2.74,1.22,4.99V286.73z M44.47,284.01c0-1.68-0.24-2.91-0.71-3.68c-0.47-0.77-1.22-1.15-2.25-1.15
			c-1.02,0-1.76,0.38-2.22,1.15c-0.47,0.77-0.71,1.94-0.72,3.53v3.18c0,1.69,0.25,2.94,0.74,3.74c0.49,0.8,1.23,1.21,2.23,1.21
			c0.98,0,1.71-0.38,2.19-1.14c0.48-0.76,0.73-1.96,0.75-3.59V284.01z"/>
		<path fill="#FFFFFF" d="M57.4,288.15h2.17v1.62H57.4v3.63h-2v-3.63h-7.12v-1.17l7-10.84h2.12V288.15z M50.53,288.15h4.87v-7.67
			l-0.24,0.43L50.53,288.15z"/>
		<path fill="#FFFFFF" d="M61.61,292.36c0-0.34,0.1-0.63,0.31-0.86s0.51-0.34,0.92-0.34s0.72,0.11,0.93,0.34
			c0.21,0.23,0.32,0.52,0.32,0.86c0,0.33-0.11,0.61-0.32,0.83c-0.21,0.22-0.52,0.33-0.93,0.33s-0.71-0.11-0.92-0.33
			S61.61,292.69,61.61,292.36z"/>
		<path fill="#FFFFFF" d="M77.17,287.72c0,1.77-0.4,3.19-1.21,4.28c-0.81,1.08-1.91,1.62-3.29,1.62c-1.41,0-2.52-0.45-3.33-1.34v5.6
			h-1.99v-16.09h1.82l0.1,1.29c0.81-1,1.93-1.5,3.37-1.5c1.4,0,2.5,0.53,3.31,1.58c0.81,1.05,1.22,2.52,1.22,4.39V287.72z
			 M75.19,287.49c0-1.31-0.28-2.35-0.84-3.1s-1.33-1.14-2.3-1.14c-1.2,0-2.11,0.53-2.71,1.6v5.55c0.59,1.06,1.5,1.59,2.73,1.59
			c0.95,0,1.71-0.38,2.27-1.13C74.9,290.1,75.19,288.98,75.19,287.49z"/>
		<path fill="#FFFFFF" d="M81.68,283.18c0.88-1.08,2.03-1.62,3.44-1.62c2.46,0,3.7,1.39,3.72,4.16v7.68h-1.99v-7.69
			c-0.01-0.84-0.2-1.46-0.57-1.86s-0.96-0.6-1.76-0.6c-0.64,0-1.21,0.17-1.7,0.52c-0.49,0.34-0.87,0.79-1.14,1.35v8.28H79.7v-16.5
			h1.99V283.18z"/>
		<path fill="#FFFFFF" d="M101.63,287.72c0,1.77-0.4,3.19-1.21,4.28c-0.81,1.08-1.91,1.62-3.29,1.62c-1.41,0-2.52-0.45-3.33-1.34
			v5.6h-1.99v-16.09h1.82l0.1,1.29c0.81-1,1.93-1.5,3.37-1.5c1.4,0,2.5,0.53,3.31,1.58c0.81,1.05,1.22,2.52,1.22,4.39V287.72z
			 M99.65,287.49c0-1.31-0.28-2.35-0.84-3.1s-1.33-1.14-2.3-1.14c-1.2,0-2.11,0.53-2.71,1.6v5.55c0.59,1.06,1.5,1.59,2.73,1.59
			c0.95,0,1.71-0.38,2.27-1.13C99.36,290.1,99.65,288.98,99.65,287.49z"/>
		<path fill="#FFFFFF" d="M31.27,316.72c0-0.54-0.2-0.95-0.61-1.25c-0.4-0.3-1.11-0.55-2.12-0.77c-1.01-0.21-1.8-0.47-2.4-0.77
			s-1.03-0.66-1.31-1.07c-0.28-0.42-0.42-0.91-0.42-1.48c0-0.95,0.4-1.76,1.21-2.42s1.83-0.99,3.09-0.99c1.32,0,2.39,0.34,3.21,1.02
			c0.82,0.68,1.23,1.55,1.23,2.61h-2c0-0.54-0.23-1.01-0.69-1.41s-1.04-0.59-1.75-0.59c-0.72,0-1.29,0.16-1.7,0.47
			s-0.61,0.73-0.61,1.24c0,0.48,0.19,0.84,0.57,1.08c0.38,0.24,1.06,0.48,2.06,0.7c0.99,0.22,1.8,0.49,2.41,0.79
			c0.62,0.31,1.07,0.68,1.37,1.11c0.3,0.43,0.45,0.96,0.45,1.58c0,1.04-0.42,1.87-1.25,2.5c-0.83,0.63-1.91,0.94-3.23,0.94
			c-0.93,0-1.75-0.17-2.47-0.49c-0.72-0.33-1.28-0.79-1.68-1.38c-0.4-0.59-0.61-1.23-0.61-1.92h1.99c0.04,0.67,0.3,1.19,0.8,1.58
			c0.5,0.39,1.15,0.58,1.97,0.58c0.75,0,1.35-0.15,1.81-0.46C31.04,317.63,31.27,317.23,31.27,316.72z"/>
		<path fill="#FFFFFF" d="M40.67,320.01c-1.58,0-2.86-0.52-3.85-1.55c-0.99-1.03-1.48-2.42-1.48-4.15v-0.37
			c0-1.15,0.22-2.18,0.66-3.09c0.44-0.91,1.06-1.61,1.85-2.13c0.79-0.51,1.65-0.77,2.57-0.77c1.51,0,2.69,0.5,3.52,1.49
			s1.26,2.42,1.26,4.28v0.83h-7.87c0.03,1.15,0.36,2.07,1,2.78c0.64,0.71,1.46,1.06,2.44,1.06c0.7,0,1.3-0.14,1.78-0.43
			c0.49-0.29,0.91-0.67,1.28-1.14l1.21,0.95C44.08,319.27,42.62,320.01,40.67,320.01z M40.42,309.59c-0.8,0-1.48,0.29-2.02,0.88
			c-0.54,0.58-0.88,1.4-1.01,2.46h5.82v-0.15c-0.06-1.01-0.33-1.79-0.82-2.35C41.91,309.87,41.25,309.59,40.42,309.59z"/>
		<path fill="#FFFFFF" d="M54.68,319.8c-0.11-0.23-0.21-0.64-0.28-1.22c-0.92,0.96-2.03,1.44-3.31,1.44c-1.15,0-2.09-0.32-2.82-0.97
			c-0.73-0.65-1.1-1.47-1.1-2.46c0-1.21,0.46-2.15,1.38-2.82c0.92-0.67,2.21-1,3.88-1h1.93v-0.91c0-0.69-0.21-1.25-0.62-1.66
			c-0.42-0.41-1.03-0.62-1.84-0.62c-0.71,0-1.3,0.18-1.78,0.54c-0.48,0.36-0.72,0.79-0.72,1.3h-2c0-0.58,0.21-1.14,0.62-1.68
			c0.41-0.54,0.97-0.97,1.68-1.28c0.71-0.32,1.48-0.47,2.33-0.47c1.34,0,2.39,0.33,3.15,1c0.76,0.67,1.15,1.59,1.18,2.77v5.35
			c0,1.07,0.14,1.92,0.41,2.55v0.17H54.68z M51.38,318.29c0.62,0,1.21-0.16,1.77-0.48s0.96-0.74,1.21-1.26v-2.38h-1.56
			c-2.44,0-3.65,0.71-3.65,2.14c0,0.62,0.21,1.11,0.62,1.46C50.2,318.11,50.73,318.29,51.38,318.29z"/>
		<path fill="#FFFFFF" d="M65.09,309.96c-0.3-0.05-0.63-0.08-0.98-0.08c-1.3,0-2.19,0.55-2.65,1.67v8.25h-1.99v-11.62h1.93
			l0.03,1.34c0.65-1.04,1.58-1.56,2.77-1.56c0.39,0,0.68,0.05,0.88,0.15V309.96z"/>
		<path fill="#FFFFFF" d="M71.37,318.39c0.71,0,1.33-0.21,1.86-0.64c0.53-0.43,0.82-0.97,0.88-1.61h1.88
			c-0.04,0.67-0.27,1.3-0.69,1.9c-0.42,0.6-0.99,1.08-1.69,1.44c-0.71,0.36-1.45,0.54-2.24,0.54c-1.58,0-2.84-0.53-3.78-1.58
			c-0.93-1.06-1.4-2.5-1.4-4.33v-0.33c0-1.13,0.21-2.14,0.62-3.02c0.42-0.88,1.01-1.56,1.79-2.05c0.78-0.49,1.7-0.73,2.76-0.73
			c1.3,0,2.39,0.39,3.25,1.17c0.86,0.78,1.32,1.79,1.38,3.04h-1.88c-0.06-0.75-0.34-1.37-0.85-1.85c-0.51-0.48-1.14-0.72-1.9-0.72
			c-1.01,0-1.79,0.36-2.35,1.09c-0.56,0.73-0.83,1.78-0.83,3.15v0.38c0,1.34,0.28,2.37,0.83,3.09
			C69.56,318.03,70.35,318.39,71.37,318.39z"/>
		<path fill="#FFFFFF" d="M80.21,309.58c0.88-1.08,2.03-1.62,3.44-1.62c2.46,0,3.7,1.39,3.72,4.16v7.68h-1.99v-7.69
			c-0.01-0.84-0.2-1.46-0.57-1.86s-0.96-0.6-1.76-0.6c-0.64,0-1.21,0.17-1.7,0.52c-0.49,0.34-0.87,0.79-1.14,1.35v8.28h-1.99v-16.5
			h1.99V309.58z"/>
		<path fill="#FFFFFF" d="M90.39,318.76c0-0.34,0.1-0.63,0.31-0.86s0.51-0.34,0.92-0.34s0.72,0.11,0.93,0.34
			c0.21,0.23,0.32,0.52,0.32,0.86c0,0.33-0.11,0.61-0.32,0.83c-0.21,0.22-0.52,0.33-0.93,0.33s-0.71-0.11-0.92-0.33
			S90.39,319.09,90.39,318.76z"/>
		<path fill="#FFFFFF" d="M105.95,314.12c0,1.77-0.4,3.19-1.21,4.28c-0.81,1.08-1.91,1.62-3.29,1.62c-1.41,0-2.52-0.45-3.33-1.34
			v5.6h-1.99v-16.09h1.82l0.1,1.29c0.81-1,1.93-1.5,3.37-1.5c1.4,0,2.5,0.53,3.31,1.58c0.81,1.05,1.22,2.52,1.22,4.39V314.12z
			 M103.96,313.89c0-1.31-0.28-2.35-0.84-3.1s-1.33-1.14-2.3-1.14c-1.2,0-2.11,0.53-2.71,1.6v5.55c0.59,1.06,1.5,1.59,2.73,1.59
			c0.95,0,1.71-0.38,2.27-1.13C103.68,316.5,103.96,315.38,103.96,313.89z"/>
		<path fill="#FFFFFF" d="M110.46,309.58c0.88-1.08,2.03-1.62,3.44-1.62c2.46,0,3.7,1.39,3.72,4.16v7.68h-1.99v-7.69
			c-0.01-0.84-0.2-1.46-0.57-1.86s-0.96-0.6-1.76-0.6c-0.64,0-1.21,0.17-1.7,0.52c-0.49,0.34-0.87,0.79-1.14,1.35v8.28h-1.99v-16.5
			h1.99V309.58z"/>
		<path fill="#FFFFFF" d="M130.41,314.12c0,1.77-0.4,3.19-1.21,4.28c-0.81,1.08-1.91,1.62-3.29,1.62c-1.41,0-2.52-0.45-3.33-1.34
			v5.6h-1.99v-16.09h1.82l0.1,1.29c0.81-1,1.93-1.5,3.37-1.5c1.4,0,2.5,0.53,3.31,1.58c0.81,1.05,1.22,2.52,1.22,4.39V314.12z
			 M128.42,313.89c0-1.31-0.28-2.35-0.84-3.1s-1.33-1.14-2.3-1.14c-1.2,0-2.11,0.53-2.71,1.6v5.55c0.59,1.06,1.5,1.59,2.73,1.59
			c0.95,0,1.71-0.38,2.27-1.13C128.14,316.5,128.42,315.38,128.42,313.89z"/>
	</g>
</g>
</svg>
