<?xml version="1.0" encoding="utf-8"?>
<!-- Generator: Adobe Illustrator 16.0.4, SVG Export Plug-In . SVG Version: 6.00 Build 0)  -->
<!DOCTYPE svg PUBLIC "-//W3C//DTD SVG 1.1//EN" "http://www.w3.org/Graphics/SVG/1.1/DTD/svg11.dtd">
<svg version="1.1" id="Layer_1" xmlns="http://www.w3.org/2000/svg" xmlns:xlink="http://www.w3.org/1999/xlink" x="0px" y="0px"
	 width="576px" height="270px" viewBox="0 0 576 270" enable-background="new 0 0 576 270" xml:space="preserve">
<rect y="225.605" fill="none" width="231.313" height="28.789"/>
<g>
	<g enable-background="new    ">
		<path fill="#ED4343" d="M11.323,238.826v-0.044c0-2.597,2.046-3.872,4.995-3.872c1.364,0,2.354,0.197,3.3,0.506v-0.309
			c0-1.76-1.078-2.706-3.058-2.706c-1.364,0-2.376,0.286-3.477,0.748l-0.704-2.068c1.32-0.594,2.618-0.99,4.533-0.99
			c1.782,0,3.125,0.484,3.982,1.343c0.88,0.857,1.276,2.112,1.276,3.696v7.173h-2.575v-1.54c-0.814,0.99-2.09,1.782-3.96,1.782
			C13.369,242.545,11.323,241.246,11.323,238.826z M19.662,237.968v-0.88c-0.726-0.264-1.694-0.484-2.838-0.484
			c-1.827,0-2.905,0.793-2.905,2.068v0.044c0,1.211,1.078,1.893,2.42,1.893C18.232,240.608,19.662,239.53,19.662,237.968z"/>
		<path fill="#ED4343" d="M24.236,230.245h2.729l2.508,8.427l2.75-8.471h2.244l2.75,8.471l2.553-8.427h2.662l-3.982,12.146h-2.354
			l-2.75-8.383l-2.794,8.383h-2.354L24.236,230.245z"/>
		<path fill="#ED4343" d="M43.883,236.318v-0.045c0-3.454,2.442-6.271,5.875-6.271c3.807,0,5.743,2.992,5.743,6.469
			c0,0.242,0,0.484-0.022,0.748h-8.933c0.286,2.047,1.716,3.169,3.542,3.169c1.386,0,2.376-0.506,3.322-1.452l1.584,1.386
			c-1.166,1.364-2.729,2.244-4.951,2.244C46.567,242.566,43.883,240.036,43.883,236.318z M52.882,235.46
			c-0.198-1.849-1.254-3.278-3.146-3.278c-1.738,0-2.97,1.342-3.234,3.278H52.882z"/>
		<path fill="#ED4343" d="M57.522,240.74l1.21-1.804c1.32,0.968,2.707,1.496,3.982,1.496c1.21,0,1.937-0.55,1.937-1.387v-0.044
			c0-0.968-1.298-1.298-2.729-1.738c-1.782-0.527-3.785-1.231-3.785-3.521v-0.044c0-2.266,1.848-3.652,4.247-3.652
			c1.519,0,3.168,0.528,4.423,1.364l-1.056,1.893c-1.167-0.704-2.398-1.145-3.411-1.145c-1.122,0-1.76,0.528-1.76,1.254v0.044
			c0,0.902,1.298,1.276,2.75,1.761c1.76,0.55,3.763,1.32,3.763,3.498v0.044c0,2.509-1.958,3.763-4.467,3.763
			C60.911,242.522,59.019,241.929,57.522,240.74z"/>
		<path fill="#ED4343" d="M69.469,236.34v-0.044c0-3.433,2.729-6.293,6.425-6.293c3.674,0,6.381,2.794,6.381,6.249v0.044
			c0,3.433-2.729,6.271-6.425,6.271C72.175,242.566,69.469,239.772,69.469,236.34z M79.634,236.34v-0.044
			c0-2.156-1.584-3.982-3.784-3.982c-2.267,0-3.741,1.804-3.741,3.938v0.044c0,2.156,1.584,3.961,3.785,3.961
			C78.16,240.257,79.634,238.475,79.634,236.34z"/>
		<path fill="#ED4343" d="M85.309,230.245h2.641v1.87c0.792-1.101,1.848-2.112,3.718-2.112c1.76,0,2.993,0.858,3.631,2.135
			c0.968-1.276,2.222-2.135,4.092-2.135c2.641,0,4.247,1.694,4.247,4.643v7.657h-2.64v-6.865c0-1.958-0.946-3.015-2.53-3.015
			c-1.541,0-2.663,1.079-2.663,3.059v6.821h-2.662v-6.909c0-1.914-0.924-2.971-2.509-2.971c-1.584,0-2.684,1.188-2.684,3.081v6.799
			h-2.641V230.245z"/>
		<path fill="#ED4343" d="M106.56,236.318v-0.045c0-3.454,2.442-6.271,5.875-6.271c3.807,0,5.743,2.992,5.743,6.469
			c0,0.242,0,0.484-0.022,0.748h-8.933c0.286,2.047,1.716,3.169,3.542,3.169c1.386,0,2.376-0.506,3.322-1.452l1.584,1.386
			c-1.166,1.364-2.729,2.244-4.951,2.244C109.245,242.566,106.56,240.036,106.56,236.318z M115.56,235.46
			c-0.198-1.849-1.254-3.278-3.146-3.278c-1.738,0-2.97,1.342-3.234,3.278H115.56z"/>
		<path fill="#ED4343" d="M120.728,234.008h6.733v2.618h-6.733V234.008z"/>
		<path fill="#ED4343" d="M129.462,230.245h2.729l2.508,8.427l2.75-8.471h2.244l2.75,8.471l2.553-8.427h2.662l-3.982,12.146h-2.354
			l-2.75-8.383l-2.794,8.383h-2.354L129.462,230.245z"/>
		<path fill="#ED4343" d="M149.108,236.318v-0.045c0-3.454,2.442-6.271,5.875-6.271c3.807,0,5.743,2.992,5.743,6.469
			c0,0.242,0,0.484-0.022,0.748h-8.933c0.286,2.047,1.716,3.169,3.542,3.169c1.386,0,2.376-0.506,3.322-1.452l1.584,1.386
			c-1.166,1.364-2.729,2.244-4.951,2.244C151.793,242.566,149.108,240.036,149.108,236.318z M158.108,235.46
			c-0.198-1.849-1.254-3.278-3.146-3.278c-1.738,0-2.97,1.342-3.234,3.278H158.108z"/>
		<path fill="#ED4343" d="M166.379,240.389v1.914h-2.641v-16.7h2.641v6.711c0.902-1.299,2.2-2.311,4.181-2.311
			c2.838,0,5.611,2.244,5.611,6.249v0.044c0,3.982-2.75,6.249-5.611,6.249C168.535,242.545,167.259,241.532,166.379,240.389z
			 M173.486,236.296v-0.044c0-2.398-1.628-3.961-3.542-3.961c-1.915,0-3.608,1.585-3.608,3.961v0.044
			c0,2.376,1.694,3.961,3.608,3.961C171.879,240.257,173.486,238.738,173.486,236.296z"/>
		<path fill="#ED4343" d="M178.258,240.74l1.21-1.804c1.32,0.968,2.707,1.496,3.982,1.496c1.21,0,1.937-0.55,1.937-1.387v-0.044
			c0-0.968-1.298-1.298-2.729-1.738c-1.782-0.527-3.785-1.231-3.785-3.521v-0.044c0-2.266,1.848-3.652,4.247-3.652
			c1.519,0,3.168,0.528,4.423,1.364l-1.056,1.893c-1.167-0.704-2.398-1.145-3.411-1.145c-1.122,0-1.76,0.528-1.76,1.254v0.044
			c0,0.902,1.298,1.276,2.75,1.761c1.76,0.55,3.763,1.32,3.763,3.498v0.044c0,2.509-1.958,3.763-4.467,3.763
			C181.646,242.522,179.754,241.929,178.258,240.74z"/>
		<path fill="#ED4343" d="M190.908,225.756h2.883v2.553h-2.883V225.756z M191.018,230.245h2.662v12.058h-2.662V230.245z"/>
		<path fill="#ED4343" d="M198.124,239.002v-6.469h-1.562v-2.288h1.562V226.9h2.64v3.345h3.301v2.288h-3.301v6.051
			c0,1.101,0.572,1.562,1.541,1.562c0.616,0,1.166-0.154,1.716-0.418v2.178c-0.682,0.374-1.43,0.595-2.442,0.595
			C199.554,242.501,198.124,241.621,198.124,239.002z"/>
		<path fill="#ED4343" d="M206.065,236.318v-0.045c0-3.454,2.442-6.271,5.875-6.271c3.807,0,5.743,2.992,5.743,6.469
			c0,0.242,0,0.484-0.022,0.748h-8.933c0.286,2.047,1.716,3.169,3.542,3.169c1.386,0,2.376-0.506,3.322-1.452l1.584,1.386
			c-1.166,1.364-2.729,2.244-4.951,2.244C208.75,242.566,206.065,240.036,206.065,236.318z M215.065,235.46
			c-0.198-1.849-1.254-3.278-3.146-3.278c-1.738,0-2.97,1.342-3.234,3.278H215.065z"/>
	</g>
</g>
<rect x="332.555" y="225.605" fill="none" width="244.445" height="28.789"/>
<g>
	<g enable-background="new    ">
		<path fill="#ED4343" d="M339.652,236.34v-0.044c0-3.433,2.641-6.293,6.25-6.293c2.266,0,3.696,0.858,4.818,2.091l-1.672,1.782
			c-0.858-0.902-1.761-1.562-3.169-1.562c-2.068,0-3.587,1.782-3.587,3.938v0.044c0,2.2,1.541,3.961,3.719,3.961
			c1.32,0,2.289-0.616,3.19-1.519l1.606,1.562c-1.21,1.32-2.596,2.266-4.929,2.266C342.293,242.566,339.652,239.75,339.652,236.34z"
			/>
		<path fill="#ED4343" d="M352.742,238.826v-0.044c0-2.597,2.047-3.872,4.995-3.872c1.364,0,2.354,0.197,3.301,0.506v-0.309
			c0-1.76-1.079-2.706-3.059-2.706c-1.364,0-2.376,0.286-3.477,0.748l-0.704-2.068c1.32-0.594,2.618-0.99,4.533-0.99
			c1.781,0,3.124,0.484,3.982,1.343c0.88,0.857,1.275,2.112,1.275,3.696v7.173h-2.574v-1.54c-0.814,0.99-2.09,1.782-3.961,1.782
			C354.789,242.545,352.742,241.246,352.742,238.826z M361.082,237.968v-0.88c-0.727-0.264-1.694-0.484-2.838-0.484
			c-1.827,0-2.905,0.793-2.905,2.068v0.044c0,1.211,1.078,1.893,2.421,1.893C359.652,240.608,361.082,239.53,361.082,237.968z"/>
		<path fill="#ED4343" d="M367.615,239.002v-6.469h-1.562v-2.288h1.562V226.9h2.641v3.345h3.301v2.288h-3.301v6.051
			c0,1.101,0.572,1.562,1.54,1.562c0.616,0,1.166-0.154,1.716-0.418v2.178c-0.682,0.374-1.43,0.595-2.441,0.595
			C369.045,242.501,367.615,241.621,367.615,239.002z"/>
		<path fill="#ED4343" d="M375.578,240.74l1.211-1.804c1.32,0.968,2.706,1.496,3.982,1.496c1.21,0,1.936-0.55,1.936-1.387v-0.044
			c0-0.968-1.298-1.298-2.729-1.738c-1.781-0.527-3.784-1.231-3.784-3.521v-0.044c0-2.266,1.849-3.652,4.247-3.652
			c1.518,0,3.168,0.528,4.422,1.364l-1.056,1.893c-1.166-0.704-2.398-1.145-3.411-1.145c-1.121,0-1.76,0.528-1.76,1.254v0.044
			c0,0.902,1.299,1.276,2.75,1.761c1.761,0.55,3.764,1.32,3.764,3.498v0.044c0,2.509-1.959,3.763-4.467,3.763
			C378.967,242.522,377.074,241.929,375.578,240.74z"/>
		<path fill="#ED4343" d="M387.723,234.008h6.732v2.618h-6.732V234.008z"/>
		<path fill="#ED4343" d="M397.645,244.547l1.012-2.002c1.299,0.836,2.686,1.298,4.335,1.298c2.486,0,3.872-1.276,3.872-3.763
			v-0.968c-1.012,1.298-2.287,2.223-4.29,2.223c-2.86,0-5.501-2.091-5.501-5.633v-0.044c0-3.564,2.685-5.655,5.501-5.655
			c2.046,0,3.323,0.946,4.269,2.091v-1.849h2.662v9.615c0,2.024-0.55,3.543-1.54,4.532c-1.101,1.101-2.772,1.606-4.906,1.606
			C401.077,245.999,399.229,245.493,397.645,244.547z M406.908,235.702v-0.044c0-2.047-1.694-3.411-3.652-3.411
			c-1.959,0-3.499,1.364-3.499,3.389v0.044c0,2.024,1.562,3.41,3.499,3.41C405.214,239.09,406.908,237.704,406.908,235.702z"/>
		<path fill="#ED4343" d="M412.385,238.826v-0.044c0-2.597,2.046-3.872,4.994-3.872c1.364,0,2.354,0.197,3.301,0.506v-0.309
			c0-1.76-1.078-2.706-3.059-2.706c-1.364,0-2.377,0.286-3.477,0.748l-0.704-2.068c1.32-0.594,2.618-0.99,4.532-0.99
			c1.783,0,3.125,0.484,3.982,1.343c0.881,0.857,1.277,2.112,1.277,3.696v7.173h-2.575v-1.54c-0.813,0.99-2.09,1.782-3.96,1.782
			C414.431,242.545,412.385,241.246,412.385,238.826z M420.724,237.968v-0.88c-0.726-0.264-1.694-0.484-2.839-0.484
			c-1.826,0-2.904,0.793-2.904,2.068v0.044c0,1.211,1.078,1.893,2.42,1.893C419.293,240.608,420.724,239.53,420.724,237.968z"/>
		<path fill="#ED4343" d="M426.926,225.603h2.662v16.7h-2.662V225.603z"/>
		<path fill="#ED4343" d="M432.777,236.34v-0.044c0-3.433,2.729-6.293,6.426-6.293c3.674,0,6.381,2.794,6.381,6.249v0.044
			c0,3.433-2.729,6.271-6.426,6.271C435.484,242.566,432.777,239.772,432.777,236.34z M442.943,236.34v-0.044
			c0-2.156-1.584-3.982-3.785-3.982c-2.266,0-3.74,1.804-3.74,3.938v0.044c0,2.156,1.584,3.961,3.785,3.961
			C441.469,240.257,442.943,238.475,442.943,236.34z"/>
		<path fill="#ED4343" d="M448.617,230.245h2.641v2.772c0.792-1.826,2.223-3.081,4.356-2.992v2.794h-0.153
			c-2.443,0-4.203,1.628-4.203,4.862v4.621h-2.641V230.245z"/>
		<path fill="#ED4343" d="M457.131,236.318v-0.045c0-3.454,2.442-6.271,5.875-6.271c3.807,0,5.742,2.992,5.742,6.469
			c0,0.242,0,0.484-0.021,0.748h-8.934c0.287,2.047,1.717,3.169,3.543,3.169c1.387,0,2.377-0.506,3.322-1.452l1.584,1.386
			c-1.166,1.364-2.729,2.244-4.95,2.244C459.815,242.566,457.131,240.036,457.131,236.318z M466.131,235.46
			c-0.199-1.849-1.255-3.278-3.146-3.278c-1.738,0-2.971,1.342-3.234,3.278H466.131z"/>
		<path fill="#ED4343" d="M471.299,234.008h6.733v2.618h-6.733V234.008z"/>
		<path fill="#ED4343" d="M480.033,230.245h2.729l2.508,8.427l2.75-8.471h2.244l2.751,8.471l2.553-8.427h2.662l-3.982,12.146h-2.354
			l-2.75-8.383l-2.795,8.383h-2.354L480.033,230.245z"/>
		<path fill="#ED4343" d="M499.68,236.318v-0.045c0-3.454,2.441-6.271,5.875-6.271c3.807,0,5.742,2.992,5.742,6.469
			c0,0.242,0,0.484-0.021,0.748h-8.934c0.286,2.047,1.717,3.169,3.543,3.169c1.386,0,2.376-0.506,3.322-1.452l1.584,1.386
			c-1.166,1.364-2.729,2.244-4.951,2.244C502.363,242.566,499.68,240.036,499.68,236.318z M508.679,235.46
			c-0.198-1.849-1.255-3.278-3.146-3.278c-1.738,0-2.97,1.342-3.234,3.278H508.679z"/>
		<path fill="#ED4343" d="M516.949,240.389v1.914h-2.641v-16.7h2.641v6.711c0.902-1.299,2.201-2.311,4.182-2.311
			c2.838,0,5.61,2.244,5.61,6.249v0.044c0,3.982-2.751,6.249-5.61,6.249C519.105,242.545,517.83,241.532,516.949,240.389z
			 M524.057,236.296v-0.044c0-2.398-1.629-3.961-3.543-3.961s-3.607,1.585-3.607,3.961v0.044c0,2.376,1.693,3.961,3.607,3.961
			C522.45,240.257,524.057,238.738,524.057,236.296z"/>
		<path fill="#ED4343" d="M528.828,240.74l1.211-1.804c1.32,0.968,2.707,1.496,3.982,1.496c1.211,0,1.937-0.55,1.937-1.387v-0.044
			c0-0.968-1.298-1.298-2.729-1.738c-1.782-0.527-3.784-1.231-3.784-3.521v-0.044c0-2.266,1.848-3.652,4.246-3.652
			c1.519,0,3.168,0.528,4.423,1.364l-1.056,1.893c-1.167-0.704-2.398-1.145-3.411-1.145c-1.122,0-1.761,0.528-1.761,1.254v0.044
			c0,0.902,1.299,1.276,2.751,1.761c1.761,0.55,3.763,1.32,3.763,3.498v0.044c0,2.509-1.959,3.763-4.467,3.763
			C532.217,242.522,530.325,241.929,528.828,240.74z"/>
		<path fill="#ED4343" d="M541.479,225.756h2.883v2.553h-2.883V225.756z M541.59,230.245h2.662v12.058h-2.662V230.245z"/>
		<path fill="#ED4343" d="M548.695,239.002v-6.469h-1.562v-2.288h1.562V226.9h2.64v3.345h3.301v2.288h-3.301v6.051
			c0,1.101,0.572,1.562,1.54,1.562c0.617,0,1.166-0.154,1.717-0.418v2.178c-0.682,0.374-1.43,0.595-2.442,0.595
			C550.125,242.501,548.695,241.621,548.695,239.002z"/>
		<path fill="#ED4343" d="M556.637,236.318v-0.045c0-3.454,2.442-6.271,5.875-6.271c3.807,0,5.742,2.992,5.742,6.469
			c0,0.242,0,0.484-0.021,0.748h-8.934c0.287,2.047,1.717,3.169,3.543,3.169c1.387,0,2.377-0.506,3.322-1.452l1.584,1.386
			c-1.166,1.364-2.729,2.244-4.95,2.244C559.321,242.566,556.637,240.036,556.637,236.318z M565.637,235.46
			c-0.199-1.849-1.255-3.278-3.146-3.278c-1.738,0-2.971,1.342-3.234,3.278H565.637z"/>
	</g>
</g>
<path fill="#646464" d="M238.69,67.087c-3.741-3.9-9.076-6.139-14.634-6.139h-10.295l-7.433-36.682
	c-0.271-1.305-1.044-2.455-2.165-3.2c-1.111-0.744-2.484-1.005-3.789-0.744L91.246,42.448c-3.516-3.151-8.146-5.075-13.221-5.075
	H28.952c-10.972,0-19.893,8.921-19.893,19.887v7.008C3.636,67.869,0.2,73.993,0.2,80.84v110.984c0,0.029,0.004,0.058,0.004,0.087
	L0.2,191.96c0,10.894,8.926,19.763,19.887,19.763h184.84c0.686,0,1.353-0.045,2.02-0.103c0.116-0.021,0.242-0.039,0.357-0.058
	c0.542-0.068,1.083-0.146,1.615-0.252c0.077-0.011,0.154-0.039,0.241-0.059c0.561-0.121,1.121-0.261,1.672-0.43
	c0.029-0.006,0.059-0.024,0.087-0.034c6.824-2.146,12.063-7.863,13.494-14.935c0-0.02,0-0.039,0.01-0.067
	c0.115-0.57,0.203-1.149,0.271-1.739c0.01-0.165,0.028-0.324,0.038-0.488c0.02-0.266,0.059-0.518,0.078-0.777l19.013-110.655
	l0.116-1.073C244.151,75.805,242.296,70.837,238.69,67.087z M197.427,31.23l6.021,29.718H97.916V57.26
	c0-1.977-0.31-3.88-0.841-5.683L197.427,31.23z M208.107,190.54l-0.116,1.421c0,1.614-1.372,2.924-3.063,2.924H20.088
	c-1.508,0-2.773-1.059-3.006-2.439L36.037,82.112c0.256-1.513,0.734-4.33,6.041-4.33h181.979c0.985,0,1.914,0.362,2.484,0.962
	c0.338,0.348,0.521,0.754,0.569,1.246L208.107,190.54z"/>
<path fill="#646464" d="M570.533,67.087c-3.741-3.9-9.076-6.139-14.634-6.139h-10.295l-7.434-36.682
	c-0.271-1.305-1.044-2.455-2.165-3.2c-1.11-0.744-2.483-1.005-3.789-0.744L423.089,42.448c-3.516-3.151-8.146-5.075-13.221-5.075
	h-49.073c-10.972,0-19.893,8.921-19.893,19.887v7.008c-5.424,3.601-8.859,9.725-8.859,16.572v110.984
	c0,0.029,0.005,0.058,0.005,0.087l-0.005,0.049c0,10.894,8.927,19.763,19.889,19.763h184.84c0.686,0,1.353-0.045,2.02-0.103
	c0.116-0.021,0.242-0.039,0.357-0.058c0.542-0.068,1.083-0.146,1.614-0.252c0.077-0.011,0.154-0.039,0.241-0.059
	c0.562-0.121,1.121-0.261,1.672-0.43c0.029-0.006,0.06-0.024,0.087-0.034c6.824-2.146,12.063-7.863,13.494-14.935
	c0-0.02,0-0.039,0.01-0.067c0.115-0.57,0.203-1.149,0.271-1.739c0.01-0.165,0.028-0.324,0.038-0.488
	c0.02-0.266,0.059-0.518,0.078-0.777l19.013-110.655l0.116-1.073C575.994,75.805,574.139,70.837,570.533,67.087z M529.27,31.23
	l6.021,29.718H429.759V57.26c0-1.977-0.31-3.88-0.841-5.683L529.27,31.23z M539.95,190.54l-0.116,1.421
	c0,1.614-1.372,2.924-3.062,2.924h-184.84c-1.509,0-2.773-1.059-3.007-2.439L367.88,82.112c0.257-1.513,0.734-4.33,6.041-4.33H555.9
	c0.984,0,1.914,0.362,2.483,0.962c0.338,0.348,0.521,0.754,0.569,1.246L539.95,190.54z"/>
</svg>
