<?xml version="1.0" encoding="utf-8"?>
<!-- Generator: Adobe Illustrator 16.0.4, SVG Export Plug-In . SVG Version: 6.00 Build 0)  -->
<!DOCTYPE svg PUBLIC "-//W3C//DTD SVG 1.1//EN" "http://www.w3.org/Graphics/SVG/1.1/DTD/svg11.dtd">
<svg version="1.1" id="Layer_1" xmlns="http://www.w3.org/2000/svg" xmlns:xlink="http://www.w3.org/1999/xlink" x="0px" y="0px"
	 width="347.9px" height="325.2px" viewBox="0 0 347.9 325.2" enable-background="new 0 0 347.9 325.2" xml:space="preserve">
<g>
	<path fill="#646464" d="M335.8,30.8H12.1C5.4,30.8,0,36.2,0,42.9v270.2c0,6.699,5.4,12.1,12.101,12.1H335.8
		c6.7,0,12.101-5.4,12.101-12.1V42.9C347.9,36.2,342.5,30.8,335.8,30.8z M299.6,55.3c6.699,0,12.199,5.5,12.199,12.2
		s-5.5,12.2-12.199,12.2c-6.7,0-12.2-5.5-12.2-12.2S292.8,55.3,299.6,55.3z M256.1,55.3c6.699,0,12.199,5.5,12.199,12.2
		s-5.5,12.2-12.199,12.2c-6.7,0-12.2-5.5-12.2-12.2S249.4,55.3,256.1,55.3z M212.6,55.3c6.699,0,12.199,5.5,12.199,12.2
		s-5.5,12.2-12.199,12.2c-6.7,0-12.2-5.5-12.2-12.2S205.9,55.3,212.6,55.3z M323.7,301H24.2V101.7h299.6V301H323.7z"/>
</g>
<rect x="3.4" fill="none" width="341" height="48"/>
<g>
	<g enable-background="new    ">
		<path fill="#ED4343" d="M79.693,4.872h3.696l2.232,8.305l2.616-8.354h3.121l2.616,8.377l2.304-8.328h3.624l-4.2,13.44h-3.288
			l-2.641-8.376l-2.688,8.376h-3.264L79.693,4.872z"/>
		<path fill="#ED4343" d="M102.517,0.023h3.84v3.264h-3.84V0.023z M102.637,4.872h3.625v13.345h-3.625V4.872z"/>
		<path fill="#ED4343" d="M110.101,4.872h3.648v1.92c0.864-1.128,2.016-2.16,3.96-2.16c2.88,0,4.584,1.896,4.584,4.968v8.617h-3.648
			v-7.465c0-1.848-0.888-2.832-2.4-2.832s-2.496,0.984-2.496,2.832v7.465h-3.648V4.872z"/>
		<path fill="#ED4343" d="M125.221,11.568V11.52c0-4.44,2.928-6.889,6.097-6.889c2.04,0,3.312,0.936,4.224,2.04v-6.673h3.648v18.218
			h-3.648v-1.968c-0.936,1.271-2.232,2.231-4.224,2.231C128.197,18.48,125.221,16.032,125.221,11.568z M135.59,11.568V11.52
			c0-2.28-1.536-3.793-3.36-3.793c-1.824,0-3.36,1.465-3.36,3.793v0.048c0,2.28,1.536,3.792,3.36,3.792
			C134.053,15.36,135.59,13.848,135.59,11.568z"/>
		<path fill="#ED4343" d="M142.189,11.616v-0.048c0-3.816,3.072-6.937,7.225-6.937c4.104,0,7.152,3.072,7.152,6.889v0.048
			c0,3.84-3.072,6.937-7.225,6.937C145.237,18.504,142.189,15.457,142.189,11.616z M152.966,11.616v-0.048
			c0-2.04-1.464-3.792-3.625-3.792c-2.208,0-3.552,1.704-3.552,3.744v0.048c0,2.04,1.464,3.816,3.625,3.816
			C151.621,15.384,152.966,13.656,152.966,11.616z"/>
		<path fill="#ED4343" d="M157.861,4.872h3.696l2.232,8.305l2.616-8.354h3.121l2.616,8.377l2.304-8.328h3.625l-4.201,13.44h-3.288
			l-2.641-8.376l-2.688,8.376h-3.264L157.861,4.872z"/>
		<path fill="#ED4343" d="M187.645,11.616v-0.048c0-3.816,3.072-6.937,7.225-6.937c4.104,0,7.152,3.072,7.152,6.889v0.048
			c0,3.84-3.072,6.937-7.225,6.937C190.693,18.504,187.645,15.457,187.645,11.616z M198.422,11.616v-0.048
			c0-2.04-1.464-3.792-3.624-3.792c-2.209,0-3.553,1.704-3.553,3.744v0.048c0,2.04,1.465,3.816,3.625,3.816
			C197.077,15.384,198.422,13.656,198.422,11.616z"/>
		<path fill="#ED4343" d="M208.669,16.417v1.8h-3.648V-0.001h3.648v6.865c0.936-1.272,2.232-2.232,4.225-2.232
			c3.119,0,6.096,2.448,6.096,6.889v0.048c0,4.44-2.928,6.912-6.096,6.912C210.852,18.48,209.581,17.52,208.669,16.417z
			 M215.341,11.568V11.52c0-2.28-1.535-3.793-3.359-3.793s-3.361,1.513-3.361,3.793v0.048c0,2.28,1.537,3.792,3.361,3.792
			S215.341,13.896,215.341,11.568z"/>
		<path fill="#ED4343" d="M220.044,22.128v-2.856c0.312,0.049,0.553,0.097,0.816,0.097c0.792,0,1.368-0.456,1.368-1.584V4.872h3.624
			v13.201c0,2.88-1.464,4.224-4.2,4.224C220.98,22.296,220.572,22.249,220.044,22.128z M222.108,0.023h3.84v3.264h-3.84V0.023z"/>
		<path fill="#ED4343" d="M229.044,11.616v-0.048c0-3.816,2.713-6.937,6.576-6.937c4.417,0,6.481,3.432,6.481,7.225
			c0,0.288-0.024,0.624-0.048,0.96h-9.385c0.359,1.824,1.607,2.76,3.359,2.76c1.32,0,2.257-0.407,3.312-1.392l2.088,1.848
			c-1.248,1.536-3.023,2.473-5.447,2.473C231.997,18.504,229.044,15.696,229.044,11.616z M238.55,10.536
			c-0.24-1.752-1.249-2.977-2.93-2.977c-1.631,0-2.711,1.177-3,2.977H238.55z"/>
		<path fill="#ED4343" d="M244.501,11.616v-0.048c0-3.792,2.904-6.937,6.984-6.937c2.496,0,4.08,0.864,5.328,2.256l-2.256,2.4
			c-0.864-0.912-1.729-1.512-3.097-1.512c-1.968,0-3.36,1.704-3.36,3.744v0.048c0,2.112,1.368,3.816,3.504,3.816
			c1.297,0,2.209-0.576,3.145-1.464l2.137,2.136c-1.297,1.44-2.809,2.448-5.449,2.448C247.428,18.504,244.501,15.432,244.501,11.616
			z"/>
		<path fill="#ED4343" d="M260.219,14.448V7.992h-1.607v-3.12h1.607V1.415h3.648v3.457h3.217v3.12h-3.217v5.856
			c0,0.936,0.408,1.368,1.297,1.368c0.695,0,1.32-0.168,1.871-0.456v2.928c-0.791,0.456-1.68,0.744-2.928,0.744
			C261.803,18.432,260.219,17.52,260.219,14.448z"/>
	</g>
</g>
</svg>
