<?xml version="1.0" encoding="utf-8"?>
<!-- Generator: Adobe Illustrator 16.0.4, SVG Export Plug-In . SVG Version: 6.00 Build 0)  -->
<!DOCTYPE svg PUBLIC "-//W3C//DTD SVG 1.1//EN" "http://www.w3.org/Graphics/SVG/1.1/DTD/svg11.dtd">
<svg version="1.1" id="Layer_1" xmlns="http://www.w3.org/2000/svg" xmlns:xlink="http://www.w3.org/1999/xlink" x="0px" y="0px"
	 width="333px" height="450px" viewBox="0 0 333 450" enable-background="new 0 0 333 450" xml:space="preserve">
<rect x="-0.5" fill="#05389E" width="334" height="450"/>
<g>
	<path fill="#FFFFFF" stroke="#FFFFFF" stroke-width="11" d="M114.36,255.576c0,0,1.043,34.548-3.472,44.849
		c-1.108,2.524-5.396,5.803-8.64,6.868c-1.856,0.611-8.719-0.076-10.169,1.231c-0.966,0.872,0,5.208,0,5.208h29.803l2.894-27.199
		l1.735-24.882c0,0,21.702,9.547,43.113,10.416c26.6,1.077,52.083-8.103,52.083-8.103s6.652,28.512,3.471,37.325
		c-0.729,2.021-4.128,5.168-6.075,6.077c-2.354,1.098-9.55,0.577-9.55,0.577s-5.61,0.63-6.653,1.734
		c-1.393,1.479-0.312,4.63-0.312,4.63h9.824h24.873l3.18-41.652l2.604-30.67c0,0,15.656,5.818,21.174,5.774
		c5.237-0.044,16.445-2.483,19.965-6.366c2.089-2.306,3.762-11.862,3.762-11.862s-8.796,5.956-12.152,6.942
		c-4.304,1.268-13.514,0.719-17.94,0c-2.709-0.438-10.415-3.471-10.415-3.471s-6.234-3.331-7.991-3.779
		c-3.435-0.875-20.34-2.029-20.34-2.029s-27.517,0.337-36.482-0.269c-12.172-0.821-46.423-1.917-51.214-8.391
		c-4.123-5.57-7.452-17.038-10.608-22.183c-4.522-7.371-5.242-24.85-12.732-28.743c-3.146-1.635-13.407,1.447-13.407,1.447
		s-3.902,5.833-4.917,6.848c-1.734,1.736-26.232,2.314-28.549,5.207c-2.137,2.67-0.863,11.086,2.314,12.347
		c1.99,0.789,27.62,0.476,27.62,0.476s2.354,30.344,7.294,40.515c2.037,4.194,10.127,14.468,10.127,14.468L114.36,255.576z"/>
	<path fill="#FFFFFF" stroke="#FFFFFF" stroke-width="11" d="M103.42,186.316c0,0,5.598,10.887,8.444,12.822
		c2.047,1.393,7.862,0.977,10.319,0.664c2.095-0.266,6.667-3.63,7.507-5.566c1.516-3.498-2.902-12.566-4.834-15.854
		c-1.498-2.549-3.343-4.504-7.052-7.91c-1.726-1.584-8.757-3.335-8.757-3.335"/>
</g>
<g>
	<g>
		<line fill="none" stroke="#FFFFFF" stroke-width="2" x1="40.334" y1="164" x2="40.334" y2="167"/>
		
			<line fill="none" stroke="#FFFFFF" stroke-width="2" stroke-dasharray="5.9239,5.9239" x1="40.334" y1="172.923" x2="40.334" y2="312.135"/>
		<line fill="none" stroke="#FFFFFF" stroke-width="2" x1="40.334" y1="315.097" x2="40.334" y2="318.097"/>
		<g>
			<rect x="33.834" y="163" fill="#FFFFFF" width="13" height="2"/>
		</g>
		<g>
			<rect x="33.834" y="317.097" fill="#FFFFFF" width="13" height="2"/>
		</g>
	</g>
</g>
<g>
	<g>
		<line fill="none" stroke="#FFFFFF" stroke-width="2" x1="291.834" y1="334.213" x2="288.834" y2="334.213"/>
		
			<line fill="none" stroke="#FFFFFF" stroke-width="2" stroke-dasharray="6.1016,6.1016" x1="282.732" y1="334.213" x2="66.125" y2="334.213"/>
		<line fill="none" stroke="#FFFFFF" stroke-width="2" x1="63.075" y1="334.213" x2="60.075" y2="334.213"/>
		<g>
			<rect x="290.834" y="327.713" fill="#FFFFFF" width="2" height="13"/>
		</g>
		<g>
			<rect x="59.075" y="327.713" fill="#FFFFFF" width="2" height="13"/>
		</g>
	</g>
</g>
<rect x="50.5" y="78" fill="none" width="231" height="43"/>
<g>
	<g enable-background="new    ">
		<path fill="#FFFFFF" d="M79.193,98.273c0-2.012,0.361-3.936,1.084-5.771c0.722-1.836,1.714-3.452,2.974-4.849
			s2.744-2.51,4.453-3.34c1.709-0.83,3.56-1.245,5.552-1.245c0.801,0,1.469,0.044,2.007,0.132c0.537,0.088,0.971,0.273,1.304,0.557
			c0.332,0.283,0.571,0.688,0.718,1.216s0.22,1.23,0.22,2.109c-1.133-1.133-2.319-1.841-3.56-2.124
			c-1.241-0.283-2.451-0.254-3.633,0.088c-1.182,0.342-2.295,0.947-3.34,1.816c-1.045,0.869-1.944,1.885-2.695,3.047
			c-0.752,1.162-1.318,2.422-1.699,3.779s-0.503,2.69-0.366,3.999c0,1.23,0.22,2.31,0.659,3.237s1.035,1.694,1.787,2.3
			c0.751,0.605,1.636,1.06,2.651,1.362c1.015,0.303,2.099,0.454,3.252,0.454c1.445-0.117,2.714-0.361,3.809-0.732
			c1.094-0.371,2.095-0.82,3.003-1.348s1.777-1.099,2.607-1.714c0.83-0.615,1.704-1.216,2.622-1.802c0.176,0,0.356,0.01,0.542,0.029
			c0.186,0.02,0.356,0.059,0.513,0.117c0.156,0.059,0.283,0.151,0.381,0.278c0.098,0.127,0.146,0.308,0.146,0.542
			c-0.977,0.859-2.032,1.719-3.164,2.578c-1.133,0.859-2.329,1.626-3.589,2.3s-2.578,1.211-3.955,1.611s-2.788,0.581-4.233,0.542
			c-1.289,0-2.539-0.22-3.75-0.659c-1.211-0.439-2.285-1.064-3.223-1.875s-1.685-1.777-2.241-2.9S79.193,99.641,79.193,98.273z"/>
		<path fill="#FFFFFF" d="M105.766,83.684c0.215-0.293,0.425-0.571,0.63-0.835s0.502-0.396,0.894-0.396
			c0.253,0,0.488,0.303,0.703,0.908c0.215,0.605,0.4,1.411,0.557,2.417c0.156,1.006,0.293,2.153,0.41,3.442s0.215,2.627,0.293,4.014
			c0.078,1.387,0.142,2.769,0.19,4.146c0.048,1.377,0.088,2.637,0.117,3.779s0.048,2.124,0.059,2.944
			c0.01,0.82,0.015,1.377,0.015,1.67c0,0.352-0.073,0.635-0.22,0.85s-0.333,0.386-0.557,0.513c-0.225,0.127-0.479,0.21-0.762,0.249
			c-0.283,0.039-0.552,0.059-0.806,0.059c-0.04,0-0.093-0.005-0.161-0.015c-0.069-0.01-0.113-0.015-0.132-0.015
			c0-0.508-0.015-1.284-0.044-2.329s-0.063-2.227-0.103-3.545c-0.04-1.318-0.078-2.705-0.117-4.16
			c-0.04-1.455-0.083-2.842-0.132-4.16c-0.049-1.318-0.098-2.5-0.146-3.545c-0.049-1.045-0.083-1.821-0.103-2.329
			c0-0.137-0.025-0.381-0.073-0.732c-0.049-0.352-0.103-0.723-0.161-1.113s-0.122-0.757-0.19-1.099
			C105.858,84.06,105.805,83.82,105.766,83.684z"/>
		<path fill="#FFFFFF" d="M126.215,101.35c-0.567,0.879-1.221,1.675-1.963,2.388c-0.743,0.713-1.558,1.318-2.446,1.816
			c-0.889,0.498-1.856,0.864-2.9,1.099c-1.045,0.234-2.144,0.303-3.296,0.205c-0.41,0-0.85-0.049-1.318-0.146
			s-0.904-0.254-1.304-0.469c-0.4-0.215-0.728-0.498-0.981-0.85c-0.254-0.352-0.381-0.791-0.381-1.318
			c-0.215-1.094-0.171-2.202,0.132-3.325c0.303-1.123,0.776-2.207,1.421-3.252s1.436-2.012,2.373-2.9s1.938-1.641,3.003-2.256
			c1.064-0.615,2.158-1.06,3.281-1.333c1.123-0.273,2.212-0.312,3.267-0.117c0.801,0,1.425,0.264,1.875,0.791
			c0.449,0.527,0.786,1.23,1.011,2.109c0.224,0.879,0.366,1.89,0.425,3.032s0.107,2.319,0.146,3.53
			c0.039,1.211,0.092,2.407,0.161,3.589c0.068,1.182,0.22,2.261,0.454,3.237h-2.168c-0.098-0.664-0.171-1.25-0.22-1.758
			c-0.049-0.508-0.093-0.981-0.132-1.421c-0.04-0.439-0.093-0.864-0.161-1.274C126.424,102.316,126.332,101.857,126.215,101.35z
			 M123.988,93.527c-0.762-0.059-1.548,0.044-2.358,0.308c-0.811,0.264-1.592,0.635-2.344,1.113
			c-0.752,0.479-1.455,1.045-2.109,1.699c-0.655,0.654-1.226,1.333-1.714,2.036c-0.488,0.703-0.864,1.401-1.128,2.095
			s-0.371,1.333-0.322,1.919c0.048,0.586,0.268,1.084,0.659,1.494c0.391,0.41,0.996,0.684,1.816,0.82
			c1.172-0.02,2.3-0.317,3.384-0.894s2.051-1.289,2.9-2.139s1.557-1.768,2.124-2.754c0.566-0.986,0.933-1.899,1.099-2.739
			c0.166-0.84,0.092-1.543-0.22-2.109C125.463,93.811,124.867,93.527,123.988,93.527z"/>
		<path fill="#FFFFFF" d="M134.975,106.828c1.387-0.449,2.681-0.977,3.882-1.582s2.207-1.201,3.018-1.787
			c0.81-0.586,1.357-1.128,1.641-1.626c0.283-0.498,0.205-0.874-0.234-1.128s-1.304-0.337-2.593-0.249s-3.116,0.425-5.479,1.011
			c-0.703-0.02-1.333-0.156-1.89-0.41s-1.03-0.566-1.421-0.938c-0.391-0.371-0.688-0.776-0.894-1.216s-0.308-0.864-0.308-1.274
			c0-0.645,0.22-1.284,0.659-1.919s1.03-1.235,1.772-1.802c0.742-0.566,1.601-1.079,2.578-1.538c0.977-0.459,2.002-0.83,3.076-1.113
			c1.074-0.283,2.172-0.469,3.296-0.557c1.123-0.088,2.202-0.034,3.237,0.161c0.586,0,0.927,0.259,1.025,0.776
			c0.098,0.518,0.146,1.353,0.146,2.505c-0.801-0.371-1.666-0.635-2.593-0.791c-0.928-0.156-1.86-0.215-2.798-0.176
			s-1.846,0.171-2.725,0.396s-1.655,0.537-2.329,0.938s-1.226,0.894-1.655,1.479c-0.43,0.586-0.655,1.25-0.674,1.992
			c0,0.41,0.161,0.679,0.483,0.806s0.703,0.186,1.143,0.176s0.898-0.059,1.377-0.146c0.479-0.088,0.864-0.132,1.157-0.132
			c2.637-0.566,4.688-0.801,6.152-0.703s2.451,0.41,2.959,0.938c0.508,0.527,0.586,1.206,0.234,2.036s-1.03,1.704-2.036,2.622
			c-1.006,0.918-2.281,1.812-3.823,2.681c-1.543,0.869-3.252,1.606-5.127,2.212c-0.098,0-0.205-0.073-0.322-0.22
			s-0.239-0.317-0.366-0.513c-0.127-0.195-0.239-0.381-0.337-0.557C135.111,107.004,135.033,106.887,134.975,106.828z"/>
		<path fill="#FFFFFF" d="M153.812,106.828c1.387-0.449,2.681-0.977,3.882-1.582s2.207-1.201,3.018-1.787
			c0.81-0.586,1.357-1.128,1.641-1.626c0.283-0.498,0.205-0.874-0.234-1.128s-1.304-0.337-2.593-0.249s-3.116,0.425-5.479,1.011
			c-0.703-0.02-1.333-0.156-1.89-0.41s-1.03-0.566-1.421-0.938c-0.391-0.371-0.688-0.776-0.894-1.216s-0.308-0.864-0.308-1.274
			c0-0.645,0.22-1.284,0.659-1.919s1.03-1.235,1.772-1.802c0.742-0.566,1.601-1.079,2.578-1.538c0.977-0.459,2.002-0.83,3.076-1.113
			c1.074-0.283,2.172-0.469,3.296-0.557c1.123-0.088,2.202-0.034,3.237,0.161c0.586,0,0.927,0.259,1.025,0.776
			c0.098,0.518,0.146,1.353,0.146,2.505c-0.801-0.371-1.666-0.635-2.593-0.791c-0.928-0.156-1.86-0.215-2.798-0.176
			s-1.846,0.171-2.725,0.396s-1.655,0.537-2.329,0.938s-1.226,0.894-1.655,1.479c-0.43,0.586-0.655,1.25-0.674,1.992
			c0,0.41,0.161,0.679,0.483,0.806s0.703,0.186,1.143,0.176s0.898-0.059,1.377-0.146c0.479-0.088,0.864-0.132,1.157-0.132
			c2.637-0.566,4.688-0.801,6.152-0.703s2.451,0.41,2.959,0.938c0.508,0.527,0.586,1.206,0.234,2.036s-1.03,1.704-2.036,2.622
			c-1.006,0.918-2.281,1.812-3.823,2.681c-1.543,0.869-3.252,1.606-5.127,2.212c-0.098,0-0.205-0.073-0.322-0.22
			s-0.239-0.317-0.366-0.513c-0.127-0.195-0.239-0.381-0.337-0.557C153.949,107.004,153.871,106.887,153.812,106.828z"/>
		<path fill="#FFFFFF" d="M169.223,95.783c-0.312-0.098-0.483-0.249-0.513-0.454s0.029-0.41,0.176-0.615s0.337-0.386,0.571-0.542
			s0.459-0.244,0.674-0.264c0.762,0.098,1.27,0.322,1.523,0.674s0.317,0.674,0.19,0.967c-0.128,0.293-0.425,0.498-0.894,0.615
			S169.906,96.154,169.223,95.783z M170.395,102.785c0-0.371,0.166-0.723,0.498-1.055s0.684-0.498,1.055-0.498
			c0.469,0,0.806,0.137,1.011,0.41s0.303,0.566,0.293,0.879c-0.011,0.312-0.122,0.596-0.337,0.85s-0.527,0.371-0.938,0.352
			c-0.156,0-0.322-0.015-0.498-0.044s-0.348-0.078-0.513-0.146c-0.166-0.068-0.304-0.166-0.41-0.293
			C170.448,103.112,170.395,102.961,170.395,102.785z"/>
		<path fill="#FFFFFF" d="M190.258,84.064c0.078,0,0.244,0,0.498,0s0.513,0.024,0.776,0.073s0.508,0.132,0.732,0.249
			c0.224,0.117,0.366,0.293,0.425,0.527c0.527-0.176,1.211-0.342,2.051-0.498s1.768-0.269,2.783-0.337s2.084-0.088,3.208-0.059
			c1.123,0.029,2.231,0.137,3.325,0.322s2.134,0.464,3.12,0.835c0.985,0.371,1.855,0.859,2.607,1.465
			c0.751,0.605,1.348,1.338,1.787,2.197s0.659,1.885,0.659,3.076c0.098,1.074-0.073,2.134-0.513,3.179s-1.069,2.056-1.89,3.032
			s-1.787,1.904-2.9,2.783s-2.29,1.68-3.53,2.402c-1.241,0.723-2.51,1.362-3.809,1.919c-1.3,0.557-2.534,0.996-3.706,1.318
			s-2.252,0.522-3.237,0.601c-0.986,0.078-1.782,0-2.388-0.234V84.064z M209.77,92.209c-0.137-1.191-0.537-2.183-1.201-2.974
			s-1.484-1.416-2.461-1.875s-2.056-0.771-3.237-0.938c-1.183-0.166-2.358-0.229-3.53-0.19s-2.285,0.161-3.34,0.366
			s-1.943,0.454-2.666,0.747v17.461c0.801,0,1.762-0.166,2.886-0.498c1.123-0.332,2.295-0.791,3.516-1.377
			c1.22-0.586,2.432-1.284,3.633-2.095s2.274-1.68,3.223-2.607c0.947-0.928,1.714-1.904,2.3-2.93S209.77,93.244,209.77,92.209z"/>
		<path fill="#FFFFFF" d="M215.072,100.471c0-1.602,0.352-2.974,1.055-4.116s1.592-2.095,2.666-2.856s2.246-1.343,3.516-1.743
			s2.48-0.659,3.633-0.776c1.113-0.059,2.158,0.083,3.135,0.425s1.816,0.825,2.52,1.45s1.245,1.367,1.626,2.227
			s0.522,1.768,0.425,2.725c0,1.602-0.318,3.003-0.952,4.204c-0.635,1.201-1.479,2.207-2.534,3.018s-2.281,1.416-3.677,1.816
			c-1.396,0.4-2.856,0.601-4.38,0.601c-2.305,0-4.053-0.537-5.244-1.611S215.072,102.971,215.072,100.471z M217.592,101.35
			c0,0.82,0.103,1.475,0.308,1.963s0.508,0.854,0.908,1.099c0.399,0.244,0.889,0.405,1.465,0.483
			c0.575,0.078,1.245,0.117,2.007,0.117c1.172,0,2.305-0.112,3.398-0.337s2.061-0.605,2.9-1.143s1.514-1.25,2.021-2.139
			s0.762-1.997,0.762-3.325c0-0.684-0.098-1.333-0.293-1.948s-0.488-1.152-0.879-1.611s-0.869-0.825-1.436-1.099
			S227.543,93,226.82,93c-0.957,0.156-1.914,0.337-2.871,0.542s-1.855,0.576-2.695,1.113s-1.582,1.328-2.227,2.373
			S217.904,99.514,217.592,101.35z"/>
		<path fill="#FFFFFF" d="M245.893,120.627c0.762-0.02,1.392-0.146,1.89-0.381s0.897-0.552,1.201-0.952
			c0.303-0.4,0.517-0.864,0.645-1.392c0.127-0.527,0.181-1.104,0.161-1.729c-0.02-0.371-0.025-0.938-0.015-1.699
			c0.01-0.762,0.024-1.621,0.044-2.578s0.039-1.958,0.059-3.003s0.039-2.046,0.059-3.003s0.029-1.812,0.029-2.563
			s-0.01-1.323-0.029-1.714c-0.703,0.645-1.494,1.313-2.373,2.007s-1.836,1.313-2.871,1.86s-2.148,0.981-3.34,1.304
			s-2.461,0.435-3.809,0.337c-0.723,0-1.309-0.176-1.758-0.527s-0.674-0.898-0.674-1.641c0.039-0.84,0.238-1.753,0.601-2.739
			c0.361-0.986,0.839-1.973,1.436-2.959c0.596-0.986,1.284-1.943,2.065-2.871s1.615-1.743,2.505-2.446
			c0.889-0.703,1.806-1.265,2.754-1.685c0.947-0.42,1.885-0.63,2.812-0.63c0.927,0,1.816,0.259,2.666,0.776s1.616,1.353,2.3,2.505
			c0.273,3.945,0.449,7.363,0.527,10.254s0.068,5.356-0.029,7.397s-0.278,3.706-0.542,4.995s-0.601,2.314-1.011,3.076
			s-0.894,1.309-1.45,1.641s-1.183,0.552-1.875,0.659c-0.693,0.107-1.45,0.161-2.271,0.161s-1.689,0.039-2.607,0.117
			c-0.332,0-0.801,0-1.406,0s-1.216-0.063-1.831-0.19s-1.147-0.342-1.597-0.645s-0.674-0.747-0.674-1.333L245.893,120.627z
			 M247.152,94.143c-0.762,0-1.553,0.225-2.373,0.674s-1.616,1.016-2.388,1.699c-0.772,0.684-1.479,1.445-2.124,2.285
			s-1.172,1.655-1.582,2.446s-0.674,1.504-0.791,2.139s-0.02,1.089,0.293,1.362c0.293,0.176,0.781,0.2,1.465,0.073
			s1.445-0.366,2.285-0.718s1.709-0.811,2.607-1.377s1.719-1.191,2.461-1.875s1.352-1.416,1.831-2.197
			c0.479-0.781,0.718-1.572,0.718-2.373c0-0.293-0.073-0.571-0.22-0.835s-0.333-0.493-0.557-0.688
			c-0.225-0.195-0.479-0.347-0.762-0.454C247.733,94.196,247.445,94.143,247.152,94.143z"/>
	</g>
</g>
<rect x="9.407" y="13.388" fill="none" stroke="#FFFFFF" width="313.186" height="423.225"/>
</svg>
