<?xml version="1.0" encoding="utf-8"?>
<!-- Generator: Adobe Illustrator 16.0.4, SVG Export Plug-In . SVG Version: 6.00 Build 0)  -->
<!DOCTYPE svg PUBLIC "-//W3C//DTD SVG 1.1//EN" "http://www.w3.org/Graphics/SVG/1.1/DTD/svg11.dtd">
<svg version="1.1" id="Layer_1" xmlns="http://www.w3.org/2000/svg" xmlns:xlink="http://www.w3.org/1999/xlink" x="0px" y="0px"
	 width="402px" height="402px" viewBox="-10 -10 402 402" enable-background="new -10 -10 402 402" xml:space="preserve">
<g>
	<path fill="none" d="M279.817,102.483l-0.052,0.051c-7.538-7.538-16.227-14.237-25.962-19.89s-19.89-9.735-30.254-12.562
		c-10.361-2.722-21.251-4.187-32.452-4.187s-22.088,1.465-32.452,4.187c-10.364,2.827-20.518,6.91-30.253,12.562
		c-9.699,5.631-18.358,12.304-25.875,19.806l0.018,0.084c-7.538,7.537-14.237,16.226-19.89,25.961s-9.735,19.89-12.562,30.254
		l-0.028,0.009c-2.703,10.331-4.159,21.178-4.159,32.338c0,11.201,1.465,22.089,4.187,32.452
		c2.827,10.364,6.91,20.521,12.562,30.254s12.353,18.424,19.89,25.962c7.537,7.537,16.226,14.237,25.961,19.89
		c9.736,5.653,19.89,9.735,30.254,12.562l-0.007,0.024c10.334,2.706,21.188,4.162,32.354,4.162c11.201,0,22.089-1.462,32.452-4.187
		c10.364-2.827,20.521-6.909,30.254-12.562c9.735-5.652,18.424-12.353,25.962-19.89c7.537-7.538,14.237-16.227,19.89-25.962
		c5.653-9.735,9.735-19.89,12.562-30.254c2.723-10.361,4.293-21.251,4.293-32.452s-1.465-22.088-4.293-32.452
		c-2.827-10.364-6.909-20.518-12.562-30.253C294.016,118.678,287.331,110.008,279.817,102.483z"/>
	<path fill="#FEFE33" d="M191.098,65.895c11.201,0,22.089,1.465,32.452,4.187l19.321-71.961l-0.06-0.166
		c-16.436-4.502-33.812-6.805-51.714-6.805s-35.174,2.407-51.714,6.805l19.262,72.127C169.009,67.36,179.896,65.895,191.098,65.895z
		"/>
	<path fill="#8601AF" d="M223.55,312.218c-10.361,2.725-21.251,4.187-32.452,4.187c-11.167,0-22.02-1.456-32.354-4.162
		l-19.312,71.925l0.057,0.179c16.436,4.501,33.813,6.805,51.714,6.805c17.901,0,35.173-2.408,51.713-6.805l0.045-0.15
		c-0.049,0.016-0.102,0.029-0.15,0.043L223.55,312.218z"/>
	<path fill="#66B032" d="M70.054,158.759l0.028-0.009c2.827-10.364,6.91-20.519,12.562-30.254s12.353-18.424,19.89-25.961
		l-0.018-0.084c-0.028,0.028-0.059,0.056-0.087,0.084L49.669,49.669C37.63,61.812,26.952,75.63,17.95,91.124
		c-8.898,15.598-15.599,31.719-19.995,48.26l0.114,0.135l72.013,19.127C70.072,158.683,70.063,158.722,70.054,158.759z"/>
	<path fill="#D0EA2B" d="M102.517,102.451c7.518-7.502,16.176-14.175,25.875-19.806c9.735-5.653,19.89-9.735,30.253-12.562
		L139.384-2.045c-16.541,4.396-32.767,10.992-48.26,19.995C75.63,26.848,61.812,37.63,49.669,49.669l52.761,52.866
		C102.458,102.507,102.488,102.479,102.517,102.451z"/>
	<path fill="#FE2712" d="M299.655,253.804c-5.652,9.735-12.353,18.424-19.89,25.962l52.761,52.761
		c-0.028,0.026-0.061,0.057-0.088,0.086l0.192,0.019c12.038-12.144,22.717-25.961,31.72-41.454
		c8.897-15.599,15.598-31.72,19.997-48.261l-0.207-0.264l-71.923-19.103C309.391,233.914,305.309,244.068,299.655,253.804z"/>
	<path fill="#A7194B" d="M279.766,279.766c-7.538,7.537-16.227,14.237-25.962,19.89c-9.735,5.653-19.89,9.735-30.254,12.562
		l19.262,72.022c0.051-0.014,0.101-0.027,0.151-0.043c16.488-4.394,32.663-11.08,48.107-19.951
		c15.46-8.876,29.349-19.631,41.37-31.634c0.028-0.029,0.06-0.06,0.088-0.086L279.766,279.766z"/>
	<path fill="#0247FE" d="M82.645,253.804c-5.653-9.735-9.735-19.89-12.562-30.254l-72.1,19.359
		c4.397,16.507,11.086,32.699,19.968,48.161c8.898,15.495,19.681,29.417,31.719,41.456l0.127-0.022l52.739-52.738
		C94.997,272.228,88.297,263.539,82.645,253.804z"/>
	<path fill="#0392CE" d="M65.895,191.098c0-11.16,1.456-22.008,4.159-32.338c0.009-0.038,0.018-0.076,0.028-0.114l-72.013-19.127
		l-0.114-0.03c-4.502,16.436-6.805,33.813-6.805,51.714c0,17.901,2.407,35.173,6.805,51.713l0.027-0.01l72.1-19.356
		C67.36,213.187,65.895,202.299,65.895,191.098z"/>
	<path fill="#FB9902" d="M299.655,128.392c5.653,9.735,9.735,19.89,12.562,30.253l72.002-19.333
		c-4.396-16.516-10.984-32.717-19.974-48.188c-8.887-15.472-19.651-29.375-31.668-41.402l-52.761,52.761
		C287.331,110.008,294.016,118.678,299.655,128.392z"/>
	<path fill="#FD5308" d="M391.15,190.993c0-17.901-2.408-35.174-6.805-51.714l-0.126,0.034l-72.002,19.333
		c2.826,10.364,4.293,21.251,4.293,32.452s-1.57,22.089-4.293,32.452l71.921,19.103l0.207,0.056
		C388.847,226.271,391.15,208.894,391.15,190.993z"/>
	<path fill="#3D01A4" d="M158.75,312.218c-10.364-2.827-20.519-6.909-30.254-12.562c-9.736-5.652-18.424-12.353-25.961-19.89
		l-52.739,52.738l-0.127,0.127c12.144,12.038,25.961,22.717,41.455,31.72c15.598,8.897,31.719,15.598,48.26,19.997l0.047-0.178
		l19.312-71.926L158.75,312.218z"/>
	<path fill="#FABC02" d="M253.804,82.645c9.735,5.653,18.424,12.353,25.962,19.89l0.052-0.051l52.761-52.761l0.053-0.053
		C320.487,37.63,306.67,26.952,291.177,17.95c-15.599-8.898-31.72-15.599-48.261-19.995l-0.045,0.166L223.55,70.082
		C233.914,72.909,244.068,76.992,253.804,82.645z"/>
</g>
<g>
	<g>
		
			<line fill="none" stroke="#000000" stroke-width="2" stroke-linecap="round" stroke-miterlimit="10" x1="191.294" y1="191.145" x2="66.963" y2="265.162"/>
		<g>
			<path d="M76.576,271.023l-8.188-6.711l-1.998-10.398c-1.891,5.764-6.303,12.771-10.283,17.709
				C62.342,270.477,70.605,269.935,76.576,271.023z"/>
		</g>
	</g>
</g>
<g>
	<g>
		
			<line fill="none" stroke="#000000" stroke-width="2" stroke-linecap="round" stroke-miterlimit="10" x1="191.366" y1="191.037" x2="117.991" y2="315.748"/>
		<g>
			<path d="M129.238,316.264l-10.406-1.944l-6.755-8.152c1.116,5.961,0.621,14.229-0.493,20.471
				C116.499,322.632,123.48,318.181,129.238,316.264z"/>
		</g>
	</g>
</g>
<g>
	<g>
		
			<line fill="none" stroke="#000000" stroke-width="2" stroke-linecap="round" stroke-miterlimit="10" x1="191.106" y1="190.543" x2="46.416" y2="191.521"/>
		<g>
			<path d="M51.741,201.44l-3.668-9.932l3.534-9.98c-4.546,4.017-11.896,7.83-17.827,10.076
				C39.741,193.77,47.143,197.482,51.741,201.44z"/>
		</g>
	</g>
</g>
</svg>
