<?xml version="1.0" encoding="utf-8"?>
<!-- Generator: Adobe Illustrator 16.0.4, SVG Export Plug-In . SVG Version: 6.00 Build 0)  -->
<!DOCTYPE svg PUBLIC "-//W3C//DTD SVG 1.1//EN" "http://www.w3.org/Graphics/SVG/1.1/DTD/svg11.dtd">
<svg version="1.1" id="Layer_1" xmlns="http://www.w3.org/2000/svg" xmlns:xlink="http://www.w3.org/1999/xlink" x="0px" y="0px"
	 width="500px" height="425.62px" viewBox="230 44.44 500 425.62" enable-background="new 230 44.44 500 425.62"
	 xml:space="preserve">
<g id="advanced_x5F_tips_x5F_rewritinghistory_x5F_4">
	<path fill="none" stroke="#CCCCCC" stroke-width="4" stroke-linecap="round" stroke-linejoin="round" stroke-miterlimit="10" d="
		M407.214,230.236h47.553 M334.386,265.622c0,19.534-15.851,35.387-35.386,35.387 M334.386,265.622
		c0-19.535,15.851-35.386,35.386-35.386h37.442"/>
	<path fill="none" stroke="#404040" stroke-width="4" stroke-miterlimit="10" d="M543.618,265.622
		c0,19.534-15.853,35.387-35.387,35.387 M543.618,265.622c0-19.535,15.851-35.386,35.386-35.386h37.442"/>
	<circle fill="#4ED1A1" stroke="#404040" stroke-width="4" stroke-miterlimit="10" cx="616.359" cy="230.236" r="18.164"/>
	<path fill="none" stroke="#404040" stroke-width="4" stroke-miterlimit="10" d="M253.247,300.921h254.984"/>
	<path fill="#FFFFFF" stroke="#404040" stroke-width="4" stroke-miterlimit="10" d="M271.411,300.921
		c0,10.025-8.14,18.165-18.164,18.165c-10.025,0-18.164-8.14-18.164-18.165c0-10.022,8.139-18.163,18.164-18.163
		C263.271,282.843,271.411,290.982,271.411,300.921z M425.378,300.921c0,10.025-8.14,18.165-18.164,18.165
		c-10.024,0-18.165-8.14-18.165-18.165c0-10.022,8.141-18.163,18.165-18.163C417.239,282.843,425.378,290.982,425.378,300.921z
		 M491.096,300.921c0,10.025-8.14,18.165-18.164,18.165s-18.164-8.14-18.164-18.165c0-10.022,8.14-18.163,18.164-18.163
		C482.956,282.843,491.096,290.982,491.096,300.921z"/>
	
		<path fill="#FFFFFF" stroke="#CCCCCC" stroke-width="4" stroke-linecap="round" stroke-linejoin="round" stroke-miterlimit="10" d="
		M491.096,230.236c0,10.024-8.14,18.164-18.164,18.164s-18.164-8.14-18.164-18.164s8.14-18.164,18.164-18.164
		S491.096,220.212,491.096,230.236z"/>
	
		<circle fill="#FFFFFF" stroke="#CCCCCC" stroke-width="4" stroke-linecap="round" stroke-linejoin="round" stroke-miterlimit="10" cx="407.214" cy="230.236" r="18.164"/>
	<path fill="#4ED1A1" stroke="#404040" stroke-width="4" stroke-miterlimit="10" d="M700.241,230.236
		c0,10.024-8.14,18.164-18.164,18.164s-18.164-8.14-18.164-18.164s8.14-18.164,18.164-18.164S700.241,220.212,700.241,230.236z"/>
	
		<path fill="#FFFFFF" stroke="#CCCCCC" stroke-width="4" stroke-linecap="round" stroke-linejoin="round" stroke-miterlimit="10" d="
		M430.091,110.198h85.68v42.84h-85.68V110.198z"/>
	<path fill="#404040" d="M449.969,136.759v-9.082h5.569v1.199h-4.284v2.913h3.855v1.2h-3.855v3.855h-1.286V136.759z
		 M462.479,135.046c-0.343,1.113-1.37,1.97-2.743,1.97c-1.626,0-3.083-1.199-3.083-3.341c0-1.971,1.371-3.257,2.998-3.257
		c1.885,0,2.999,1.286,2.999,3.257v0.342h-4.626c0,1.114,0.857,1.886,1.885,1.886c1.027,0,1.542-0.515,1.714-1.286L462.479,135.046z
		 M461.279,133.075c0-0.857-0.599-1.543-1.714-1.543c-1.027,0-1.627,0.771-1.714,1.543H461.279z M466.162,133.246l1.714-0.257
		c0.343-0.086,0.514-0.258,0.514-0.429c0-0.6-0.428-1.113-1.371-1.113c-0.857,0-1.286,0.514-1.371,1.284l-1.2-0.257
		c0.173-1.199,1.2-1.971,2.571-1.971c1.884,0,2.57,1.028,2.57,2.228v3.085c0,0.514,0.085,0.856,0.085,1.028h-1.199
		c0-0.172-0.086-0.429-0.086-0.856c-0.256,0.428-0.856,1.027-1.97,1.027c-1.285,0-2.057-0.856-2.057-1.885
		C464.363,134.017,465.135,133.417,466.162,133.246L466.162,133.246z M468.304,134.103v-0.257l-1.884,0.257
		c-0.515,0.086-0.942,0.343-0.942,0.943c0,0.428,0.427,0.856,1.027,0.856C467.534,135.988,468.304,135.474,468.304,134.103z
		 M473.704,130.59h1.369v1.114h-1.369v3.256c0,0.6,0.255,0.856,0.855,0.856c0.172,0,0.342,0,0.514-0.086v1.028
		c-0.085,0-0.427,0.086-0.855,0.086c-1.03,0-1.714-0.686-1.714-1.799v-3.428h-1.2v-1.114h0.343c0.686,0,0.942-0.428,0.942-0.942
		v-1.028h1.115V130.59z M479.529,136.931c-1.456,0-2.314-1.114-2.314-2.485v-3.855h1.199v3.684c0,0.857,0.343,1.629,1.372,1.629
		c0.941,0,1.457-0.686,1.457-1.543v-3.77h1.199v5.055c0,0.515,0,0.942,0.086,1.114h-1.114c0-0.172-0.086-0.514-0.086-0.771
		C480.986,136.673,480.214,136.931,479.529,136.931z M488.611,131.789h-0.514c-1.029,0-1.715,0.514-1.715,1.886v3.084h-1.199v-6.169
		h1.199v1.114c0.43-0.943,1.199-1.2,1.886-1.2h0.428v1.285H488.611z M495.893,135.046c-0.341,1.113-1.369,1.97-2.741,1.97
		c-1.628,0-3.084-1.199-3.084-3.341c0-1.971,1.37-3.257,2.914-3.257c1.884,0,2.999,1.286,2.999,3.257v0.342h-4.628
		c0,1.114,0.856,1.886,1.885,1.886s1.543-0.515,1.715-1.286L495.893,135.046z M494.693,133.075c0-0.857-0.599-1.543-1.712-1.543
		c-1.03,0-1.629,0.771-1.714,1.543H494.693z"/>
	<path fill="none" stroke="#404040" stroke-width="4" stroke-linecap="round" stroke-linejoin="round" stroke-miterlimit="10" d="
		M472.932,192.28v-20.136 M482.271,184.825l-9.339,9.34l-9.339-9.34"/>
	
		<path fill="#4ED1A1" stroke="#404040" stroke-width="4" stroke-linecap="round" stroke-linejoin="round" stroke-miterlimit="10" d="
		M639.236,110.198h85.681v42.84h-85.681V110.198z"/>
	<path fill="#404040" d="M659.115,136.759v-9.082h5.568v1.199h-4.284v2.913h3.856v1.2h-3.856v3.855h-1.284V136.759z
		 M671.624,135.046c-0.343,1.113-1.371,1.97-2.741,1.97c-1.628,0-3.085-1.199-3.085-3.341c0-1.971,1.37-3.257,2.914-3.257
		c1.884,0,2.997,1.286,2.997,3.257v0.342h-4.626c0,1.114,0.856,1.886,1.886,1.886c1.027,0,1.541-0.515,1.712-1.286L671.624,135.046z
		 M670.424,133.075c0-0.857-0.6-1.543-1.712-1.543c-1.028,0-1.629,0.771-1.715,1.543H670.424z M675.394,133.246l1.714-0.257
		c0.344-0.086,0.514-0.258,0.514-0.429c0-0.6-0.428-1.113-1.37-1.113c-0.857,0-1.285,0.514-1.372,1.284l-1.199-0.257
		c0.172-1.199,1.199-1.971,2.571-1.971c1.885,0,2.569,1.028,2.569,2.228v3.085c0,0.514,0.086,0.856,0.086,1.028h-1.198
		c0-0.172-0.087-0.429-0.087-0.856c-0.257,0.428-0.856,1.027-1.971,1.027c-1.285,0-2.056-0.856-2.056-1.885
		C673.509,134.017,674.28,133.417,675.394,133.246L675.394,133.246z M677.536,134.103v-0.257l-1.886,0.257
		c-0.514,0.086-0.856,0.343-0.856,0.943c0,0.428,0.429,0.856,1.028,0.856C676.68,135.988,677.536,135.474,677.536,134.103z
		 M682.848,130.59h1.371v1.114h-1.371v3.256c0,0.6,0.257,0.856,0.857,0.856c0.171,0,0.342,0,0.514-0.086v1.028
		c-0.086,0-0.429,0.086-0.857,0.086c-1.027,0-1.713-0.686-1.713-1.799v-3.428h-1.199v-1.114h0.343c0.686,0,0.942-0.428,0.942-0.942
		v-1.028h1.113V130.59L682.848,130.59z M688.675,136.931c-1.456,0-2.314-1.114-2.314-2.485v-3.855h1.2v3.684
		c0,0.857,0.428,1.629,1.371,1.629c0.941,0,1.457-0.686,1.457-1.543v-3.77h1.199v5.055c0,0.515,0,0.942,0.086,1.114h-1.114
		c0-0.172-0.086-0.514-0.086-0.771C690.217,136.673,689.445,136.931,688.675,136.931L688.675,136.931z M697.756,131.789h-0.514
		c-1.027,0-1.713,0.514-1.713,1.886v3.084h-1.2v-6.169h1.2v1.114c0.429-0.943,1.199-1.2,1.885-1.2h0.428v1.285H697.756z
		 M705.039,135.046c-0.342,1.113-1.37,1.97-2.742,1.97c-1.627,0-3.084-1.199-3.084-3.341c0-1.971,1.371-3.257,2.999-3.257
		c1.886,0,2.999,1.286,2.999,3.257v0.342h-4.627c0,1.114,0.856,1.886,1.885,1.886s1.542-0.515,1.714-1.286L705.039,135.046z
		 M703.839,133.075c0-0.857-0.599-1.543-1.714-1.543c-1.027,0-1.627,0.771-1.712,1.543H703.839z"/>
	<path fill="none" stroke="#404040" stroke-width="4" stroke-linecap="round" stroke-linejoin="round" stroke-miterlimit="10" d="
		M682.077,192.28v-20.136 M691.417,184.825l-9.34,9.34l-9.254-9.34"/>
	<path fill="none" stroke="#404040" stroke-width="4" stroke-miterlimit="10" d="M634.523,230.236h29.476"/>
	<path fill="#B3E3FF" stroke="#404040" stroke-width="4" stroke-linejoin="round" stroke-miterlimit="10" d="M428.378,379.233h85.68
		v42.841h-85.68V379.233z"/>
	<path fill="#404040" d="M458.623,405.795v-7.112l-3.085,7.112h-1.2l-3.084-7.112v7.112h-1.2v-9.083h1.714l3.256,7.455l3.255-7.455
		h1.713v9.083H458.623L458.623,405.795z M464.106,402.282l1.713-0.258c0.342-0.086,0.514-0.257,0.514-0.429
		c0-0.599-0.428-1.112-1.369-1.112c-0.858,0-1.287,0.514-1.372,1.284l-1.2-0.257c0.171-1.199,1.2-1.971,2.572-1.971
		c1.884,0,2.569,1.028,2.569,2.228v3.085c0,0.514,0.085,0.856,0.085,1.027h-1.199c0-0.171-0.086-0.428-0.086-0.855
		c-0.257,0.428-0.855,1.027-1.97,1.027c-1.286,0-2.056-0.856-2.056-1.885C462.307,403.053,463.078,402.454,464.106,402.282
		L464.106,402.282z M466.249,403.139v-0.258l-1.885,0.258c-0.514,0.086-0.857,0.343-0.857,0.942c0,0.429,0.428,0.856,1.027,0.856
		C465.478,405.024,466.249,404.51,466.249,403.139z M470.532,403.824c0.086,0.686,0.6,1.113,1.457,1.113
		c0.685,0,1.028-0.342,1.028-0.856c0-0.342-0.257-0.686-0.771-0.771l-1.028-0.258c-0.942-0.172-1.543-0.857-1.543-1.714
		c0-1.027,1.028-1.97,2.229-1.97c1.713,0,2.229,1.114,2.314,1.628l-1.03,0.427c-0.085-0.342-0.341-1.027-1.284-1.027
		c-0.6,0-1.028,0.429-1.028,0.857c0,0.342,0.257,0.685,0.685,0.771l1.029,0.258c1.115,0.257,1.713,0.942,1.713,1.799
		s-0.771,1.885-2.227,1.885c-1.714,0-2.4-1.113-2.486-1.799L470.532,403.824L470.532,403.824z M478.073,399.626h1.37v1.114h-1.37
		v3.256c0,0.6,0.256,0.856,0.857,0.856c0.17,0,0.341,0,0.513-0.085v1.027c-0.086,0-0.428,0.085-0.856,0.085
		c-1.03,0-1.714-0.685-1.714-1.799v-3.427h-1.2v-1.114h0.343c0.686,0,0.942-0.429,0.942-0.942v-1.028h1.115V399.626L478.073,399.626
		z M486.983,404.081c-0.344,1.114-1.371,1.971-2.743,1.971c-1.627,0-3.084-1.199-3.084-3.341c0-1.971,1.372-3.256,2.999-3.256
		c1.886,0,2.998,1.285,2.998,3.256v0.342h-4.625c0,1.114,0.856,1.885,1.884,1.885c1.028,0,1.542-0.514,1.714-1.285L486.983,404.081z
		 M485.784,402.11c0-0.856-0.601-1.542-1.715-1.542c-1.027,0-1.627,0.771-1.714,1.542H485.784z M492.638,400.825h-0.514
		c-1.028,0-1.714,0.514-1.714,1.886v3.084h-1.2v-6.169h1.2v1.114c0.429-0.942,1.2-1.2,1.885-1.2h0.429v1.285H492.638z"/>
	<path fill="none" stroke="#404040" stroke-width="4" stroke-linecap="round" stroke-linejoin="round" stroke-miterlimit="10" d="
		M471.218,339.393v20.135 M461.879,346.847l9.339-9.34l9.338,9.34"/>
	
		<path fill="#FFFFFF" stroke="#404040" stroke-width="4" stroke-linecap="round" stroke-linejoin="round" stroke-miterlimit="10" d="
		M610.79,230.236h11.14 M612.419,226.295l7.882,7.883 M620.301,226.295l-7.882,7.883 M616.359,224.667v11.139 M676.508,230.236
		h11.139 M678.136,226.295l7.883,7.883 M686.019,226.295l-7.883,7.883 M682.077,224.667v11.139"/>
	<path fill="none" stroke="#404040" stroke-width="4" stroke-linecap="round" stroke-linejoin="round" stroke-miterlimit="10" d="
		M649.262,83.209h13.195V70.1 M497.521,80.467c21.334-19.792,49.779-31.873,81.139-31.873c31.274,0,59.72,11.995,80.969,31.701"/>
	<path fill="#404040" d="M430.605,455.881c1.714,0,2.743,1.028,2.743,2.485c0,0.942-0.6,1.713-1.371,1.971
		c1.028,0.257,1.628,1.199,1.628,2.228c0,1.455-1.115,2.484-2.828,2.484h-3.17v-9.082h2.999V455.881z M430.52,459.908
		c1.028,0,1.628-0.6,1.628-1.457c0-0.856-0.6-1.456-1.713-1.456h-1.542v2.913H430.52z M430.691,463.935
		c1.029,0,1.713-0.6,1.713-1.456s-0.514-1.457-1.628-1.457h-1.798v2.913H430.691z M439.259,460.079h-0.514
		c-1.028,0-1.714,0.515-1.714,1.885v3.085h-1.198v-6.169h1.198v1.113c0.429-0.943,1.2-1.198,1.885-1.198h0.429v1.284H439.259z
		 M442.686,461.536l1.714-0.257c0.342-0.086,0.514-0.258,0.514-0.429c0-0.601-0.429-1.114-1.371-1.114
		c-0.857,0-1.286,0.514-1.372,1.285l-1.199-0.257c0.171-1.199,1.199-1.97,2.571-1.97c1.885,0,2.57,1.027,2.57,2.227v3.085
		c0,0.514,0.085,0.856,0.085,1.028h-1.285c0-0.172-0.085-0.429-0.085-0.856c-0.257,0.428-0.857,1.027-1.971,1.027
		c-1.285,0-2.057-0.857-2.057-1.885C440.801,462.308,441.658,461.622,442.686,461.536z M444.829,462.393v-0.257l-1.885,0.257
		c-0.514,0.086-0.943,0.343-0.943,0.942c0,0.428,0.429,0.856,1.028,0.856C444.057,464.191,444.829,463.763,444.829,462.393z
		 M449.798,465.049h-1.2v-6.169h1.2v0.856c0.428-0.771,1.199-1.028,1.885-1.028c1.457,0,2.227,1.028,2.227,2.485v3.941h-1.286
		v-3.685c0-0.856-0.342-1.542-1.456-1.542c-0.942,0-1.457,0.771-1.457,1.714v3.427H449.798z M460.765,464.106
		c-0.258,0.6-0.942,1.113-1.885,1.113c-1.799,0-2.914-1.457-2.914-3.256c0-1.714,1.2-3.256,2.914-3.256
		c1.113,0,1.715,0.514,1.885,1.028v-4.027h1.199v8.14c0,0.6,0.086,1.028,0.086,1.114h-1.2
		C460.85,464.792,460.765,464.535,460.765,464.106z M458.966,464.106c1.113,0,1.799-0.942,1.799-2.228s-0.687-2.143-1.799-2.143
		c-1.115,0-1.8,0.857-1.8,2.143S457.851,464.106,458.966,464.106z M474.816,465.049l-4.883-7.454v7.454h-1.285v-9.082h1.714
		l4.54,7.025v-7.025h1.285v9.082H474.816L474.816,465.049z M484.327,463.249c-0.344,1.114-1.371,1.971-2.742,1.971
		c-1.628,0-3.085-1.2-3.085-3.341c0-1.971,1.372-3.256,3-3.256c1.885,0,2.998,1.285,2.998,3.256v0.343h-4.627
		c0,1.113,0.856,1.885,1.886,1.885c1.027,0,1.543-0.515,1.713-1.285L484.327,463.249z M483.127,461.279
		c0-0.857-0.599-1.543-1.713-1.543c-1.028,0-1.628,0.771-1.715,1.543H483.127z M491.182,458.88l1.627,4.626l1.371-4.626h1.286
		l-1.971,6.169h-1.286l-1.627-4.712l-1.629,4.712h-1.284l-2.057-6.169h1.285l1.371,4.626l1.627-4.626H491.182z M500.69,460.508
		c0-3.084,2.229-4.712,4.543-4.712c2.056,0,3.513,1.113,4.026,2.912l-1.199,0.429c-0.343-1.371-1.371-2.142-2.827-2.142
		c-1.629,0-3.257,1.199-3.257,3.599c0,2.398,1.543,3.598,3.257,3.598c1.541,0,2.569-0.942,2.912-2.141l1.114,0.428
		c-0.514,1.713-1.886,2.913-4.026,2.913C502.919,465.22,500.69,463.506,500.69,460.508L500.69,460.508z M517.057,461.965
		c0,1.885-1.285,3.255-3.17,3.255s-3.171-1.37-3.171-3.255c0-1.886,1.286-3.257,3.171-3.257
		C515.687,458.623,517.057,460.079,517.057,461.965z M515.771,461.965c0-1.457-0.857-2.229-1.885-2.229
		c-1.028,0-1.885,0.771-1.885,2.229c0,1.456,0.856,2.227,1.885,2.227C514.914,464.191,515.771,463.335,515.771,461.965z
		 M519.199,465.049v-6.169h1.113v0.856c0.429-0.685,1.199-1.028,1.886-1.028c0.771,0,1.541,0.344,1.884,1.2
		c0.514-0.856,1.285-1.2,2.058-1.2c1.113,0,2.142,0.771,2.142,2.313v4.027h-1.2v-3.855c0-0.771-0.428-1.371-1.285-1.371
		c-0.856,0-1.456,0.686-1.456,1.543v3.77h-1.199v-3.855c0-0.771-0.344-1.371-1.286-1.371c-0.856,0-1.456,0.686-1.456,1.542v3.685
		h-1.199V465.049z M530.852,465.049v-6.169h1.198v0.856c0.429-0.685,1.115-1.028,1.886-1.028c0.771,0,1.542,0.344,1.885,1.2
		c0.514-0.856,1.286-1.2,2.058-1.2c1.112,0,2.141,0.771,2.141,2.313v4.027h-1.198v-3.855c0-0.771-0.429-1.371-1.286-1.371
		c-0.856,0-1.456,0.686-1.456,1.543v3.77h-1.199v-3.855c0-0.771-0.43-1.371-1.285-1.371c-0.857,0-1.457,0.686-1.457,1.542v3.685
		h-1.285V465.049z M543.104,455.624c0.515,0,0.856,0.343,0.856,0.856c0,0.515-0.429,0.857-0.856,0.857
		c-0.514,0-0.856-0.429-0.856-0.857C542.247,456.053,542.59,455.624,543.104,455.624z M542.503,465.049v-6.169h1.2v6.169H542.503z
		 M547.987,458.88h1.371v1.113h-1.371v3.256c0,0.6,0.257,0.857,0.857,0.857c0.17,0,0.342,0,0.514-0.087v1.029
		c-0.086,0-0.429,0.086-0.857,0.086c-1.027,0-1.714-0.687-1.714-1.8v-3.427h-1.199v-1.113h0.343c0.687,0,0.942-0.429,0.942-0.942
		v-1.028h1.114V458.88L547.987,458.88z M552.186,463.078c0.085,0.685,0.6,1.113,1.457,1.113c0.686,0,1.027-0.343,1.027-0.856
		c0-0.343-0.257-0.685-0.771-0.771l-1.028-0.257c-0.942-0.172-1.541-0.857-1.541-1.714c0-1.028,1.027-1.971,2.227-1.971
		c1.715,0,2.229,1.113,2.313,1.627l-1.028,0.429c-0.087-0.342-0.343-1.028-1.285-1.028c-0.601,0-1.029,0.429-1.029,0.857
		c0,0.343,0.258,0.686,0.687,0.771l1.027,0.257c1.115,0.258,1.714,0.942,1.714,1.799s-0.771,1.885-2.228,1.885
		c-1.714,0-2.397-1.113-2.485-1.799L552.186,463.078L552.186,463.078z"/>
	
		<path fill="#FFFFFF" stroke="#404040" stroke-width="4" stroke-linecap="round" stroke-linejoin="round" stroke-miterlimit="10" d="
		M403.016,460.337h11.139 M404.644,456.396l7.884,7.883 M412.527,456.396l-7.884,7.883 M408.585,454.767v11.139"/>
</g>
</svg>
