<?xml version="1.0" encoding="utf-8"?>
<!-- Generator: Adobe Illustrator 16.0.4, SVG Export Plug-In . SVG Version: 6.00 Build 0)  -->
<!DOCTYPE svg PUBLIC "-//W3C//DTD SVG 1.1//EN" "http://www.w3.org/Graphics/SVG/1.1/DTD/svg11.dtd">
<svg version="1.1" id="Layer_1" xmlns="http://www.w3.org/2000/svg" xmlns:xlink="http://www.w3.org/1999/xlink" x="0px" y="0px"
	 width="333px" height="450px" viewBox="313.5 55 333 450" enable-background="new 313.5 55 333 450" xml:space="preserve">
<rect x="313.5" y="55" fill="#05389E" width="334" height="450"/>
<g>
	<path fill="#FFFFFF" stroke="#FFFFFF" stroke-width="11" d="M428.36,310.576c0,0,1.043,34.548-3.471,44.849
		c-1.109,2.524-5.396,5.803-8.64,6.868c-1.856,0.611-8.719-0.076-10.169,1.231c-0.966,0.872,0,5.208,0,5.208h29.803l2.893-27.199
		l1.736-24.882c0,0,21.702,9.547,43.113,10.416c26.6,1.078,52.083-8.102,52.083-8.102s6.652,28.512,3.471,37.325
		c-0.729,2.021-4.128,5.168-6.075,6.077c-2.354,1.098-9.55,0.577-9.55,0.577s-5.611,0.63-6.654,1.735
		c-1.392,1.478-0.312,4.63-0.312,4.63h9.824h24.873l3.18-41.653l2.604-30.669c0,0,15.657,5.817,21.174,5.774
		c5.238-0.044,16.446-2.483,19.965-6.366c2.089-2.306,3.762-11.863,3.762-11.863s-8.796,5.956-12.153,6.943
		c-4.303,1.267-13.513,0.719-17.94,0c-2.709-0.439-10.415-3.471-10.415-3.471s-6.234-3.331-7.991-3.779
		c-3.435-0.876-20.34-2.03-20.34-2.03s-27.517,0.337-36.482-0.268c-12.172-0.821-46.423-1.917-51.214-8.391
		c-4.123-5.57-7.452-17.038-10.609-22.183c-4.522-7.371-5.242-24.849-12.732-28.742c-3.147-1.635-13.407,1.447-13.407,1.447
		s-3.903,5.833-4.917,6.848c-1.735,1.737-26.233,2.315-28.549,5.208c-2.137,2.669-0.864,11.085,2.314,12.346
		c1.991,0.789,27.62,0.475,27.62,0.475s2.354,30.344,7.294,40.515c2.037,4.194,10.127,14.468,10.127,14.468L428.36,310.576z"/>
	<path fill="#FFFFFF" stroke="#FFFFFF" stroke-width="11" d="M417.42,241.317c0,0,5.598,10.886,8.444,12.821
		c2.047,1.393,7.863,0.977,10.32,0.665c2.094-0.266,6.667-3.63,7.506-5.566c1.516-3.499-2.902-12.567-4.834-15.855
		c-1.498-2.549-3.342-4.504-7.051-7.91c-1.726-1.584-8.757-3.335-8.757-3.335"/>
</g>
<g>
	<g>
		<line fill="none" stroke="#FFFFFF" stroke-width="2" x1="354.334" y1="219" x2="354.334" y2="222"/>
		
			<line fill="none" stroke="#FFFFFF" stroke-width="2" stroke-dasharray="5.9239,5.9239" x1="354.334" y1="227.923" x2="354.334" y2="367.135"/>
		<line fill="none" stroke="#FFFFFF" stroke-width="2" x1="354.334" y1="370.097" x2="354.334" y2="373.097"/>
		<g>
			<rect x="347.834" y="218" fill="#FFFFFF" width="13" height="2"/>
		</g>
		<g>
			<rect x="347.834" y="372.097" fill="#FFFFFF" width="13" height="2"/>
		</g>
	</g>
</g>
<g>
	<g>
		<line fill="none" stroke="#FFFFFF" stroke-width="2" x1="605.834" y1="389.213" x2="602.834" y2="389.213"/>
		
			<line fill="none" stroke="#FFFFFF" stroke-width="2" stroke-dasharray="6.1016,6.1016" x1="596.732" y1="389.213" x2="380.125" y2="389.213"/>
		<line fill="none" stroke="#FFFFFF" stroke-width="2" x1="377.075" y1="389.213" x2="374.075" y2="389.213"/>
		<g>
			<rect x="604.834" y="382.713" fill="#FFFFFF" width="2" height="13"/>
		</g>
		<g>
			<rect x="373.075" y="382.713" fill="#FFFFFF" width="2" height="13"/>
		</g>
	</g>
</g>
<rect x="364.5" y="133" fill="none" width="231" height="43"/>
<text transform="matrix(1 0 0 1 392.4023 162.4141)" fill="#FFFFFF" font-family="'ArchitectsDaughter'" font-size="30">Class: Dog</text>
<rect x="323.407" y="68.388" fill="none" stroke="#FFFFFF" width="313.186" height="423.225"/>
</svg>
