<?xml version="1.0" encoding="utf-8"?>
<!-- Generator: Adobe Illustrator 16.0.4, SVG Export Plug-In . SVG Version: 6.00 Build 0)  -->
<!DOCTYPE svg PUBLIC "-//W3C//DTD SVG 1.1//EN" "http://www.w3.org/Graphics/SVG/1.1/DTD/svg11.dtd">
<svg version="1.1" id="Layer_1" xmlns="http://www.w3.org/2000/svg" xmlns:xlink="http://www.w3.org/1999/xlink" x="0px" y="0px"
	 width="600px" height="276px" viewBox="0 0 600 276" enable-background="new 0 0 600 276" xml:space="preserve">
<g>
	<path fill="#646464" d="M415.05,114.44l51.64,3.24c0.26,0.02,0.52,0.02,0.78,0.02c6.39,0,11.71-5,12.12-11.38
		c0.2-3.24-0.87-6.36-3.02-8.79c-2.14-2.44-5.12-3.88-8.35-4.08l-51.64-3.25c-6.68-0.41-12.47,4.72-12.89,11.37
		C403.26,108.23,408.36,114.01,415.05,114.44z M415.79,97.09l51.99,3.27c1.39,0.08,2.67,0.7,3.59,1.75c0.93,1.05,1.39,2.39,1.3,3.78
		c-0.17,2.75-2.46,4.89-5.21,4.89l-51.98-3.25c-2.88-0.18-5.08-2.67-4.89-5.54C410.77,99.24,413.05,97.09,415.79,97.09z"/>
	<path fill="#646464" d="M600.69,17.28c-0.01-0.48-0.08-0.95-0.2-1.41c-0.04-0.14-0.07-0.29-0.12-0.43c-0.17-0.54-0.4-1.07-0.7-1.55
		c-0.01-0.02-0.03-0.04-0.04-0.06c-0.3-0.46-0.66-0.87-1.05-1.25c-0.11-0.11-0.22-0.2-0.33-0.31c-0.41-0.34-0.85-0.65-1.33-0.89
		c-0.03-0.01-0.06-0.04-0.09-0.06c-0.01,0-0.02,0-0.03-0.01c-0.51-0.25-1.07-0.41-1.65-0.53c-0.16-0.03-0.32-0.04-0.49-0.07
		c-0.2-0.03-0.39-0.08-0.59-0.08L486.09,6.5c-1.28-0.61-2.68-0.97-4.14-1.04l-41.16-2.15l-0.59-0.01c-1.8,0-3.48,0.48-4.98,1.25
		l-6.2-0.23c-1.53-0.07-3,0.38-4.24,1.25l-69.27,48.57c-0.15,0.1-0.26,0.23-0.4,0.34c-0.12,0.11-0.26,0.18-0.38,0.3
		c-0.04,0.03-0.08,0.09-0.12,0.14c-0.19,0.2-0.35,0.39-0.52,0.61c-0.13,0.16-0.25,0.3-0.36,0.46c-0.15,0.22-0.27,0.46-0.39,0.7
		c-0.08,0.17-0.18,0.33-0.26,0.51c-0.1,0.24-0.16,0.5-0.24,0.76c-0.05,0.18-0.11,0.36-0.15,0.55c-0.05,0.28-0.07,0.58-0.09,0.87
		c-0.01,0.14-0.05,0.29-0.05,0.43v139.71c0,3.61,2.78,6.62,6.38,6.9l168.6,13.24c0.17,0.02,0.36,0.02,0.53,0.02h0l0,0
		c0.47,0,0.94-0.06,1.4-0.15c0.14-0.03,0.28-0.08,0.42-0.12c0.31-0.09,0.62-0.18,0.91-0.31c0.16-0.07,0.31-0.15,0.47-0.23
		c0.26-0.14,0.51-0.29,0.76-0.46c0.15-0.11,0.3-0.22,0.43-0.33c0.11-0.08,0.21-0.15,0.32-0.24c0.12-0.11,0.21-0.24,0.31-0.35
		c0.09-0.1,0.19-0.17,0.29-0.28l65.73-78.24c1.05-1.26,1.62-2.82,1.62-4.46V17.55C600.73,17.45,600.7,17.38,600.69,17.28z
		 M492.26,20.59l82.55,3.16l-10.03,7.95l-72.7-4.09L492.26,20.59z M556.6,38.17l-11.45,9.07l-82.48-4.31l0.25-10.03L556.6,38.17z
		 M436.16,14.06c0.11-2.14,1.88-3.83,4.25-3.83h0.01l41.17,2.14c1.08,0.06,2.08,0.53,2.8,1.34c0.72,0.81,1.1,1.84,1.03,3.02
		l-0.22,9.09l-25.33-1.31c-1.87-1.96-4.43-3.25-7.34-3.4l-16.51-0.86L436.16,14.06z M406.74,29.72c0.11-2.15,1.88-3.84,4.24-3.84
		h0.01l41.17,2.13c2.24,0.12,3.96,2.03,3.84,4.36l-0.22,9.09l-49.28-2.56L406.74,29.72z M521.15,205.25L366.41,193.1V67.15
		l154.74,8.97V205.25z M525.85,62.52l-146.08-8.48l11.3-7.93l145.87,7.63L525.85,62.52z M586.88,131.99L535,193.73V72.94
		l51.88-41.07V131.99z"/>
</g>
<path fill="#646464" d="M174.5,36.4C174.5,12.5,133.38,0,92.76,0C52.14,0,11.03,12.5,11.03,36.4c0,0.07,0.01,0.14,0.01,0.21
	c0,0.04-0.01,0.07-0.01,0.11v48.58v48.9v48.89c0,23.9,41.11,36.4,81.73,36.4c40.62,0,81.74-12.5,81.74-36.4v-48.89v-48.9V36.71
	c0-0.04-0.01-0.07-0.01-0.11C174.49,36.53,174.5,36.47,174.5,36.4z M159.03,183.08c0,8.33-26.43,20.93-66.27,20.93
	c-39.83,0-66.26-12.6-66.26-20.93v-26.69c15.64,9.37,41.04,14.2,66.26,14.2s50.63-4.83,66.27-14.2V183.08z M159.03,134.19
	c0,8.33-26.43,20.92-66.27,20.92c-39.83,0-66.26-12.59-66.26-20.92v-26.7c15.64,9.38,41.04,14.2,66.26,14.2s50.63-4.82,66.27-14.2
	V134.19z M159.03,85.29c0,8.33-26.43,20.93-66.27,20.93c-39.83,0-66.26-12.6-66.26-20.93V58.6c15.64,9.37,41.04,14.2,66.26,14.2
	s50.63-4.82,66.27-14.2V85.29z M92.76,57.33c-39.83,0-66.26-12.6-66.26-20.93c0-8.33,26.43-20.93,66.26-20.93
	c39.84,0,66.27,12.6,66.27,20.93C159.03,44.73,132.6,57.33,92.76,57.33z"/>
<g>
	<g>
		<path fill="#E2231A" d="M257.43,94.45V71.83c0-1.64,0.36-2.81,1.08-3.5c0.72-0.7,2-1.05,3.83-1.05c1.83,0,3.11,0.35,3.83,1.05
			c0.72,0.7,1.08,1.87,1.08,3.5v22.62h22.62c1.64,0,2.81,0.36,3.5,1.08c0.7,0.72,1.05,2,1.05,3.83c0,1.83-0.35,3.11-1.05,3.83
			c-0.7,0.72-1.87,1.08-3.5,1.08h-22.62v22.62c0,1.64-0.36,2.81-1.08,3.51s-2,1.05-3.83,1.05c-1.83,0-3.11-0.35-3.83-1.05
			s-1.08-1.87-1.08-3.51v-22.62h-22.62c-1.64,0-2.81-0.36-3.5-1.08c-0.7-0.72-1.05-2-1.05-3.83c0-1.83,0.35-3.11,1.05-3.83
			c0.7-0.72,1.87-1.08,3.5-1.08H257.43z"/>
	</g>
</g>
<g>
	<g>
		<path fill="#E2231A" d="M1.17,247.23h10.68c8.7,0,14.7,5.97,14.7,13.75v0.08c0,7.79-6,13.83-14.7,13.83H1.17V247.23z M6.98,252.52
			v17.1h4.86c5.13,0,8.59-3.46,8.59-8.47v-0.08c0-5.02-3.46-8.55-8.59-8.55H6.98z"/>
		<path fill="#E2231A" d="M30.43,268.82v-0.08c0-4.6,3.53-6.72,8.55-6.72c2.2,0,3.76,0.34,5.28,0.84v-0.38
			c0-2.58-1.6-3.99-4.67-3.99c-2.28,0-3.95,0.46-5.89,1.18l-1.44-4.41c2.32-1.03,4.64-1.71,8.17-1.71c3.23,0,5.58,0.87,7.1,2.36
			c1.56,1.56,2.28,3.88,2.28,6.69v12.31h-5.58v-2.36c-1.44,1.63-3.5,2.77-6.46,2.77C33.77,275.31,30.43,273,30.43,268.82z
			 M44.33,267.41v-1.14c-1.06-0.46-2.47-0.8-4.03-0.8c-2.66,0-4.29,1.1-4.29,3.04v0.08c0,1.71,1.44,2.7,3.46,2.7
			C42.36,271.29,44.33,269.69,44.33,267.41z"/>
		<path fill="#E2231A" d="M56.19,268.93v-10.22h-2.55v-4.94h2.55v-5.47h5.77v5.47h5.09v4.94h-5.09v9.27c0,1.48,0.65,2.17,2.05,2.17
			c1.1,0,2.09-0.27,2.96-0.72v4.63c-1.25,0.72-2.66,1.18-4.64,1.18C58.7,275.24,56.19,273.79,56.19,268.93z"/>
		<path fill="#E2231A" d="M70.59,268.82v-0.08c0-4.6,3.53-6.72,8.55-6.72c2.2,0,3.76,0.34,5.28,0.84v-0.38
			c0-2.58-1.6-3.99-4.67-3.99c-2.28,0-3.95,0.46-5.89,1.18l-1.44-4.41c2.32-1.03,4.64-1.71,8.17-1.71c3.23,0,5.58,0.87,7.1,2.36
			c1.56,1.56,2.28,3.88,2.28,6.69v12.31h-5.59v-2.36c-1.44,1.63-3.5,2.77-6.46,2.77C73.94,275.31,70.59,273,70.59,268.82z
			 M84.5,267.41v-1.14c-1.06-0.46-2.47-0.8-4.03-0.8c-2.66,0-4.29,1.1-4.29,3.04v0.08c0,1.71,1.44,2.7,3.46,2.7
			C82.52,271.29,84.5,269.69,84.5,267.41z"/>
		<path fill="#E2231A" d="M101.33,272.04v2.85h-5.77v-28.84h5.77v10.87c1.48-2.01,3.53-3.53,6.69-3.53c4.94,0,9.65,3.88,9.65,10.9
			v0.08c0,7.03-4.64,10.94-9.65,10.94C104.79,275.31,102.78,273.79,101.33,272.04z M111.89,264.37v-0.08c0-3.61-2.43-6-5.32-6
			c-2.89,0-5.32,2.39-5.32,6v0.08c0,3.61,2.43,6,5.32,6C109.46,270.37,111.89,268.06,111.89,264.37z"/>
		<path fill="#E2231A" d="M121.21,268.82v-0.08c0-4.6,3.53-6.72,8.55-6.72c2.2,0,3.76,0.34,5.28,0.84v-0.38
			c0-2.58-1.6-3.99-4.67-3.99c-2.28,0-3.95,0.46-5.89,1.18l-1.44-4.41c2.32-1.03,4.64-1.71,8.17-1.71c3.23,0,5.58,0.87,7.1,2.36
			c1.56,1.56,2.28,3.88,2.28,6.69v12.31H135v-2.36c-1.44,1.63-3.5,2.77-6.46,2.77C124.55,275.31,121.21,273,121.21,268.82z
			 M135.11,267.41v-1.14c-1.06-0.46-2.47-0.8-4.03-0.8c-2.66,0-4.29,1.1-4.29,3.04v0.08c0,1.71,1.44,2.7,3.46,2.7
			C133.14,271.29,135.11,269.69,135.11,267.41z"/>
		<path fill="#E2231A" d="M144.5,272.12l2.51-3.84c2.28,1.67,4.71,2.55,6.69,2.55c1.82,0,2.7-0.68,2.7-1.71v-0.08
			c0-1.37-2.09-1.82-4.45-2.54c-3-0.87-6.38-2.24-6.38-6.31v-0.08c0-4.25,3.46-6.65,7.71-6.65c2.66,0,5.55,0.91,7.83,2.43l-2.2,3.99
			c-2.09-1.22-4.18-1.98-5.78-1.98c-1.52,0-2.36,0.68-2.36,1.6v0.08c0,1.25,2.09,1.82,4.41,2.62c2.96,0.95,6.42,2.36,6.42,6.23v0.08
			c0,4.63-3.5,6.76-8.06,6.76C150.58,275.27,147.27,274.29,144.5,272.12z"/>
		<path fill="#E2231A" d="M165.29,264.45v-0.08c0-6.04,4.29-10.98,10.41-10.98c6.99,0,10.26,5.43,10.26,11.44
			c0,0.46-0.04,0.99-0.08,1.52h-14.86c0.57,2.89,2.55,4.37,5.32,4.37c2.09,0,3.57-0.65,5.24-2.2l3.31,2.93
			c-1.98,2.43-4.79,3.91-8.62,3.91C169.96,275.35,165.29,270.91,165.29,264.45z M180.33,262.74c-0.38-2.77-1.98-4.71-4.64-4.71
			c-2.58,0-4.29,1.86-4.75,4.71H180.33z"/>
	</g>
</g>
<g>
	<g>
		<path fill="#E2231A" d="M377.18,261.14v-0.08c0-7.86,5.93-14.29,14.4-14.29c5.21,0,8.32,1.71,10.9,4.26l-3.72,4.29
			c-2.17-1.98-4.37-3.19-7.22-3.19c-4.79,0-8.24,3.99-8.24,8.85v0.08c0,4.86,3.38,8.93,8.24,8.93c3.23,0,5.21-1.29,7.41-3.31
			l3.72,3.76c-2.85,3-6,4.9-11.32,4.9C383.22,275.35,377.18,269.08,377.18,261.14z"/>
		<path fill="#E2231A" d="M405.87,264.45v-0.08c0-6.04,4.86-10.98,11.44-10.98c6.5,0,11.32,4.86,11.32,10.9v0.08
			c0,6.08-4.86,10.98-11.44,10.98C410.7,275.35,405.87,270.53,405.87,264.45z M422.93,264.45v-0.08c0-3.23-2.32-6-5.74-6
			c-3.5,0-5.62,2.7-5.62,5.93v0.08c0,3.23,2.32,6.04,5.74,6.04C420.8,270.41,422.93,267.68,422.93,264.45z"/>
		<path fill="#E2231A" d="M433.38,253.77h5.78v4.37c1.25-2.96,3.3-4.9,6.88-4.75v6.04h-0.3c-4.03,0-6.57,2.47-6.57,7.6v7.87h-5.78
			V253.77z"/>
		<path fill="#E2231A" d="M448.54,264.45v-0.08c0-6.04,4.29-10.98,10.41-10.98c6.99,0,10.26,5.43,10.26,11.44
			c0,0.46-0.04,0.99-0.08,1.52h-14.86c0.57,2.89,2.55,4.37,5.32,4.37c2.09,0,3.57-0.65,5.24-2.2l3.31,2.93
			c-1.98,2.43-4.79,3.91-8.62,3.91C453.22,275.35,448.54,270.91,448.54,264.45z M463.59,262.74c-0.38-2.77-1.98-4.71-4.64-4.71
			c-2.58,0-4.29,1.86-4.75,4.71H463.59z"/>
		<path fill="#E2231A" d="M486.85,247.23h20.94v5.32h-15.12v6.19h13.37v5.32h-13.37v10.83h-5.81V247.23z"/>
		<path fill="#E2231A" d="M512.53,246.09h6.08v5.17h-6.08V246.09z M512.73,253.77h5.74v21.12h-5.74V253.77z"/>
		<path fill="#E2231A" d="M524.85,246.06h5.74v28.84h-5.74V246.06z"/>
		<path fill="#E2231A" d="M535.64,264.45v-0.08c0-6.04,4.29-10.98,10.41-10.98c6.99,0,10.26,5.43,10.26,11.44
			c0,0.46-0.04,0.99-0.08,1.52h-14.86c0.57,2.89,2.55,4.37,5.32,4.37c2.09,0,3.57-0.65,5.24-2.2l3.31,2.93
			c-1.98,2.43-4.79,3.91-8.62,3.91C540.31,275.35,535.64,270.91,535.64,264.45z M550.69,262.74c-0.38-2.77-1.98-4.71-4.64-4.71
			c-2.58,0-4.29,1.86-4.75,4.71H550.69z"/>
		<path fill="#E2231A" d="M559.46,272.12l2.51-3.84c2.28,1.67,4.71,2.55,6.69,2.55c1.82,0,2.7-0.68,2.7-1.71v-0.08
			c0-1.37-2.09-1.82-4.45-2.54c-3-0.87-6.38-2.24-6.38-6.31v-0.08c0-4.25,3.46-6.65,7.71-6.65c2.66,0,5.55,0.91,7.83,2.43l-2.2,3.99
			c-2.09-1.22-4.18-1.98-5.78-1.98c-1.52,0-2.36,0.68-2.36,1.6v0.08c0,1.25,2.09,1.82,4.41,2.62c2.96,0.95,6.42,2.36,6.42,6.23v0.08
			c0,4.63-3.5,6.76-8.05,6.76C565.54,275.27,562.24,274.29,559.46,272.12z"/>
	</g>
</g>
</svg>
